<?xml version="1.0" encoding="UTF-8"?>
<!DOCTYPE svg PUBLIC "-//W3C//DTD SVG 1.1//EN" "http://www.w3.org/Graphics/SVG/1.1/DTD/svg11.dtd">
<svg xmlns="http://www.w3.org/2000/svg" version="1.1" width="256px" height="256px" style="shape-rendering:geometricPrecision; text-rendering:geometricPrecision; image-rendering:optimizeQuality; fill-rule:evenodd; clip-rule:evenodd" xmlns:xlink="http://www.w3.org/1999/xlink">
<g><path style="opacity:1" fill="#fefffe" d="M 114.5,10.5 C 124.51,8.75433 131.677,12.421 136,21.5C 136.034,49.4769 136.367,77.4769 137,105.5C 138.252,108.014 138.752,110.68 138.5,113.5C 164.18,113.518 189.847,113.352 215.5,113C 231.137,117.444 236.304,127.277 231,142.5C 228.736,145.433 225.902,147.6 222.5,149C 216.833,149.667 211.167,149.667 205.5,149C 204.167,148.333 202.833,147.667 201.5,147C 180.836,146.5 160.169,146.333 139.5,146.5C 139.606,173.881 140.106,201.214 141,228.5C 137.989,243.923 129.156,248.756 114.5,243C 111.567,240.736 109.4,237.902 108,234.5C 106.947,219.853 106.28,205.186 106,190.5C 104.667,186.5 103.333,182.5 102,178.5C 100.682,167.79 99.5157,157.124 98.5,146.5C 87.2214,148.312 75.8881,149.812 64.5,151C 51.1569,151.587 37.8236,151.92 24.5,152C 13.3111,146.332 10.4778,137.832 16,126.5C 18.2643,123.567 21.0976,121.4 24.5,120C 49.8967,118.29 75.23,115.79 100.5,112.5C 100.435,99.3869 101.435,86.3869 103.5,73.5C 103.575,65.7434 102.908,58.0767 101.5,50.5C 102.087,41.8386 102.587,33.1719 103,24.5C 104.873,18.1358 108.706,13.4691 114.5,10.5 Z"/></g>
</svg>
