<?xml version="1.0" encoding="UTF-8"?>
<!DOCTYPE svg PUBLIC "-//W3C//DTD SVG 1.1//EN" "http://www.w3.org/Graphics/SVG/1.1/DTD/svg11.dtd">
<svg xmlns="http://www.w3.org/2000/svg" version="1.1" width="520px" height="520px" style="shape-rendering:geometricPrecision; text-rendering:geometricPrecision; image-rendering:optimizeQuality; fill-rule:evenodd; clip-rule:evenodd" xmlns:xlink="http://www.w3.org/1999/xlink">
<g><path style="opacity:1" fill="#1da0f2" d="M 226.5,75.5 C 234.238,75.1439 241.905,75.6439 249.5,77C 264.642,84.7957 269.808,96.9624 265,113.5C 259.637,124.52 250.804,130.353 238.5,131C 221.985,138.755 206.985,148.755 193.5,161C 185.5,166.333 177.5,171.667 169.5,177C 162.354,182.645 155.354,188.478 148.5,194.5C 141.049,203.453 133.049,211.953 124.5,220C 164.781,221.999 205.114,223.332 245.5,224C 257.775,226.807 270.108,227.14 282.5,225C 314.833,224.667 347.167,224.333 379.5,224C 408.119,221.072 436.786,220.739 465.5,223C 481.748,228.275 488.581,239.441 486,256.5C 480.87,272.103 470.036,279.103 453.5,277.5C 431.11,275.87 408.776,276.37 386.5,279C 346.462,279 306.462,279.834 266.5,281.5C 256.726,281.794 247.059,280.961 237.5,279C 203.111,278.325 168.778,277.325 134.5,276C 172.992,296.499 210.992,317.833 248.5,340C 261.186,349.243 265.353,361.409 261,376.5C 251.708,393.206 238.208,397.706 220.5,390C 217.872,388.374 215.539,386.374 213.5,384C 185.929,368.766 158.596,353.099 131.5,337C 109.956,327.898 89.9561,316.231 71.5,302C 58.5002,291.999 48.0002,279.833 40,265.5C 37.7104,256.288 37.0437,246.955 38,237.5C 42.4597,226.581 48.4597,216.581 56,207.5C 76.1667,190 95,171.167 112.5,151C 120.414,145.756 127.748,139.756 134.5,133C 151.39,122.109 167.723,110.443 183.5,98C 197.085,88.8758 211.419,81.3758 226.5,75.5 Z"/></g>
</svg>
