<?xml version="1.0" encoding="UTF-8"?>
<!DOCTYPE svg PUBLIC "-//W3C//DTD SVG 1.1//EN" "http://www.w3.org/Graphics/SVG/1.1/DTD/svg11.dtd">
<svg xmlns="http://www.w3.org/2000/svg" version="1.1" width="4096px" height="4096px" style="shape-rendering:geometricPrecision; text-rendering:geometricPrecision; image-rendering:optimizeQuality; fill-rule:evenodd; clip-rule:evenodd" xmlns:xlink="http://www.w3.org/1999/xlink">
<g><path style="opacity:1" fill="#1da0f2" d="M 2592.5,387.5 C 2659.02,388.081 2725.52,388.081 2792,387.5C 2826.96,387.625 2860.79,393.791 2893.5,406C 2908.49,413.827 2923.16,422.161 2937.5,431C 2942.79,434.62 2947.79,438.62 2952.5,443C 2962.11,447.139 2971.45,451.806 2980.5,457C 2992.65,466.576 3004.99,475.91 3017.5,485C 3027.63,492.458 3038.3,499.125 3049.5,505C 3060.46,513.624 3071.13,522.624 3081.5,532C 3095.5,542 3109.5,552 3123.5,562C 3133.52,565.51 3143.19,569.843 3152.5,575C 3162.5,582 3172.5,589 3182.5,596C 3196.49,607.657 3210.16,619.657 3223.5,632C 3241.44,640.276 3256.77,651.943 3269.5,667C 3277.37,670.877 3284.7,675.544 3291.5,681C 3310.76,696.251 3329.42,712.251 3347.5,729C 3359.45,737.281 3371.12,745.948 3382.5,755C 3399.68,771.877 3416.51,789.044 3433,806.5C 3439.08,814.325 3444.42,822.658 3449,831.5C 3461.73,847.3 3473.73,863.634 3485,880.5C 3489.84,888.181 3494.18,896.181 3498,904.5C 3504.72,922.279 3511.72,939.946 3519,957.5C 3521.07,963.048 3522.74,968.715 3524,974.5C 3527.82,994.944 3532.16,1015.28 3537,1035.5C 3537.73,1042.49 3538.39,1049.49 3539,1056.5C 3544.71,1074.04 3547.71,1092.04 3548,1110.5C 3554.55,1130.97 3557.88,1151.97 3558,1173.5C 3562.77,1190.05 3564.27,1206.89 3562.5,1224C 3563.31,1237.65 3563.98,1251.32 3564.5,1265C 3563.17,1418 3563.17,1571 3564.5,1724C 3564.41,1736.76 3562.57,1749.26 3559,1761.5C 3556,1769.84 3553,1778.18 3550,1786.5C 3550.26,1814.7 3544.09,1841.37 3531.5,1866.5C 3533.17,1883.1 3531.67,1899.44 3527,1915.5C 3520.86,1934.91 3514.53,1954.24 3508,1973.5C 3505.61,1979.29 3502.94,1984.95 3500,1990.5C 3497.53,2008.58 3491.86,2025.58 3483,2041.5C 3477.46,2066.2 3471.79,2090.86 3466,2115.5C 3460.49,2130.19 3454.16,2144.52 3447,2158.5C 3445.18,2179.44 3439.18,2199.11 3429,2217.5C 3427.29,2226.34 3424.96,2235 3422,2243.5C 3408.91,2272.42 3399.25,2302.42 3393,2333.5C 3388.87,2345.01 3385.2,2356.68 3382,2368.5C 3375.86,2382.58 3369.53,2396.58 3363,2410.5C 3358.8,2427.09 3353.8,2443.43 3348,2459.5C 3344.67,2466.83 3341.33,2474.17 3338,2481.5C 3334.87,2500.14 3331.87,2518.81 3329,2537.5C 3326.04,2549.92 3321.54,2561.75 3315.5,2573C 3315.46,2588.81 3315.63,2604.64 3316,2620.5C 3315.08,2632.12 3312.74,2643.46 3309,2654.5C 3308.67,2661.18 3308.17,2667.85 3307.5,2674.5C 3307.77,2693.82 3307.94,2713.15 3308,2732.5C 3309.23,2736.06 3310.89,2739.39 3313,2742.5C 3323.75,2751.24 3333.08,2761.24 3341,2772.5C 3354.2,2784.19 3368.7,2794.02 3384.5,2802C 3392.89,2808.72 3401.55,2815.05 3410.5,2821C 3423.63,2827.4 3436.63,2834.06 3449.5,2841C 3459.44,2847.94 3468.44,2855.94 3476.5,2865C 3488.18,2872.17 3500.18,2878.84 3512.5,2885C 3520.29,2891.45 3528.62,2897.12 3537.5,2902C 3541.5,2905.33 3545.5,2908.67 3549.5,2912C 3562,2919.75 3574.34,2927.75 3586.5,2936C 3596.31,2946.14 3606.48,2955.98 3617,2965.5C 3621.79,2971.96 3626.96,2978.13 3632.5,2984C 3643.55,2993.38 3654.88,3002.38 3666.5,3011C 3673.33,3019.17 3680.83,3026.67 3689,3033.5C 3695.58,3042.75 3702.92,3051.42 3711,3059.5C 3718.53,3069.38 3724.86,3080.05 3730,3091.5C 3735.61,3108.32 3741.61,3124.99 3748,3141.5C 3764.63,3192.33 3755.63,3237.99 3721,3278.5C 3714.13,3285.04 3706.96,3291.21 3699.5,3297C 3684.66,3305.59 3669.66,3313.92 3654.5,3322C 3642.06,3326.39 3629.72,3331.06 3617.5,3336C 3606,3338.39 3594.67,3341.39 3583.5,3345C 3572.28,3347.26 3560.95,3348.59 3549.5,3349C 3531.96,3353.84 3514.3,3358.17 3496.5,3362C 3484.51,3363.56 3472.51,3363.89 3460.5,3363C 3451.97,3365.07 3443.64,3367.73 3435.5,3371C 3422.65,3374.18 3409.65,3376.52 3396.5,3378C 3378.67,3383.58 3360.67,3388.58 3342.5,3393C 3330.19,3394.09 3317.86,3394.75 3305.5,3395C 3282.68,3398.9 3260.01,3403.56 3237.5,3409C 3222,3410.21 3206.5,3411.37 3191,3412.5C 3052.32,3412.27 2913.66,3411.94 2775,3411.5C 2774.05,3411.91 2773.39,3412.57 2773,3413.5C 2772.71,3427.75 2770.71,3441.75 2767,3455.5C 2759.66,3475.51 2752.33,3495.51 2745,3515.5C 2741.59,3522.66 2737.92,3529.66 2734,3536.5C 2727.25,3547.01 2720.25,3557.34 2713,3567.5C 2704.29,3587.26 2694.29,3606.26 2683,3624.5C 2673.05,3637.46 2662.71,3650.12 2652,3662.5C 2637.5,3677 2623,3691.5 2608.5,3706C 2593.58,3719.3 2576.58,3729.3 2557.5,3736C 2536.39,3752.55 2512.39,3761.88 2485.5,3764C 2401.4,3763.5 2317.23,3763.66 2233,3764.5C 2211.82,3763.23 2190.65,3762.73 2169.5,3763C 2160.01,3762.24 2150.68,3760.57 2141.5,3758C 2126.89,3751.8 2111.89,3746.8 2096.5,3743C 2061.43,3731.2 2026.43,3719.2 1991.5,3707C 1975.84,3701.11 1960.5,3694.44 1945.5,3687C 1930.99,3676.48 1914.99,3668.82 1897.5,3664C 1890.34,3660.59 1883.34,3656.92 1876.5,3653C 1846.8,3633.22 1818.63,3611.39 1792,3587.5C 1781.65,3577.14 1771.98,3566.14 1763,3554.5C 1757.55,3545.94 1752.89,3536.94 1749,3527.5C 1736.18,3511.87 1724.85,3495.21 1715,3477.5C 1699.09,3456.25 1682.43,3435.59 1665,3415.5C 1658.66,3407.5 1653.33,3398.84 1649,3389.5C 1632.71,3371.59 1621.04,3350.93 1614,3327.5C 1601.33,3310.17 1593.33,3290.83 1590,3269.5C 1587.85,3247.84 1587.51,3226.18 1589,3204.5C 1590.76,3195.81 1592.6,3187.48 1594.5,3179.5C 1584.52,3180.69 1574.52,3180.52 1564.5,3179C 1552.7,3176.63 1541.04,3173.8 1529.5,3170.5C 1516.01,3171.3 1502.51,3171.97 1489,3172.5C 1462,3171.17 1435,3171.17 1408,3172.5C 1377.5,3170.95 1347.17,3167.95 1317,3163.5C 1158.36,3164.15 999.697,3164.49 841,3164.5C 827.489,3163.97 813.989,3163.3 800.5,3162.5C 787.011,3163.3 773.511,3163.97 760,3164.5C 639.896,3164.05 519.729,3163.88 399.5,3164C 390.009,3163.24 380.676,3161.57 371.5,3159C 352.62,3153.04 334.287,3145.71 316.5,3137C 301.167,3126 285.833,3115 270.5,3104C 256.825,3099 243.825,3092.66 231.5,3085C 220.167,3075.67 208.833,3066.33 197.5,3057C 162.166,3020.55 148.666,2977.05 157,2926.5C 160.658,2888.68 176.825,2857.51 205.5,2833C 218.006,2824.91 230.339,2816.58 242.5,2808C 259.292,2798.4 277.292,2792.4 296.5,2790C 309.843,2783.55 323.51,2777.89 337.5,2773C 350.167,2766.33 362.833,2759.67 375.5,2753C 380.091,2751.14 384.757,2749.47 389.5,2748C 406.39,2737.11 422.723,2725.44 438.5,2713C 446.221,2708.47 454.221,2704.47 462.5,2701C 478.716,2689.05 494.383,2676.39 509.5,2663C 516.298,2657.54 523.631,2652.88 531.5,2649C 542.475,2638.36 553.142,2627.36 563.5,2616C 569.884,2610.62 576.55,2605.62 583.5,2601C 591.711,2591.79 599.544,2582.29 607,2572.5C 615.69,2564.81 624.023,2556.81 632,2548.5C 647.783,2525.28 661.783,2500.94 674,2475.5C 677.296,2453.25 685.296,2432.92 698,2414.5C 699.732,2406.97 702.065,2399.64 705,2392.5C 716.192,2372.12 726.859,2351.45 737,2330.5C 740.031,2311.44 746.698,2293.78 757,2277.5C 761.414,2265.26 766.414,2253.26 772,2241.5C 773.767,2222.03 779.267,2203.7 788.5,2186.5C 786.271,2165.8 789.104,2145.8 797,2126.5C 797.622,2113.94 799.622,2101.61 803,2089.5C 803.334,2079.48 804.001,2069.48 805,2059.5C 807.478,2049.25 809.478,2038.92 811,2028.5C 811.353,2012.17 812.02,1995.84 813,1979.5C 819.681,1945.1 828.014,1911.1 838,1877.5C 844.196,1862.11 851.196,1847.11 859,1832.5C 860.862,1823.58 863.529,1814.91 867,1806.5C 872.72,1795.34 878.053,1784 883,1772.5C 884.917,1754.42 890.251,1737.42 899,1721.5C 900.539,1714.14 902.206,1706.8 904,1699.5C 909.261,1686.72 913.928,1673.72 918,1660.5C 922.491,1649.51 928.491,1639.51 936,1630.5C 947.937,1597.62 964.27,1567.28 985,1539.5C 992,1531.17 999.667,1523.5 1008,1516.5C 1014.75,1507.08 1022.25,1498.25 1030.5,1490C 1041.5,1481 1052.5,1472 1063.5,1463C 1072.59,1457.71 1081.75,1452.54 1091,1447.5C 1095.49,1414.52 1104.49,1382.86 1118,1352.5C 1122.25,1338.57 1126.25,1324.57 1130,1310.5C 1134.78,1300.82 1138.78,1290.82 1142,1280.5C 1160.74,1240.68 1179.74,1201.01 1199,1161.5C 1208.17,1138.15 1218.17,1115.15 1229,1092.5C 1239.5,1075.49 1250.5,1058.82 1262,1042.5C 1266.43,1027.21 1272.43,1012.55 1280,998.5C 1287.09,988.668 1293.42,978.334 1299,967.5C 1317.67,942.167 1336.33,916.833 1355,891.5C 1362.42,880.999 1369.09,869.999 1375,858.5C 1388,841.5 1401,824.5 1414,807.5C 1423.93,797.9 1431.93,786.9 1438,774.5C 1447.33,762.5 1456.67,750.5 1466,738.5C 1476.03,728.465 1487.2,719.965 1499.5,713C 1517.67,693.5 1536.5,674.667 1556,656.5C 1558.33,653.5 1560.67,650.5 1563,647.5C 1574.49,638.01 1585.32,627.844 1595.5,617C 1606.83,609.333 1618.17,601.667 1629.5,594C 1635.68,590.412 1642.01,587.078 1648.5,584C 1668.11,564.859 1691.44,552.525 1718.5,547C 1725.51,542.492 1732.85,538.492 1740.5,535C 1765.16,524.839 1789.49,513.839 1813.5,502C 1830.85,496.196 1848.52,491.529 1866.5,488C 1877.33,481.918 1888.67,476.918 1900.5,473C 1927.05,467.357 1953.71,462.357 1980.5,458C 1991.82,454.674 2003.16,451.34 2014.5,448C 2024.73,445.943 2035.07,444.61 2045.5,444C 2090.71,431.947 2136.38,421.947 2182.5,414C 2199.16,412.898 2215.82,411.898 2232.5,411C 2241.3,407.885 2250.3,405.551 2259.5,404C 2301.87,399.213 2344.37,396.046 2387,394.5C 2427.53,395.699 2468.03,396.366 2508.5,396.5C 2536.53,392.279 2564.53,389.279 2592.5,387.5 Z"/></g>
</svg>
