<?xml version="1.0" encoding="UTF-8"?>
<!DOCTYPE svg PUBLIC "-//W3C//DTD SVG 1.1//EN" "http://www.w3.org/Graphics/SVG/1.1/DTD/svg11.dtd">
<svg xmlns="http://www.w3.org/2000/svg" version="1.1" width="4096px" height="4096px" style="shape-rendering:geometricPrecision; text-rendering:geometricPrecision; image-rendering:optimizeQuality; fill-rule:evenodd; clip-rule:evenodd" xmlns:xlink="http://www.w3.org/1999/xlink">
<g><path style="opacity:1" fill="#fefffe" d="M 2592.5,387.5 C 2659.02,388.081 2725.52,388.081 2792,387.5C 2826.96,387.625 2860.79,393.791 2893.5,406C 2908.49,413.827 2923.16,422.161 2937.5,431C 2942.79,434.62 2947.79,438.62 2952.5,443C 2962.11,447.139 2971.45,451.806 2980.5,457C 2992.65,466.576 3004.99,475.91 3017.5,485C 3027.63,492.458 3038.3,499.125 3049.5,505C 3060.46,513.624 3071.13,522.624 3081.5,532C 3095.5,542 3109.5,552 3123.5,562C 3133.52,565.51 3143.19,569.843 3152.5,575C 3162.5,582 3172.5,589 3182.5,596C 3196.49,607.657 3210.16,619.657 3223.5,632C 3241.44,640.276 3256.77,651.943 3269.5,667C 3277.37,670.877 3284.7,675.544 3291.5,681C 3310.76,696.251 3329.42,712.251 3347.5,729C 3359.45,737.281 3371.12,745.948 3382.5,755C 3399.68,771.877 3416.51,789.044 3433,806.5C 3439.08,814.325 3444.42,822.658 3449,831.5C 3461.73,847.3 3473.73,863.634 3485,880.5C 3489.84,888.181 3494.18,896.181 3498,904.5C 3504.72,922.279 3511.72,939.946 3519,957.5C 3521.07,963.048 3522.74,968.715 3524,974.5C 3527.82,994.944 3532.16,1015.28 3537,1035.5C 3537.73,1042.49 3538.39,1049.49 3539,1056.5C 3544.71,1074.04 3547.71,1092.04 3548,1110.5C 3554.55,1130.97 3557.88,1151.97 3558,1173.5C 3562.77,1190.05 3564.27,1206.89 3562.5,1224C 3563.31,1237.65 3563.98,1251.32 3564.5,1265C 3563.17,1418 3563.17,1571 3564.5,1724C 3564.41,1736.76 3562.57,1749.26 3559,1761.5C 3556,1769.84 3553,1778.18 3550,1786.5C 3550.26,1814.7 3544.09,1841.37 3531.5,1866.5C 3533.17,1883.1 3531.67,1899.44 3527,1915.5C 3520.86,1934.91 3514.53,1954.24 3508,1973.5C 3505.61,1979.29 3502.94,1984.95 3500,1990.5C 3497.53,2008.58 3491.86,2025.58 3483,2041.5C 3477.46,2066.2 3471.79,2090.86 3466,2115.5C 3460.49,2130.19 3454.16,2144.52 3447,2158.5C 3445.18,2179.44 3439.18,2199.11 3429,2217.5C 3427.29,2226.34 3424.96,2235 3422,2243.5C 3408.91,2272.42 3399.25,2302.42 3393,2333.5C 3388.87,2345.01 3385.2,2356.68 3382,2368.5C 3375.86,2382.58 3369.53,2396.58 3363,2410.5C 3358.8,2427.09 3353.8,2443.43 3348,2459.5C 3344.67,2466.83 3341.33,2474.17 3338,2481.5C 3334.87,2500.14 3331.87,2518.81 3329,2537.5C 3326.04,2549.92 3321.54,2561.75 3315.5,2573C 3315.46,2588.81 3315.63,2604.64 3316,2620.5C 3315.08,2632.12 3312.74,2643.46 3309,2654.5C 3308.67,2661.18 3308.17,2667.85 3307.5,2674.5C 3307.77,2693.82 3307.94,2713.15 3308,2732.5C 3309.23,2736.06 3310.89,2739.39 3313,2742.5C 3323.75,2751.24 3333.08,2761.24 3341,2772.5C 3354.2,2784.19 3368.7,2794.02 3384.5,2802C 3392.89,2808.72 3401.55,2815.05 3410.5,2821C 3423.63,2827.4 3436.63,2834.06 3449.5,2841C 3459.44,2847.94 3468.44,2855.94 3476.5,2865C 3488.18,2872.17 3500.18,2878.84 3512.5,2885C 3520.29,2891.45 3528.62,2897.12 3537.5,2902C 3541.5,2905.33 3545.5,2908.67 3549.5,2912C 3562,2919.75 3574.34,2927.75 3586.5,2936C 3596.31,2946.14 3606.48,2955.98 3617,2965.5C 3621.79,2971.96 3626.96,2978.13 3632.5,2984C 3643.55,2993.38 3654.88,3002.38 3666.5,3011C 3673.33,3019.17 3680.83,3026.67 3689,3033.5C 3695.58,3042.75 3702.92,3051.42 3711,3059.5C 3718.53,3069.38 3724.86,3080.05 3730,3091.5C 3735.61,3108.32 3741.61,3124.99 3748,3141.5C 3764.63,3192.33 3755.63,3237.99 3721,3278.5C 3714.13,3285.04 3706.96,3291.21 3699.5,3297C 3684.66,3305.59 3669.66,3313.92 3654.5,3322C 3642.06,3326.39 3629.72,3331.06 3617.5,3336C 3606,3338.39 3594.67,3341.39 3583.5,3345C 3572.28,3347.26 3560.95,3348.59 3549.5,3349C 3531.96,3353.84 3514.3,3358.17 3496.5,3362C 3484.51,3363.56 3472.51,3363.89 3460.5,3363C 3451.97,3365.07 3443.64,3367.73 3435.5,3371C 3422.65,3374.18 3409.65,3376.52 3396.5,3378C 3378.67,3383.58 3360.67,3388.58 3342.5,3393C 3330.19,3394.09 3317.86,3394.75 3305.5,3395C 3282.68,3398.9 3260.01,3403.56 3237.5,3409C 3222,3410.21 3206.5,3411.37 3191,3412.5C 3052.32,3412.27 2913.66,3411.94 2775,3411.5C 2774.05,3411.91 2773.39,3412.57 2773,3413.5C 2772.71,3427.75 2770.71,3441.75 2767,3455.5C 2759.66,3475.51 2752.33,3495.51 2745,3515.5C 2741.59,3522.66 2737.92,3529.66 2734,3536.5C 2727.25,3547.01 2720.25,3557.34 2713,3567.5C 2704.29,3587.26 2694.29,3606.26 2683,3624.5C 2673.05,3637.46 2662.71,3650.12 2652,3662.5C 2637.5,3677 2623,3691.5 2608.5,3706C 2593.58,3719.3 2576.58,3729.3 2557.5,3736C 2536.39,3752.55 2512.39,3761.88 2485.5,3764C 2401.4,3763.5 2317.23,3763.66 2233,3764.5C 2211.82,3763.23 2190.65,3762.73 2169.5,3763C 2160.01,3762.24 2150.68,3760.57 2141.5,3758C 2126.89,3751.8 2111.89,3746.8 2096.5,3743C 2061.43,3731.2 2026.43,3719.2 1991.5,3707C 1975.84,3701.11 1960.5,3694.44 1945.5,3687C 1930.99,3676.48 1914.99,3668.82 1897.5,3664C 1890.34,3660.59 1883.34,3656.92 1876.5,3653C 1846.8,3633.22 1818.63,3611.39 1792,3587.5C 1781.65,3577.14 1771.98,3566.14 1763,3554.5C 1757.55,3545.94 1752.89,3536.94 1749,3527.5C 1736.18,3511.87 1724.85,3495.21 1715,3477.5C 1699.09,3456.25 1682.43,3435.59 1665,3415.5C 1658.66,3407.5 1653.33,3398.84 1649,3389.5C 1632.71,3371.59 1621.04,3350.93 1614,3327.5C 1601.33,3310.17 1593.33,3290.83 1590,3269.5C 1587.85,3247.84 1587.51,3226.18 1589,3204.5C 1590.76,3195.81 1592.6,3187.48 1594.5,3179.5C 1584.52,3180.69 1574.52,3180.52 1564.5,3179C 1552.7,3176.63 1541.04,3173.8 1529.5,3170.5C 1516.01,3171.3 1502.51,3171.97 1489,3172.5C 1462,3171.17 1435,3171.17 1408,3172.5C 1377.5,3170.95 1347.17,3167.95 1317,3163.5C 1158.36,3164.15 999.697,3164.49 841,3164.5C 827.489,3163.97 813.989,3163.3 800.5,3162.5C 787.011,3163.3 773.511,3163.97 760,3164.5C 639.896,3164.05 519.729,3163.88 399.5,3164C 390.009,3163.24 380.676,3161.57 371.5,3159C 352.62,3153.04 334.287,3145.71 316.5,3137C 301.167,3126 285.833,3115 270.5,3104C 256.825,3099 243.825,3092.66 231.5,3085C 220.167,3075.67 208.833,3066.33 197.5,3057C 162.166,3020.55 148.666,2977.05 157,2926.5C 160.658,2888.68 176.825,2857.51 205.5,2833C 218.006,2824.91 230.339,2816.58 242.5,2808C 259.292,2798.4 277.292,2792.4 296.5,2790C 309.843,2783.55 323.51,2777.89 337.5,2773C 350.167,2766.33 362.833,2759.67 375.5,2753C 380.091,2751.14 384.757,2749.47 389.5,2748C 406.39,2737.11 422.723,2725.44 438.5,2713C 446.221,2708.47 454.221,2704.47 462.5,2701C 478.716,2689.05 494.383,2676.39 509.5,2663C 516.298,2657.54 523.631,2652.88 531.5,2649C 542.475,2638.36 553.142,2627.36 563.5,2616C 569.884,2610.62 576.55,2605.62 583.5,2601C 591.711,2591.79 599.544,2582.29 607,2572.5C 615.69,2564.81 624.023,2556.81 632,2548.5C 647.783,2525.28 661.783,2500.94 674,2475.5C 677.296,2453.25 685.296,2432.92 698,2414.5C 699.732,2406.97 702.065,2399.64 705,2392.5C 716.192,2372.12 726.859,2351.45 737,2330.5C 740.031,2311.44 746.698,2293.78 757,2277.5C 761.414,2265.26 766.414,2253.26 772,2241.5C 773.767,2222.03 779.267,2203.7 788.5,2186.5C 786.271,2165.8 789.104,2145.8 797,2126.5C 797.622,2113.94 799.622,2101.61 803,2089.5C 803.334,2079.48 804.001,2069.48 805,2059.5C 807.478,2049.25 809.478,2038.92 811,2028.5C 811.353,2012.17 812.02,1995.84 813,1979.5C 819.681,1945.1 828.014,1911.1 838,1877.5C 844.196,1862.11 851.196,1847.11 859,1832.5C 860.862,1823.58 863.529,1814.91 867,1806.5C 872.72,1795.34 878.053,1784 883,1772.5C 884.917,1754.42 890.251,1737.42 899,1721.5C 900.539,1714.14 902.206,1706.8 904,1699.5C 909.261,1686.72 913.928,1673.72 918,1660.5C 922.491,1649.51 928.491,1639.51 936,1630.5C 947.937,1597.62 964.27,1567.28 985,1539.5C 992,1531.17 999.667,1523.5 1008,1516.5C 1014.75,1507.08 1022.25,1498.25 1030.5,1490C 1041.5,1481 1052.5,1472 1063.5,1463C 1072.59,1457.71 1081.75,1452.54 1091,1447.5C 1095.49,1414.52 1104.49,1382.86 1118,1352.5C 1122.25,1338.57 1126.25,1324.57 1130,1310.5C 1134.78,1300.82 1138.78,1290.82 1142,1280.5C 1160.74,1240.68 1179.74,1201.01 1199,1161.5C 1208.17,1138.15 1218.17,1115.15 1229,1092.5C 1239.5,1075.49 1250.5,1058.82 1262,1042.5C 1266.43,1027.21 1272.43,1012.55 1280,998.5C 1287.09,988.668 1293.42,978.334 1299,967.5C 1317.67,942.167 1336.33,916.833 1355,891.5C 1362.42,880.999 1369.09,869.999 1375,858.5C 1388,841.5 1401,824.5 1414,807.5C 1423.93,797.9 1431.93,786.9 1438,774.5C 1447.33,762.5 1456.67,750.5 1466,738.5C 1476.03,728.465 1487.2,719.965 1499.5,713C 1517.67,693.5 1536.5,674.667 1556,656.5C 1558.33,653.5 1560.67,650.5 1563,647.5C 1574.49,638.01 1585.32,627.844 1595.5,617C 1606.83,609.333 1618.17,601.667 1629.5,594C 1635.68,590.412 1642.01,587.078 1648.5,584C 1668.11,564.859 1691.44,552.525 1718.5,547C 1725.51,542.492 1732.85,538.492 1740.5,535C 1765.16,524.839 1789.49,513.839 1813.5,502C 1830.85,496.196 1848.52,491.529 1866.5,488C 1877.33,481.918 1888.67,476.918 1900.5,473C 1927.05,467.357 1953.71,462.357 1980.5,458C 1991.82,454.674 2003.16,451.34 2014.5,448C 2024.73,445.943 2035.07,444.61 2045.5,444C 2090.71,431.947 2136.38,421.947 2182.5,414C 2199.16,412.898 2215.82,411.898 2232.5,411C 2241.3,407.885 2250.3,405.551 2259.5,404C 2301.87,399.213 2344.37,396.046 2387,394.5C 2427.53,395.699 2468.03,396.366 2508.5,396.5C 2536.53,392.279 2564.53,389.279 2592.5,387.5 Z M 2611.5,651.5 C 2667.18,651.913 2722.85,651.913 2778.5,651.5C 2783.94,651.875 2789.27,652.709 2794.5,654C 2808.57,666.709 2824.57,676.376 2842.5,683C 2853.83,691.667 2865.17,700.333 2876.5,709C 2889.26,715.38 2900.59,723.713 2910.5,734C 2935.45,751.279 2960.11,768.945 2984.5,787C 2995.49,793.996 3007.16,799.663 3019.5,804C 3034.17,817.333 3048.83,830.667 3063.5,844C 3071.5,850.336 3080.16,855.67 3089.5,860C 3103.08,873.254 3118.08,884.588 3134.5,894C 3152.13,908.626 3169.46,923.626 3186.5,939C 3192.16,943.496 3198.16,947.496 3204.5,951C 3211.67,959.5 3219.5,967.333 3228,974.5C 3230.67,979.167 3233.33,983.833 3236,988.5C 3243.72,996.957 3250.72,1005.96 3257,1015.5C 3260.47,1024.25 3264.14,1032.91 3268,1041.5C 3270.03,1054.3 3272.7,1066.97 3276,1079.5C 3276.32,1094.09 3278.82,1108.26 3283.5,1122C 3281.47,1143.22 3284.64,1163.72 3293,1183.5C 3293.68,1197.4 3295.85,1211.07 3299.5,1224.5C 3298.74,1242.5 3299.07,1260.5 3300.5,1278.5C 3300.5,1314.5 3300.5,1350.5 3300.5,1386.5C 3297.83,1413.5 3297.83,1440.5 3300.5,1467.5C 3300.5,1503.5 3300.5,1539.5 3300.5,1575.5C 3299.7,1588.99 3299.03,1602.49 3298.5,1616C 3300.54,1644.84 3300.7,1673.68 3299,1702.5C 3296.93,1708.05 3295.26,1713.71 3294,1719.5C 3291.01,1734.78 3288.35,1750.11 3286,1765.5C 3278.49,1783.53 3273.16,1802.19 3270,1821.5C 3267.31,1835.03 3265.97,1848.69 3266,1862.5C 3264.84,1866.12 3263.84,1869.79 3263,1873.5C 3250.17,1893.33 3242.5,1914.99 3240,1938.5C 3235.89,1946.18 3232.55,1954.18 3230,1962.5C 3224.41,1985.78 3219.08,2009.11 3214,2032.5C 3205.94,2050.67 3198.28,2069 3191,2087.5C 3189.21,2094.8 3187.54,2102.14 3186,2109.5C 3177.59,2125.13 3172.59,2141.8 3171,2159.5C 3161.21,2183.53 3152.21,2207.86 3144,2232.5C 3141.24,2246.23 3138.24,2259.9 3135,2273.5C 3131.7,2281.43 3127.37,2288.76 3122,2295.5C 3111.57,2313.46 3105.57,2332.79 3104,2353.5C 3093.44,2367.96 3086.1,2383.96 3082,2401.5C 3078.93,2424.87 3075.59,2448.2 3072,2471.5C 3068.41,2478.59 3065.41,2485.93 3063,2493.5C 3059.92,2508.23 3056.59,2522.9 3053,2537.5C 3052.05,2554.17 3051.39,2570.84 3051,2587.5C 3046.67,2599.48 3044,2611.81 3043,2624.5C 3042.8,2641.18 3043.3,2657.85 3044.5,2674.5C 3042.43,2709.16 3042.6,2743.82 3045,2778.5C 3045.76,2787.99 3047.43,2797.32 3050,2806.5C 3055.43,2824.79 3062.43,2842.46 3071,2859.5C 3084.67,2877.83 3098.33,2896.17 3112,2914.5C 3119.33,2923.17 3127.33,2931.17 3136,2938.5C 3142,2945.83 3148,2953.17 3154,2960.5C 3167.5,2972 3181,2983.5 3194.5,2995C 3211.16,3007 3228.49,3018 3246.5,3028C 3251.21,3032.38 3256.21,3036.38 3261.5,3040C 3273.82,3046.16 3285.82,3052.83 3297.5,3060C 3304.52,3067.68 3312.18,3074.68 3320.5,3081C 3339.42,3090.93 3358.09,3101.27 3376.5,3112C 3373.91,3113.2 3371.24,3114.2 3368.5,3115C 3346,3117.79 3324,3122.79 3302.5,3130C 3267.31,3132.44 3232.64,3138.1 3198.5,3147C 3191.49,3147.32 3184.49,3147.82 3177.5,3148.5C 3051.5,3148.5 2925.5,3148.5 2799.5,3148.5C 2765.74,3144.32 2732.08,3139.49 2698.5,3134C 2680.51,3131.76 2662.51,3130.93 2644.5,3131.5C 2623.08,3125.64 2601.74,3119.48 2580.5,3113C 2525.74,3103.51 2471.07,3093.51 2416.5,3083C 2405.85,3077.51 2394.85,3072.84 2383.5,3069C 2360.36,3063.1 2337.02,3058.1 2313.5,3054C 2301.82,3053.08 2290.16,3052.08 2278.5,3051C 2260.92,3046.92 2243.25,3043.25 2225.5,3040C 2208.55,3033.85 2191.55,3027.85 2174.5,3022C 2157.17,3018.67 2139.83,3015.33 2122.5,3012C 2096.48,3004.6 2070.15,2998.6 2043.5,2994C 2032.18,2990.67 2020.84,2987.34 2009.5,2984C 1968.23,2975.95 1926.9,2968.28 1885.5,2961C 1874.57,2957.47 1863.57,2954.14 1852.5,2951C 1838.43,2949.13 1824.43,2946.8 1810.5,2944C 1789.4,2937.73 1768.07,2932.39 1746.5,2928C 1734.95,2925.68 1723.29,2924.35 1711.5,2924C 1702.7,2920.88 1693.7,2918.55 1684.5,2917C 1660.85,2915.07 1637.19,2914.41 1613.5,2915C 1605.66,2912.37 1597.66,2910.37 1589.5,2909C 1574.02,2907.85 1558.52,2907.01 1543,2906.5C 1502.47,2907.7 1461.97,2908.37 1421.5,2908.5C 1407.15,2907.6 1392.81,2906.43 1378.5,2905C 1361.41,2902.18 1344.24,2900.01 1327,2898.5C 1313.49,2899.03 1299.99,2899.7 1286.5,2900.5C 1205.5,2899.17 1124.5,2899.17 1043.5,2900.5C 1016.5,2897.83 989.5,2897.83 962.5,2900.5C 926.5,2900.5 890.5,2900.5 854.5,2900.5C 841.011,2899.7 827.511,2899.03 814,2898.5C 791.502,2898.31 769.002,2898.97 746.5,2900.5C 710.146,2900.58 673.813,2900.41 637.5,2900C 648.684,2891.24 659.684,2882.24 670.5,2873C 680.67,2867.75 690.337,2861.75 699.5,2855C 712.833,2841.33 726.167,2827.67 739.5,2814C 748.363,2808.74 756.696,2802.74 764.5,2796C 777.376,2781.46 789.876,2766.63 802,2751.5C 812.561,2741.36 822.895,2731.03 833,2720.5C 837.24,2715.68 841.24,2710.68 845,2705.5C 855,2690.17 865,2674.83 875,2659.5C 888.287,2637.93 900.287,2615.6 911,2592.5C 915.059,2582.72 919.392,2573.05 924,2563.5C 926.801,2555.3 929.134,2546.96 931,2538.5C 939.007,2525.82 944.673,2512.15 948,2497.5C 960.318,2474.2 972.652,2450.86 985,2427.5C 989.578,2415.86 992.911,2403.86 995,2391.5C 1004.33,2369.5 1013.67,2347.5 1023,2325.5C 1026.77,2314.77 1029.43,2303.77 1031,2292.5C 1035.64,2284.24 1039.31,2275.57 1042,2266.5C 1047.74,2243.15 1051.4,2219.49 1053,2195.5C 1057.98,2180.58 1060.65,2165.24 1061,2149.5C 1067.32,2131.3 1069.49,2112.64 1067.5,2093.5C 1071.71,2074.38 1074.55,2055.04 1076,2035.5C 1076.73,2028.14 1076.56,2020.81 1075.5,2013.5C 1078.95,1996.98 1083.12,1980.65 1088,1964.5C 1093.84,1954.82 1099.18,1944.82 1104,1934.5C 1108.11,1923.74 1111.44,1912.74 1114,1901.5C 1121.05,1887 1127.72,1872.33 1134,1857.5C 1137.61,1847.07 1140.27,1836.41 1142,1825.5C 1151.22,1808.64 1156.72,1790.64 1158.5,1771.5C 1214.13,1790.01 1262.96,1779.01 1305,1738.5C 1328.68,1711.79 1340.68,1680.45 1341,1644.5C 1385.22,1618.53 1408.39,1579.7 1410.5,1528C 1409.56,1490.31 1395.9,1458.14 1369.5,1431.5C 1373.97,1418.27 1378.14,1404.94 1382,1391.5C 1402.63,1348.19 1423.3,1304.85 1444,1261.5C 1448.11,1249.28 1452.78,1237.28 1458,1225.5C 1466.84,1211.16 1476.17,1197.16 1486,1183.5C 1493,1170.17 1500,1156.83 1507,1143.5C 1509.87,1135.9 1512.53,1128.23 1515,1120.5C 1524.27,1106.3 1534.27,1092.63 1545,1079.5C 1556.09,1063.66 1567.42,1047.99 1579,1032.5C 1584.58,1021.67 1590.91,1011.33 1598,1001.5C 1609.91,985.584 1622.58,970.251 1636,955.5C 1642.5,946.506 1648.5,937.173 1654,927.5C 1661.12,922.717 1667.95,917.551 1674.5,912C 1695,890.167 1716.17,869 1738,848.5C 1744.92,839.793 1752.42,831.626 1760.5,824C 1785.05,809.392 1810.38,796.392 1836.5,785C 1841.01,782.247 1845.34,779.247 1849.5,776C 1868.89,768.139 1887.89,759.472 1906.5,750C 1922.61,746.409 1938.61,742.409 1954.5,738C 1964.74,734.548 1974.74,730.548 1984.5,726C 2005.52,722.129 2026.52,718.129 2047.5,714C 2055.03,712.268 2062.36,709.935 2069.5,707C 2079.59,706.324 2089.59,704.991 2099.5,703C 2136.84,692.914 2174.51,684.247 2212.5,677C 2233.17,676.003 2253.84,675.336 2274.5,675C 2286.3,673.217 2297.63,669.884 2308.5,665C 2352.56,659.578 2396.73,658.078 2441,660.5C 2468,659.167 2495,659.167 2522,660.5C 2539.24,658.985 2556.41,656.819 2573.5,654C 2586.32,653.139 2598.99,652.306 2611.5,651.5 Z M 1858.5,3225.5 C 1858.92,3224.88 1859.58,3224.54 1860.5,3224.5C 1887.7,3230.37 1915.03,3235.54 1942.5,3240C 1953.82,3243.33 1965.16,3246.66 1976.5,3250C 2003.25,3254.18 2029.59,3260.18 2055.5,3268C 2070.17,3270.67 2084.83,3273.33 2099.5,3276C 2119.22,3282.51 2138.88,3289.18 2158.5,3296C 2188.21,3301.79 2217.87,3307.79 2247.5,3314C 2263.71,3314.44 2279.71,3316.44 2295.5,3320C 2306.15,3325.49 2317.15,3330.16 2328.5,3334C 2388.49,3347.36 2448.82,3358.86 2509.5,3368.5C 2508.86,3381.04 2507.02,3393.37 2504,3405.5C 2488.12,3427.24 2474.79,3450.57 2464,3475.5C 2456.46,3484.7 2447.96,3492.87 2438.5,3500C 2415.03,3500.44 2391.53,3499.94 2368,3498.5C 2323,3498.99 2278,3499.32 2233,3499.5C 2222.48,3499.4 2211.98,3498.9 2201.5,3498C 2190.01,3495.17 2178.68,3491.84 2167.5,3488C 2135.74,3477.29 2104.07,3466.29 2072.5,3455C 2068.19,3451.18 2063.52,3447.84 2058.5,3445C 2042.75,3437.42 2026.75,3430.42 2010.5,3424C 2001.89,3418.44 1993.72,3412.27 1986,3405.5C 1977.56,3384.74 1964.9,3367.07 1948,3352.5C 1940.73,3340.23 1933.06,3328.23 1925,3316.5C 1916.94,3307.37 1909.6,3297.71 1903,3287.5C 1893.29,3276.79 1883.96,3265.79 1875,3254.5C 1869.95,3244.38 1864.45,3234.71 1858.5,3225.5 Z"/></g>
</svg>
