<?xml version="1.0" encoding="UTF-8"?>
<!DOCTYPE svg PUBLIC "-//W3C//DTD SVG 1.1//EN" "http://www.w3.org/Graphics/SVG/1.1/DTD/svg11.dtd">
<svg xmlns="http://www.w3.org/2000/svg" version="1.1" width="4096px" height="4096px" style="shape-rendering:geometricPrecision; text-rendering:geometricPrecision; image-rendering:optimizeQuality; fill-rule:evenodd; clip-rule:evenodd" xmlns:xlink="http://www.w3.org/1999/xlink">
<g><path style="opacity:1" fill="#fefffe" d="M 893.5,455.5 C 924.347,456.436 954.347,461.936 983.5,472C 989.212,475.523 995.212,478.523 1001.5,481C 1007.16,484.83 1012.82,488.663 1018.5,492.5C 1024.33,497.159 1029.83,502.159 1035,507.5C 1037.61,512.109 1040.94,516.109 1045,519.5C 1053.06,534.609 1061.89,549.275 1071.5,563.5C 1077.23,577.301 1083.23,590.967 1089.5,604.5C 1090.82,608.79 1091.99,613.123 1093,617.5C 1110.94,643.184 1120.6,671.851 1122,703.5C 1126.39,715.279 1131.06,726.946 1136,738.5C 1138.05,746.42 1139.72,754.42 1141,762.5C 1143.66,767.494 1146.32,772.494 1149,777.5C 1153.25,791.431 1158.25,805.098 1164,818.5C 1165.13,823.139 1166.13,827.805 1167,832.5C 1181.71,848.388 1192.21,866.888 1198.5,888C 1202.09,891.6 1204.92,895.767 1207,900.5C 1211.5,904.969 1215.84,909.636 1220,914.5C 1220.9,917.071 1222.23,919.404 1224,921.5C 1231.99,930.827 1240.33,939.827 1249,948.5C 1251.05,953.293 1254.05,957.293 1258,960.5C 1261.17,968.669 1266.5,975.002 1274,979.5C 1279.74,985.577 1284.74,992.244 1289,999.5C 1294,1003.9 1298.67,1008.57 1303,1013.5C 1307.53,1021.36 1313.69,1027.53 1321.5,1032C 1323.4,1033.82 1325.07,1035.82 1326.5,1038C 1327.5,1038.33 1328.5,1038.67 1329.5,1039C 1333.33,1043.83 1337.49,1048.33 1342,1052.5C 1342.67,1053.83 1343.33,1055.17 1344,1056.5C 1348.69,1060.19 1353.02,1064.19 1357,1068.5C 1370.92,1087.75 1386.26,1105.75 1403,1122.5C 1404.77,1124.6 1406.1,1126.93 1407,1129.5C 1421.59,1147.1 1436.93,1164.1 1453,1180.5C 1453.33,1181.5 1453.67,1182.5 1454,1183.5C 1464.78,1191.61 1474.28,1201.11 1482.5,1212C 1488.51,1214.33 1493.84,1217.67 1498.5,1222C 1503.69,1223.92 1507.69,1227.26 1510.5,1232C 1511.5,1232.33 1512.5,1232.67 1513.5,1233C 1516.16,1236.5 1519.16,1239.66 1522.5,1242.5C 1542.53,1252.87 1559.53,1266.87 1573.5,1284.5C 1593.25,1290.87 1610.59,1301.03 1625.5,1315C 1637.86,1322.03 1650.2,1329.36 1662.5,1337C 1663.17,1338 1663.83,1339 1664.5,1340C 1669.65,1342.08 1674.65,1344.41 1679.5,1347C 1688.19,1353.19 1696.35,1360.02 1704,1367.5C 1724.06,1377.44 1743.56,1388.28 1762.5,1400C 1765.29,1402.91 1768.29,1405.58 1771.5,1408C 1780.68,1412.42 1790.01,1416.59 1799.5,1420.5C 1804.91,1423.73 1809.91,1427.56 1814.5,1432C 1820.64,1434.24 1826.31,1437.24 1831.5,1441C 1852.08,1446.42 1871.41,1454.75 1889.5,1466C 1890.93,1467.89 1892.6,1469.55 1894.5,1471C 1899.55,1472.13 1904.55,1473.46 1909.5,1475C 1917.32,1478.74 1924.98,1482.74 1932.5,1487C 1946.46,1491.26 1960.13,1496.26 1973.5,1502C 1986.22,1508.97 1999.22,1515.47 2012.5,1521.5C 2012.12,1508.2 2012.62,1494.86 2014,1481.5C 2014.99,1473.23 2016.99,1465.23 2020,1457.5C 2019.21,1435.79 2022.55,1414.79 2030,1394.5C 2030.44,1389.33 2030.94,1384.16 2031.5,1379C 2031.22,1363.15 2030.72,1347.31 2030,1331.5C 2024.27,1315.7 2021.44,1299.36 2021.5,1282.5C 2022.72,1211.33 2022.72,1140.16 2021.5,1069C 2021.53,1063.45 2022.03,1057.95 2023,1052.5C 2029.01,1044.49 2034.01,1035.82 2038,1026.5C 2045.43,1018.4 2052.1,1009.74 2058,1000.5C 2064.41,987.344 2071.08,974.344 2078,961.5C 2081.98,950.262 2085.64,938.928 2089,927.5C 2094.34,916.798 2099.67,906.131 2105,895.5C 2123.27,877.23 2142.77,860.397 2163.5,845C 2175.17,837.495 2187.17,830.495 2199.5,824C 2232.9,796.298 2269.23,772.965 2308.5,754C 2328.74,739.767 2348.4,724.767 2367.5,709C 2386.59,699.191 2405.59,689.191 2424.5,679C 2451.96,670.737 2479.29,662.07 2506.5,653C 2524.18,650.53 2541.52,646.53 2558.5,641C 2569.61,640.056 2580.61,638.389 2591.5,636C 2603.83,635 2616.17,634 2628.5,633C 2643.35,629.13 2658.35,625.964 2673.5,623.5C 2763.5,623.5 2853.5,623.5 2943.5,623.5C 2950.49,624.176 2957.49,624.676 2964.5,625C 2966.5,625.667 2968.5,626.333 2970.5,627C 3009.48,646.824 3048.15,667.157 3086.5,688C 3091.32,692.24 3096.32,696.24 3101.5,700C 3127.68,716.255 3153.35,733.255 3178.5,751C 3194.12,763.282 3209.12,776.282 3223.5,790C 3236.44,798.612 3249.11,807.612 3261.5,817C 3270.89,827.386 3281.22,836.719 3292.5,845C 3299.48,856.658 3307.98,867.158 3318,876.5C 3330.43,898.915 3344.43,920.249 3360,940.5C 3359.98,943.674 3359.48,946.841 3358.5,950C 3361.17,960 3361.17,970 3358.5,980C 3359.95,986.756 3360.78,993.589 3361,1000.5C 3366.15,1019.15 3369.15,1038.15 3370,1057.5C 3377.52,1082.72 3380.02,1108.39 3377.5,1134.5C 3380.62,1142.57 3382.78,1150.91 3384,1159.5C 3402.34,1161.26 3420.18,1165.43 3437.5,1172C 3449.89,1177.8 3462.23,1183.8 3474.5,1190C 3486.27,1197.98 3497.43,1206.81 3508,1216.5C 3510.27,1220.77 3513.27,1224.44 3517,1227.5C 3521.37,1233.95 3525.37,1240.62 3529,1247.5C 3531.84,1250.87 3535.17,1253.54 3539,1255.5C 3544.83,1261.88 3550.17,1268.54 3555,1275.5C 3561.48,1279.98 3567.64,1284.82 3573.5,1290C 3581.27,1298.19 3589.27,1306.19 3597.5,1314C 3604.83,1318.33 3612.16,1322.66 3619.5,1327C 3624.59,1330.88 3629.26,1335.21 3633.5,1340C 3643.75,1344.93 3653.75,1350.26 3663.5,1356C 3665.9,1359.06 3668.9,1361.4 3672.5,1363C 3686.39,1377.76 3700.72,1392.09 3715.5,1406C 3732.93,1413.55 3750.26,1421.38 3767.5,1429.5C 3779.76,1438.31 3792.09,1447.14 3804.5,1456C 3817.6,1467.06 3831.93,1476.39 3847.5,1484C 3849.9,1487.06 3852.9,1489.4 3856.5,1491C 3858.54,1492.71 3860.21,1494.71 3861.5,1497C 3866.55,1500.73 3871.55,1504.39 3876.5,1508C 3887.68,1519.18 3899.51,1529.68 3912,1539.5C 3918.69,1547.86 3925.02,1556.53 3931,1565.5C 3933.49,1571.81 3936.49,1577.81 3940,1583.5C 3951.38,1615.27 3954.72,1647.94 3950,1681.5C 3938.53,1740.3 3904.7,1780.14 3848.5,1801C 3828.6,1806.64 3808.43,1808.47 3788,1806.5C 3777.67,1809.17 3767.33,1809.17 3757,1806.5C 3747,1809.17 3737,1809.17 3727,1806.5C 3717,1809.17 3707,1809.17 3697,1806.5C 3686.67,1809.17 3676.33,1809.17 3666,1806.5C 3656,1809.17 3646,1809.17 3636,1806.5C 3626,1809.17 3616,1809.17 3606,1806.5C 3596,1809.17 3586,1809.17 3576,1806.5C 3565.5,1809.14 3555,1809.14 3544.5,1806.5C 3534.33,1809.14 3524.16,1809.14 3514,1806.5C 3503.83,1809.14 3493.66,1809.14 3483.5,1806.5C 3478.25,1807.87 3472.92,1808.71 3467.5,1809C 3457.5,1818.67 3447.83,1828.67 3438.5,1839C 3422.72,1852.73 3404.89,1863.23 3385,1870.5C 3378.76,1885.9 3372.93,1901.4 3367.5,1917C 3368.54,1921.95 3369.21,1926.95 3369.5,1932C 3368.35,1946.32 3366.18,1960.49 3363,1974.5C 3357.88,1985.69 3354.05,1997.36 3351.5,2009.5C 3349.53,2012.25 3348.03,2015.25 3347,2018.5C 3345.56,2025.11 3343.72,2031.61 3341.5,2038C 3335.99,2049.88 3330.49,2061.72 3325,2073.5C 3321.78,2086.48 3318.44,2099.48 3315,2112.5C 3311.7,2117.39 3309.37,2122.72 3308,2128.5C 3307.67,2149.99 3304.33,2170.99 3298,2191.5C 3298.03,2211.32 3295.03,2230.65 3289,2249.5C 3288.53,2259.18 3287.86,2268.85 3287,2278.5C 3281.29,2295.01 3278.29,2312.01 3278,2329.5C 3275.38,2345.36 3270.38,2360.36 3263,2374.5C 3259.84,2388.73 3255.84,2402.73 3251,2416.5C 3249.27,2418.23 3247.94,2420.23 3247,2422.5C 3242.84,2437.47 3238.84,2452.47 3235,2467.5C 3234.46,2478.24 3233.3,2488.91 3231.5,2499.5C 3228.77,2508.87 3225.93,2518.2 3223,2527.5C 3222,2528.83 3221,2530.17 3220,2531.5C 3218.65,2543.27 3216.65,2554.93 3214,2566.5C 3203.77,2592.3 3192.44,2617.63 3180,2642.5C 3175.15,2655.71 3170.98,2669.21 3167.5,2683C 3162.57,2694.12 3157.07,2704.96 3151,2715.5C 3145.9,2729.92 3139.9,2743.92 3133,2757.5C 3115.28,2782.53 3099.28,2808.53 3085,2835.5C 3081.26,2839.3 3078.26,2843.63 3076,2848.5C 3072.37,2851.74 3069.7,2855.74 3068,2860.5C 3064.18,2864.81 3060.84,2869.48 3058,2874.5C 3053.94,2877.78 3050.44,2881.61 3047.5,2886C 3045.25,2887.38 3043.08,2888.88 3041,2890.5C 3036.85,2896.13 3033.18,2902.13 3030,2908.5C 3024.47,2916.24 3018.47,2923.57 3012,2930.5C 3007.55,2932.61 3004.05,2935.78 3001.5,2940C 2998.03,2941.91 2994.7,2944.07 2991.5,2946.5C 2986.95,2953.7 2981.78,2960.36 2976,2966.5C 2971.07,2970.28 2966.4,2974.28 2962,2978.5C 2954.09,2991.32 2946.42,3004.32 2939,3017.5C 2930.18,3029.99 2919.68,3040.82 2907.5,3050C 2904.73,3052.38 2902.56,3055.22 2901,3058.5C 2898.36,3060.31 2895.86,3062.31 2893.5,3064.5C 2879.31,3092.53 2858.31,3113.69 2830.5,3128C 2826.09,3133.75 2821.09,3138.75 2815.5,3143C 2805.09,3152.09 2794.76,3161.09 2784.5,3170C 2772.49,3176.67 2762.32,3185.51 2754,3196.5C 2751.53,3197.1 2749.53,3198.44 2748,3200.5C 2743.51,3205.33 2739.35,3210.49 2735.5,3216C 2723.87,3225.29 2712.54,3234.96 2701.5,3245C 2687.09,3255.42 2672.42,3265.42 2657.5,3275C 2641.26,3291.53 2622.26,3304.19 2600.5,3313C 2583.9,3333.56 2563.24,3348.9 2538.5,3359C 2522.84,3373.99 2504.84,3385.66 2484.5,3394C 2481.69,3398.74 2477.69,3402.08 2472.5,3404C 2452.43,3423.17 2429.1,3437.17 2402.5,3446C 2394.11,3452.95 2384.95,3458.78 2375,3463.5C 2353.53,3472.32 2331.7,3480.16 2309.5,3487C 2304.07,3491.33 2298.07,3494.83 2291.5,3497.5C 2290.25,3499.46 2288.59,3500.96 2286.5,3502C 2270.28,3510.63 2253.62,3518.3 2236.5,3525C 2234.83,3526.33 2233.17,3527.67 2231.5,3529C 2225.21,3531.48 2219.21,3534.48 2213.5,3538C 2209.24,3539.53 2204.9,3540.86 2200.5,3542C 2188.58,3548.76 2175.91,3553.76 2162.5,3557C 2158.89,3559.85 2155.22,3562.52 2151.5,3565C 2143.67,3568.41 2136.01,3572.08 2128.5,3576C 2118.18,3578.8 2107.84,3581.46 2097.5,3584C 2087.19,3584.97 2076.85,3585.63 2066.5,3586C 2050.23,3592.26 2033.56,3597.42 2016.5,3601.5C 2006.54,3602.75 1996.54,3603.58 1986.5,3604C 1972.5,3607.67 1958.5,3611.33 1944.5,3615C 1935.94,3619.19 1926.94,3622.19 1917.5,3624C 1896.83,3627.7 1876,3629.87 1855,3630.5C 1669.21,3630.37 1483.37,3630.2 1297.5,3630C 1266.95,3627.29 1236.95,3621.62 1207.5,3613C 1192.56,3612.79 1177.9,3610.79 1163.5,3607C 1140.42,3605.15 1117.75,3601.15 1095.5,3595C 1084.21,3590.13 1072.54,3586.13 1060.5,3583C 1054.56,3579.9 1048.22,3577.57 1041.5,3576C 1020.43,3566.13 999.093,3556.8 977.5,3548C 971.486,3544.64 965.486,3541.31 959.5,3538C 954.699,3533.57 949.699,3529.41 944.5,3525.5C 935.458,3519.14 926.125,3513.14 916.5,3507.5C 891.917,3501.21 870.251,3489.71 851.5,3473C 847.443,3469.61 844.11,3465.61 841.5,3461C 835.642,3457.82 829.476,3455.32 823,3453.5C 812.211,3448.53 802.044,3442.7 792.5,3436C 786.859,3431.03 781.192,3426.03 775.5,3421C 773.473,3418.91 771.806,3416.57 770.5,3414C 759.121,3408.95 749.121,3401.95 740.5,3393C 739.5,3392.67 738.5,3392.33 737.5,3392C 729.789,3383.37 722.456,3374.53 715.5,3365.5C 705.165,3360.88 694.665,3356.55 684,3352.5C 673.863,3347.52 664.363,3341.69 655.5,3335C 654.21,3332.71 652.543,3330.71 650.5,3329C 642.104,3323.47 634.104,3317.47 626.5,3311C 622.456,3306.66 618.456,3302.33 614.5,3298C 606.495,3293.36 598.828,3288.36 591.5,3283C 585.779,3278.12 580.446,3272.79 575.5,3267C 568.796,3264.32 562.796,3260.66 557.5,3256C 553.394,3254.28 550.06,3251.62 547.5,3248C 540.369,3244.24 533.702,3239.91 527.5,3235C 516.783,3223.28 505.783,3211.95 494.5,3201C 487.743,3195.95 480.41,3191.95 472.5,3189C 469.254,3185.04 465.254,3182.04 460.5,3180C 458.749,3176.58 456.082,3174.25 452.5,3173C 446.638,3166.47 440.805,3159.97 435,3153.5C 430.189,3143.71 422.689,3136.88 412.5,3133C 406.208,3128.38 400.208,3123.38 394.5,3118C 385.544,3111.69 376.877,3105.02 368.5,3098C 362.928,3092.71 357.928,3086.88 353.5,3080.5C 335.371,3070.01 320.538,3056.01 309,3038.5C 304,3034.1 299.333,3029.43 295,3024.5C 293.374,3022.08 291.874,3019.58 290.5,3017C 282.261,3013.41 274.261,3009.41 266.5,3005C 216.421,2969.31 194.588,2920.47 201,2858.5C 202.91,2843.02 207.41,2828.35 214.5,2814.5C 217.588,2809.33 220.421,2803.99 223,2798.5C 238.514,2776.5 258.347,2759.17 282.5,2746.5C 286.765,2742.36 291.431,2738.7 296.5,2735.5C 305.328,2731.59 313.995,2727.42 322.5,2723C 332.517,2720.33 342.517,2717.66 352.5,2715C 362.485,2714.11 372.485,2713.45 382.5,2713C 397.296,2707.61 412.296,2702.77 427.5,2698.5C 437.582,2696.7 447.748,2695.7 458,2695.5C 483.341,2695.68 508.674,2696.01 534,2696.5C 564,2693.83 594,2693.83 624,2696.5C 695,2695.17 766,2695.17 837,2696.5C 851.991,2695.7 866.991,2695.03 882,2694.5C 913.514,2696.66 945.014,2696.83 976.5,2695C 964.027,2682.53 951.527,2670.03 939,2657.5C 936.961,2652.75 933.961,2648.75 930,2645.5C 928.102,2641.37 925.935,2637.37 923.5,2633.5C 913.684,2628.99 905.018,2622.99 897.5,2615.5C 890.784,2612.58 884.784,2608.75 879.5,2604C 871.906,2601.26 864.906,2597.59 858.5,2593C 852.917,2587.28 846.25,2583.12 838.5,2580.5C 830.771,2573.62 822.105,2568.12 812.5,2564C 809.254,2560.04 805.254,2557.04 800.5,2555C 799.072,2552.82 797.405,2550.82 795.5,2549C 788.398,2545.26 781.731,2540.93 775.5,2536C 770.833,2531.33 766.167,2526.67 761.5,2522C 744.836,2512.8 729.67,2501.63 716,2488.5C 715.727,2486.67 714.893,2485.17 713.5,2484C 704.431,2478.81 695.764,2473.14 687.5,2467C 678.676,2463.17 670.342,2458.5 662.5,2453C 658.949,2449.21 654.949,2445.88 650.5,2443C 641.821,2433.99 632.654,2425.16 623,2416.5C 622.667,2415.5 622.333,2414.5 622,2413.5C 617.202,2409.21 612.869,2404.55 609,2399.5C 589.609,2368.27 580.442,2334.1 581.5,2297C 582.63,2280.24 585.464,2263.74 590,2247.5C 598.072,2227 609.405,2208.66 624,2192.5C 630.872,2185.96 638.039,2179.79 645.5,2174C 652.258,2170.52 658.924,2166.86 665.5,2163C 682.484,2154.59 700.484,2149.92 719.5,2149C 739.507,2149.15 759.507,2149.15 779.5,2149C 778.809,2147.93 778.309,2146.77 778,2145.5C 773.166,2142.32 768.666,2138.82 764.5,2135C 756.62,2126.62 748.953,2118.12 741.5,2109.5C 736.167,2107.17 730.833,2104.83 725.5,2102.5C 721,2099.42 716.333,2096.58 711.5,2094C 698.561,2083.69 686.228,2072.69 674.5,2061C 671.812,2058.25 669.479,2055.25 667.5,2052C 663.557,2050.39 660.557,2047.72 658.5,2044C 657.5,2043.67 656.5,2043.33 655.5,2043C 651.108,2037.7 646.608,2032.53 642,2027.5C 636.359,2023.86 631.359,2019.52 627,2014.5C 623.241,2009.49 619.574,2004.49 616,1999.5C 604.573,1988.58 594.906,1976.25 587,1962.5C 567.619,1944.44 552.952,1923.11 543,1898.5C 536.287,1891.42 530.287,1883.75 525,1875.5C 513.593,1853.02 501.926,1830.68 490,1808.5C 485.597,1794.66 480.43,1781.16 474.5,1768C 469.96,1762.41 465.793,1756.58 462,1750.5C 459.732,1744.69 456.899,1739.19 453.5,1734C 444.223,1708.67 435.223,1683.17 426.5,1657.5C 423.967,1645.98 422.634,1634.31 422.5,1622.5C 423.023,1607.32 423.689,1592.16 424.5,1577C 423.955,1541.66 423.622,1506.33 423.5,1471C 423.093,1456.16 425.427,1441.82 430.5,1428C 424.755,1413.27 422.089,1397.94 422.5,1382C 423.034,1366.99 423.7,1351.99 424.5,1337C 424.009,1311.67 423.675,1286.34 423.5,1261C 423.356,1245.37 425.856,1230.2 431,1215.5C 429.777,1188.28 434.944,1162.45 446.5,1138C 455.817,1104.72 466.317,1071.89 478,1039.5C 478.477,1028.42 479.644,1017.42 481.5,1006.5C 484.231,997.141 487.064,987.808 490,978.5C 493.562,972.833 496.562,966.833 499,960.5C 501.133,958.909 502.799,956.909 504,954.5C 508.626,940.29 513.459,926.123 518.5,912C 524.319,897.869 530.986,884.202 538.5,871C 544.521,855.615 549.854,839.948 554.5,824C 557.899,818.812 560.732,813.312 563,807.5C 570.349,797.474 576.682,786.807 582,775.5C 583.667,774.5 585,773.167 586,771.5C 587.696,767.275 589.529,763.108 591.5,759C 598.531,749.801 604.531,739.968 609.5,729.5C 611.557,727.731 613.39,725.731 615,723.5C 620.401,709.889 626.401,696.555 633,683.5C 643.961,669.607 653.961,654.941 663,639.5C 667.164,635.701 670.997,631.534 674.5,627C 678.988,624.095 683.155,620.928 687,617.5C 688.333,614.833 689.667,612.167 691,609.5C 694.878,604.411 699.211,599.745 704,595.5C 706.302,591.854 708.636,588.187 711,584.5C 716.106,577.941 721.439,571.608 727,565.5C 732.327,561.998 737.16,557.998 741.5,553.5C 749.498,545.666 756.998,537.332 764,528.5C 765.171,527.107 766.671,526.273 768.5,526C 782.341,509.272 798.674,495.605 817.5,485C 818.167,484 818.833,483 819.5,482C 831.867,474.316 844.867,467.983 858.5,463C 870.399,460.257 882.066,457.757 893.5,455.5 Z"/></g>
</svg>
