<?xml version="1.0" encoding="UTF-8"?>
<!DOCTYPE svg PUBLIC "-//W3C//DTD SVG 1.1//EN" "http://www.w3.org/Graphics/SVG/1.1/DTD/svg11.dtd">
<svg xmlns="http://www.w3.org/2000/svg" version="1.1" width="4096px" height="4096px" style="shape-rendering:geometricPrecision; text-rendering:geometricPrecision; image-rendering:optimizeQuality; fill-rule:evenodd; clip-rule:evenodd" xmlns:xlink="http://www.w3.org/1999/xlink">
<g><path style="opacity:1" fill="#1da0f2" d="M 1898.5,426.5 C 1905.88,426.601 1913.21,427.268 1920.5,428.5C 1925.51,427.915 1930.51,427.249 1935.5,426.5C 1945.5,429.167 1955.5,429.167 1965.5,426.5C 1970.33,427.21 1975.16,427.877 1980,428.5C 1984.84,427.877 1989.67,427.21 1994.5,426.5C 2004.5,429.167 2014.5,429.167 2024.5,426.5C 2034.5,429.167 2044.5,429.167 2054.5,426.5C 2064.5,429.167 2074.5,429.167 2084.5,426.5C 2094.5,429.167 2104.5,429.167 2114.5,426.5C 2124.5,429.167 2134.5,429.167 2144.5,426.5C 2154.5,429.167 2164.5,429.167 2174.5,426.5C 2184.5,429.167 2194.5,429.167 2204.5,426.5C 2214.5,429.167 2224.5,429.167 2234.5,426.5C 2244.5,429.167 2254.5,429.167 2264.5,426.5C 2274.5,429.167 2284.5,429.167 2294.5,426.5C 2304.5,429.167 2314.5,429.167 2324.5,426.5C 2334.5,429.167 2344.5,429.167 2354.5,426.5C 2370.93,427.464 2386.93,430.464 2402.5,435.5C 2419.8,435.255 2437.13,435.255 2454.5,435.5C 2465.87,437.05 2477.04,439.384 2488,442.5C 2491.79,441.601 2495.63,440.934 2499.5,440.5C 2515.91,441.462 2531.91,444.462 2547.5,449.5C 2554.79,448.447 2562.13,448.447 2569.5,449.5C 2588.28,451.747 2606.95,454.747 2625.5,458.5C 2630.97,460.366 2636.3,462.532 2641.5,465C 2665.62,470.956 2689.62,477.289 2713.5,484C 2716.22,484.27 2718.89,484.77 2721.5,485.5C 2728.79,484.447 2736.13,484.447 2743.5,485.5C 2765.44,488.479 2786.1,495.146 2805.5,505.5C 2820.7,509.067 2835.86,512.733 2851,516.5C 2865.18,520.671 2879.35,524.838 2893.5,529C 2904.27,532.054 2915.27,533.887 2926.5,534.5C 2943.63,539.782 2960.96,544.449 2978.5,548.5C 3011.13,563.989 3045.13,575.823 3080.5,584C 3084.55,586.264 3088.88,587.764 3093.5,588.5C 3099.95,591.226 3106.29,594.226 3112.5,597.5C 3127.77,606.961 3144.1,614.628 3161.5,620.5C 3174.43,628.418 3187.76,635.751 3201.5,642.5C 3213.52,652.494 3226.19,661.827 3239.5,670.5C 3241.68,673.177 3244.01,675.677 3246.5,678C 3257.89,682.89 3268.55,688.89 3278.5,696C 3295.07,703.232 3309.4,713.565 3321.5,727C 3335.58,733.443 3348.58,741.443 3360.5,751C 3364.13,755.634 3368.13,759.967 3372.5,764C 3374.89,766.05 3377.56,767.717 3380.5,769C 3400.89,790.263 3421.39,811.429 3442,832.5C 3444.65,836.807 3447.65,840.807 3451,844.5C 3453.65,848.649 3455.99,852.982 3458,857.5C 3464.68,865.005 3470.51,873.172 3475.5,882C 3483.14,898.988 3490.81,915.988 3498.5,933C 3501.59,938.054 3504.59,943.221 3507.5,948.5C 3552.48,914.37 3601.81,906.87 3655.5,926C 3662.09,928.975 3668.59,932.142 3675,935.5C 3686.94,944.764 3699.44,953.264 3712.5,961C 3731.54,969.349 3747.87,981.349 3761.5,997C 3764.69,998.744 3767.69,1000.74 3770.5,1003C 3774.49,1007.29 3778.49,1011.63 3782.5,1016C 3783.5,1016.33 3784.5,1016.67 3785.5,1017C 3793.89,1025.39 3802.39,1033.89 3811,1042.5C 3815.43,1048.59 3819.43,1054.92 3823,1061.5C 3826.33,1066.65 3830.16,1071.32 3834.5,1075.5C 3839.74,1083.58 3845.57,1091.24 3852,1098.5C 3861.65,1116.72 3871.15,1135.05 3880.5,1153.5C 3884.18,1162.36 3886.85,1171.53 3888.5,1181C 3893.55,1189.12 3898.05,1197.62 3902,1206.5C 3905.27,1217.87 3909.77,1228.7 3915.5,1239C 3917.73,1246.93 3920.23,1254.76 3923,1262.5C 3927.99,1270.15 3932.32,1278.15 3936,1286.5C 3946.75,1315.47 3956.58,1344.8 3965.5,1374.5C 3968.55,1405.53 3971.88,1436.53 3975.5,1467.5C 3972.87,1477.66 3972.87,1487.83 3975.5,1498C 3972.87,1508.17 3972.87,1518.34 3975.5,1528.5C 3972.83,1538.83 3972.83,1549.17 3975.5,1559.5C 3972.83,1569.83 3972.83,1580.17 3975.5,1590.5C 3972.83,1600.83 3972.83,1611.17 3975.5,1621.5C 3972.83,1631.83 3972.83,1642.17 3975.5,1652.5C 3973.28,1669.76 3971.78,1687.1 3971,1704.5C 3968.73,1712.16 3967.56,1720 3967.5,1728C 3967.76,1825.66 3968.09,1923.33 3968.5,2021C 3968.55,2040.14 3965.22,2058.64 3958.5,2076.5C 3957.61,2091.37 3955.44,2106.04 3952,2120.5C 3949.37,2135.91 3947.2,2151.41 3945.5,2167C 3943.77,2174.15 3942.1,2181.31 3940.5,2188.5C 3931.87,2211.68 3923.53,2235.01 3915.5,2258.5C 3906,2277.47 3898.17,2297.14 3892,2317.5C 3888.98,2322.91 3886.14,2328.41 3883.5,2334C 3878.17,2348.66 3871.5,2362.66 3863.5,2376C 3861.24,2386.33 3857.74,2396.17 3853,2405.5C 3850.93,2413.48 3848.43,2421.31 3845.5,2429C 3837.78,2443.62 3830.44,2458.45 3823.5,2473.5C 3818.64,2488.18 3811.48,2501.52 3802,2513.5C 3795.57,2525.2 3790.07,2537.36 3785.5,2550C 3777.89,2561.25 3770.06,2572.42 3762,2583.5C 3756.05,2596.95 3750.55,2610.62 3745.5,2624.5C 3742.32,2630.2 3739.15,2635.87 3736,2641.5C 3730.77,2648.73 3724.77,2655.4 3718,2661.5C 3709.93,2676.3 3702.43,2691.3 3695.5,2706.5C 3691.57,2712.49 3687.57,2718.49 3683.5,2724.5C 3682.69,2728.48 3680.85,2731.82 3678,2734.5C 3674.03,2743.11 3670.03,2751.77 3666,2760.5C 3662.43,2766.91 3658.26,2772.91 3653.5,2778.5C 3647.79,2789.6 3642.29,2800.93 3637,2812.5C 3631.47,2819.96 3626.14,2827.63 3621,2835.5C 3618.55,2838.03 3615.89,2840.37 3613,2842.5C 3606.34,2855.27 3598.84,2867.6 3590.5,2879.5C 3587.99,2881.88 3585.49,2884.21 3583,2886.5C 3581.27,2890.92 3578.94,2894.92 3576,2898.5C 3575,2899.17 3574,2899.83 3573,2900.5C 3564.44,2915.07 3555.44,2929.41 3546,2943.5C 3545,2944.17 3544,2944.83 3543,2945.5C 3540.39,2948.91 3538.06,2952.58 3536,2956.5C 3531.67,2960.5 3527.33,2964.5 3523,2968.5C 3515.57,2979.31 3508.07,2990.31 3500.5,3001.5C 3497.99,3003.88 3495.49,3006.21 3493,3008.5C 3489.28,3014.2 3485.61,3019.87 3482,3025.5C 3468.16,3039.88 3454.32,3054.21 3440.5,3068.5C 3434.7,3072.47 3429.03,3076.63 3423.5,3081C 3414.81,3092.66 3404.81,3103 3393.5,3112C 3381.11,3127.41 3366.11,3139.41 3348.5,3148C 3328.83,3168.5 3309.17,3189 3289.5,3209.5C 3282.34,3214.51 3275.34,3219.67 3268.5,3225C 3262.88,3230.8 3256.88,3236.14 3250.5,3241C 3245.87,3241.81 3242.54,3244.31 3240.5,3248.5C 3235.83,3251.06 3231.5,3254.06 3227.5,3257.5C 3217.17,3268.17 3206.83,3278.83 3196.5,3289.5C 3187.47,3294.79 3179.47,3301.29 3172.5,3309C 3168.69,3311.64 3165.02,3314.48 3161.5,3317.5C 3157.07,3319.76 3153.4,3322.93 3150.5,3327C 3144.99,3330.59 3139.66,3334.42 3134.5,3338.5C 3128.98,3344.6 3122.98,3350.1 3116.5,3355C 3104.72,3362.07 3093.39,3369.74 3082.5,3378C 3075.37,3385.12 3067.37,3391.12 3058.5,3396C 3057.74,3397.51 3056.74,3398.85 3055.5,3400C 3044.43,3409.49 3032.1,3417.16 3018.5,3423C 3009.35,3429.96 2999.35,3435.63 2988.5,3440C 2979.26,3446.58 2969.26,3451.75 2958.5,3455.5C 2951.45,3459.39 2944.28,3463.05 2937,3466.5C 2922.38,3470.96 2907.88,3475.79 2893.5,3481C 2885.58,3485.44 2877.25,3488.94 2868.5,3491.5C 2845.4,3502.31 2822.4,3513.31 2799.5,3524.5C 2777.08,3531.73 2754.58,3538.73 2732,3545.5C 2702.73,3556.2 2673.56,3567.2 2644.5,3578.5C 2629.48,3582.42 2615.32,3588.42 2602,3596.5C 2590.24,3599.91 2579.08,3604.58 2568.5,3610.5C 2563.88,3611.24 2559.55,3612.74 2555.5,3615C 2544.31,3616.44 2533.31,3618.77 2522.5,3622C 2505.18,3628.97 2487.85,3635.97 2470.5,3643C 2457.25,3645.96 2443.91,3648.46 2430.5,3650.5C 2416.41,3659.99 2401.07,3666.99 2384.5,3671.5C 2374.64,3676.68 2364.8,3682.02 2355,3687.5C 2344.35,3690.86 2334.18,3695.19 2324.5,3700.5C 2311.22,3705.66 2297.55,3709.49 2283.5,3712C 2281.29,3713.27 2278.95,3714.27 2276.5,3715C 2262.74,3717.63 2249.08,3720.63 2235.5,3724C 2225.95,3724.77 2216.45,3725.93 2207,3727.5C 2197,3724.83 2187,3724.83 2177,3727.5C 2160.44,3726.49 2144.27,3723.49 2128.5,3718.5C 2116.98,3713.87 2105.31,3709.71 2093.5,3706C 2085.06,3701.48 2076.72,3696.81 2068.5,3692C 2067.83,3691 2067.17,3690 2066.5,3689C 2063.83,3687.33 2061.17,3685.67 2058.5,3684C 2051.71,3677.37 2045.04,3670.54 2038.5,3663.5C 2033.4,3655.99 2028.4,3648.49 2023.5,3641C 2019.75,3633.68 2016.42,3626.18 2013.5,3618.5C 2004.45,3583.25 1995.62,3547.91 1987,3512.5C 1983.44,3498.15 1982.27,3483.65 1983.5,3469C 1979.84,3453.19 1976.34,3437.35 1973,3421.5C 1969.83,3394.15 1966.67,3366.82 1963.5,3339.5C 1963.29,3277.17 1963.29,3214.84 1963.5,3152.5C 1956.79,3152.55 1950.13,3152.05 1943.5,3151C 1937.31,3148.93 1930.98,3147.43 1924.5,3146.5C 1920.85,3146.98 1917.18,3147.31 1913.5,3147.5C 1896.54,3145.59 1879.54,3144.09 1862.5,3143C 1854.1,3141.72 1845.77,3140.22 1837.5,3138.5C 1783.17,3138.71 1728.84,3139.04 1674.5,3139.5C 1667.5,3139 1660.5,3138.5 1653.5,3138C 1634.29,3133.57 1615.13,3129.07 1596,3124.5C 1583.01,3124.52 1570.01,3124.86 1557,3125.5C 1534.81,3124.78 1513.64,3119.95 1493.5,3111C 1488.48,3110.99 1483.65,3110.15 1479,3108.5C 1476.32,3109.67 1473.49,3110.34 1470.5,3110.5C 1453.47,3108.93 1436.63,3106.27 1420,3102.5C 1410.52,3103.36 1401.02,3103.2 1391.5,3102C 1377.95,3099.41 1364.28,3097.58 1350.5,3096.5C 1344.59,3094.52 1338.59,3092.86 1332.5,3091.5C 1318.97,3090.43 1305.47,3089.09 1292,3087.5C 1275.87,3082.34 1259.7,3077.34 1243.5,3072.5C 1236.48,3072.1 1229.81,3070.43 1223.5,3067.5C 1208.36,3064.67 1193.69,3060.34 1179.5,3054.5C 1165.37,3050.42 1151.2,3046.42 1137,3042.5C 1129.98,3040.07 1123.15,3037.24 1116.5,3034C 1090.02,3031.62 1065.69,3023.29 1043.5,3009C 1021.26,3003.78 998.923,2998.78 976.5,2994C 971.148,2991.77 965.648,2989.94 960,2988.5C 949.844,2983.12 939.51,2978.12 929,2973.5C 911.498,2966.94 893.665,2961.27 875.5,2956.5C 863.288,2949.64 850.621,2943.64 837.5,2938.5C 831.116,2933.01 823.616,2930.01 815,2929.5C 789.516,2919.1 763.516,2910.1 737,2902.5C 730.53,2897.87 723.363,2894.87 715.5,2893.5C 688.949,2879.81 661.616,2867.81 633.5,2857.5C 621.596,2852.55 610.263,2846.55 599.5,2839.5C 590.738,2831.06 581.404,2823.4 571.5,2816.5C 558.835,2810.48 547.502,2802.48 537.5,2792.5C 527.159,2786.66 518.159,2779.16 510.5,2770C 504.924,2768.74 499.757,2766.58 495,2763.5C 487.05,2758.78 479.55,2753.44 472.5,2747.5C 458.883,2740.37 446.883,2731.21 436.5,2720C 432.237,2717.01 427.903,2714.01 423.5,2711C 418.934,2706.52 414.601,2701.86 410.5,2697C 406.5,2694 402.5,2691 398.5,2688C 388.734,2678.06 379.067,2667.9 369.5,2657.5C 358.184,2648.85 347.85,2639.18 338.5,2628.5C 330.137,2615.08 321.303,2602.08 312,2589.5C 307.436,2583.97 302.769,2578.63 298,2573.5C 296.503,2569.58 294.503,2565.92 292,2562.5C 280.965,2548.31 269.799,2534.31 258.5,2520.5C 252.362,2508.84 246.862,2496.84 242,2484.5C 233.225,2470.46 223.558,2457.13 213,2444.5C 209.635,2439.85 207.135,2434.68 205.5,2429C 201.044,2423.23 197.044,2417.23 193.5,2411C 184.371,2389.91 174.204,2369.41 163,2349.5C 150.788,2320.53 139.954,2291.03 130.5,2261C 124.931,2248.8 119.265,2236.63 113.5,2224.5C 112.373,2218.82 110.707,2213.32 108.5,2208C 107.453,2202.17 106.453,2196.34 105.5,2190.5C 98.1639,2176.18 92.4972,2161.18 88.5,2145.5C 85.3547,2114.82 82.0214,2084.15 78.5,2053.5C 81.1667,2043.17 81.1667,2032.83 78.5,2022.5C 81.1667,2012.17 81.1667,2001.83 78.5,1991.5C 81.1667,1981.17 81.1667,1970.83 78.5,1960.5C 81.1667,1950.17 81.1667,1939.83 78.5,1929.5C 81.1257,1919.34 81.1257,1909.17 78.5,1899C 81.1257,1888.83 81.1257,1878.66 78.5,1868.5C 81.1667,1858.17 81.1667,1847.83 78.5,1837.5C 81.1667,1827.5 81.1667,1817.5 78.5,1807.5C 81.1667,1797.17 81.1667,1786.83 78.5,1776.5C 80,1764.83 81.5,1753.17 83,1741.5C 83.7655,1738.42 84.7655,1735.42 86,1732.5C 84.3973,1709.53 86.8973,1687.03 93.5,1665C 92.389,1654.82 92.7223,1644.65 94.5,1634.5C 98.8207,1611.11 104.154,1587.94 110.5,1565C 112.552,1542.62 117.552,1520.95 125.5,1500C 129.008,1479.62 133.342,1459.46 138.5,1439.5C 141.296,1429.82 144.63,1420.32 148.5,1411C 150.635,1406.57 153.135,1402.4 156,1398.5C 159.957,1378.28 166.957,1359.28 177,1341.5C 179.54,1336.2 181.707,1330.7 183.5,1325C 195.83,1303.17 207.497,1281 218.5,1258.5C 223.686,1250.8 229.352,1243.46 235.5,1236.5C 237.314,1231.7 239.814,1227.37 243,1223.5C 250.722,1215.76 257.389,1207.09 263,1197.5C 267.47,1193.69 270.804,1189.02 273,1183.5C 289.525,1164 307.192,1145.34 326,1127.5C 338.03,1107.14 353.53,1089.81 372.5,1075.5C 389.491,1066.85 404.825,1056.02 418.5,1043C 419.5,1042.67 420.5,1042.33 421.5,1042C 426.485,1036.2 431.818,1030.87 437.5,1026C 443.214,1021.97 449.214,1018.3 455.5,1015C 463.258,1008.25 471.591,1002.25 480.5,997C 486.426,991.362 493.093,986.696 500.5,983C 506.317,977.927 512.317,973.093 518.5,968.5C 528.067,963.086 536.9,956.753 545,949.5C 555.777,944.857 565.611,938.857 574.5,931.5C 588.774,924.865 602.774,917.865 616.5,910.5C 627.826,901.908 639.159,893.408 650.5,885C 662.287,872.271 676.287,862.771 692.5,856.5C 705.706,847.479 719.872,840.146 735,834.5C 741.79,829.452 748.957,824.952 756.5,821C 757.167,820 757.833,819 758.5,818C 764.25,814.438 769.917,810.605 775.5,806.5C 778.542,803.122 781.875,800.122 785.5,797.5C 795.6,785.213 807.267,775.046 820.5,767C 822.589,764.122 824.923,761.455 827.5,759C 828.5,758.667 829.5,758.333 830.5,758C 838.571,750.011 848.071,743.844 859,739.5C 861.246,736.987 863.746,734.821 866.5,733C 879.479,725.346 893.146,719.013 907.5,714C 914.714,707.323 922.714,701.823 931.5,697.5C 944.619,692.363 957.285,686.363 969.5,679.5C 972.585,678.27 975.751,677.27 979,676.5C 983.615,672.728 988.115,668.895 992.5,665C 1009.7,653.842 1028.37,645.675 1048.5,640.5C 1059.97,635.546 1071.64,631.046 1083.5,627C 1098.51,618.828 1113.51,610.661 1128.5,602.5C 1148.95,595.742 1168.95,587.908 1188.5,579C 1207.19,573.219 1225.19,565.885 1242.5,557C 1285.47,544.098 1328.14,530.598 1370.5,516.5C 1391.69,511.55 1412.53,505.55 1433,498.5C 1450.33,495.173 1467.16,490.339 1483.5,484C 1496.29,481.143 1509.12,478.643 1522,476.5C 1535.61,475.398 1549.11,473.564 1562.5,471C 1572.67,469.713 1582.84,469.546 1593,470.5C 1595.77,470.186 1598.27,469.186 1600.5,467.5C 1613.76,465.6 1626.76,462.6 1639.5,458.5C 1652.63,456.271 1665.79,455.605 1679,456.5C 1698.87,452.575 1718.7,448.408 1738.5,444C 1770.49,441.084 1802.49,438.25 1834.5,435.5C 1842.03,434.425 1849.53,434.425 1857,435.5C 1861.16,434.627 1865.16,433.294 1869,431.5C 1879.17,430.096 1889,428.429 1898.5,426.5 Z"/></g>
</svg>
