<?xml version="1.0" encoding="UTF-8"?>
<!DOCTYPE svg PUBLIC "-//W3C//DTD SVG 1.1//EN" "http://www.w3.org/Graphics/SVG/1.1/DTD/svg11.dtd">
<svg xmlns="http://www.w3.org/2000/svg" version="1.1" width="4096px" height="4096px" style="shape-rendering:geometricPrecision; text-rendering:geometricPrecision; image-rendering:optimizeQuality; fill-rule:evenodd; clip-rule:evenodd" xmlns:xlink="http://www.w3.org/1999/xlink">
<g><path style="opacity:1" fill="#fefffe" d="M 1771.5,380.5 C 1788.19,380.969 1804.86,381.969 1821.5,383.5C 1875.5,383.5 1929.5,383.5 1983.5,383.5C 1996.99,382.698 2010.49,382.031 2024,381.5C 2046.5,381.306 2069,381.973 2091.5,383.5C 2118.5,380.833 2145.5,380.833 2172.5,383.5C 2195,381.973 2217.5,381.306 2240,381.5C 2280.87,382.482 2321.04,388.315 2360.5,399C 2382.51,408.562 2404.18,418.895 2425.5,430C 2446.74,431.526 2466.41,437.859 2484.5,449C 2501.56,451.686 2517.56,457.353 2532.5,466C 2541.34,471.254 2550.34,476.254 2559.5,481C 2579.74,495.624 2601.4,507.958 2624.5,518C 2644.72,529.883 2660.55,546.05 2672,566.5C 2675.35,569.682 2678.52,573.015 2681.5,576.5C 2707.85,600.019 2734.35,623.353 2761,646.5C 2775.99,665.136 2788.99,685.136 2800,706.5C 2811.92,715.078 2823.25,724.411 2834,734.5C 2838.24,739.317 2842.24,744.317 2846,749.5C 2852.94,761.433 2860.27,773.1 2868,784.5C 2881.11,801.612 2896.28,816.779 2913.5,830C 2920.04,836.872 2926.21,844.039 2932,851.5C 2971.67,915.5 3011.33,979.5 3051,1043.5C 3060.41,1060.99 3068.74,1078.99 3076,1097.5C 3079.61,1109.34 3082.61,1121.34 3085,1133.5C 3089.94,1170.88 3095.27,1208.21 3101,1245.5C 3101.4,1257.67 3101.9,1269.84 3102.5,1282C 3101.18,1326.95 3101.18,1371.95 3102.5,1417C 3101.37,1432.5 3100.21,1448 3099,1463.5C 3095.13,1484.52 3091.13,1505.52 3087,1526.5C 3082.73,1543.71 3075.73,1559.71 3066,1574.5C 3064.07,1581.64 3061.73,1588.64 3059,1595.5C 3056.88,1631.23 3043.88,1662.23 3020,1688.5C 3009.67,1709.17 2999.33,1729.83 2989,1750.5C 2982.33,1759.17 2976.66,1768.5 2972,1778.5C 2948.94,1807.61 2927.61,1837.94 2908,1869.5C 2898.35,1881.49 2888.35,1893.15 2878,1904.5C 2866.51,1914.33 2855.34,1924.49 2844.5,1935C 2832.45,1944.72 2820.12,1954.05 2807.5,1963C 2801.83,1969.33 2796.17,1975.67 2790.5,1982C 2767.21,2000.96 2744.21,2020.29 2721.5,2040C 2710.94,2048.45 2699.27,2055.12 2686.5,2060C 2682.5,2063 2678.5,2066 2674.5,2069C 2653.79,2080.02 2634.45,2093.02 2616.5,2108C 2593.11,2123.13 2567.44,2131.46 2539.5,2133C 2519.15,2140.34 2498.15,2143.67 2476.5,2143C 2457.61,2147.24 2438.61,2150.9 2419.5,2154C 2352.99,2153.85 2286.49,2154.02 2220,2154.5C 2208.17,2153.91 2196.34,2153.41 2184.5,2153C 2156.14,2149.7 2127.81,2146.2 2099.5,2142.5C 2077.01,2143.03 2054.51,2143.36 2032,2143.5C 2025.48,2143.3 2018.98,2142.8 2012.5,2142C 1999.59,2139.47 1986.93,2136.14 1974.5,2132C 1959.04,2133.2 1943.71,2132.2 1928.5,2129C 1906.22,2123.6 1884.22,2117.26 1862.5,2110C 1815.23,2107.51 1769.89,2096.85 1726.5,2078C 1711.66,2069.42 1696,2062.75 1679.5,2058C 1665.26,2050.48 1650.92,2043.14 1636.5,2036C 1608.93,2029.71 1585.93,2016.04 1567.5,1995C 1560.49,1991.16 1553.83,1986.83 1547.5,1982C 1535.66,1971.66 1523.99,1961.16 1512.5,1950.5C 1485.14,1937.31 1464.97,1916.97 1452,1889.5C 1442.65,1879.49 1432.65,1870.16 1422,1861.5C 1415.89,1854.73 1410.56,1847.39 1406,1839.5C 1384.86,1823.01 1369.86,1802.01 1361,1776.5C 1350.58,1764.72 1342.58,1751.39 1337,1736.5C 1311.6,1716.4 1295.26,1690.4 1288,1658.5C 1272.75,1635.17 1265.08,1609.5 1265,1581.5C 1258.85,1565.41 1255.52,1548.75 1255,1531.5C 1250.49,1512.94 1246.49,1494.28 1243,1475.5C 1241.55,1455.5 1241.72,1435.5 1243.5,1415.5C 1243.5,1397.5 1243.5,1379.5 1243.5,1361.5C 1241.72,1341.5 1241.55,1321.5 1243,1301.5C 1244.76,1290.48 1247.76,1279.81 1252,1269.5C 1252.43,1264.83 1252.93,1260.16 1253.5,1255.5C 1251.9,1241.03 1252.74,1226.7 1256,1212.5C 1260.67,1192.5 1265.33,1172.5 1270,1152.5C 1272.9,1142.7 1276.9,1133.37 1282,1124.5C 1286.41,1099.02 1296.74,1076.35 1313,1056.5C 1317.32,1047.86 1321.65,1039.2 1326,1030.5C 1328.84,1025.48 1332.18,1020.81 1336,1016.5C 1342.48,995.863 1352.81,977.53 1367,961.5C 1376.33,953.5 1385,944.833 1393,935.5C 1398.5,925.827 1404.5,916.494 1411,907.5C 1466.05,851.903 1521.22,796.403 1576.5,741C 1581.99,736.424 1587.65,732.091 1593.5,728C 1597.55,722.742 1601.71,717.575 1606,712.5C 1618.25,700.575 1630.75,689.075 1643.5,678C 1576.94,668.77 1536.77,631.27 1523,565.5C 1517.55,516.252 1533.39,475.418 1570.5,443C 1581.73,434.215 1594.06,427.215 1607.5,422C 1645.17,411.667 1682.83,401.333 1720.5,391C 1737.55,386.982 1754.55,383.482 1771.5,380.5 Z M 2384.5,694.5 C 2395.47,699.099 2406.8,702.599 2418.5,705C 2425.35,708.592 2431.69,712.925 2437.5,718C 2444.83,722 2452.17,726 2459.5,730C 2492.38,762.041 2526.38,792.875 2561.5,822.5C 2565.82,831.809 2570.65,840.809 2576,849.5C 2587.46,863.959 2599.29,878.126 2611.5,892C 2620.63,900.628 2629.97,909.128 2639.5,917.5C 2645.92,926.662 2652.08,935.995 2658,945.5C 2668.05,957.211 2677.71,969.211 2687,981.5C 2699.34,992.005 2711.17,1003.01 2722.5,1014.5C 2756.33,1069.5 2790.17,1124.5 2824,1179.5C 2827.81,1207.89 2832.14,1236.22 2837,1264.5C 2837.27,1274.85 2837.77,1285.18 2838.5,1295.5C 2838.5,1313.5 2838.5,1331.5 2838.5,1349.5C 2836.82,1370.32 2836.48,1391.15 2837.5,1412C 2837.53,1433.53 2832.36,1453.7 2822,1472.5C 2814.54,1492.23 2807.87,1512.23 2802,1532.5C 2791.81,1549.74 2783.14,1567.74 2776,1586.5C 2769.06,1599.37 2762.4,1612.37 2756,1625.5C 2744.49,1641.86 2732.49,1657.86 2720,1673.5C 2710.64,1687.36 2701.47,1701.36 2692.5,1715.5C 2672.13,1734.18 2650.79,1751.68 2628.5,1768C 2622.83,1774.33 2617.17,1780.67 2611.5,1787C 2597.65,1798.43 2583.98,1810.1 2570.5,1822C 2561.55,1825.81 2552.89,1830.14 2544.5,1835C 2536.55,1840.62 2528.88,1846.62 2521.5,1853C 2509.24,1859.6 2497.24,1866.6 2485.5,1874C 2471.47,1877.85 2457.13,1879.85 2442.5,1880C 2426.91,1883.82 2411.24,1887.32 2395.5,1890.5C 2341.51,1890.34 2287.51,1890.34 2233.5,1890.5C 2223.52,1889.77 2213.52,1889.27 2203.5,1889C 2176.55,1885.28 2149.55,1881.94 2122.5,1879C 2105.83,1879.17 2089.17,1879.33 2072.5,1879.5C 2061.9,1876.25 2051.23,1873.08 2040.5,1870C 2033.93,1868.35 2027.26,1867.35 2020.5,1867C 2004.5,1867.23 1988.5,1867.23 1972.5,1867C 1951.55,1860.51 1930.55,1854.18 1909.5,1848C 1895.47,1844.75 1881.3,1843.92 1867,1845.5C 1856.97,1843.76 1847.14,1841.26 1837.5,1838C 1827.53,1833.02 1817.53,1828.02 1807.5,1823C 1798.16,1819.66 1788.82,1816.33 1779.5,1813C 1763.47,1798.81 1745.14,1788.48 1724.5,1782C 1719.5,1778.17 1714.17,1774.83 1708.5,1772C 1699.17,1764 1690.5,1755.33 1682.5,1746C 1677.94,1741.81 1673.11,1737.97 1668,1734.5C 1660.44,1722.55 1650.94,1712.38 1639.5,1704C 1636.37,1699.87 1632.87,1696.03 1629,1692.5C 1620.05,1672.91 1607.05,1656.58 1590,1643.5C 1586.07,1636.63 1581.4,1630.3 1576,1624.5C 1572.88,1616.26 1569.21,1608.26 1565,1600.5C 1556,1587.17 1547,1573.83 1538,1560.5C 1534.86,1552.89 1531.19,1545.55 1527,1538.5C 1525.09,1527.84 1522.09,1517.51 1518,1507.5C 1517.33,1500.83 1516.67,1494.17 1516,1487.5C 1512.19,1472.8 1509.03,1457.97 1506.5,1443C 1507.82,1415.83 1507.82,1388.67 1506.5,1361.5C 1507.13,1355.85 1507.63,1350.18 1508,1344.5C 1513.04,1331.98 1516.04,1318.98 1517,1305.5C 1516.63,1289.64 1516.46,1273.81 1516.5,1258C 1519.17,1249.29 1521.34,1240.46 1523,1231.5C 1529.01,1220.81 1533.34,1209.48 1536,1197.5C 1542.95,1187.94 1548.62,1177.6 1553,1166.5C 1564.6,1152.98 1573.93,1137.98 1581,1121.5C 1587.96,1112.87 1595.29,1104.54 1603,1096.5C 1608.46,1089.7 1613.12,1082.37 1617,1074.5C 1663.17,1029.67 1708.67,984.167 1753.5,938C 1772.02,927.812 1787.02,913.812 1798.5,896C 1819.1,885.4 1835.93,870.566 1849,851.5C 1857.77,845.364 1865.6,838.197 1872.5,830C 1883.86,821.437 1893.53,811.27 1901.5,799.5C 1917.94,791.779 1933.94,783.279 1949.5,774C 1954.64,772.732 1959.64,771.066 1964.5,769C 1970.18,768.627 1975.85,768.127 1981.5,767.5C 2076.37,768.065 2171.2,768.398 2266,768.5C 2319.81,766.203 2359.31,741.536 2384.5,694.5 Z"/></g>
<g><path style="opacity:1" fill="#fefffe" d="M 1673.5,2548.5 C 1699.17,2547.97 1724.84,2548.64 1750.5,2550.5C 1777.5,2549.17 1804.5,2549.17 1831.5,2550.5C 1858.5,2547.83 1885.5,2547.83 1912.5,2550.5C 1948.5,2550.5 1984.5,2550.5 2020.5,2550.5C 2047.83,2547.87 2075.17,2547.87 2102.5,2550.5C 2120.5,2550.5 2138.5,2550.5 2156.5,2550.5C 2183.5,2547.83 2210.5,2547.83 2237.5,2550.5C 2255.5,2550.5 2273.5,2550.5 2291.5,2550.5C 2304.99,2549.7 2318.49,2549.03 2332,2548.5C 2341.95,2548.71 2351.78,2549.88 2361.5,2552C 2384.65,2558.27 2407.32,2565.94 2429.5,2575C 2447.16,2579.67 2464.5,2585.33 2481.5,2592C 2500.27,2600.71 2516.93,2612.38 2531.5,2627C 2535.24,2628.14 2538.91,2629.47 2542.5,2631C 2558.33,2639.08 2573.99,2647.41 2589.5,2656C 2608.41,2669.57 2626.74,2683.9 2644.5,2699C 2660.5,2706.33 2676.5,2713.67 2692.5,2721C 2709.49,2733.16 2726.82,2744.83 2744.5,2756C 2754.83,2764.5 2766.16,2771.5 2778.5,2777C 2788.97,2785.73 2799.97,2793.73 2811.5,2801C 2821.75,2811.12 2832.41,2820.79 2843.5,2830C 2855.7,2835.6 2866.7,2842.93 2876.5,2852C 2895.31,2872.48 2915.14,2891.98 2936,2910.5C 2940.67,2916.5 2945.33,2922.5 2950,2928.5C 2955.5,2941.33 2963.33,2952.49 2973.5,2962C 2995.43,2978.99 3010.6,3000.82 3019,3027.5C 3032.75,3045.32 3044.75,3064.32 3055,3084.5C 3060.38,3090.21 3065.38,3096.21 3070,3102.5C 3074.88,3111.38 3080.55,3119.71 3087,3127.5C 3091.53,3135.22 3095.53,3143.22 3099,3151.5C 3104.38,3157.21 3109.38,3163.21 3114,3169.5C 3118.88,3178.38 3124.55,3186.71 3131,3194.5C 3136.19,3203.55 3140.86,3212.89 3145,3222.5C 3150.82,3229.48 3156.16,3236.81 3161,3244.5C 3167.67,3257.17 3174.33,3269.83 3181,3282.5C 3183.88,3291.82 3187.55,3300.82 3192,3309.5C 3212,3327.19 3226,3348.86 3234,3374.5C 3239.04,3379.88 3243.71,3385.54 3248,3391.5C 3255.33,3402.17 3262.67,3412.83 3270,3423.5C 3296.34,3444.83 3313.01,3472.17 3320,3505.5C 3370.16,3533.12 3394.49,3575.79 3393,3633.5C 3392.32,3643.25 3390.48,3652.75 3387.5,3662C 3394.67,3671.17 3401.83,3680.33 3409,3689.5C 3425.79,3699.95 3439.62,3713.45 3450.5,3730C 3413.17,3730.33 3375.83,3730.67 3338.5,3731C 3309.39,3751.69 3277.06,3759.69 3241.5,3755C 3208.83,3748.67 3176.17,3742.33 3143.5,3736C 3138.76,3734.53 3134.09,3732.86 3129.5,3731C 3113.83,3730 3098.17,3729 3082.5,3728C 3075,3726.79 3067.67,3724.96 3060.5,3722.5C 3043.23,3724.07 3026.23,3722.41 3009.5,3717.5C 2690.04,3717.96 2370.54,3718.29 2051,3718.5C 2036.78,3718.42 2022.94,3716.09 2009.5,3711.5C 1988.04,3712.13 1966.54,3712.46 1945,3712.5C 1931.4,3712.31 1918.06,3710.31 1905,3706.5C 1861.85,3707.58 1818.68,3707.74 1775.5,3707C 1764.41,3706.12 1753.58,3703.95 1743,3700.5C 1613.03,3701.15 1483.03,3701.48 1353,3701.5C 1330.96,3701.63 1309.12,3699.63 1287.5,3695.5C 1197.16,3695.58 1106.83,3695.58 1016.5,3695.5C 999.36,3699.11 982.027,3700.95 964.5,3701C 955.645,3703.64 946.645,3705.64 937.5,3707C 914.21,3719.72 889.377,3724.89 863,3722.5C 846.968,3726.61 830.802,3730.11 814.5,3733C 803.679,3734.6 792.846,3734.77 782,3733.5C 772.264,3735.85 762.43,3737.68 752.5,3739C 710.475,3771.74 664.475,3778.74 614.5,3760C 599.623,3753.04 584.956,3745.71 570.5,3738C 525.917,3705.98 506.417,3662.48 512,3607.5C 516.658,3580.52 527.991,3556.85 546,3536.5C 556.207,3527.29 566.707,3518.46 577.5,3510C 592.511,3498.74 609.011,3490.24 627,3484.5C 647.482,3445.05 666.815,3405.05 685,3364.5C 689.333,3358.17 693.667,3351.83 698,3345.5C 704.53,3329.44 711.863,3313.77 720,3298.5C 722.892,3281.82 728.558,3266.16 737,3251.5C 744.093,3235.63 753.427,3221.3 765,3208.5C 772.896,3192.27 781.23,3176.27 790,3160.5C 804.495,3140.18 818.495,3119.51 832,3098.5C 841.904,3088.37 849.571,3076.71 855,3063.5C 862.333,3054.18 868.666,3044.18 874,3033.5C 880.294,3025.54 886.96,3017.87 894,3010.5C 909.389,2989.44 924.389,2968.11 939,2946.5C 944.626,2939.21 950.626,2932.21 957,2925.5C 966.589,2904.41 980.755,2887.08 999.5,2873.5C 1006.76,2862.74 1015.26,2853.08 1025,2844.5C 1034.33,2831.17 1043.67,2817.83 1053,2804.5C 1059.33,2796.83 1066.33,2789.83 1074,2783.5C 1086.55,2759.95 1104.72,2742.11 1128.5,2730C 1131.46,2726.03 1134.8,2722.37 1138.5,2719C 1144.61,2714.52 1150.44,2709.69 1156,2704.5C 1173.95,2679.58 1197.78,2662.75 1227.5,2654C 1238.34,2645.74 1250,2638.74 1262.5,2633C 1288.54,2609.53 1319.21,2597.2 1354.5,2596C 1367.05,2590.95 1380.05,2587.61 1393.5,2586C 1409.13,2577.59 1425.8,2572.59 1443.5,2571C 1460.55,2563.59 1478.38,2559.76 1497,2559.5C 1510.51,2560.03 1524.01,2560.7 1537.5,2561.5C 1564.5,2560.17 1591.5,2560.17 1618.5,2561.5C 1621.85,2561.11 1625.18,2560.61 1628.5,2560C 1643.11,2554.1 1658.11,2550.26 1673.5,2548.5 Z M 1701.5,2813.5 C 1898.14,2813.99 2094.81,2813.99 2291.5,2813.5C 2299.82,2814.21 2308.15,2814.71 2316.5,2815C 2331.83,2821.33 2347.5,2826.67 2363.5,2831C 2375.5,2839.67 2387.5,2848.33 2399.5,2857C 2414.75,2864.19 2430.08,2871.19 2445.5,2878C 2465.26,2894.43 2485.6,2910.1 2506.5,2925C 2523.79,2934.1 2541.46,2942.43 2559.5,2950C 2566.97,2956.9 2575.3,2962.57 2584.5,2967C 2600.1,2985.15 2619.43,2997.81 2642.5,3005C 2655.13,3015.63 2667.13,3026.96 2678.5,3039C 2687.17,3045.67 2696.5,3051.34 2706.5,3056C 2712.82,3062.6 2719.32,3069.1 2726,3075.5C 2727.63,3078.13 2729.63,3080.46 2732,3082.5C 2740.33,3098.82 2751.33,3113.15 2765,3125.5C 2768.9,3132.07 2773.57,3138.07 2779,3143.5C 2782.82,3151.82 2787.16,3159.82 2792,3167.5C 2800,3177.5 2808,3187.5 2816,3197.5C 2820.95,3210.06 2826.95,3222.06 2834,3233.5C 2841.95,3244.12 2850.62,3254.12 2860,3263.5C 2865.12,3275.08 2870.79,3286.41 2877,3297.5C 2885.76,3308.68 2894.76,3319.68 2904,3330.5C 2908.65,3339.8 2913.32,3349.14 2918,3358.5C 2924.33,3367.5 2930.67,3376.5 2937,3385.5C 2943.67,3402.17 2950.33,3418.83 2957,3435.5C 2959.79,3441.57 2962.95,3447.41 2966.5,3453C 2963.18,3453.61 2959.85,3454.11 2956.5,3454.5C 2704.34,3454.46 2452.17,3454.46 2200,3454.5C 2172.83,3451.85 2145.67,3451.85 2118.5,3454.5C 2101.46,3454.26 2084.46,3454.26 2067.5,3454.5C 2057.11,3450.99 2046.45,3448.82 2035.5,3448C 2010.31,3447.26 1985.15,3447.42 1960,3448.5C 1946.94,3444.69 1933.6,3442.69 1920,3442.5C 1880.31,3442.56 1840.64,3442.89 1801,3443.5C 1787.37,3438.97 1773.37,3436.64 1759,3436.5C 1628.33,3436.66 1497.66,3436.99 1367,3437.5C 1356.85,3436.78 1346.68,3436.28 1336.5,3436C 1324.82,3433.28 1312.99,3431.78 1301,3431.5C 1201.66,3432.75 1102.33,3432.75 1003,3431.5C 991.011,3431.78 979.178,3433.28 967.5,3436C 960.476,3436.83 953.476,3436.66 946.5,3435.5C 953.762,3421.54 960.929,3407.54 968,3393.5C 971.676,3384.8 974.343,3375.8 976,3366.5C 981.487,3360.19 986.487,3353.52 991,3346.5C 998.396,3331.38 1006.06,3316.38 1014,3301.5C 1023.33,3287.5 1032.67,3273.5 1042,3259.5C 1050.18,3247.81 1058.85,3236.47 1068,3225.5C 1074.08,3213.67 1080.41,3202.01 1087,3190.5C 1098.91,3178.93 1108.91,3165.93 1117,3151.5C 1127,3137.5 1137,3123.5 1147,3109.5C 1153.63,3101.2 1160.63,3093.2 1168,3085.5C 1172.5,3079.84 1176.5,3073.84 1180,3067.5C 1191.48,3057.69 1201.15,3046.35 1209,3033.5C 1215.67,3028.17 1221.67,3022.17 1227,3015.5C 1235.28,3002.89 1243.94,2990.56 1253,2978.5C 1266.08,2968.75 1277.08,2957.08 1286,2943.5C 1296.42,2936.41 1305.59,2927.91 1313.5,2918C 1326.89,2910.81 1338.55,2901.47 1348.5,2890C 1360.17,2883.16 1371.51,2875.83 1382.5,2868C 1390.32,2864.26 1397.99,2860.26 1405.5,2856C 1415.81,2854.01 1425.81,2851.01 1435.5,2847C 1450.1,2844.81 1464.43,2841.48 1478.5,2837C 1499.29,2836.48 1519.29,2832.31 1538.5,2824.5C 1572.83,2824.58 1607.16,2824.75 1641.5,2825C 1653.48,2823.2 1665.48,2821.54 1677.5,2820C 1685.87,2818.74 1693.87,2816.58 1701.5,2813.5 Z"/></g>
</svg>
