<?xml version="1.0" encoding="UTF-8"?>
<!DOCTYPE svg PUBLIC "-//W3C//DTD SVG 1.1//EN" "http://www.w3.org/Graphics/SVG/1.1/DTD/svg11.dtd">
<svg xmlns="http://www.w3.org/2000/svg" version="1.1" width="4096px" height="4096px" style="shape-rendering:geometricPrecision; text-rendering:geometricPrecision; image-rendering:optimizeQuality; fill-rule:evenodd; clip-rule:evenodd" xmlns:xlink="http://www.w3.org/1999/xlink">
<g><path style="opacity:1" fill="#1da0f2" d="M 1771.5,380.5 C 1788.19,380.969 1804.86,381.969 1821.5,383.5C 1875.5,383.5 1929.5,383.5 1983.5,383.5C 1996.99,382.698 2010.49,382.031 2024,381.5C 2046.5,381.306 2069,381.973 2091.5,383.5C 2118.5,380.833 2145.5,380.833 2172.5,383.5C 2195,381.973 2217.5,381.306 2240,381.5C 2280.87,382.482 2321.04,388.315 2360.5,399C 2382.51,408.562 2404.18,418.895 2425.5,430C 2446.74,431.526 2466.41,437.859 2484.5,449C 2501.56,451.686 2517.56,457.353 2532.5,466C 2541.34,471.254 2550.34,476.254 2559.5,481C 2579.74,495.624 2601.4,507.958 2624.5,518C 2644.72,529.883 2660.55,546.05 2672,566.5C 2675.35,569.682 2678.52,573.015 2681.5,576.5C 2707.85,600.019 2734.35,623.353 2761,646.5C 2775.99,665.136 2788.99,685.136 2800,706.5C 2811.92,715.078 2823.25,724.411 2834,734.5C 2838.24,739.317 2842.24,744.317 2846,749.5C 2852.94,761.433 2860.27,773.1 2868,784.5C 2881.11,801.612 2896.28,816.779 2913.5,830C 2920.04,836.872 2926.21,844.039 2932,851.5C 2971.67,915.5 3011.33,979.5 3051,1043.5C 3060.41,1060.99 3068.74,1078.99 3076,1097.5C 3079.61,1109.34 3082.61,1121.34 3085,1133.5C 3089.94,1170.88 3095.27,1208.21 3101,1245.5C 3101.4,1257.67 3101.9,1269.84 3102.5,1282C 3101.18,1326.95 3101.18,1371.95 3102.5,1417C 3101.37,1432.5 3100.21,1448 3099,1463.5C 3095.13,1484.52 3091.13,1505.52 3087,1526.5C 3082.73,1543.71 3075.73,1559.71 3066,1574.5C 3064.07,1581.64 3061.73,1588.64 3059,1595.5C 3056.88,1631.23 3043.88,1662.23 3020,1688.5C 3009.67,1709.17 2999.33,1729.83 2989,1750.5C 2982.33,1759.17 2976.66,1768.5 2972,1778.5C 2948.94,1807.61 2927.61,1837.94 2908,1869.5C 2898.35,1881.49 2888.35,1893.15 2878,1904.5C 2866.51,1914.33 2855.34,1924.49 2844.5,1935C 2832.45,1944.72 2820.12,1954.05 2807.5,1963C 2801.83,1969.33 2796.17,1975.67 2790.5,1982C 2767.21,2000.96 2744.21,2020.29 2721.5,2040C 2710.94,2048.45 2699.27,2055.12 2686.5,2060C 2682.5,2063 2678.5,2066 2674.5,2069C 2653.79,2080.02 2634.45,2093.02 2616.5,2108C 2593.11,2123.13 2567.44,2131.46 2539.5,2133C 2519.15,2140.34 2498.15,2143.67 2476.5,2143C 2457.61,2147.24 2438.61,2150.9 2419.5,2154C 2352.99,2153.85 2286.49,2154.02 2220,2154.5C 2208.17,2153.91 2196.34,2153.41 2184.5,2153C 2156.14,2149.7 2127.81,2146.2 2099.5,2142.5C 2077.01,2143.03 2054.51,2143.36 2032,2143.5C 2025.48,2143.3 2018.98,2142.8 2012.5,2142C 1999.59,2139.47 1986.93,2136.14 1974.5,2132C 1959.04,2133.2 1943.71,2132.2 1928.5,2129C 1906.22,2123.6 1884.22,2117.26 1862.5,2110C 1815.23,2107.51 1769.89,2096.85 1726.5,2078C 1711.66,2069.42 1696,2062.75 1679.5,2058C 1665.26,2050.48 1650.92,2043.14 1636.5,2036C 1608.93,2029.71 1585.93,2016.04 1567.5,1995C 1560.49,1991.16 1553.83,1986.83 1547.5,1982C 1535.66,1971.66 1523.99,1961.16 1512.5,1950.5C 1485.14,1937.31 1464.97,1916.97 1452,1889.5C 1442.65,1879.49 1432.65,1870.16 1422,1861.5C 1415.89,1854.73 1410.56,1847.39 1406,1839.5C 1384.86,1823.01 1369.86,1802.01 1361,1776.5C 1350.58,1764.72 1342.58,1751.39 1337,1736.5C 1311.6,1716.4 1295.26,1690.4 1288,1658.5C 1272.75,1635.17 1265.08,1609.5 1265,1581.5C 1258.85,1565.41 1255.52,1548.75 1255,1531.5C 1250.49,1512.94 1246.49,1494.28 1243,1475.5C 1241.55,1455.5 1241.72,1435.5 1243.5,1415.5C 1243.5,1397.5 1243.5,1379.5 1243.5,1361.5C 1241.72,1341.5 1241.55,1321.5 1243,1301.5C 1244.76,1290.48 1247.76,1279.81 1252,1269.5C 1252.43,1264.83 1252.93,1260.16 1253.5,1255.5C 1251.9,1241.03 1252.74,1226.7 1256,1212.5C 1260.67,1192.5 1265.33,1172.5 1270,1152.5C 1272.9,1142.7 1276.9,1133.37 1282,1124.5C 1286.41,1099.02 1296.74,1076.35 1313,1056.5C 1317.32,1047.86 1321.65,1039.2 1326,1030.5C 1328.84,1025.48 1332.18,1020.81 1336,1016.5C 1342.48,995.863 1352.81,977.53 1367,961.5C 1376.33,953.5 1385,944.833 1393,935.5C 1398.5,925.827 1404.5,916.494 1411,907.5C 1466.05,851.903 1521.22,796.403 1576.5,741C 1581.99,736.424 1587.65,732.091 1593.5,728C 1597.55,722.742 1601.71,717.575 1606,712.5C 1618.25,700.575 1630.75,689.075 1643.5,678C 1576.94,668.77 1536.77,631.27 1523,565.5C 1517.55,516.252 1533.39,475.418 1570.5,443C 1581.73,434.215 1594.06,427.215 1607.5,422C 1645.17,411.667 1682.83,401.333 1720.5,391C 1737.55,386.982 1754.55,383.482 1771.5,380.5 Z"/></g>
<g><path style="opacity:1" fill="#1da0f2" d="M 1673.5,2548.5 C 1699.17,2547.97 1724.84,2548.64 1750.5,2550.5C 1777.5,2549.17 1804.5,2549.17 1831.5,2550.5C 1858.5,2547.83 1885.5,2547.83 1912.5,2550.5C 1948.5,2550.5 1984.5,2550.5 2020.5,2550.5C 2047.83,2547.87 2075.17,2547.87 2102.5,2550.5C 2120.5,2550.5 2138.5,2550.5 2156.5,2550.5C 2183.5,2547.83 2210.5,2547.83 2237.5,2550.5C 2255.5,2550.5 2273.5,2550.5 2291.5,2550.5C 2304.99,2549.7 2318.49,2549.03 2332,2548.5C 2341.95,2548.71 2351.78,2549.88 2361.5,2552C 2384.65,2558.27 2407.32,2565.94 2429.5,2575C 2447.16,2579.67 2464.5,2585.33 2481.5,2592C 2500.27,2600.71 2516.93,2612.38 2531.5,2627C 2535.24,2628.14 2538.91,2629.47 2542.5,2631C 2558.33,2639.08 2573.99,2647.41 2589.5,2656C 2608.41,2669.57 2626.74,2683.9 2644.5,2699C 2660.5,2706.33 2676.5,2713.67 2692.5,2721C 2709.49,2733.16 2726.82,2744.83 2744.5,2756C 2754.83,2764.5 2766.16,2771.5 2778.5,2777C 2788.97,2785.73 2799.97,2793.73 2811.5,2801C 2821.75,2811.12 2832.41,2820.79 2843.5,2830C 2855.7,2835.6 2866.7,2842.93 2876.5,2852C 2895.31,2872.48 2915.14,2891.98 2936,2910.5C 2940.67,2916.5 2945.33,2922.5 2950,2928.5C 2955.5,2941.33 2963.33,2952.49 2973.5,2962C 2995.43,2978.99 3010.6,3000.82 3019,3027.5C 3032.75,3045.32 3044.75,3064.32 3055,3084.5C 3060.38,3090.21 3065.38,3096.21 3070,3102.5C 3074.88,3111.38 3080.55,3119.71 3087,3127.5C 3091.53,3135.22 3095.53,3143.22 3099,3151.5C 3104.38,3157.21 3109.38,3163.21 3114,3169.5C 3118.88,3178.38 3124.55,3186.71 3131,3194.5C 3136.19,3203.55 3140.86,3212.89 3145,3222.5C 3150.82,3229.48 3156.16,3236.81 3161,3244.5C 3167.67,3257.17 3174.33,3269.83 3181,3282.5C 3183.88,3291.82 3187.55,3300.82 3192,3309.5C 3212,3327.19 3226,3348.86 3234,3374.5C 3239.04,3379.88 3243.71,3385.54 3248,3391.5C 3255.33,3402.17 3262.67,3412.83 3270,3423.5C 3296.34,3444.83 3313.01,3472.17 3320,3505.5C 3370.16,3533.12 3394.49,3575.79 3393,3633.5C 3392.32,3643.25 3390.48,3652.75 3387.5,3662C 3394.67,3671.17 3401.83,3680.33 3409,3689.5C 3425.79,3699.95 3439.62,3713.45 3450.5,3730C 3413.17,3730.33 3375.83,3730.67 3338.5,3731C 3309.39,3751.69 3277.06,3759.69 3241.5,3755C 3208.83,3748.67 3176.17,3742.33 3143.5,3736C 3138.76,3734.53 3134.09,3732.86 3129.5,3731C 3113.83,3730 3098.17,3729 3082.5,3728C 3075,3726.79 3067.67,3724.96 3060.5,3722.5C 3043.23,3724.07 3026.23,3722.41 3009.5,3717.5C 2690.04,3717.96 2370.54,3718.29 2051,3718.5C 2036.78,3718.42 2022.94,3716.09 2009.5,3711.5C 1988.04,3712.13 1966.54,3712.46 1945,3712.5C 1931.4,3712.31 1918.06,3710.31 1905,3706.5C 1861.85,3707.58 1818.68,3707.74 1775.5,3707C 1764.41,3706.12 1753.58,3703.95 1743,3700.5C 1613.03,3701.15 1483.03,3701.48 1353,3701.5C 1330.96,3701.63 1309.12,3699.63 1287.5,3695.5C 1197.16,3695.58 1106.83,3695.58 1016.5,3695.5C 999.36,3699.11 982.027,3700.95 964.5,3701C 955.645,3703.64 946.645,3705.64 937.5,3707C 914.21,3719.72 889.377,3724.89 863,3722.5C 846.968,3726.61 830.802,3730.11 814.5,3733C 803.679,3734.6 792.846,3734.77 782,3733.5C 772.264,3735.85 762.43,3737.68 752.5,3739C 710.475,3771.74 664.475,3778.74 614.5,3760C 599.623,3753.04 584.956,3745.71 570.5,3738C 525.917,3705.98 506.417,3662.48 512,3607.5C 516.658,3580.52 527.991,3556.85 546,3536.5C 556.207,3527.29 566.707,3518.46 577.5,3510C 592.511,3498.74 609.011,3490.24 627,3484.5C 647.482,3445.05 666.815,3405.05 685,3364.5C 689.333,3358.17 693.667,3351.83 698,3345.5C 704.53,3329.44 711.863,3313.77 720,3298.5C 722.892,3281.82 728.558,3266.16 737,3251.5C 744.093,3235.63 753.427,3221.3 765,3208.5C 772.896,3192.27 781.23,3176.27 790,3160.5C 804.495,3140.18 818.495,3119.51 832,3098.5C 841.904,3088.37 849.571,3076.71 855,3063.5C 862.333,3054.18 868.666,3044.18 874,3033.5C 880.294,3025.54 886.96,3017.87 894,3010.5C 909.389,2989.44 924.389,2968.11 939,2946.5C 944.626,2939.21 950.626,2932.21 957,2925.5C 966.589,2904.41 980.755,2887.08 999.5,2873.5C 1006.76,2862.74 1015.26,2853.08 1025,2844.5C 1034.33,2831.17 1043.67,2817.83 1053,2804.5C 1059.33,2796.83 1066.33,2789.83 1074,2783.5C 1086.55,2759.95 1104.72,2742.11 1128.5,2730C 1131.46,2726.03 1134.8,2722.37 1138.5,2719C 1144.61,2714.52 1150.44,2709.69 1156,2704.5C 1173.95,2679.58 1197.78,2662.75 1227.5,2654C 1238.34,2645.74 1250,2638.74 1262.5,2633C 1288.54,2609.53 1319.21,2597.2 1354.5,2596C 1367.05,2590.95 1380.05,2587.61 1393.5,2586C 1409.13,2577.59 1425.8,2572.59 1443.5,2571C 1460.55,2563.59 1478.38,2559.76 1497,2559.5C 1510.51,2560.03 1524.01,2560.7 1537.5,2561.5C 1564.5,2560.17 1591.5,2560.17 1618.5,2561.5C 1621.85,2561.11 1625.18,2560.61 1628.5,2560C 1643.11,2554.1 1658.11,2550.26 1673.5,2548.5 Z"/></g>
</svg>
