<?xml version="1.0" encoding="UTF-8"?>
<!DOCTYPE svg PUBLIC "-//W3C//DTD SVG 1.1//EN" "http://www.w3.org/Graphics/SVG/1.1/DTD/svg11.dtd">
<svg xmlns="http://www.w3.org/2000/svg" version="1.1" width="4096px" height="4096px" style="shape-rendering:geometricPrecision; text-rendering:geometricPrecision; image-rendering:optimizeQuality; fill-rule:evenodd; clip-rule:evenodd" xmlns:xlink="http://www.w3.org/1999/xlink">
<g><path style="opacity:1" fill="#fefffe" d="M 3895.5,877.5 C 3948.94,876.465 3990.11,898.131 4019,942.5C 4046.63,995.192 4042.96,1045.53 4008,1093.5C 3996.64,1105.69 3984.47,1117.03 3971.5,1127.5C 3966.57,1134.6 3961.07,1141.27 3955,1147.5C 3949.23,1161.71 3942.9,1175.71 3936,1189.5C 3931.07,1197.7 3925.4,1205.37 3919,1212.5C 3913.59,1227.74 3907.59,1242.74 3901,1257.5C 3897.14,1276.73 3891.48,1295.4 3884,1313.5C 3877.36,1328.79 3868.36,1342.46 3857,1354.5C 3854.67,1358.83 3852.33,1363.17 3850,1367.5C 3847.1,1377.3 3843.1,1386.63 3838,1395.5C 3833.44,1418.94 3823.78,1439.94 3809,1458.5C 3798.04,1482.44 3785.04,1505.11 3770,1526.5C 3766.41,1546.95 3759.07,1565.95 3748,1583.5C 3740.95,1607.17 3728.95,1627.84 3712,1645.5C 3706.31,1661.22 3698.31,1675.56 3688,1688.5C 3683.86,1698.11 3679.19,1707.45 3674,1716.5C 3664.05,1730.78 3653.72,1744.78 3643,1758.5C 3633.53,1788.98 3615.7,1813.14 3589.5,1831C 3583.67,1837.5 3577.83,1844 3572,1850.5C 3558.62,1875.93 3542.29,1899.27 3523,1920.5C 3514.81,1933.69 3504.81,1945.36 3493,1955.5C 3486.13,1968.23 3477.13,1979.23 3466,1988.5C 3458.84,2011.84 3446.84,2032.17 3430,2049.5C 3418.48,2069.88 3407.48,2090.55 3397,2111.5C 3389.38,2122.79 3380.04,2132.46 3369,2140.5C 3360.23,2156.44 3348.73,2170.1 3334.5,2181.5C 3329.67,2190.5 3324.83,2199.5 3320,2208.5C 3312.09,2219.33 3304.42,2230.33 3297,2241.5C 3285.32,2253.84 3272.99,2265.51 3260,2276.5C 3253.58,2286.34 3246.91,2296.01 3240,2305.5C 3232.09,2314.98 3224.43,2324.65 3217,2334.5C 3208.25,2343.24 3200.25,2352.58 3193,2362.5C 3186.33,2368.5 3179.67,2374.5 3173,2380.5C 3162.57,2394.35 3151.91,2408.01 3141,2421.5C 3135.86,2432.95 3129.53,2443.62 3122,2453.5C 3110.68,2464.65 3099.51,2475.99 3088.5,2487.5C 3081.13,2502.36 3071.63,2515.7 3060,2527.5C 3051.73,2542.76 3043.07,2557.76 3034,2572.5C 3027.35,2581.15 3020.01,2589.15 3012,2596.5C 3005.19,2610.78 2997.86,2624.78 2990,2638.5C 2981.41,2650.43 2971.41,2661.09 2960,2670.5C 2954.96,2676.17 2949.96,2681.84 2945,2687.5C 2938.47,2703.56 2930.14,2718.56 2920,2732.5C 2900.92,2751.24 2882.92,2770.91 2866,2791.5C 2863.06,2796.77 2859.73,2801.77 2856,2806.5C 2847.12,2836.03 2830.45,2860.03 2806,2878.5C 2797,2895.5 2788,2912.5 2779,2929.5C 2770.04,2940.79 2760.71,2951.79 2751,2962.5C 2745.93,2967.28 2740.76,2971.95 2735.5,2976.5C 2732.49,2981.85 2728.99,2986.85 2725,2991.5C 2719.72,3004.72 2713.39,3017.39 2706,3029.5C 2696.33,3041.17 2686.67,3052.83 2677,3064.5C 2668.64,3071.86 2660.64,3079.52 2653,3087.5C 2646.75,3099.01 2639.75,3110.01 2632,3120.5C 2619.12,3133.68 2605.96,3146.51 2592.5,3159C 2582.8,3165.85 2573.47,3173.18 2564.5,3181C 2554.16,3187.17 2544.16,3193.84 2534.5,3201C 2522.52,3207.77 2509.86,3212.77 2496.5,3216C 2478.1,3219.28 2459.6,3221.78 2441,3223.5C 2428.85,3223.05 2416.69,3222.88 2404.5,3223C 2358.02,3218.37 2322.85,3196.2 2299,3156.5C 2287.7,3146.89 2278.53,3135.56 2271.5,3122.5C 2259.71,3110.88 2249.21,3098.21 2240,3084.5C 2226.83,3075.33 2215.67,3064.17 2206.5,3051C 2200.65,3046.91 2194.99,3042.58 2189.5,3038C 2177.43,3025.93 2166.09,3013.26 2155.5,3000C 2136.32,2985.58 2117.32,2970.91 2098.5,2956C 2088.86,2946.02 2078.86,2936.36 2068.5,2927C 2042.29,2911.46 2019.79,2891.62 2001,2867.5C 1997.16,2861.82 1993.83,2855.82 1991,2849.5C 1985.97,2844.8 1981.3,2839.8 1977,2834.5C 1971.06,2824.97 1964.4,2815.97 1957,2807.5C 1952.25,2799.66 1947.75,2791.66 1943.5,2783.5C 1931.59,2773.42 1921.25,2761.92 1912.5,2749C 1907.34,2746.59 1902.34,2743.92 1897.5,2741C 1885.5,2732.33 1873.5,2723.67 1861.5,2715C 1843.44,2708.48 1827.11,2699.14 1812.5,2687C 1796.19,2680.52 1781.53,2671.52 1768.5,2660C 1762.92,2653.88 1756.92,2648.21 1750.5,2643C 1732.66,2631.58 1715,2619.92 1697.5,2608C 1686.5,2599 1675.5,2590 1664.5,2581C 1639.44,2571.64 1618.44,2556.64 1601.5,2536C 1595.16,2532.5 1589.16,2528.5 1583.5,2524C 1574.46,2515.96 1565.12,2508.29 1555.5,2501C 1549.5,2494.33 1543.5,2487.67 1537.5,2481C 1532.88,2478.05 1528.55,2474.72 1524.5,2471C 1509.5,2456 1494.5,2441 1479.5,2426C 1461.32,2415.08 1443.65,2403.41 1426.5,2391C 1417.8,2383.96 1410.13,2375.96 1403.5,2367C 1387.86,2360.85 1373.86,2352.19 1361.5,2341C 1352.35,2331 1343.68,2320.66 1335.5,2310C 1327.98,2306.08 1320.98,2301.41 1314.5,2296C 1292.2,2285.86 1271.53,2273.19 1252.5,2258C 1246.67,2254.92 1241,2251.59 1235.5,2248C 1217.27,2235.77 1199.6,2222.77 1182.5,2209C 1168.59,2201.71 1156.59,2192.04 1146.5,2180C 1137.83,2176 1129.83,2171 1122.5,2165C 1112.35,2154.68 1102.01,2144.51 1091.5,2134.5C 1087.36,2131.52 1083.36,2128.36 1079.5,2125C 1064.14,2109.97 1049.14,2094.64 1034.5,2079C 1025.52,2071.84 1016.19,2065.18 1006.5,2059C 996.74,2049.29 985.74,2041.29 973.5,2035C 964.015,2027.09 954.349,2019.43 944.5,2012C 931.47,1999.3 918.804,1986.3 906.5,1973C 888.242,1963.24 872.909,1950.08 860.5,1933.5C 848.73,1925.9 838.73,1916.4 830.5,1905C 823.167,1899 815.833,1893 808.5,1887C 797.475,1874.98 786.142,1863.31 774.5,1852C 762.5,1844 750.5,1836 738.5,1828C 729.607,1820.94 721.94,1812.77 715.5,1803.5C 709.29,1796.95 702.957,1790.45 696.5,1784C 684.826,1777.16 673.493,1769.83 662.5,1762C 653.484,1753.58 644.484,1745.25 635.5,1737C 630.646,1732.11 626.146,1726.95 622,1721.5C 579.694,1680.19 537.694,1638.53 496,1596.5C 486.667,1584.5 477.333,1572.5 468,1560.5C 464.599,1555.42 461.599,1550.09 459,1544.5C 451.248,1536.75 444.248,1528.42 438,1519.5C 428.921,1502.34 419.587,1485.34 410,1468.5C 401.333,1457.83 392.667,1447.17 384,1436.5C 374.84,1418.84 365.174,1401.51 355,1384.5C 346.916,1376.42 339.582,1367.75 333,1358.5C 324.061,1340.96 315.395,1323.29 307,1305.5C 296.082,1291.67 287.749,1276.34 282,1259.5C 273.549,1248.94 266.883,1237.27 262,1224.5C 258.934,1212.97 255.268,1201.64 251,1190.5C 248.431,1181.32 246.765,1171.99 246,1162.5C 194.619,1131.41 171.619,1085.74 177,1025.5C 189.5,963.667 226.667,926.5 288.5,914C 310.491,911.864 332.491,911.531 354.5,913C 378.289,916.898 399.622,926.232 418.5,941C 441.245,960.741 460.745,983.241 477,1008.5C 482.434,1018.03 486.767,1028.03 490,1038.5C 495.972,1062.69 501.305,1087.03 506,1111.5C 516.891,1124.61 525.225,1139.27 531,1155.5C 542.48,1170.8 550.48,1187.8 555,1206.5C 570.695,1222.9 582.362,1241.9 590,1263.5C 595.427,1271.35 600.094,1279.68 604,1288.5C 610.042,1294.87 615.708,1301.54 621,1308.5C 625.672,1317.85 631.338,1326.52 638,1334.5C 642.413,1342.99 647.08,1351.33 652,1359.5C 670.527,1375.53 683.86,1395.19 692,1418.5C 729.307,1456.14 766.974,1493.47 805,1530.5C 814.463,1543.62 826.629,1553.46 841.5,1560C 847.5,1564.67 853.5,1569.33 859.5,1574C 873.665,1587.16 887.498,1600.66 901,1614.5C 903.5,1617.67 906,1620.83 908.5,1624C 912.5,1626.33 916.5,1628.67 920.5,1631C 929.628,1639.06 939.295,1646.4 949.5,1653C 962.475,1665.64 975.141,1678.64 987.5,1692C 994.833,1698 1002.17,1704 1009.5,1710C 1012.87,1713.03 1015.87,1716.37 1018.5,1720C 1035.81,1729.81 1050.48,1742.64 1062.5,1758.5C 1071.73,1764.56 1080.23,1771.56 1088,1779.5C 1097.81,1789.65 1107.31,1800.15 1116.5,1811C 1125.01,1818.51 1134.35,1824.84 1144.5,1830C 1160.93,1843.77 1177.93,1856.77 1195.5,1869C 1203.91,1877.42 1212.91,1885.08 1222.5,1892C 1227.35,1896.89 1231.85,1902.05 1236,1907.5C 1253.17,1924.34 1270.67,1940.84 1288.5,1957C 1305.2,1965.7 1319.54,1977.36 1331.5,1992C 1335.5,1994.33 1339.5,1996.67 1343.5,1999C 1376.31,2025.24 1411.31,2048.24 1448.5,2068C 1464.5,2078.67 1480.5,2089.33 1496.5,2100C 1508.5,2109.33 1520.5,2118.67 1532.5,2128C 1537.4,2133.15 1542.07,2138.48 1546.5,2144C 1573.41,2154.75 1594.75,2172.25 1610.5,2196.5C 1617.67,2201.25 1625,2205.75 1632.5,2210C 1641.83,2217.67 1651.17,2225.33 1660.5,2233C 1674.17,2246.67 1687.83,2260.33 1701.5,2274C 1717.08,2283.58 1730.08,2295.91 1740.5,2311C 1750.81,2319.16 1761.48,2326.82 1772.5,2334C 1777.02,2337.77 1781.36,2341.77 1785.5,2346C 1792.49,2349.16 1799.15,2352.83 1805.5,2357C 1823.74,2369.9 1841.4,2383.57 1858.5,2398C 1885.79,2413.62 1911.12,2431.96 1934.5,2453C 1944.62,2457.48 1953.96,2463.14 1962.5,2470C 1979.95,2475.72 1995.95,2484.06 2010.5,2495C 2017.61,2502.05 2025.28,2508.38 2033.5,2514C 2048.93,2520.21 2063.27,2528.21 2076.5,2538C 2086.98,2548.81 2097.81,2559.31 2109,2569.5C 2115.11,2576.27 2120.44,2583.61 2125,2591.5C 2137.34,2603.18 2149.01,2615.51 2160,2628.5C 2168.79,2639.73 2175.79,2652.06 2181,2665.5C 2194.91,2677.08 2206.25,2690.74 2215,2706.5C 2234.7,2720.53 2252.86,2736.36 2269.5,2754C 2281.12,2762.62 2292.45,2771.62 2303.5,2781C 2333.63,2793.47 2356.47,2813.97 2372,2842.5C 2386.38,2852.54 2398.38,2864.88 2408,2879.5C 2414.96,2884.79 2421.63,2890.46 2428,2896.5C 2434.43,2905.02 2441.09,2913.35 2448,2921.5C 2453,2915.17 2458,2908.83 2463,2902.5C 2469.33,2896.83 2475.67,2891.17 2482,2885.5C 2497.41,2857.66 2514.08,2830.66 2532,2804.5C 2540.3,2794.69 2549.63,2786.02 2560,2778.5C 2567.67,2763.5 2575.33,2748.5 2583,2733.5C 2591.29,2722.87 2599.96,2712.54 2609,2702.5C 2616.27,2681.58 2627.94,2663.58 2644,2648.5C 2663.1,2620.73 2684.43,2594.73 2708,2570.5C 2711.08,2564.01 2714.41,2557.68 2718,2551.5C 2725.91,2540.67 2733.58,2529.67 2741,2518.5C 2752.01,2507.16 2762.67,2495.49 2773,2483.5C 2780.59,2469.99 2787.92,2456.33 2795,2442.5C 2802.95,2431.55 2811.95,2421.55 2822,2412.5C 2829.43,2401.32 2836.09,2389.66 2842,2377.5C 2846.95,2369.95 2852.61,2362.95 2859,2356.5C 2865.09,2341.97 2873.42,2328.97 2884,2317.5C 2898.97,2305.21 2910.97,2290.54 2920,2273.5C 2930.33,2261.17 2940.67,2248.83 2951,2236.5C 2959.37,2217.47 2970.87,2200.64 2985.5,2186C 2995.4,2177.8 3005.56,2169.97 3016,2162.5C 3030.82,2142.85 3045.16,2122.85 3059,2102.5C 3069.72,2090.78 3081.38,2080.12 3094,2070.5C 3104.41,2051.34 3115.08,2032.34 3126,2013.5C 3134.96,2000.87 3145.63,1989.87 3158,1980.5C 3164.27,1971.23 3171.61,1962.89 3180,1955.5C 3182.91,1948.68 3186.58,1942.34 3191,1936.5C 3195.95,1925 3201.28,1913.66 3207,1902.5C 3212.57,1893.6 3218.9,1885.27 3226,1877.5C 3234,1862.83 3242,1848.17 3250,1833.5C 3257.59,1822.58 3266.59,1812.91 3277,1804.5C 3285.77,1788.56 3297.27,1774.9 3311.5,1763.5C 3317.43,1754.74 3323.93,1746.4 3331,1738.5C 3339.34,1726.49 3346.68,1713.82 3353,1700.5C 3357.85,1693.47 3363.19,1686.8 3369,1680.5C 3376.82,1661.68 3388.16,1645.35 3403,1631.5C 3412.79,1614.37 3425.46,1599.71 3441,1587.5C 3443,1584.83 3445,1582.17 3447,1579.5C 3458.4,1557.37 3468.73,1534.7 3478,1511.5C 3485.18,1499.32 3494.18,1488.65 3505,1479.5C 3507.39,1473.71 3510.06,1468.05 3513,1462.5C 3516.74,1445.96 3522.07,1429.96 3529,1414.5C 3532.41,1407.34 3536.08,1400.34 3540,1393.5C 3547.67,1382.5 3555.33,1371.5 3563,1360.5C 3567.06,1345.66 3573.06,1331.66 3581,1318.5C 3584.89,1303.06 3591.22,1288.72 3600,1275.5C 3605.61,1256.6 3614.61,1239.6 3627,1224.5C 3631.65,1213.85 3637.32,1203.85 3644,1194.5C 3645.38,1187 3647.38,1179.66 3650,1172.5C 3659.33,1154.85 3665.66,1136.18 3669,1116.5C 3675.32,1095.51 3685.99,1077.17 3701,1061.5C 3704.51,1051.48 3708.84,1041.81 3714,1032.5C 3723.16,1019.51 3731.83,1006.17 3740,992.5C 3749.82,981.679 3758.49,970.013 3766,957.5C 3777.7,941.236 3792.2,928.07 3809.5,918C 3833.49,894.506 3862.15,881.006 3895.5,877.5 Z"/></g>
</svg>
