<?xml version="1.0" encoding="UTF-8"?>
<!DOCTYPE svg PUBLIC "-//W3C//DTD SVG 1.1//EN" "http://www.w3.org/Graphics/SVG/1.1/DTD/svg11.dtd">
<svg xmlns="http://www.w3.org/2000/svg" version="1.1" width="4096px" height="4096px" style="shape-rendering:geometricPrecision; text-rendering:geometricPrecision; image-rendering:optimizeQuality; fill-rule:evenodd; clip-rule:evenodd" xmlns:xlink="http://www.w3.org/1999/xlink">
<g><path style="opacity:1" fill="#1da0f2" d="M 1769.5,123.5 C 1791.51,124.137 1813.51,125.137 1835.5,126.5C 1854.34,130.234 1873.17,133.901 1892,137.5C 1900.12,140.071 1908.29,142.404 1916.5,144.5C 1937.49,144.66 1958.49,144.66 1979.5,144.5C 2004.91,144.612 2029.08,149.945 2052,160.5C 2066.42,162.622 2080.92,163.955 2095.5,164.5C 2106.06,165.747 2116.56,167.414 2127,169.5C 2152.21,176.006 2177.37,182.506 2202.5,189C 2205.85,189.585 2208.85,190.918 2211.5,193C 2248.6,198.288 2285.6,203.955 2322.5,210C 2339.97,213.873 2357.47,217.707 2375,221.5C 2388.85,226.25 2402.01,232.417 2414.5,240C 2424.6,241.923 2434.6,244.256 2444.5,247C 2454.14,250.497 2464.14,252.497 2474.5,253C 2511.4,250.976 2546.07,258.476 2578.5,275.5C 2586.32,276.879 2594.15,278.213 2602,279.5C 2614.55,284.417 2627.55,287.751 2641,289.5C 2648.86,292.065 2656.69,294.732 2664.5,297.5C 2682.06,302.081 2699.73,306.247 2717.5,310C 2720.38,311.606 2723.38,312.939 2726.5,314C 2736.56,316.191 2746.56,318.691 2756.5,321.5C 2757.97,322.135 2759.3,322.969 2760.5,324C 2779.23,328.891 2798.06,333.391 2817,337.5C 2835.33,343.836 2853.5,350.67 2871.5,358C 2878.54,361.383 2885.04,365.55 2891,370.5C 2895.27,371.517 2899.1,373.351 2902.5,376C 2919.21,380.12 2935.88,384.453 2952.5,389C 2967.22,394.747 2982.05,400.247 2997,405.5C 3012.61,413.72 3027.11,423.554 3040.5,435C 3046.21,437.906 3052.21,440.24 3058.5,442C 3065.78,445.958 3072.78,450.291 3079.5,455C 3088.63,459.063 3097.63,463.396 3106.5,468C 3114.47,474.994 3123.47,480.494 3133.5,484.5C 3143.6,492.41 3154.6,498.91 3166.5,504C 3176.55,512.785 3187.55,520.118 3199.5,526C 3206.84,533.098 3215.34,538.598 3225,542.5C 3229.71,545.976 3234.55,549.309 3239.5,552.5C 3244.63,557.464 3249.97,562.297 3255.5,567C 3278.88,575.675 3299.21,588.842 3316.5,606.5C 3323.83,612.171 3331.83,616.837 3340.5,620.5C 3346.91,625.718 3353.58,630.551 3360.5,635C 3367.12,641.615 3373.78,648.282 3380.5,655C 3384.98,658.157 3389.31,661.49 3393.5,665C 3403.5,675.997 3413.83,686.664 3424.5,697C 3432.01,701.255 3439.68,705.255 3447.5,709C 3456.11,715.12 3464.44,721.453 3472.5,728C 3518.79,776.752 3564.95,825.586 3611,874.5C 3618.58,879.867 3625.41,886.034 3631.5,893C 3634.49,895.498 3637.82,897.498 3641.5,899C 3642.17,900 3642.83,901 3643.5,902C 3646.83,904.289 3650.16,906.622 3653.5,909C 3660.69,916.553 3667.52,924.386 3674,932.5C 3680.9,938.681 3687.57,945.014 3694,951.5C 3704.16,966.387 3714.49,981.053 3725,995.5C 3728.55,998.302 3731.89,1001.3 3735,1004.5C 3736.96,1008.39 3739.63,1011.72 3743,1014.5C 3746.24,1020.08 3749.9,1025.41 3754,1030.5C 3755.24,1034.94 3757.57,1038.61 3761,1041.5C 3762.85,1045.22 3765.19,1048.55 3768,1051.5C 3769.24,1055.9 3771.57,1059.57 3775,1062.5C 3782.43,1080.56 3790.93,1098.06 3800.5,1115C 3803.6,1124.57 3806.76,1134.07 3810,1143.5C 3821.89,1161.11 3831.23,1180.11 3838,1200.5C 3844.06,1211.8 3848.9,1223.63 3852.5,1236C 3862.61,1254.91 3869.11,1275.07 3872,1296.5C 3878.13,1306.62 3882.63,1317.46 3885.5,1329C 3894.77,1346.81 3901.27,1365.65 3905,1385.5C 3910.41,1399.2 3915.91,1412.87 3921.5,1426.5C 3923.18,1435.41 3925.18,1444.25 3927.5,1453C 3928.44,1462.49 3929.27,1471.99 3930,1481.5C 3934.86,1499.98 3940.02,1518.31 3945.5,1536.5C 3948.75,1543.58 3951.42,1550.91 3953.5,1558.5C 3957.9,1565.76 3962.56,1572.76 3967.5,1579.5C 3977.2,1597.56 3986.36,1615.89 3995,1634.5C 3999.67,1647.84 4003,1661.5 4005,1675.5C 4009.34,1687.86 4012.67,1700.53 4015,1713.5C 4016.02,1727.15 4016.69,1740.81 4017,1754.5C 4022.86,1773.36 4025.69,1792.7 4025.5,1812.5C 4025.5,1837.17 4025.5,1861.83 4025.5,1886.5C 4025.6,1905.98 4022.77,1924.98 4017,1943.5C 4017.99,1969.24 4014.33,1994.24 4006,2018.5C 4004.96,2025.36 4003.8,2032.19 4002.5,2039C 4007.52,2051.06 4012.36,2063.23 4017,2075.5C 4021.71,2090.12 4024.38,2105.12 4025,2120.5C 4024.86,2236.84 4025.02,2353.18 4025.5,2469.5C 4025.6,2488.98 4022.77,2507.98 4017,2526.5C 4017.79,2550.43 4014.62,2573.77 4007.5,2596.5C 4007.4,2619.73 4003.9,2642.39 3997,2664.5C 3996.6,2676.2 3995.77,2687.87 3994.5,2699.5C 3989.79,2717.91 3985.45,2736.41 3981.5,2755C 3978.27,2763.77 3975.27,2772.6 3972.5,2781.5C 3971.74,2801.09 3968.07,2820.09 3961.5,2838.5C 3954.03,2854.61 3946.69,2870.78 3939.5,2887C 3936.22,2910.42 3929.56,2932.75 3919.5,2954C 3917.96,2961.28 3915.63,2968.28 3912.5,2975C 3905.16,3014.53 3886.99,3047.7 3858,3074.5C 3856.12,3080.6 3853.45,3086.27 3850,3091.5C 3837.45,3108.23 3825.62,3125.57 3814.5,3143.5C 3806.5,3152.33 3798,3160.66 3789,3168.5C 3782.05,3182.07 3773.39,3194.4 3763,3205.5C 3758.76,3213.64 3753.76,3221.3 3748,3228.5C 3740.02,3236.81 3731.69,3244.81 3723,3252.5C 3711.82,3270.67 3698.16,3286.67 3682,3300.5C 3681.67,3301.5 3681.33,3302.5 3681,3303.5C 3673.65,3310.68 3666.49,3318.01 3659.5,3325.5C 3645.31,3353.54 3625.31,3376.54 3599.5,3394.5C 3584.95,3407.75 3571.79,3422.41 3560,3438.5C 3555.83,3442.67 3551.67,3446.83 3547.5,3451C 3537.4,3457.76 3528.4,3465.92 3520.5,3475.5C 3517.14,3478.52 3513.47,3481.19 3509.5,3483.5C 3496.04,3497.81 3481.04,3509.98 3464.5,3520C 3461.57,3524.35 3458.07,3528.18 3454,3531.5C 3451.08,3537.08 3447.42,3542.08 3443,3546.5C 3442.67,3547.5 3442.33,3548.5 3442,3549.5C 3438.54,3552.41 3435.54,3555.75 3433,3559.5C 3417.22,3573.61 3401.72,3588.11 3386.5,3603C 3381.83,3606.33 3377.17,3609.67 3372.5,3613C 3360.61,3617.77 3349.94,3624.27 3340.5,3632.5C 3334.24,3634.86 3328.24,3637.69 3322.5,3641C 3308.86,3650.32 3295.52,3659.99 3282.5,3670C 3278.19,3671.08 3274.86,3673.41 3272.5,3677C 3269.71,3679.16 3266.71,3681.16 3263.5,3683C 3257.81,3689.69 3251.81,3696.02 3245.5,3702C 3231.76,3712.04 3217.1,3720.71 3201.5,3728C 3193.58,3731.52 3185.41,3734.36 3177,3736.5C 3166.57,3745.64 3154.74,3752.64 3141.5,3757.5C 3134.24,3763.68 3126.08,3768.68 3117,3772.5C 3107.88,3778.95 3098.38,3784.95 3088.5,3790.5C 3061.68,3801.87 3035.01,3813.53 3008.5,3825.5C 2998.25,3833.56 2987.92,3841.39 2977.5,3849C 2969.92,3852.96 2962.26,3856.62 2954.5,3860C 2933.84,3874.91 2910.84,3884.41 2885.5,3888.5C 2873.5,3892.93 2861.17,3896.1 2848.5,3898C 2836.52,3902.97 2824.52,3907.97 2812.5,3913C 2784.83,3920.63 2757.33,3928.79 2730,3937.5C 2702.68,3942.94 2675.35,3948.28 2648,3953.5C 2636.18,3954.69 2624.35,3955.69 2612.5,3956.5C 2596.91,3962.52 2580.74,3966.19 2564,3967.5C 2558.72,3969.76 2553.22,3971.26 2547.5,3972C 2535.38,3978.16 2522.54,3982.33 2509,3984.5C 2488.02,3986.09 2467.02,3987.43 2446,3988.5C 2440.15,3988.37 2434.32,3988.03 2428.5,3987.5C 2409.61,3990.22 2390.61,3992.06 2371.5,3993C 2362.17,3995.67 2352.83,3998.33 2343.5,4001C 2323.6,4004.15 2303.6,4006.49 2283.5,4008C 2239.13,4007.56 2194.8,4007.4 2150.5,4007.5C 2138.16,4011.77 2125.49,4014.77 2112.5,4016.5C 2094.67,4017.29 2076.84,4017.96 2059,4018.5C 1904.67,4017.17 1750.33,4017.17 1596,4018.5C 1586.63,4018.33 1577.3,4017.66 1568,4016.5C 1559.03,4014.37 1550.2,4011.87 1541.5,4009C 1507.83,4007.85 1474.16,4006.69 1440.5,4005.5C 1417.58,4000.22 1394.58,3995.22 1371.5,3990.5C 1363.26,3987.48 1355.26,3983.98 1347.5,3980C 1326.96,3976.57 1306.46,3973.07 1286,3969.5C 1271.83,3965.28 1257.5,3961.62 1243,3958.5C 1236.88,3956.57 1231.05,3954.07 1225.5,3951C 1209.81,3948.21 1194.98,3943.04 1181,3935.5C 1171.45,3932.93 1162.28,3929.43 1153.5,3925C 1139.01,3921.58 1125.34,3916.24 1112.5,3909C 1104.32,3906.81 1096.32,3904.15 1088.5,3901C 1078.92,3895.72 1069.59,3890.22 1060.5,3884.5C 1037.88,3879.68 1017.55,3870.35 999.5,3856.5C 990.507,3852.01 981.84,3847.01 973.5,3841.5C 964.711,3837.61 956.045,3833.44 947.5,3829C 941.3,3824.3 934.966,3819.8 928.5,3815.5C 912.55,3800.3 895.217,3786.63 876.5,3774.5C 873.973,3772.39 871.64,3770.06 869.5,3767.5C 851.549,3755.31 833.549,3743.31 815.5,3731.5C 811.651,3727.82 807.984,3723.98 804.5,3720C 796.177,3714.98 788.511,3709.31 781.5,3703C 776.843,3698.04 772.176,3693.04 767.5,3688C 760.368,3682.2 753.535,3676.04 747,3669.5C 743.262,3666.09 740.262,3662.09 738,3657.5C 736.933,3656.81 735.766,3656.31 734.5,3656C 728.712,3649.38 722.712,3642.88 716.5,3636.5C 704.385,3626.91 692.052,3617.41 679.5,3608C 667.306,3594.47 654.473,3581.64 641,3569.5C 639.374,3567.08 637.874,3564.58 636.5,3562C 617.797,3549.63 600.963,3535.13 586,3518.5C 585.431,3515.6 583.765,3513.6 581,3512.5C 575.426,3503.02 569.593,3493.69 563.5,3484.5C 555.968,3477.84 548.635,3470.84 541.5,3463.5C 535.535,3455.97 528.868,3448.97 521.5,3442.5C 518.655,3438.79 515.822,3435.13 513,3431.5C 496.826,3417.79 483.493,3401.79 473,3383.5C 467.995,3372.16 462.495,3361.16 456.5,3350.5C 453.322,3346.89 450.322,3343.23 447.5,3339.5C 442.035,3329.36 435.368,3320.03 427.5,3311.5C 417.549,3295.05 407.383,3278.71 397,3262.5C 393.382,3258.21 389.715,3253.87 386,3249.5C 380.428,3238.81 373.761,3228.81 366,3219.5C 361.206,3209.54 355.039,3200.54 347.5,3192.5C 344.89,3187.6 342.057,3182.93 339,3178.5C 323.03,3161.81 311.03,3142.48 303,3120.5C 294.27,3106.71 287.437,3092.04 282.5,3076.5C 279.594,3070.61 276.594,3064.78 273.5,3059C 268.083,3043.08 262.083,3027.41 255.5,3012C 254.991,3010.83 254.158,3010 253,3009.5C 244.7,2990.9 235.867,2972.57 226.5,2954.5C 220.312,2937.43 213.645,2920.59 206.5,2904C 205.539,2900.2 204.706,2896.36 204,2892.5C 200.105,2885.28 197.272,2877.61 195.5,2869.5C 190.152,2861.41 184.652,2853.41 179,2845.5C 174.46,2837.23 170.294,2828.73 166.5,2820C 158.511,2795.86 150.678,2771.7 143,2747.5C 142.196,2744.56 140.863,2741.89 139,2739.5C 134.484,2724.24 130.984,2708.74 128.5,2693C 126.199,2683.6 123.199,2674.43 119.5,2665.5C 117.523,2655.45 115.356,2645.45 113,2635.5C 110.66,2610.75 107.66,2586.09 104,2561.5C 103.168,2552.85 102.668,2544.19 102.5,2535.5C 102.641,2379.99 102.975,2224.49 103.5,2069C 102,2037.83 101.333,2006.66 101.5,1975.5C 101.305,1955.7 104.139,1936.36 110,1917.5C 110.75,1862.5 115.417,1807.83 124,1753.5C 127.079,1738.93 131.745,1724.93 138,1711.5C 141.321,1691.28 143.988,1670.95 146,1650.5C 149.245,1639.02 152.412,1627.52 155.5,1616C 157.342,1597.51 159.009,1579.01 160.5,1560.5C 164.348,1539.11 168.515,1517.77 173,1496.5C 178.22,1481.96 183.887,1467.63 190,1453.5C 192.544,1435.34 196.044,1417.34 200.5,1399.5C 204.052,1389.18 208.385,1379.18 213.5,1369.5C 217.893,1361.28 222.893,1353.44 228.5,1346C 230.405,1339.9 233.238,1334.4 237,1329.5C 238.038,1323.31 239.205,1317.14 240.5,1311C 242.803,1305.46 244.803,1299.8 246.5,1294C 253.381,1278.41 260.881,1263.24 269,1248.5C 269.849,1229.59 273.515,1211.26 280,1193.5C 294.59,1158.98 308.09,1123.98 320.5,1088.5C 327.27,1072.52 335.77,1057.85 346,1044.5C 350.147,1032.23 354.98,1020.23 360.5,1008.5C 368.218,996.551 374.718,983.884 380,970.5C 385.839,961.974 390.672,952.807 394.5,943C 402.679,932.166 409.179,920.333 414,907.5C 415.767,906.183 417.101,904.516 418,902.5C 426.383,879.841 438.383,859.507 454,841.5C 457.112,838.302 460.445,835.302 464,832.5C 471.821,821.228 480.821,810.894 491,801.5C 496.12,788.894 501.62,776.394 507.5,764C 512.074,756.785 516.741,749.618 521.5,742.5C 525.113,737.384 529.28,732.718 534,728.5C 541.873,714.409 551.873,702.076 564,691.5C 572.391,680.084 581.724,669.418 592,659.5C 595.176,655.657 598.176,651.657 601,647.5C 606.071,642.385 611.237,637.385 616.5,632.5C 623.048,623.444 630.548,615.111 639,607.5C 643.623,601.208 648.623,595.208 654,589.5C 657.071,586.055 660.571,583.055 664.5,580.5C 670.098,572.614 676.598,565.614 684,559.5C 693.789,546.377 704.956,534.544 717.5,524C 727.194,512.973 737.527,502.64 748.5,493C 755.537,488.218 762.87,483.718 770.5,479.5C 773.354,476.812 776.354,474.312 779.5,472C 784.167,467 788.833,462 793.5,457C 798.928,453.086 804.262,448.919 809.5,444.5C 821.646,430.775 835.646,419.442 851.5,410.5C 857.417,406.709 863.75,403.709 870.5,401.5C 885.778,389.56 900.778,377.227 915.5,364.5C 927.143,356.387 939.643,349.721 953,344.5C 961.009,340.152 969.009,335.819 977,331.5C 986.405,327.44 995.905,323.607 1005.5,320C 1014.48,312.507 1024.15,306.007 1034.5,300.5C 1049.42,293.991 1064.09,286.991 1078.5,279.5C 1092.03,275.327 1105.03,269.994 1117.5,263.5C 1128.26,261.11 1138.6,257.61 1148.5,253C 1158.88,250.445 1169.22,247.778 1179.5,245C 1190.69,237.707 1202.52,231.54 1215,226.5C 1224.67,224.824 1233.67,221.49 1242,216.5C 1260.2,211.655 1278.03,205.821 1295.5,199C 1308.49,192.84 1321.49,186.673 1334.5,180.5C 1351.8,167.94 1370.96,158.94 1392,153.5C 1401.77,151.652 1411.6,150.318 1421.5,149.5C 1437.64,141.92 1454.47,136.254 1472,132.5C 1488.56,130.268 1505.06,127.768 1521.5,125C 1590.66,125.107 1659.83,125.273 1729,125.5C 1742.66,124.937 1756.16,124.27 1769.5,123.5 Z M 1546.5,489.5 C 1553.97,490.298 1561.47,490.965 1569,491.5C 1574.88,491.229 1580.72,490.563 1586.5,489.5C 1598.33,492.141 1610.16,492.141 1622,489.5C 1633.83,492.139 1645.66,492.139 1657.5,489.5C 1669.51,492.114 1681.51,492.114 1693.5,489.5C 1705.33,492.141 1717.16,492.141 1729,489.5C 1734.79,490.524 1740.62,491.191 1746.5,491.5C 1764.55,488.819 1782.55,488.985 1800.5,492C 1807.95,495.783 1815.62,499.116 1823.5,502C 1831.4,503.58 1839.23,505.413 1847,507.5C 1882.83,509.673 1918.66,511.007 1954.5,511.5C 1960.63,513.574 1966.79,515.574 1973,517.5C 1985.61,519.07 1998.11,521.237 2010.5,524C 2026.39,526.759 2042.39,528.425 2058.5,529C 2080.9,534.495 2103.23,540.162 2125.5,546C 2134.24,549.602 2143.24,552.436 2152.5,554.5C 2174.49,557.442 2196.49,560.276 2218.5,563C 2236.35,565.364 2254.02,568.698 2271.5,573C 2284.99,580.66 2299.16,586.827 2314,591.5C 2332.49,595.749 2350.99,599.916 2369.5,604C 2379.44,607.589 2389.6,610.422 2400,612.5C 2420.2,614.792 2440.37,617.292 2460.5,620C 2467.76,623.421 2475.26,626.255 2483,628.5C 2518.27,634.551 2552.77,643.217 2586.5,654.5C 2607.62,658.553 2628.29,664.053 2648.5,671C 2656.99,672.4 2665.33,674.4 2673.5,677C 2676.38,677.683 2679.05,678.85 2681.5,680.5C 2697.98,684.162 2714.31,688.328 2730.5,693C 2747.43,705.103 2766.1,713.77 2786.5,719C 2803.77,727.364 2821.93,733.197 2841,736.5C 2861.41,753.563 2884.41,765.896 2910,773.5C 2922.05,780.973 2934.55,787.806 2947.5,794C 2950.66,796.486 2953.82,798.986 2957,801.5C 2977.61,812.214 2997.11,824.547 3015.5,838.5C 3020.9,841.989 3026.57,844.989 3032.5,847.5C 3046.96,859.233 3061.62,870.733 3076.5,882C 3086.1,886.848 3095.77,891.515 3105.5,896C 3119.54,909.198 3135.21,920.198 3152.5,929C 3166.95,944.594 3181.62,959.928 3196.5,975C 3206.36,980.857 3215.36,987.857 3223.5,996C 3233.09,1002.17 3242.76,1008.17 3252.5,1014C 3259.05,1021.89 3266.22,1029.05 3274,1035.5C 3274.67,1036.83 3275.33,1038.17 3276,1039.5C 3280.67,1043.84 3285.01,1048.51 3289,1053.5C 3292.04,1057.2 3295.7,1060.2 3300,1062.5C 3302.23,1067.07 3305.23,1071.07 3309,1074.5C 3329.82,1095.58 3350.32,1117.08 3370.5,1139C 3373.3,1141.21 3376.3,1143.21 3379.5,1145C 3391.07,1159.05 3404.4,1171.05 3419.5,1181C 3421.42,1184.58 3424.25,1187.08 3428,1188.5C 3436.09,1199.68 3443.92,1211.01 3451.5,1222.5C 3459.02,1229.86 3466.02,1237.69 3472.5,1246C 3480.22,1260.48 3486.39,1275.65 3491,1291.5C 3493.38,1295.96 3495.38,1300.63 3497,1305.5C 3504.67,1318.83 3512.33,1332.17 3520,1345.5C 3523.54,1356.9 3528.04,1367.9 3533.5,1378.5C 3536.07,1394.1 3539.74,1409.43 3544.5,1424.5C 3555.29,1446.47 3564.96,1468.97 3573.5,1492C 3575.07,1502.55 3577.91,1512.72 3582,1522.5C 3583.39,1541.13 3586.56,1559.46 3591.5,1577.5C 3595.62,1587.69 3599.45,1598.03 3603,1608.5C 3607.17,1627.33 3612.33,1645.83 3618.5,1664C 3621.29,1671.65 3624.46,1679.15 3628,1686.5C 3630.85,1697.53 3634.35,1708.36 3638.5,1719C 3642.29,1727.05 3646.46,1734.88 3651,1742.5C 3654.09,1747.01 3657.42,1751.35 3661,1755.5C 3662.41,1758.58 3663.91,1761.58 3665.5,1764.5C 3665.32,1789.41 3668.82,1813.74 3676,1837.5C 3676.67,1844.5 3676.67,1851.5 3676,1858.5C 3667.97,1883.41 3665.13,1908.91 3667.5,1935C 3663.66,1947.19 3661.5,1959.69 3661,1972.5C 3657.42,1983.86 3655.42,1995.52 3655,2007.5C 3649.87,2024.76 3643.87,2041.76 3637,2058.5C 3631.84,2074.96 3628.34,2091.8 3626.5,2109C 3623.89,2115.63 3621.06,2122.13 3618,2128.5C 3614.25,2150.61 3607.75,2171.78 3598.5,2192C 3591.3,2211 3587.3,2230.66 3586.5,2251C 3581.02,2264.97 3576.68,2279.3 3573.5,2294C 3567.11,2309.23 3562.95,2325.06 3561,2341.5C 3558.12,2348.22 3556.12,2355.22 3555,2362.5C 3549.66,2373.03 3544.49,2383.69 3539.5,2394.5C 3532.65,2404.18 3526.82,2414.51 3522,2425.5C 3512.77,2436.44 3505.77,2448.78 3501,2462.5C 3494.39,2470.02 3489.55,2478.69 3486.5,2488.5C 3453.09,2538.11 3443.42,2592.27 3457.5,2651C 3474.24,2707.34 3509.41,2747.51 3563,2771.5C 3576.27,2776.19 3589.77,2780.03 3603.5,2783C 3599.76,2794.85 3597.59,2807.02 3597,2819.5C 3593.3,2826.55 3590.3,2833.88 3588,2841.5C 3576.33,2855.57 3566.99,2871.23 3560,2888.5C 3556.41,2893.35 3553.08,2898.35 3550,2903.5C 3529.34,2920.85 3513.01,2941.52 3501,2965.5C 3497.78,2968.26 3495.28,2971.59 3493.5,2975.5C 3468.82,2993.76 3449.49,3016.76 3435.5,3044.5C 3426.76,3051.91 3419.09,3060.24 3412.5,3069.5C 3409.89,3070.77 3407.56,3072.44 3405.5,3074.5C 3392.61,3087.39 3381.61,3101.72 3372.5,3117.5C 3358.15,3131.02 3343.98,3144.69 3330,3158.5C 3324.41,3166.02 3318.57,3173.35 3312.5,3180.5C 3299.34,3191.82 3286.34,3203.32 3273.5,3215C 3267.81,3218.67 3262.14,3222.34 3256.5,3226C 3251.68,3229.65 3247.01,3233.49 3242.5,3237.5C 3229.32,3252.25 3215.49,3266.25 3201,3279.5C 3195.2,3286.41 3190.04,3293.74 3185.5,3301.5C 3179.03,3307.24 3171.7,3311.74 3163.5,3315C 3159.83,3318 3156.17,3321 3152.5,3324C 3137.52,3330.5 3124.18,3339.16 3112.5,3350C 3110.39,3350.56 3108.39,3351.39 3106.5,3352.5C 3098.02,3358.15 3090.02,3364.32 3082.5,3371C 3075.48,3375.36 3068.48,3379.7 3061.5,3384C 3056.84,3388.29 3052.17,3392.63 3047.5,3397C 3030.97,3403.55 3015.64,3412.05 3001.5,3422.5C 2998.5,3423.83 2995.5,3425.17 2992.5,3426.5C 2981.23,3434.92 2969.06,3441.92 2956,3447.5C 2950.36,3451.31 2944.86,3455.31 2939.5,3459.5C 2923.21,3464.81 2907.71,3471.81 2893,3480.5C 2870.73,3489.4 2848.9,3499.24 2827.5,3510C 2821.67,3515.41 2815.33,3520.08 2808.5,3524C 2804.9,3527 2801.57,3530.33 2798.5,3534C 2788.5,3537.23 2778.5,3540.4 2768.5,3543.5C 2757.2,3544.79 2746.2,3547.29 2735.5,3551C 2725.03,3554.82 2714.86,3559.32 2705,3564.5C 2693.79,3568.51 2682.29,3571.51 2670.5,3573.5C 2664.32,3576.67 2657.82,3579.01 2651,3580.5C 2634.72,3584.11 2618.39,3587.44 2602,3590.5C 2587.01,3591.92 2572.01,3593.25 2557,3594.5C 2527.4,3602.95 2497.4,3609.95 2467,3615.5C 2454.88,3621.32 2442.04,3623.98 2428.5,3623.5C 2418.51,3622.47 2408.51,3622.3 2398.5,3623C 2373.04,3625.88 2347.54,3628.38 2322,3630.5C 2308.5,3632.4 2295.33,3635.57 2282.5,3640C 2267,3642.72 2251.5,3643.22 2236,3641.5C 2229.79,3641.82 2223.63,3642.49 2217.5,3643.5C 2205.49,3640.89 2193.49,3640.89 2181.5,3643.5C 2169.83,3640.83 2158.17,3640.83 2146.5,3643.5C 2140.72,3642.44 2134.88,3641.77 2129,3641.5C 2110.37,3642.26 2092.21,3645.42 2074.5,3651C 2063.27,3651.1 2052.11,3651.93 2041,3653.5C 2029,3650.83 2017,3650.83 2005,3653.5C 1993.33,3650.83 1981.67,3650.83 1970,3653.5C 1934.33,3649.53 1898.67,3649.53 1863,3653.5C 1851.16,3650.86 1839.33,3650.86 1827.5,3653.5C 1815.83,3650.83 1804.17,3650.83 1792.5,3653.5C 1756.83,3649.55 1721.17,3649.55 1685.5,3653.5C 1673.67,3650.86 1661.84,3650.86 1650,3653.5C 1641.23,3652.02 1632.4,3651.19 1623.5,3651C 1608.56,3645.95 1593.22,3642.62 1577.5,3641C 1543.83,3641.91 1510.16,3641.58 1476.5,3640C 1451.7,3626.36 1425.03,3619.03 1396.5,3618C 1380.71,3615.71 1365.05,3612.71 1349.5,3609C 1325.34,3602 1301.67,3593.5 1278.5,3583.5C 1268.63,3581.97 1259.46,3578.64 1251,3573.5C 1246.38,3572.01 1241.71,3570.68 1237,3569.5C 1234.1,3567.36 1230.94,3565.7 1227.5,3564.5C 1224.2,3562.44 1221.2,3559.94 1218.5,3557C 1200.97,3547.7 1182.63,3540.36 1163.5,3535C 1154.14,3527.59 1143.81,3521.76 1132.5,3517.5C 1125.8,3511.83 1119.14,3506.16 1112.5,3500.5C 1105.17,3495.51 1097.84,3490.51 1090.5,3485.5C 1083.59,3479.08 1076.25,3473.25 1068.5,3468C 1066.5,3467 1064.5,3466 1062.5,3465C 1059.21,3462.01 1055.87,3459.01 1052.5,3456C 1040.11,3448.96 1028.11,3441.12 1016.5,3432.5C 1011.94,3426.77 1006.61,3421.94 1000.5,3418C 995.674,3411.67 990.007,3406.17 983.5,3401.5C 982,3399.17 980.5,3396.83 979,3394.5C 973.541,3389.51 968.374,3384.17 963.5,3378.5C 960.264,3375.85 956.931,3373.35 953.5,3371C 941.112,3356.16 926.779,3343.66 910.5,3333.5C 894.279,3317.78 878.946,3301.28 864.5,3284C 858.722,3279.37 852.888,3274.87 847,3270.5C 841.478,3262.85 836.144,3255.18 831,3247.5C 816.679,3234.01 802.845,3220.01 789.5,3205.5C 788.086,3204.38 786.586,3203.38 785,3202.5C 778.711,3195.51 772.378,3188.51 766,3181.5C 758.616,3168.13 750.45,3155.29 741.5,3143C 737.792,3137.01 734.292,3130.85 731,3124.5C 721.587,3113.57 713.254,3101.9 706,3089.5C 704.981,3088.31 703.814,3087.31 702.5,3086.5C 699.259,3078.82 695.259,3071.65 690.5,3065C 680.585,3053.05 671.751,3040.22 664,3026.5C 661.01,3023.31 658.51,3019.65 656.5,3015.5C 643.097,2996.61 629.931,2977.61 617,2958.5C 613.602,2955.89 610.769,2952.73 608.5,2949C 597.844,2922.68 587.177,2896.35 576.5,2870C 569.185,2856.31 562.685,2842.15 557,2827.5C 554.752,2824.67 552.752,2821.67 551,2818.5C 548.245,2811.24 544.911,2804.24 541,2797.5C 531.352,2767.2 520.852,2737.2 509.5,2707.5C 506.094,2700.11 502.594,2692.78 499,2685.5C 493.029,2676.38 487.195,2667.22 481.5,2658C 473.225,2634.74 466.891,2610.9 462.5,2586.5C 460.107,2581.71 458.274,2576.71 457,2571.5C 454.553,2553.37 452.386,2535.2 450.5,2517C 451.527,2351.17 451.527,2185.34 450.5,2019.5C 449.785,2005.69 451.952,1992.36 457,1979.5C 458.493,1970.89 459.493,1962.22 460,1953.5C 459.695,1928.84 459.695,1904.17 460,1879.5C 461.171,1867.15 462.505,1854.81 464,1842.5C 470.202,1829.03 474.869,1815.03 478,1800.5C 480.767,1776.45 483.767,1752.45 487,1728.5C 490.79,1717.91 493.956,1707.08 496.5,1696C 500.509,1665.22 504.009,1634.39 507,1603.5C 508,1602.17 509,1600.83 510,1599.5C 514.785,1588.58 518.452,1577.25 521,1565.5C 527.006,1551.8 531.006,1537.46 533,1522.5C 540.825,1506.18 549.158,1490.18 558,1474.5C 564.171,1459.66 568.838,1444.33 572,1428.5C 578.669,1416.49 584.169,1403.99 588.5,1391C 594.18,1379.79 599.18,1368.29 603.5,1356.5C 607.093,1341.27 609.926,1325.94 612,1310.5C 615.711,1301.73 618.878,1292.73 621.5,1283.5C 627.294,1270.73 632.461,1257.73 637,1244.5C 644.158,1234.19 650.825,1223.53 657,1212.5C 663.455,1197.02 669.455,1181.35 675,1165.5C 680.989,1158.25 685.489,1150.09 688.5,1141C 696.32,1129.2 702.986,1116.7 708.5,1103.5C 715.602,1093.64 721.435,1082.97 726,1071.5C 737.704,1058.11 749.87,1045.11 762.5,1032.5C 769.033,1021.99 776.533,1012.32 785,1003.5C 794.951,990.036 803.617,975.703 811,960.5C 813.415,952.252 816.415,944.252 820,936.5C 832.76,922.684 845.76,909.017 859,895.5C 867.629,884.611 876.962,874.277 887,864.5C 887.333,863.5 887.667,862.5 888,861.5C 896.433,853.906 903.933,845.573 910.5,836.5C 913.009,835.079 915.343,833.412 917.5,831.5C 931.815,815.351 946.315,799.351 961,783.5C 968.878,779.459 976.378,774.792 983.5,769.5C 994.611,759.432 1005.61,749.265 1016.5,739C 1028.02,733.655 1039.52,728.155 1051,722.5C 1055.71,719.024 1060.55,715.691 1065.5,712.5C 1077.76,702.383 1088.93,691.05 1099,678.5C 1101.82,676.678 1104.32,674.511 1106.5,672C 1123.62,664.511 1140.79,657.011 1158,649.5C 1170.64,641.132 1183.47,632.966 1196.5,625C 1211.39,617.804 1226.56,611.304 1242,605.5C 1251.98,604.173 1261.48,601.34 1270.5,597C 1295.22,591.319 1318.22,581.819 1339.5,568.5C 1358.19,562.187 1376.85,556.02 1395.5,550C 1405.08,544.359 1415.41,540.526 1426.5,538.5C 1430.22,536.232 1434.22,534.566 1438.5,533.5C 1453.74,525.421 1469.07,517.587 1484.5,510C 1495.62,506.422 1506.95,503.589 1518.5,501.5C 1527.77,496.854 1537.1,492.854 1546.5,489.5 Z"/></g>
<g><path style="opacity:1" fill="#1da0f2" d="M 2841.5,1201.5 C 2889.56,1199.4 2931.56,1213.9 2967.5,1245C 3017.9,1293.57 3037.07,1353.07 3025,1423.5C 3014.81,1467.94 2992.31,1504.44 2957.5,1533C 2908.02,1568.41 2854.02,1576.74 2795.5,1558C 2754.58,1540.88 2723.25,1513.05 2701.5,1474.5C 2672.18,1414.66 2672.18,1354.83 2701.5,1295C 2718.29,1265.88 2740.79,1242.38 2769,1224.5C 2780.07,1219.14 2791.24,1213.98 2802.5,1209C 2815.5,1205.74 2828.5,1203.24 2841.5,1201.5 Z"/></g>
<g><path style="opacity:1" fill="#1da0f2" d="M 1186.5,1329.5 C 1261.39,1329.29 1316.72,1361.46 1352.5,1426C 1386.12,1499.34 1379.12,1568.18 1331.5,1632.5C 1283.04,1687.89 1222.54,1706.89 1150,1689.5C 1100.53,1672.82 1064.53,1641.15 1042,1594.5C 1021.03,1545.71 1019.03,1496.04 1036,1445.5C 1063.95,1378.05 1114.12,1339.38 1186.5,1329.5 Z"/></g>
<g><path style="opacity:1" fill="#1da0f2" d="M 2799.5,2100.5 C 2815.35,2101.1 2831.18,2101.1 2847,2100.5C 2890.36,2101.43 2928.19,2115.93 2960.5,2144C 2968.69,2152.86 2976.86,2161.69 2985,2170.5C 2989.61,2177.54 2994.11,2184.71 2998.5,2192C 3029.14,2253.32 3029.14,2314.66 2998.5,2376C 2983.15,2401.85 2963.15,2423.35 2938.5,2440.5C 2906.73,2459.96 2872.06,2469.13 2834.5,2468C 2816.78,2473.58 2798.62,2476.75 2780,2477.5C 2774.12,2477.23 2768.28,2476.56 2762.5,2475.5C 2750.67,2478.14 2738.84,2478.14 2727,2475.5C 2715.17,2478.14 2703.34,2478.14 2691.5,2475.5C 2679.49,2478.11 2667.49,2478.11 2655.5,2475.5C 2643.67,2478.14 2631.84,2478.14 2620,2475.5C 2608.33,2478.17 2596.67,2478.17 2585,2475.5C 2573,2478.17 2561,2478.17 2549,2475.5C 2537,2478.17 2525,2478.17 2513,2475.5C 2501.33,2478.17 2489.67,2478.17 2478,2475.5C 2466.16,2478.14 2454.33,2478.14 2442.5,2475.5C 2430.51,2478.11 2418.51,2478.11 2406.5,2475.5C 2394.66,2478.14 2382.83,2478.14 2371,2475.5C 2359.16,2478.14 2347.33,2478.14 2335.5,2475.5C 2325.57,2477.06 2315.57,2477.89 2305.5,2478C 2287.78,2483.58 2269.61,2486.75 2251,2487.5C 2245.12,2487.23 2239.28,2486.56 2233.5,2485.5C 2221.51,2488.11 2209.51,2488.11 2197.5,2485.5C 2185.49,2488.11 2173.49,2488.11 2161.5,2485.5C 2149.83,2488.17 2138.17,2488.17 2126.5,2485.5C 2106.09,2485.31 2086.76,2489.64 2068.5,2498.5C 2043.65,2505.71 2018.32,2508.21 1992.5,2506C 1985.69,2508.55 1979.03,2511.38 1972.5,2514.5C 1956.17,2519.6 1939.51,2523.1 1922.5,2525C 1919.27,2526.23 1916.6,2528.23 1914.5,2531C 1903.98,2535.76 1893.64,2540.76 1883.5,2546C 1866.66,2550.17 1850.16,2555.34 1834,2561.5C 1825.52,2562.97 1817.02,2564.31 1808.5,2565.5C 1792.29,2573.57 1775.79,2580.9 1759,2587.5C 1746.08,2590.29 1733.41,2593.96 1721,2598.5C 1711.18,2600.43 1701.34,2602.26 1691.5,2604C 1680.55,2610.42 1668.88,2615.25 1656.5,2618.5C 1649.19,2622.91 1641.52,2626.58 1633.5,2629.5C 1625.66,2631.1 1617.99,2633.27 1610.5,2636C 1598.45,2644.21 1586.45,2652.71 1574.5,2661.5C 1567.55,2665.1 1560.55,2668.6 1553.5,2672C 1546.03,2675.2 1538.37,2677.86 1530.5,2680C 1508.83,2695.98 1484.67,2706.48 1458,2711.5C 1442.54,2716.93 1427.04,2722.26 1411.5,2727.5C 1399.16,2733.92 1386.66,2739.92 1374,2745.5C 1365.44,2747.53 1356.94,2749.7 1348.5,2752C 1340.54,2757.46 1332.21,2762.29 1323.5,2766.5C 1306.33,2773.39 1289.17,2780.39 1272,2787.5C 1255.1,2791.47 1238.26,2795.64 1221.5,2800C 1207.31,2806.84 1192.81,2813.01 1178,2818.5C 1164.14,2822.13 1150.14,2825.13 1136,2827.5C 1133.84,2828.65 1131.68,2829.82 1129.5,2831C 1111.82,2846.43 1091.66,2857.93 1069,2865.5C 1005.84,2881.5 950.343,2868 902.5,2825C 865.291,2787.85 846.291,2742.51 845.5,2689C 845.722,2678.12 846.555,2667.28 848,2656.5C 850.585,2646.91 852.919,2637.24 855,2627.5C 858.016,2620.44 861.183,2613.44 864.5,2606.5C 883.318,2542.68 924.318,2500.68 987.5,2480.5C 1006.52,2475.69 1025.86,2473.53 1045.5,2474C 1056.27,2470.63 1067.27,2468.3 1078.5,2467C 1087.05,2462.57 1095.72,2458.41 1104.5,2454.5C 1127.54,2447.73 1150.71,2441.4 1174,2435.5C 1184.7,2430.05 1195.03,2424.05 1205,2417.5C 1212.82,2413.38 1220.82,2409.72 1229,2406.5C 1238.99,2403.34 1249.16,2400.84 1259.5,2399C 1271.52,2391.76 1284.36,2386.26 1298,2382.5C 1302.89,2380.26 1307.72,2377.93 1312.5,2375.5C 1329.07,2370.19 1345.74,2365.19 1362.5,2360.5C 1378.17,2350.5 1394.84,2342.33 1412.5,2336C 1413.17,2335 1413.83,2334 1414.5,2333C 1421.07,2327.93 1428.07,2323.59 1435.5,2320C 1449.13,2307.97 1464.46,2298.3 1481.5,2291C 1498.4,2285.02 1515.73,2280.69 1533.5,2278C 1534.83,2277 1536.17,2276 1537.5,2275C 1553.53,2268.82 1569.2,2261.82 1584.5,2254C 1604.85,2248.23 1625.52,2243.9 1646.5,2241C 1667.99,2222 1692.99,2209 1721.5,2202C 1733.79,2200.17 1746.13,2198.67 1758.5,2197.5C 1775.55,2185.87 1794.22,2177.71 1814.5,2173C 1830.32,2165.56 1846.99,2160.9 1864.5,2159C 1885.43,2147.97 1907.76,2141.31 1931.5,2139C 1950.83,2139.16 1970.16,2139.16 1989.5,2139C 2000.43,2137.2 2010.76,2133.7 2020.5,2128.5C 2037.73,2123.04 2055.39,2120.37 2073.5,2120.5C 2114.83,2120.62 2156.16,2120.95 2197.5,2121.5C 2207.84,2120.99 2218.18,2120.33 2228.5,2119.5C 2237.22,2116.85 2246.05,2114.52 2255,2112.5C 2264.3,2111.34 2273.63,2110.67 2283,2110.5C 2431,2110.69 2579,2111.03 2727,2111.5C 2737.16,2110.81 2747.32,2110.31 2757.5,2110C 2766.19,2107.12 2775.02,2104.62 2784,2102.5C 2789.34,2102.02 2794.5,2101.35 2799.5,2100.5 Z"/></g>
</svg>
