<?xml version="1.0" encoding="UTF-8"?>
<!DOCTYPE svg PUBLIC "-//W3C//DTD SVG 1.1//EN" "http://www.w3.org/Graphics/SVG/1.1/DTD/svg11.dtd">
<svg xmlns="http://www.w3.org/2000/svg" version="1.1" width="4096px" height="4096px" style="shape-rendering:geometricPrecision; text-rendering:geometricPrecision; image-rendering:optimizeQuality; fill-rule:evenodd; clip-rule:evenodd" xmlns:xlink="http://www.w3.org/1999/xlink">
<g><path style="opacity:1" fill="#1da0f2" d="M 3711.5,138.5 C 3760.8,136.867 3801.96,154.2 3835,190.5C 3841.58,199.753 3848.92,208.42 3857,216.5C 3865.5,230.179 3874.5,243.512 3884,256.5C 3893.92,273.59 3900.25,291.923 3903,311.5C 3906.62,344.212 3910.62,376.879 3915,409.5C 3916.17,433.014 3916.67,456.514 3916.5,480C 3916.33,495.877 3913.83,511.377 3909,526.5C 3908.93,544.241 3906.27,561.575 3901,578.5C 3902.06,605.858 3896.73,631.858 3885,656.5C 3884.71,666.013 3884.21,675.513 3883.5,685C 3884.83,836.413 3884.83,987.746 3883.5,1139C 3884.19,1147.49 3884.69,1155.99 3885,1164.5C 3889.54,1182.45 3893.87,1200.45 3898,1218.5C 3899.2,1238.15 3900.2,1257.82 3901,1277.5C 3906.62,1296.07 3909.29,1315.07 3909,1334.5C 3919.2,1355.64 3924.53,1377.97 3925,1401.5C 3934.29,1417.02 3940.62,1433.69 3944,1451.5C 3945.26,1463.23 3946.92,1474.89 3949,1486.5C 3953.34,1502.5 3957.67,1518.5 3962,1534.5C 3963.82,1546.76 3964.82,1559.1 3965,1571.5C 3971.42,1591.56 3973.59,1612.06 3971.5,1633C 3973,1644.5 3974.5,1656 3976,1667.5C 3980.08,1683.07 3983.74,1698.73 3987,1714.5C 3987.76,1734.17 3988.43,1753.83 3989,1773.5C 3992.75,1785.23 3995.08,1797.23 3996,1809.5C 3996.78,1837.69 3996.62,1865.85 3995.5,1894C 4000.01,1913.23 4002.51,1932.73 4003,1952.5C 4002.71,1976.32 4003.21,2000.16 4004.5,2024C 4004.47,2027.89 4004.13,2031.72 4003.5,2035.5C 4006.45,2044.3 4008.62,2053.3 4010,2062.5C 4011.22,2082.48 4012.22,2102.48 4013,2122.5C 4016.23,2135.67 4018.57,2149.01 4020,2162.5C 4019.58,2191.01 4019.41,2219.51 4019.5,2248C 4020.17,2255.82 4020.67,2263.65 4021,2271.5C 4025.83,2286.62 4028.33,2302.12 4028.5,2318C 4028.32,2373.33 4027.99,2428.66 4027.5,2484C 4028.17,2491.82 4028.67,2499.65 4029,2507.5C 4033.83,2522.62 4036.33,2538.12 4036.5,2554C 4036.07,2668.44 4035.91,2782.94 4036,2897.5C 4035.08,2909.77 4032.75,2921.77 4029,2933.5C 4028.74,2944.9 4027.74,2956.24 4026,2967.5C 4022.94,2981.01 4019.27,2994.35 4015,3007.5C 4013.64,3029.81 4010.3,3051.81 4005,3073.5C 4004.2,3093.18 4003.2,3112.85 4002,3132.5C 4000.81,3140.27 3999.14,3147.94 3997,3155.5C 3997.49,3175.94 3994.82,3195.94 3989,3215.5C 3989.03,3233.58 3986.36,3251.25 3981,3268.5C 3979.98,3286.94 3977.98,3305.28 3975,3323.5C 3973.25,3335.17 3970.25,3346.51 3966,3357.5C 3964.51,3373.79 3961.51,3389.79 3957,3405.5C 3956.69,3414.01 3956.19,3422.51 3955.5,3431C 3956.05,3536.99 3956.39,3642.99 3956.5,3749C 3955.73,3785.35 3943.89,3817.52 3921,3845.5C 3908.54,3856.99 3896.38,3868.82 3884.5,3881C 3856.52,3903.89 3824.35,3915.73 3788,3916.5C 3677.33,3915.17 3566.67,3915.17 3456,3916.5C 3440.66,3915.96 3425.32,3915.3 3410,3914.5C 3385.02,3914.63 3360.02,3915.3 3335,3916.5C 3173.67,3916.5 3012.33,3916.5 2851,3916.5C 2827.29,3915.09 2803.79,3912.09 2780.5,3907.5C 2772.18,3908.54 2763.85,3908.71 2755.5,3908C 2742.54,3906.31 2729.54,3904.98 2716.5,3904C 2708.73,3902.81 2701.06,3901.14 2693.5,3899C 2674.08,3897.09 2654.75,3894.59 2635.5,3891.5C 2120.62,3892.76 1605.79,3892.76 1091,3891.5C 1065.13,3893.34 1039.63,3897.51 1014.5,3904C 1000.43,3905.51 986.43,3907.51 972.5,3910C 959.833,3913.67 947.167,3917.33 934.5,3921C 927.578,3922.54 920.578,3923.54 913.5,3924C 896.154,3923 878.821,3923.33 861.5,3925C 846.377,3929.83 830.877,3932.33 815,3932.5C 770.482,3932.4 725.982,3932.07 681.5,3931.5C 674.596,3933.45 667.596,3934.95 660.5,3936C 640.25,3938.66 619.916,3940.33 599.5,3941C 591.936,3943.14 584.269,3944.81 576.5,3946C 546.51,3948.05 516.51,3949.05 486.5,3949C 471.377,3953.83 455.877,3956.33 440,3956.5C 419.664,3956.47 399.331,3956.47 379,3956.5C 342.646,3955.73 310.479,3943.89 282.5,3921C 271,3908.83 259.167,3897 247,3885.5C 235.192,3871.56 226.192,3855.9 220,3838.5C 217.464,3828.23 214.131,3818.23 210,3808.5C 205.828,3794.3 203.661,3779.8 203.5,3765C 203.5,3684.33 203.5,3603.67 203.5,3523C 204.65,3506.17 205.817,3489.33 207,3472.5C 210.676,3448.49 219.343,3426.49 233,3406.5C 233.972,3395.64 235.972,3384.98 239,3374.5C 243.951,3362.27 248.617,3349.93 253,3337.5C 254.194,3324 256.361,3310.67 259.5,3297.5C 257.321,3275.63 259.821,3254.29 267,3233.5C 267.372,3224.14 268.038,3214.81 269,3205.5C 271.8,3193.97 273.8,3182.3 275,3170.5C 275.382,3152.84 276.049,3135.17 277,3117.5C 278.37,3108.69 280.37,3100.02 283,3091.5C 283.325,3083.65 283.825,3075.82 284.5,3068C 283.508,3039.17 283.342,3010.34 284,2981.5C 285.552,2960.81 288.385,2940.31 292.5,2920C 292.463,2859.5 292.463,2799 292.5,2738.5C 289.849,2708.33 289.849,2678.17 292.5,2648C 292.39,2622.68 291.723,2597.35 290.5,2572C 292.101,2548.49 292.268,2524.99 291,2501.5C 285.933,2484.63 280.266,2467.97 274,2451.5C 268.368,2432.35 266.535,2412.85 268.5,2393C 266.098,2377.48 263.598,2361.98 261,2346.5C 260.019,2336.86 259.352,2327.19 259,2317.5C 253.735,2300.57 251.068,2283.24 251,2265.5C 244.585,2246.03 241.585,2226.03 242,2205.5C 237.746,2187.56 233.746,2169.56 230,2151.5C 228.817,2134.67 227.65,2117.83 226.5,2101C 228.516,2068.16 228.682,2035.33 227,2002.5C 221.52,1986.46 218.687,1969.96 218.5,1953C 219.045,1937.83 219.711,1922.66 220.5,1907.5C 219.182,1837 219.182,1766.5 220.5,1696C 219.81,1687.51 219.31,1679.01 219,1670.5C 214.174,1655.38 211.674,1639.88 211.5,1624C 212.833,1472.67 212.833,1321.33 211.5,1170C 211.674,1154.12 214.174,1138.62 219,1123.5C 219.325,1115.65 219.825,1107.82 220.5,1100C 220.354,939.322 220.354,778.655 220.5,618C 217.636,607.147 215.636,596.147 214.5,585C 199.729,561.685 191.563,536.185 190,508.5C 183.027,498.221 177.36,487.221 173,475.5C 168.131,460.561 163.465,445.561 159,430.5C 116.815,375.975 111.481,317.975 143,256.5C 168.079,217.849 203.246,193.349 248.5,183C 258.891,180.878 269.391,179.711 280,179.5C 290,180.833 300,180.833 310,179.5C 323.15,180.565 336.317,181.398 349.5,182C 378.32,187.859 407.32,192.526 436.5,196C 458.941,194.111 480.941,196.444 502.5,203C 511.845,203.312 521.178,203.812 530.5,204.5C 822.833,203.167 1115.17,203.167 1407.5,204.5C 1415.82,203.834 1424.16,203.334 1432.5,203C 1445.16,198.668 1458.16,196.002 1471.5,195C 1488.83,195.215 1506.16,195.215 1523.5,195C 1535.23,191.255 1547.23,188.921 1559.5,188C 1588.35,187.279 1617.18,187.445 1646,188.5C 1660.99,187.7 1675.99,187.034 1691,186.5C 1706.99,186.612 1722.99,186.946 1739,187.5C 1762.87,183.747 1786.87,181.08 1811,179.5C 1846.32,179.612 1881.66,179.945 1917,180.5C 1931.99,179.7 1946.99,179.034 1962,178.5C 1987.35,179.723 2012.68,180.39 2038,180.5C 2056.49,177.251 2074.99,174.085 2093.5,171C 2112.35,170.812 2131.18,171.312 2150,172.5C 2158.49,171.81 2166.99,171.31 2175.5,171C 2195.56,164.578 2216.06,162.411 2237,164.5C 2267.33,161.865 2297.67,161.865 2328,164.5C 2559.67,163.198 2791.34,163.198 3023,164.5C 3029.82,163.855 3036.66,163.355 3043.5,163C 3056.16,158.668 3069.16,156.002 3082.5,155C 3121.35,156.089 3160.18,156.589 3199,156.5C 3206.82,155.825 3214.65,155.325 3222.5,155C 3238.54,149.52 3255.04,146.687 3272,146.5C 3287.17,147.045 3302.34,147.711 3317.5,148.5C 3368,147.182 3418.5,147.182 3469,148.5C 3477.49,147.81 3485.99,147.31 3494.5,147C 3509.62,142.174 3525.12,139.674 3541,139.5C 3586.34,139.675 3631.67,140.008 3677,140.5C 3688.66,139.932 3700.16,139.265 3711.5,138.5 Z M 3581.5,435.5 C 3594.17,436.802 3606.83,436.802 3619.5,435.5C 3619.67,441.176 3619.5,446.843 3619,452.5C 3611.92,472.802 3609.42,493.635 3611.5,515C 3607.21,530.21 3604.71,545.71 3604,561.5C 3599.49,577.212 3594.82,592.879 3590,608.5C 3587.88,618.891 3586.71,629.391 3586.5,640C 3587.03,655.009 3587.7,670.009 3588.5,685C 3587.2,715.336 3587.2,745.669 3588.5,776C 3587.7,790.991 3587.03,805.991 3586.5,821C 3587.83,841.333 3587.83,861.667 3586.5,882C 3587.03,897.009 3587.7,912.009 3588.5,927C 3587.48,1016.16 3587.31,1105.33 3588,1194.5C 3588.46,1201.58 3589.46,1208.58 3591,1215.5C 3595.4,1229.37 3599.4,1243.37 3603,1257.5C 3603.23,1275.17 3603.23,1292.84 3603,1310.5C 3604,1323.84 3606.67,1336.84 3611,1349.5C 3611.41,1359.89 3612.41,1370.23 3614,1380.5C 3618.69,1397.92 3623.69,1415.25 3629,1432.5C 3632.26,1463.93 3640.59,1493.93 3654,1522.5C 3657.84,1540.87 3661.84,1559.2 3666,1577.5C 3665.39,1599.03 3668.39,1620.03 3675,1640.5C 3677.49,1673.42 3681.82,1706.08 3688,1738.5C 3689.19,1743.93 3690.69,1749.26 3692.5,1754.5C 3692.58,1771.8 3692.42,1789.13 3692,1806.5C 3692.92,1818.77 3695.25,1830.77 3699,1842.5C 3699.33,1850.35 3699.83,1858.18 3700.5,1866C 3700.33,1884.5 3700.17,1903 3700,1921.5C 3701.1,1933.32 3703.1,1944.99 3706,1956.5C 3706.36,1963.84 3706.86,1971.18 3707.5,1978.5C 3707.58,2007.16 3707.41,2035.83 3707,2064.5C 3708,2077.84 3710.67,2090.84 3715,2103.5C 3716.33,2123.5 3717.67,2143.5 3719,2163.5C 3720.5,2171.51 3722,2179.51 3723.5,2187.5C 3722.69,2207.67 3723.02,2227.84 3724.5,2248C 3723.31,2266.82 3722.81,2285.65 3723,2304.5C 3724,2317.84 3726.67,2330.84 3731,2343.5C 3731.39,2350.18 3731.89,2356.84 3732.5,2363.5C 3731.99,2419.01 3731.66,2474.51 3731.5,2530C 3731.67,2545.88 3734.17,2561.38 3739,2576.5C 3739.33,2584.01 3739.83,2591.51 3740.5,2599C 3740.43,2639.34 3740.43,2679.67 3740.5,2720C 3739.7,2735.32 3739.04,2750.66 3738.5,2766C 3740.59,2797.84 3740.76,2829.68 3739,2861.5C 3732.39,2881.97 3729.39,2902.97 3730,2924.5C 3724.4,2948.91 3720.4,2973.57 3718,2998.5C 3715.67,3009.83 3713.33,3021.17 3711,3032.5C 3709.53,3052.49 3708.2,3072.49 3707,3092.5C 3702.06,3108.46 3699.4,3124.79 3699,3141.5C 3693.08,3159.35 3690.08,3177.68 3690,3196.5C 3682.93,3221.04 3680.59,3246.04 3683,3271.5C 3676.63,3289.3 3672.63,3307.63 3671,3326.5C 3664.33,3342.17 3660.33,3358.5 3659,3375.5C 3658.8,3394.01 3659.3,3412.51 3660.5,3431C 3660.42,3493.54 3660.08,3556.04 3659.5,3618.5C 3657.22,3619.92 3654.72,3620.59 3652,3620.5C 3591.67,3620.5 3531.33,3620.5 3471,3620.5C 3455.68,3619.7 3440.34,3619.04 3425,3618.5C 3405,3618.5 3385,3618.5 3365,3618.5C 3349.99,3619.03 3334.99,3619.7 3320,3620.5C 3279.66,3620.43 3239.33,3620.43 3199,3620.5C 3168.67,3617.87 3138.33,3617.87 3108,3620.5C 3067.67,3620.5 3027.33,3620.5 2987,3620.5C 2972.01,3619.7 2957.01,3619.03 2942,3618.5C 2916.65,3619.68 2891.31,3620.35 2866,3620.5C 2846.34,3618.69 2826.84,3615.86 2807.5,3612C 2798.82,3611.33 2790.15,3611.49 2781.5,3612.5C 2763.23,3611.39 2745.23,3608.56 2727.5,3604C 2700.88,3601.61 2674.38,3598.44 2648,3594.5C 2628,3595.83 2608,3595.83 2588,3594.5C 2572.83,3595.04 2557.66,3595.71 2542.5,3596.5C 2492,3595.18 2441.5,3595.18 2391,3596.5C 2360.83,3593.85 2330.67,3593.85 2300.5,3596.5C 2280.33,3596.46 2260.16,3596.46 2240,3596.5C 2209.67,3593.87 2179.33,3593.87 2149,3596.5C 1987.83,3596.46 1826.66,3596.46 1665.5,3596.5C 1635.33,3593.85 1605.17,3593.85 1575,3596.5C 1514.33,3596.5 1453.67,3596.5 1393,3596.5C 1362.83,3593.85 1332.67,3593.85 1302.5,3596.5C 1226.99,3595.99 1151.49,3595.66 1076,3595.5C 1059.18,3597.05 1042.34,3598.55 1025.5,3600C 1002.37,3603.58 979.368,3607.91 956.5,3613C 948.482,3613.87 940.482,3614.87 932.5,3616C 915.738,3619.24 899.071,3622.9 882.5,3627C 865.496,3627.2 848.496,3627.2 831.5,3627C 818.159,3628 805.159,3630.67 792.5,3635C 784.988,3635.33 777.488,3635.83 770,3636.5C 731.168,3636.37 692.335,3636.2 653.5,3636C 640.011,3637.43 626.677,3639.76 613.5,3643C 596.172,3643.35 578.839,3644.02 561.5,3645C 552.687,3646.37 544.021,3648.37 535.5,3651C 523.817,3652.06 512.15,3652.23 500.5,3651.5C 500.001,3612.82 499.834,3574.16 500,3535.5C 512.051,3510.74 520.051,3484.74 524,3457.5C 532.962,3439.91 539.962,3421.58 545,3402.5C 547.587,3388.96 548.921,3375.29 549,3361.5C 554.56,3342.57 557.226,3323.24 557,3303.5C 563.622,3281.61 565.956,3259.28 564,3236.5C 565.717,3230.25 567.05,3223.91 568,3217.5C 570.323,3198.23 571.99,3178.89 573,3159.5C 576.745,3147.77 579.079,3135.77 580,3123.5C 579.907,3084.67 579.74,3045.84 579.5,3007C 580.785,2989.65 583.285,2972.48 587,2955.5C 587.848,2948.69 588.348,2941.86 588.5,2935C 587.67,2780.23 587.503,2625.39 588,2470.5C 587.158,2459.29 585.158,2448.29 582,2437.5C 576.531,2419.43 570.865,2401.43 565,2383.5C 562.938,2359.02 559.771,2334.69 555.5,2310.5C 557.622,2289.39 555.455,2268.72 549,2248.5C 549.138,2228.99 546.138,2209.99 540,2191.5C 539.656,2179.05 538.322,2166.72 536,2154.5C 531.19,2140.07 527.19,2125.4 524,2110.5C 524.169,2066.98 524.335,2023.48 524.5,1980C 524.326,1964.12 521.826,1948.62 517,1933.5C 516.674,1924.82 516.174,1916.16 515.5,1907.5C 516.007,1821.67 516.341,1735.84 516.5,1650C 516.326,1634.12 513.826,1618.62 509,1603.5C 508.69,1594.99 508.19,1586.49 507.5,1578C 507.573,1457 507.573,1336 507.5,1215C 508.175,1207.18 508.675,1199.35 509,1191.5C 513.826,1176.38 516.326,1160.88 516.5,1145C 516.5,963.667 516.5,782.333 516.5,601C 516.348,594.141 515.848,587.308 515,580.5C 510.817,563.402 508.15,546.068 507,528.5C 505.302,518.711 503.136,509.044 500.5,499.5C 817.996,500.008 1135.5,500.342 1453,500.5C 1468.88,500.326 1484.38,497.826 1499.5,493C 1517.16,491.481 1534.83,491.147 1552.5,492C 1564.77,491.079 1576.77,488.745 1588.5,485C 1597.68,484.702 1606.85,484.202 1616,483.5C 1631.01,484.023 1646.01,484.356 1661,484.5C 1676.17,483.955 1691.34,483.289 1706.5,482.5C 1721.66,483.289 1736.83,483.955 1752,484.5C 1776.59,481.021 1801.26,478.021 1826,475.5C 1901.63,476.027 1977.3,476.36 2053,476.5C 2059.86,476.348 2066.69,475.848 2073.5,475C 2088.66,472.467 2103.83,469.967 2119,467.5C 2147.83,468.492 2176.66,468.658 2205.5,468C 2217.77,467.079 2229.77,464.745 2241.5,461C 2248.5,460.667 2255.5,460.333 2262.5,460C 2531.36,459.852 2800.19,460.018 3069,460.5C 3084.88,460.326 3100.38,457.826 3115.5,453C 3123.01,452.666 3130.51,452.166 3138,451.5C 3173.34,452.055 3208.68,452.388 3244,452.5C 3259.88,452.326 3275.38,449.826 3290.5,445C 3299.51,444.681 3308.51,444.181 3317.5,443.5C 3386.49,444.539 3455.49,444.706 3524.5,444C 3536.77,443.079 3548.77,440.745 3560.5,437C 3567.68,436.829 3574.68,436.329 3581.5,435.5 Z"/></g>
<g><path style="opacity:1" fill="#1da0f2" d="M 2942.5,1281.5 C 3087,1281.8 3231.5,1281.8 3376,1281.5C 3439.08,1284.36 3484.42,1314.02 3512,1370.5C 3534.03,1426.99 3526.36,1478.99 3489,1526.5C 3458.91,1560.04 3421.24,1577.38 3376,1578.5C 3275.5,1578.48 3175,1578.48 3074.5,1578.5C 3074.83,1596.03 3072.5,1613.19 3067.5,1630C 3067.96,1644.33 3068.29,1658.66 3068.5,1673C 3068.35,1679.86 3067.85,1686.69 3067,1693.5C 3064.09,1712.27 3060.59,1730.94 3056.5,1749.5C 3056.56,1767.49 3056.72,1785.49 3057,1803.5C 3056,1814.64 3054.17,1825.64 3051.5,1836.5C 3053.4,1857.2 3051.4,1877.53 3045.5,1897.5C 3046.83,1906.51 3046.83,1915.51 3045.5,1924.5C 3077,1925.6 3108.5,1925.6 3140,1924.5C 3203.08,1927.36 3248.42,1957.02 3276,2013.5C 3298.03,2069.99 3290.36,2121.99 3253,2169.5C 3225.68,2200.08 3191.51,2217.24 3150.5,2221C 3121.66,2221.66 3092.83,2221.49 3064,2220.5C 3058.14,2220.94 3052.31,2221.6 3046.5,2222.5C 3045.84,2289.95 3045.84,2357.45 3046.5,2425C 3044.64,2480.74 3020.31,2523.41 2973.5,2553C 2915.49,2583.38 2859.82,2579.72 2806.5,2542C 2769.87,2511.74 2750.87,2472.74 2749.5,2425C 2749.5,2243.67 2749.5,2062.33 2749.5,1881C 2749.83,1865.2 2752.16,1849.7 2756.5,1834.5C 2754.79,1815.22 2756.46,1796.22 2761.5,1777.5C 2760.99,1762.66 2760.66,1747.83 2760.5,1733C 2760.65,1726.14 2761.15,1719.31 2762,1712.5C 2765.96,1694.42 2769.46,1676.26 2772.5,1658C 2772.33,1639.5 2772.17,1621 2772,1602.5C 2773.07,1590.3 2775.24,1578.3 2778.5,1566.5C 2777.9,1521.68 2777.56,1476.85 2777.5,1432C 2779.36,1376.26 2803.69,1333.59 2850.5,1304C 2879.35,1288.67 2910.01,1281.17 2942.5,1281.5 Z"/></g>
<g><path style="opacity:1" fill="#1da0f2" d="M 1112.5,1295.5 C 1139.5,1295.33 1166.5,1295.5 1193.5,1296C 1213.5,1298.67 1233.5,1301.33 1253.5,1304C 1266.83,1305 1280.17,1306 1293.5,1307C 1307.07,1310.14 1320.74,1312.81 1334.5,1315C 1347.94,1319.44 1361.61,1323.11 1375.5,1326C 1409.16,1338.5 1441.16,1354.16 1471.5,1373C 1485.67,1380.92 1500.01,1388.59 1514.5,1396C 1570.06,1432.64 1593.56,1484.14 1585,1550.5C 1573.3,1605.73 1541.13,1643.56 1488.5,1664C 1445.09,1678.16 1403.42,1674.16 1363.5,1652C 1343.17,1640.33 1322.83,1628.67 1302.5,1617C 1295.17,1613.67 1287.83,1610.33 1280.5,1607C 1261.55,1601.62 1242.22,1598.95 1222.5,1599C 1204.82,1596.63 1187.15,1594.13 1169.5,1591.5C 1164.66,1593.48 1160.16,1596.15 1156,1599.5C 1150.06,1611.71 1144.39,1624.05 1139,1636.5C 1132.67,1653.83 1126.33,1671.17 1120,1688.5C 1118.64,1701.01 1116.3,1713.34 1113,1725.5C 1100.92,1763.42 1090.25,1801.76 1081,1840.5C 1078.22,1848.73 1074.89,1856.73 1071,1864.5C 1068.13,1885.66 1065.3,1906.83 1062.5,1928C 1063.02,1932.99 1063.36,1937.99 1063.5,1943C 1062.65,1958.26 1060.98,1973.42 1058.5,1988.5C 1059.51,1997.15 1059.67,2005.82 1059,2014.5C 1056.1,2035.83 1053.27,2057.16 1050.5,2078.5C 1051.84,2090.52 1051.67,2102.52 1050,2114.5C 1043.25,2141.14 1041.25,2168.14 1044,2195.5C 1045.98,2202.09 1047.65,2208.75 1049,2215.5C 1057.67,2232.17 1064.67,2249.51 1070,2267.5C 1074.09,2272.67 1077.42,2278.34 1080,2284.5C 1090.2,2295.03 1100.7,2305.2 1111.5,2315C 1114.98,2315.66 1118.48,2316.16 1122,2316.5C 1152.34,2315.2 1182.67,2315.2 1213,2316.5C 1215.9,2316.36 1218.73,2315.86 1221.5,2315C 1230.42,2310.54 1239.76,2307.21 1249.5,2305C 1284.4,2290.4 1315.9,2270.57 1344,2245.5C 1354.87,2229.59 1365.37,2213.42 1375.5,2197C 1360.07,2195.93 1344.74,2194.1 1329.5,2191.5C 1267.51,2195.25 1219.68,2171.25 1186,2119.5C 1158.67,2069.17 1158.67,2018.83 1186,1968.5C 1215.59,1921.69 1258.26,1897.36 1314,1895.5C 1327.82,1895.99 1341.65,1896.15 1355.5,1896C 1366.68,1897.37 1377.85,1898.87 1389,1900.5C 1417.82,1899.45 1446.65,1899.28 1475.5,1900C 1492.17,1902.33 1508.83,1904.67 1525.5,1907C 1544.73,1911.91 1563.73,1917.58 1582.5,1924C 1597.33,1930.28 1612,1936.95 1626.5,1944C 1640,1953.25 1653.66,1962.25 1667.5,1971C 1674.97,1977.47 1682.14,1984.3 1689,1991.5C 1699.74,2005.98 1709.74,2020.98 1719,2036.5C 1737.98,2070.05 1743.65,2105.72 1736,2143.5C 1730.95,2162.36 1725.29,2181.02 1719,2199.5C 1716.33,2204.83 1713.67,2210.17 1711,2215.5C 1696.33,2236.83 1681.67,2258.17 1667,2279.5C 1661.53,2291.59 1655.86,2303.59 1650,2315.5C 1641.92,2328.67 1633.58,2341.67 1625,2354.5C 1608.58,2382.35 1590.91,2409.35 1572,2435.5C 1558.5,2447.67 1545.67,2460.5 1533.5,2474C 1528.83,2477.33 1524.17,2480.67 1519.5,2484C 1515.13,2488.7 1510.47,2493.03 1505.5,2497C 1484.67,2511.58 1463.67,2525.91 1442.5,2540C 1433.48,2544.17 1424.82,2548.84 1416.5,2554C 1401.75,2560.81 1387.08,2567.81 1372.5,2575C 1348.29,2583.44 1324.29,2592.44 1300.5,2602C 1280.01,2606.38 1259.35,2609.72 1238.5,2612C 1194.67,2612.2 1150.84,2612.36 1107,2612.5C 1088.43,2610.99 1069.93,2608.82 1051.5,2606C 1036.43,2602.2 1021.43,2598.2 1006.5,2594C 995.365,2590.43 984.698,2585.77 974.5,2580C 961.005,2570.75 947.338,2561.75 933.5,2553C 904.369,2526.87 876.202,2499.7 849,2471.5C 840.752,2461.35 833.752,2450.35 828,2438.5C 825,2434.17 822,2429.83 819,2425.5C 812.192,2411.22 804.858,2397.22 797,2383.5C 793.536,2375.77 790.869,2367.77 789,2359.5C 783,2346.17 777,2332.83 771,2319.5C 764.797,2298.56 758.797,2277.56 753,2256.5C 749.842,2245.71 747.842,2234.71 747,2223.5C 746.833,2200 746.667,2176.5 746.5,2153C 747.631,2139.52 748.465,2126.02 749,2112.5C 750.073,2100.3 752.239,2088.3 755.5,2076.5C 754.43,2068.52 754.263,2060.52 755,2052.5C 757.768,2031.16 760.601,2009.83 763.5,1988.5C 762.993,1983.35 762.659,1978.18 762.5,1973C 763.294,1957.9 764.961,1942.9 767.5,1928C 766.175,1916.15 766.342,1904.32 768,1892.5C 772.743,1860.89 777.076,1829.22 781,1797.5C 784.757,1779.23 791.09,1761.9 800,1745.5C 804.413,1728.93 808.413,1712.26 812,1695.5C 816.64,1682.27 820.974,1668.94 825,1655.5C 827.353,1640.05 830.353,1624.72 834,1609.5C 845.006,1579.49 856.006,1549.49 867,1519.5C 878.941,1493.28 890.608,1466.95 902,1440.5C 906.755,1433.32 911.755,1426.32 917,1419.5C 930.167,1407.67 942.667,1395.17 954.5,1382C 965.747,1374.09 976.413,1365.42 986.5,1356C 1006.66,1342.42 1027,1329.08 1047.5,1316C 1067.8,1304.4 1089.47,1297.56 1112.5,1295.5 Z"/></g>
<g><path style="opacity:1" fill="#1da0f2" d="M 1832.5,1339.5 C 2057.67,1339.8 2282.84,1339.8 2508,1339.5C 2571.08,1342.36 2616.42,1372.02 2644,1428.5C 2666.03,1484.99 2658.36,1536.99 2621,1584.5C 2590.91,1618.04 2553.24,1635.38 2508,1636.5C 2442.48,1636.37 2376.98,1636.04 2311.5,1635.5C 2310.85,1850.68 2310.85,2065.85 2311.5,2281C 2311.19,2291.25 2310.19,2301.41 2308.5,2311.5C 2327.85,2309.18 2347.18,2306.68 2366.5,2304C 2375.02,2303.31 2383.52,2303.48 2392,2304.5C 2396.5,2304 2401,2303.5 2405.5,2303C 2462.13,2282 2514.13,2290 2561.5,2327C 2607.64,2370.03 2622.8,2422.19 2607,2483.5C 2591.15,2530.02 2560.31,2562.19 2514.5,2580C 2498.99,2583.73 2483.65,2588.06 2468.5,2593C 2454.83,2594.93 2441.16,2596.93 2427.5,2599C 2415.68,2600.66 2403.85,2600.82 2392,2599.5C 2367.37,2602.91 2342.71,2605.91 2318,2608.5C 2312.99,2608.36 2307.99,2608.02 2303,2607.5C 2292.2,2609.26 2281.37,2610.76 2270.5,2612C 2251.67,2611.8 2232.83,2611.63 2214,2611.5C 2207.79,2612.04 2201.62,2612.88 2195.5,2614C 2186.06,2617.44 2176.39,2620.11 2166.5,2622C 2141.54,2625.66 2116.54,2629 2091.5,2632C 2054.17,2631.33 2016.83,2631.33 1979.5,2632C 1958.32,2629.27 1937.15,2626.43 1916,2623.5C 1900.99,2624.02 1885.99,2624.36 1871,2624.5C 1807.92,2621.64 1762.58,2591.98 1735,2535.5C 1712.97,2479.01 1720.64,2427.01 1758,2379.5C 1788.09,2345.96 1825.76,2328.62 1871,2327.5C 1894.5,2327.67 1918,2327.83 1941.5,2328C 1962.66,2330.87 1983.83,2333.7 2005,2336.5C 2006.76,2336.46 2008.43,2336.12 2010,2335.5C 2010.76,2332.37 2011.26,2329.21 2011.5,2326C 2010.48,2317.52 2010.31,2309.02 2011,2300.5C 2012.5,2289 2014,2277.5 2015.5,2266C 2015.43,2064.33 2015.43,1862.66 2015.5,1661C 2014.82,1652.85 2014.32,1644.68 2014,1636.5C 1957.07,1636.22 1900.07,1636.22 1843,1636.5C 1779.92,1633.64 1734.58,1603.98 1707,1547.5C 1685.75,1493.61 1692.09,1443.28 1726,1396.5C 1753.68,1362.91 1789.18,1343.91 1832.5,1339.5 Z"/></g>
</svg>
