<?xml version="1.0" encoding="UTF-8"?>
<!DOCTYPE svg PUBLIC "-//W3C//DTD SVG 1.1//EN" "http://www.w3.org/Graphics/SVG/1.1/DTD/svg11.dtd">
<svg xmlns="http://www.w3.org/2000/svg" version="1.1" width="4096px" height="4096px" style="shape-rendering:geometricPrecision; text-rendering:geometricPrecision; image-rendering:optimizeQuality; fill-rule:evenodd; clip-rule:evenodd" xmlns:xlink="http://www.w3.org/1999/xlink">
<g><path style="opacity:1" fill="#fefffe" d="M 2511.5,323.5 C 2541.69,324.116 2571.85,324.116 2602,323.5C 2623.41,325.476 2644.57,328.976 2665.5,334C 2675.97,337.233 2685.97,341.566 2695.5,347C 2708.33,355.915 2721.33,364.581 2734.5,373C 2756.62,393.461 2779.62,412.795 2803.5,431C 2808.4,436.146 2813.07,441.479 2817.5,447C 2823.84,450.504 2829.84,454.504 2835.5,459C 2853.8,474.964 2871.8,491.297 2889.5,508C 2916.2,523.185 2940.53,541.518 2962.5,563C 2977.17,574.667 2991.83,586.333 3006.5,598C 3016.5,608 3026.5,618 3036.5,628C 3061.38,646.276 3085.71,665.276 3109.5,685C 3117.33,694.167 3125.83,702.667 3135,710.5C 3143.14,723.289 3154.64,731.456 3169.5,735C 3201.17,742.667 3232.83,750.333 3264.5,758C 3283.82,765.661 3303.48,772.328 3323.5,778C 3338.45,785.142 3353.12,792.808 3367.5,801C 3405.86,825.18 3427.36,860.013 3432,905.5C 3431.83,922.167 3431.67,938.833 3431.5,955.5C 3432.14,961.487 3432.64,967.487 3433,973.5C 3440,981.833 3447.67,989.5 3456,996.5C 3458.33,999.5 3460.67,1002.5 3463,1005.5C 3479.94,1020.44 3496.27,1036.1 3512,1052.5C 3518.74,1060.3 3524.74,1068.64 3530,1077.5C 3543.86,1089.35 3555.52,1103.02 3565,1118.5C 3573.33,1125.5 3581,1133.17 3588,1141.5C 3599.79,1157.96 3610.79,1174.96 3621,1192.5C 3632.72,1207.22 3644.05,1222.22 3655,1237.5C 3665.01,1255.52 3678.01,1271.19 3694,1284.5C 3709.53,1306.03 3727.2,1325.7 3747,1343.5C 3753.4,1350.63 3759.07,1358.3 3764,1366.5C 3771.64,1374.81 3779.31,1383.14 3787,1391.5C 3794.58,1402.33 3801.91,1413.33 3809,1424.5C 3829.58,1445.75 3847.92,1468.75 3864,1493.5C 3873.33,1504.83 3882.67,1516.17 3892,1527.5C 3899.85,1540.02 3909.19,1551.36 3920,1561.5C 3926.9,1572.4 3934.56,1582.73 3943,1592.5C 3947.86,1600.89 3952.19,1609.55 3956,1618.5C 3960.87,1636.11 3965.54,1653.78 3970,1671.5C 3975.58,1726.48 3956.08,1769.98 3911.5,1802C 3889.39,1816.03 3865.23,1823.2 3839,1823.5C 3806.45,1820.86 3773.95,1817.69 3741.5,1814C 3706.83,1805.33 3672.17,1796.67 3637.5,1788C 3629.15,1787.55 3620.82,1786.89 3612.5,1786C 3585.93,1781.44 3559.6,1775.77 3533.5,1769C 3509.87,1767 3486.21,1765.67 3462.5,1765C 3448.75,1763.15 3435.08,1760.81 3421.5,1758C 3415.5,1757.41 3409.5,1756.91 3403.5,1756.5C 3403.83,1937.84 3403.83,2119.18 3403.5,2300.5C 3405.73,2319.16 3407.9,2337.83 3410,2356.5C 3409.83,2373.17 3409.67,2389.83 3409.5,2406.5C 3412.97,2449.3 3419.47,2491.64 3429,2533.5C 3436.82,2598.57 3445.15,2663.57 3454,2728.5C 3458.49,2752.27 3463.49,2775.93 3469,2799.5C 3469.86,2807.48 3470.52,2815.48 3471,2823.5C 3474.76,2832.86 3477.42,2842.52 3479,2852.5C 3485.07,2887.49 3491.07,2922.49 3497,2957.5C 3497.96,2969.5 3498.96,2981.5 3500,2993.5C 3510.72,3043.36 3520.72,3093.36 3530,3143.5C 3530.8,3149.98 3531.3,3156.48 3531.5,3163C 3531.5,3217 3531.5,3271 3531.5,3325C 3530.74,3347.34 3528.41,3369.51 3524.5,3391.5C 3526.24,3409.97 3524.57,3428.13 3519.5,3446C 3521.08,3460.3 3520.25,3474.47 3517,3488.5C 3514.08,3499.77 3511.41,3511.1 3509,3522.5C 3504.57,3533.24 3500.9,3544.24 3498,3555.5C 3490.44,3574.79 3479.28,3591.62 3464.5,3606C 3452.54,3614.95 3440.88,3624.29 3429.5,3634C 3401.21,3652.49 3370.21,3660.15 3336.5,3657C 3307.02,3662.38 3277.36,3666.38 3247.5,3669C 3228.48,3675.14 3209.15,3680.14 3189.5,3684C 3179.17,3685.55 3168.84,3685.72 3158.5,3684.5C 3149.51,3689.16 3140.18,3692.99 3130.5,3696C 3107.61,3701.47 3084.61,3706.47 3061.5,3711C 3055.02,3711.8 3048.52,3712.3 3042,3712.5C 3020.3,3712.44 2998.64,3712.11 2977,3711.5C 2956.09,3715.94 2935.25,3720.77 2914.5,3726C 2907.93,3727.65 2901.26,3728.65 2894.5,3729C 2832.82,3729.69 2771.16,3729.53 2709.5,3728.5C 2681.38,3731.02 2653.38,3734.52 2625.5,3739C 2603.45,3739.47 2581.45,3740.81 2559.5,3743C 2543.01,3747.9 2526.17,3750.73 2509,3751.5C 2488.92,3749.18 2469.09,3750.35 2449.5,3755C 2443.02,3755.8 2436.52,3756.3 2430,3756.5C 2083.16,3756.32 1736.33,3755.99 1389.5,3755.5C 1341.46,3760.25 1293.46,3765.42 1245.5,3771C 1203.66,3782.39 1162,3794.39 1120.5,3807C 1096.74,3815.71 1073.08,3824.71 1049.5,3834C 1010.94,3843.65 971.773,3849.15 932,3850.5C 896,3850.5 860,3850.5 824,3850.5C 805.43,3848.93 786.93,3846.77 768.5,3844C 749.224,3837.26 729.557,3831.93 709.5,3828C 699.034,3824.77 689.034,3820.43 679.5,3815C 670.337,3808.25 660.67,3802.25 650.5,3797C 636.29,3787.12 624.456,3774.96 615,3760.5C 600.189,3737.22 587.189,3712.88 576,3687.5C 567.708,3659 560.041,3630.33 553,3601.5C 550.949,3593.58 549.283,3585.58 548,3577.5C 541.528,3563.08 536.861,3548.08 534,3532.5C 533.202,3526.02 532.702,3519.52 532.5,3513C 533.833,3432 533.833,3351 532.5,3270C 534.3,3218.4 537.467,3166.9 542,3115.5C 545.237,3101.28 547.903,3086.94 550,3072.5C 551.108,3053.09 552.941,3033.76 555.5,3014.5C 553.266,2992.51 556.099,2971.18 564,2950.5C 566.152,2934.41 568.819,2918.41 572,2902.5C 578.968,2873.29 585.302,2843.96 591,2814.5C 591.874,2805.43 593.207,2796.43 595,2787.5C 600.627,2767.66 605.627,2747.66 610,2727.5C 612.692,2718.43 616.359,2709.76 621,2701.5C 629.384,2660.58 637.384,2619.58 645,2578.5C 653.92,2544.16 661.253,2509.49 667,2474.5C 668.797,2467.44 670.797,2460.44 673,2453.5C 676.027,2436.03 679.693,2418.7 684,2401.5C 686.226,2378.93 689.892,2356.6 695,2334.5C 697.185,2322.91 698.851,2311.24 700,2299.5C 705.627,2278.99 710.627,2258.32 715,2237.5C 716.38,2224.77 718.213,2212.1 720.5,2199.5C 718.448,2180.03 720.614,2161.03 727,2142.5C 731.168,2094.15 737.835,2046.15 747,1998.5C 749.605,1975.11 752.605,1951.78 756,1928.5C 765.349,1878.37 775.349,1828.37 786,1778.5C 795.766,1719.34 806.432,1660.34 818,1601.5C 828.39,1555.72 839.223,1510.05 850.5,1464.5C 843.179,1463.69 835.846,1463.02 828.5,1462.5C 680.009,1463.03 531.509,1463.36 383,1463.5C 321.088,1459.72 278.754,1429.06 256,1371.5C 239.961,1330.58 242.627,1290.92 264,1252.5C 268.606,1244.96 273.939,1237.96 280,1231.5C 277.814,1208.03 281.147,1185.36 290,1163.5C 296.333,1150.17 302.667,1136.83 309,1123.5C 312.276,1117.89 315.943,1112.56 320,1107.5C 340.239,1084.26 362.739,1063.43 387.5,1045C 393.675,1041.41 400.009,1038.08 406.5,1035C 458.792,988.003 516.458,948.669 579.5,917C 583.659,913.753 587.992,910.753 592.5,908C 641.064,884.385 689.064,859.718 736.5,834C 752.5,826.667 768.5,819.333 784.5,812C 805.231,799.633 826.564,788.3 848.5,778C 875.833,766 903.167,754 930.5,742C 933.339,740.08 936.339,738.413 939.5,737C 959.699,707.158 987.365,687.825 1022.5,679C 1045.15,674.538 1067.81,670.204 1090.5,666C 1099.61,661.779 1108.94,658.112 1118.5,655C 1144.01,648.94 1169.01,641.274 1193.5,632C 1199.44,630.411 1205.44,629.078 1211.5,628C 1222.39,623.39 1233.39,619.056 1244.5,615C 1250.44,613.411 1256.44,612.078 1262.5,611C 1283.39,602.057 1304.39,593.39 1325.5,585C 1342.65,579.06 1359.65,572.727 1376.5,566C 1397.25,558.86 1418.25,552.526 1439.5,547C 1460.6,538.95 1481.6,530.616 1502.5,522C 1533.24,511.532 1564.24,501.865 1595.5,493C 1621.82,487.225 1648.15,481.558 1674.5,476C 1694.2,467.193 1714.87,462.86 1736.5,463C 1753.5,458.667 1770.5,454.333 1787.5,450C 1814.16,446.753 1840.49,441.753 1866.5,435C 1893.55,432.572 1920.21,427.906 1946.5,421C 1958.22,420.086 1969.89,418.753 1981.5,417C 1992.65,413.969 2003.99,411.969 2015.5,411C 2027.72,407.593 2040.06,404.593 2052.5,402C 2072.12,399.538 2091.79,397.538 2111.5,396C 2132.51,390.08 2153.85,385.746 2175.5,383C 2186.76,378.268 2198.43,374.934 2210.5,373C 2244.37,366.893 2278.37,361.559 2312.5,357C 2327.87,352.059 2343.54,348.393 2359.5,346C 2370.76,341.268 2382.43,337.934 2394.5,336C 2406.87,334.592 2419.21,332.925 2431.5,331C 2443.67,330.599 2455.84,330.099 2468,329.5C 2471.71,329.554 2475.37,329.888 2479,330.5C 2489.77,327.182 2500.6,324.849 2511.5,323.5 Z M 2999.5,966.5 C 3010,969.624 3020.66,972.124 3031.5,974C 3037.13,977.961 3042.13,982.627 3046.5,988C 3043.79,988.328 3041.13,987.995 3038.5,987C 3025.35,980.244 3012.35,973.411 2999.5,966.5 Z M 1125.5,1462.5 C 1314.49,1463.83 1503.49,1463.83 1692.5,1462.5C 1732.9,1467.46 1773.4,1471.46 1814,1474.5C 1817.71,1474.45 1821.37,1474.11 1825,1473.5C 1865.36,1483.13 1906.19,1489.96 1947.5,1494C 1954.64,1496.93 1961.97,1499.27 1969.5,1501C 1983.61,1503.03 1997.61,1505.69 2011.5,1509C 2041.29,1516.53 2070.96,1524.53 2100.5,1533C 2109.43,1534.79 2118.43,1536.13 2127.5,1537C 2135.23,1540.46 2143.23,1543.13 2151.5,1545C 2168.17,1548 2184.83,1551 2201.5,1554C 2215.41,1560.81 2230.08,1565.15 2245.5,1567C 2253.76,1571.64 2262.43,1575.31 2271.5,1578C 2297.67,1584.38 2323.67,1591.38 2349.5,1599C 2384,1605.13 2418.34,1612.13 2452.5,1620C 2474.96,1625.2 2497.29,1630.86 2519.5,1637C 2593.5,1649.33 2667.5,1661.67 2741.5,1674C 2752.76,1676.72 2764.1,1679.05 2775.5,1681C 2783.64,1684.27 2791.97,1686.93 2800.5,1689C 2844.65,1697.12 2888.98,1704.12 2933.5,1710C 2984.4,1719.41 3035.73,1725.08 3087.5,1727C 3105.15,1729.1 3122.81,1730.93 3140.5,1732.5C 3139.94,1926.34 3139.61,2120.17 3139.5,2314C 3141.5,2335.86 3143.84,2357.7 3146.5,2379.5C 3146.33,2396.17 3146.17,2412.83 3146,2429.5C 3150.73,2479.23 3158.07,2528.56 3168,2577.5C 3172.88,2621.98 3178.88,2666.32 3186,2710.5C 3190.12,2753.64 3197.12,2796.3 3207,2838.5C 3207.02,2860.27 3211.02,2881.27 3219,2901.5C 3223.48,2929.92 3228.48,2958.25 3234,2986.5C 3235,2998.83 3236,3011.17 3237,3023.5C 3247.61,3074.74 3257.78,3126.07 3267.5,3177.5C 3266.2,3222.16 3266.2,3266.83 3267.5,3311.5C 3266.65,3330.66 3264.48,3349.66 3261,3368.5C 3260.29,3376.02 3260.46,3383.52 3261.5,3391C 3260.91,3394.53 3260.24,3398.03 3259.5,3401.5C 3250.54,3402.77 3241.54,3403.77 3232.5,3404.5C 3204.17,3401.67 3177.67,3407.33 3153,3421.5C 3143.21,3420.33 3133.38,3420.5 3123.5,3422C 3105.57,3424.85 3087.9,3428.85 3070.5,3434C 3064.05,3436.73 3057.71,3439.73 3051.5,3443C 3043.1,3444.51 3034.76,3446.35 3026.5,3448.5C 3004.69,3447.91 2982.85,3447.57 2961,3447.5C 2954.48,3447.7 2947.98,3448.2 2941.5,3449C 2917.11,3454.35 2892.78,3459.85 2868.5,3465.5C 2807.87,3464.37 2747.21,3464.21 2686.5,3465C 2659.64,3466.77 2632.97,3470.11 2606.5,3475C 2568.79,3475.47 2531.46,3479.3 2494.5,3486.5C 2474.82,3485.7 2455.15,3486.2 2435.5,3488C 2428.61,3489.26 2421.78,3490.76 2415,3492.5C 2065.52,3491.39 1716.02,3491.22 1366.5,3492C 1318.84,3497.04 1271.17,3502.04 1223.5,3507C 1211.19,3509.2 1198.86,3511.2 1186.5,3513C 1140.95,3526.41 1095.28,3539.41 1049.5,3552C 1029.97,3559.4 1010.31,3566.4 990.5,3573C 981.453,3578.13 971.787,3581.46 961.5,3583C 947.186,3584.43 932.853,3585.6 918.5,3586.5C 891.5,3585.17 864.5,3585.17 837.5,3586.5C 832.143,3585.91 826.81,3585.24 821.5,3584.5C 813.478,3553.22 805.644,3521.89 798,3490.5C 797.642,3484.49 797.142,3478.49 796.5,3472.5C 797.833,3409.5 797.833,3346.5 796.5,3283.5C 797.983,3242.13 800.149,3200.8 803,3159.5C 812.289,3111.95 817.955,3063.95 820,3015.5C 822.138,3008.61 823.805,3001.61 825,2994.5C 826.408,2982.79 828.074,2971.13 830,2959.5C 838.954,2920.35 846.954,2881.02 854,2841.5C 857.782,2830.04 860.782,2818.37 863,2806.5C 869.343,2795.15 874.01,2783.15 877,2770.5C 886.157,2729.05 894.157,2687.38 901,2645.5C 911.078,2606.86 919.411,2567.86 926,2528.5C 928.203,2521.56 930.203,2514.56 932,2507.5C 935.693,2486.7 940.026,2466.03 945,2445.5C 947.409,2418.53 951.742,2391.86 958,2365.5C 958.469,2359.81 959.136,2354.14 960,2348.5C 972.521,2304.13 980.688,2258.96 984.5,2213C 984.481,2209.58 984.147,2206.25 983.5,2203C 986.031,2196.04 987.864,2188.88 989,2181.5C 991.638,2136.37 997.638,2091.7 1007,2047.5C 1010.52,2018.1 1014.52,1988.77 1019,1959.5C 1028.35,1909.37 1038.35,1859.37 1049,1809.5C 1063.41,1720.85 1081.07,1632.85 1102,1545.5C 1105.61,1535.07 1108.27,1524.41 1110,1513.5C 1116.88,1497.02 1122.05,1480.02 1125.5,1462.5 Z M 2177.5,1907.5 C 2203.8,1908.77 2230.14,1908.77 2256.5,1907.5C 2264.51,1908.03 2272.51,1908.7 2280.5,1909.5C 2286.85,1918.02 2294.35,1925.35 2303,1931.5C 2308.18,1937.87 2310.68,1945.2 2310.5,1953.5C 2309.17,1980.5 2309.17,2007.5 2310.5,2034.5C 2309.82,2041.82 2309.32,2049.15 2309,2056.5C 2303.84,2063.36 2298.34,2069.86 2292.5,2076C 2290.29,2077.74 2287.79,2078.91 2285,2079.5C 2276.85,2078.25 2268.68,2078.25 2260.5,2079.5C 2232.19,2076.39 2203.86,2073.56 2175.5,2071C 2155.98,2066.54 2136.31,2062.87 2116.5,2060C 2110.39,2058.13 2104.39,2055.96 2098.5,2053.5C 2117.59,2026.13 2125.59,1995.8 2122.5,1962.5C 2123.07,1957.84 2123.57,1953.17 2124,1948.5C 2141.81,1934.69 2159.65,1921.03 2177.5,1907.5 Z"/></g>
<g><path style="opacity:1" fill="#fefffe" d="M 2152.5,1643.5 C 2203.84,1644.67 2255.17,1644.83 2306.5,1644C 2324.39,1646.55 2342.05,1650.22 2359.5,1655C 2377.34,1661.92 2394.68,1669.92 2411.5,1679C 2421.33,1686.09 2431.67,1692.42 2442.5,1698C 2455,1706.5 2465.5,1717 2474,1729.5C 2485.02,1739.52 2495.69,1749.86 2506,1760.5C 2511.83,1768.16 2517.16,1776.16 2522,1784.5C 2555.9,1816.67 2571.9,1856.34 2570,1903.5C 2571.72,1912.44 2573.06,1921.44 2574,1930.5C 2573.88,1978.68 2574.05,2026.85 2574.5,2075C 2574.29,2084.95 2573.12,2094.78 2571,2104.5C 2562.61,2136.93 2550.61,2167.93 2535,2197.5C 2518.95,2217.21 2503.29,2237.21 2488,2257.5C 2466.91,2273.91 2446.41,2291.08 2426.5,2309C 2417.27,2314.78 2407.61,2319.78 2397.5,2324C 2371.95,2330.47 2346.29,2336.47 2320.5,2342C 2314.02,2342.8 2307.52,2343.3 2301,2343.5C 2279.83,2343.33 2258.67,2343.17 2237.5,2343C 2207.28,2338.95 2176.95,2335.95 2146.5,2334C 2120.13,2329.49 2093.79,2324.82 2067.5,2320C 2052.6,2316.81 2037.94,2312.81 2023.5,2308C 2016.61,2305.89 2009.94,2303.22 2003.5,2300C 1993.53,2297.54 1983.53,2295.21 1973.5,2293C 1960.83,2288 1948.17,2283 1935.5,2278C 1930.17,2275.33 1924.83,2272.67 1919.5,2270C 1907.18,2260.84 1894.51,2252.17 1881.5,2244C 1863.8,2228.06 1845.97,2212.23 1828,2196.5C 1818.33,2184.83 1808.67,2173.17 1799,2161.5C 1785.2,2139.43 1776.53,2115.43 1773,2089.5C 1768.74,2071.21 1765.91,2052.71 1764.5,2034C 1764.26,2018.49 1764.76,2002.99 1766,1987.5C 1770.97,1966.97 1775.31,1946.3 1779,1925.5C 1780.26,1919.71 1781.93,1914.05 1784,1908.5C 1794.12,1885.59 1804.79,1862.93 1816,1840.5C 1826.85,1825.47 1838.18,1810.81 1850,1796.5C 1870.82,1775.18 1893.65,1756.35 1918.5,1740C 1928.03,1734.57 1938.03,1730.23 1948.5,1727C 1962.97,1724.2 1977.3,1720.87 1991.5,1717C 2006.79,1704.36 2022.79,1692.69 2039.5,1682C 2054.2,1674.1 2069.2,1666.76 2084.5,1660C 2091.64,1657.07 2098.97,1654.73 2106.5,1653C 2121.84,1649.16 2137.17,1645.99 2152.5,1643.5 Z M 2177.5,1907.5 C 2159.65,1921.03 2141.81,1934.69 2124,1948.5C 2123.57,1953.17 2123.07,1957.84 2122.5,1962.5C 2125.59,1995.8 2117.59,2026.13 2098.5,2053.5C 2104.39,2055.96 2110.39,2058.13 2116.5,2060C 2136.31,2062.87 2155.98,2066.54 2175.5,2071C 2203.86,2073.56 2232.19,2076.39 2260.5,2079.5C 2268.68,2078.25 2276.85,2078.25 2285,2079.5C 2287.79,2078.91 2290.29,2077.74 2292.5,2076C 2298.34,2069.86 2303.84,2063.36 2309,2056.5C 2309.32,2049.15 2309.82,2041.82 2310.5,2034.5C 2309.17,2007.5 2309.17,1980.5 2310.5,1953.5C 2310.68,1945.2 2308.18,1937.87 2303,1931.5C 2294.35,1925.35 2286.85,1918.02 2280.5,1909.5C 2272.51,1908.7 2264.51,1908.03 2256.5,1907.5C 2230.14,1908.77 2203.8,1908.77 2177.5,1907.5 Z"/></g>
</svg>
