<?xml version="1.0" encoding="UTF-8"?>
<!DOCTYPE svg PUBLIC "-//W3C//DTD SVG 1.1//EN" "http://www.w3.org/Graphics/SVG/1.1/DTD/svg11.dtd">
<svg xmlns="http://www.w3.org/2000/svg" version="1.1" width="256px" height="256px" style="shape-rendering:geometricPrecision; text-rendering:geometricPrecision; image-rendering:optimizeQuality; fill-rule:evenodd; clip-rule:evenodd" xmlns:xlink="http://www.w3.org/1999/xlink">
<g><path style="opacity:1" fill="#6a7b87" d="M 12.5,40.5 C 24.9077,40.237 37.2411,41.0704 49.5,43C 110.183,43.0835 170.85,44.0835 231.5,46C 239.814,49.6259 243.48,55.9592 242.5,65C 238.08,107.275 238.747,149.442 244.5,191.5C 244.727,203.108 239.061,209.608 227.5,211C 197.5,211.333 167.5,211.667 137.5,212C 122.893,213.892 108.226,215.392 93.5,216.5C 82.3454,216.847 77.1788,211.513 78,200.5C 79.5,196.333 82.3333,193.5 86.5,192C 98.7426,190.076 111.076,189.076 123.5,189C 126.377,187.873 129.377,187.206 132.5,187C 161.165,186.5 189.831,186.333 218.5,186.5C 216.044,173.641 214.878,160.641 215,147.5C 214.223,123.447 214.557,99.4475 216,75.5C 209.067,79.7687 202.734,84.7687 197,90.5C 186.378,104.125 175.378,117.458 164,130.5C 153.886,139.944 143.719,149.444 133.5,159C 128.94,162.174 123.94,163.174 118.5,162C 107.199,155.347 95.8656,148.68 84.5,142C 71.495,130.668 57.1616,121.335 41.5,114C 34.8333,107.333 34.8333,100.667 41.5,94C 43.7682,92.4481 46.2682,91.6148 49,91.5C 61.6965,95.5983 73.5298,101.432 84.5,109C 91.1333,116.639 99.1333,122.306 108.5,126C 112.479,129.656 116.812,132.822 121.5,135.5C 129.356,128.733 137.023,121.733 144.5,114.5C 156.979,99.5196 169.646,84.6863 182.5,70C 136.51,68.8142 90.5101,68.1476 44.5,68C 33.8793,66.5057 23.2126,65.5057 12.5,65C 3.61436,60.7305 1.44769,54.2305 6,45.5C 7.96514,43.4497 10.1318,41.783 12.5,40.5 Z"/></g>
<g><path style="opacity:1" fill="#6a7b87" d="M 22.5,151.5 C 39.7382,151.343 56.7382,153.176 73.5,157C 83.7449,162.714 85.0782,170.048 77.5,179C 75.2318,180.552 72.7318,181.385 70,181.5C 54.2987,178.476 38.4654,176.643 22.5,176C 13.6144,171.731 11.4477,165.231 16,156.5C 17.9651,154.45 20.1318,152.783 22.5,151.5 Z"/></g>
</svg>
