<?xml version="1.0" encoding="UTF-8"?>
<!DOCTYPE svg PUBLIC "-//W3C//DTD SVG 1.1//EN" "http://www.w3.org/Graphics/SVG/1.1/DTD/svg11.dtd">
<svg xmlns="http://www.w3.org/2000/svg" version="1.1" width="256px" height="256px" style="shape-rendering:geometricPrecision; text-rendering:geometricPrecision; image-rendering:optimizeQuality; fill-rule:evenodd; clip-rule:evenodd" xmlns:xlink="http://www.w3.org/1999/xlink">
<g><path style="opacity:1" fill="#6a7b87" d="M 103.5,17.5 C 132.848,11.6034 158.848,18.1034 181.5,37C 198.827,51.134 211.661,68.634 220,89.5C 221.206,95.8611 222.539,102.194 224,108.5C 224.167,124.177 224.667,139.844 225.5,155.5C 231.96,158.127 236.127,162.793 238,169.5C 238.667,180.833 238.667,192.167 238,203.5C 227.49,222.621 211.824,228.288 191,220.5C 181.737,224.382 172.237,227.548 162.5,230C 155.852,231.318 149.185,232.651 142.5,234C 129.346,234.882 116.346,233.882 103.5,231C 88.5,223.333 73.5,215.667 58.5,208C 50.3938,199.628 43.8938,190.128 39,179.5C 23.6592,149.275 18.8259,117.275 24.5,83.5C 8.19766,80.2468 2.69766,70.5801 8,54.5C 18.5501,32.3075 36.0501,23.4741 60.5,28C 74.3636,22.1317 88.6969,18.6317 103.5,17.5 Z M 107.5,42.5 C 118.505,42.3335 129.505,42.5002 140.5,43C 147.661,44.9141 154.328,47.9141 160.5,52C 168.303,58.8019 175.803,65.9686 183,73.5C 187.253,80.3372 191.253,87.3372 195,94.5C 196.461,100.806 197.794,107.139 199,113.5C 199.333,130.167 199.667,146.833 200,163.5C 202.609,169.775 206.942,174.442 213,177.5C 213.81,184.082 213.643,190.582 212.5,197C 203.458,196.965 194.458,196.632 185.5,196C 179.291,197.737 173.291,200.071 167.5,203C 157.702,204.54 148.036,206.54 138.5,209C 129.459,209.186 120.459,208.519 111.5,207C 99.8161,200.008 87.6494,193.841 75,188.5C 67.2581,180.037 61.2581,170.371 57,159.5C 54.0816,150.905 51.4149,142.239 49,133.5C 48.6171,114.492 48.6171,95.492 49,76.5C 48.3333,75.1667 47.6667,73.8333 47,72.5C 41.7052,69.3706 37.2052,65.3706 33.5,60.5C 35.3695,57.8874 37.7028,55.7207 40.5,54C 48.1858,53.6274 55.8524,53.6274 63.5,54C 77.5493,47.3223 92.216,43.4889 107.5,42.5 Z"/></g>
</svg>
