<?xml version="1.0" encoding="UTF-8"?>
<!DOCTYPE svg PUBLIC "-//W3C//DTD SVG 1.1//EN" "http://www.w3.org/Graphics/SVG/1.1/DTD/svg11.dtd">
<svg xmlns="http://www.w3.org/2000/svg" version="1.1" width="4096px" height="4096px" style="shape-rendering:geometricPrecision; text-rendering:geometricPrecision; image-rendering:optimizeQuality; fill-rule:evenodd; clip-rule:evenodd" xmlns:xlink="http://www.w3.org/1999/xlink">
<g><path style="opacity:1" fill="#1da0f2" d="M 3024.5,125.5 C 3064,125.798 3103.5,125.798 3143,125.5C 3161.71,126.909 3180.21,129.742 3198.5,134C 3226.82,143.217 3255.48,151.217 3284.5,158C 3294.3,160.898 3303.63,164.898 3312.5,170C 3336.75,175.717 3361.08,181.05 3385.5,186C 3402.86,192.844 3419.86,200.511 3436.5,209C 3463.12,214.475 3488.12,224.142 3511.5,238C 3559.47,272.887 3578.31,319.72 3568,378.5C 3566.27,386.029 3563.93,393.362 3561,400.5C 3548.54,423.095 3536.87,446.095 3526,469.5C 3519.88,476.956 3514.55,484.956 3510,493.5C 3498.39,509.712 3486.06,525.378 3473,540.5C 3470.4,546.089 3467.4,551.423 3464,556.5C 3455.38,567.46 3446.38,578.126 3437,588.5C 3430.75,598.67 3424.75,609.003 3419,619.5C 3411.71,630.058 3403.04,639.391 3393,647.5C 3390.67,651.5 3388.33,655.5 3386,659.5C 3377,670.833 3368,682.167 3359,693.5C 3355.88,701.739 3352.21,709.739 3348,717.5C 3341.61,726.228 3335.61,735.228 3330,744.5C 3325.45,753.601 3321.45,762.935 3318,772.5C 3302.85,803.622 3287.52,834.622 3272,865.5C 3264.74,882.945 3258.07,900.611 3252,918.5C 3248.59,925.658 3244.92,932.658 3241,939.5C 3238.82,947.213 3236.49,954.88 3234,962.5C 3228.41,974.257 3223.41,986.257 3219,998.5C 3214.68,1016.43 3210.68,1034.43 3207,1052.5C 3204.1,1062.3 3200.1,1071.63 3195,1080.5C 3191.34,1096.44 3188.01,1112.44 3185,1128.5C 3178.16,1145.86 3170.49,1162.86 3162,1179.5C 3159.07,1196.95 3153.74,1213.62 3146,1229.5C 3144.69,1236.54 3143.19,1243.54 3141.5,1250.5C 3164.55,1297.68 3162.39,1343.68 3135,1388.5C 3128.52,1409.14 3118.19,1427.47 3104,1443.5C 3079.12,1497.59 3053.45,1551.26 3027,1604.5C 3025.25,1607.67 3023.25,1610.67 3021,1613.5C 3019.27,1621.03 3016.93,1628.36 3014,1635.5C 3006.81,1648.55 3000.14,1661.89 2994,1675.5C 2990.05,1681.78 2985.72,1687.78 2981,1693.5C 2977.21,1703.07 2972.88,1712.41 2968,1721.5C 2957.42,1738.33 2947.08,1755.33 2937,1772.5C 2934.67,1775.5 2932.33,1778.5 2930,1781.5C 2924.61,1798.28 2916.61,1813.62 2906,1827.5C 2893.33,1853.5 2880.67,1879.5 2868,1905.5C 2863.36,1929.45 2853.36,1950.78 2838,1969.5C 2832.23,1984.38 2824.89,1998.38 2816,2011.5C 2814.4,2017.64 2812.4,2023.64 2810,2029.5C 2800.39,2050.38 2791.06,2071.38 2782,2092.5C 2779.16,2102.87 2776.16,2113.21 2773,2123.5C 2765.94,2142.03 2759.27,2160.69 2753,2179.5C 2745.4,2194.09 2737.4,2208.42 2729,2222.5C 2724.24,2229.02 2719.24,2235.35 2714,2241.5C 2709.7,2252.1 2704.37,2262.1 2698,2271.5C 2686.8,2303.57 2672.13,2333.9 2654,2362.5C 2652.14,2371.42 2649.47,2380.09 2646,2388.5C 2639.08,2401.34 2632.41,2414.34 2626,2427.5C 2621.39,2435.04 2616.06,2442.04 2610,2448.5C 2604.45,2462.6 2597.12,2475.6 2588,2487.5C 2571.51,2504.96 2554.68,2522.12 2537.5,2539C 2532.68,2543.24 2527.68,2547.24 2522.5,2551C 2541.25,2560.14 2560.91,2566.47 2581.5,2570C 2600.81,2575.82 2617.81,2585.48 2632.5,2599C 2644.27,2603.72 2655.27,2609.72 2665.5,2617C 2692.49,2626.88 2719.15,2637.55 2745.5,2649C 2757.33,2654.41 2768.33,2661.08 2778.5,2669C 2788.77,2672.82 2799.11,2676.49 2809.5,2680C 2837.6,2695.72 2866.27,2710.39 2895.5,2724C 2901.83,2728.33 2908.17,2732.67 2914.5,2737C 2927.86,2740.23 2940.52,2745.23 2952.5,2752C 2964.17,2760.33 2975.83,2768.67 2987.5,2777C 3003.12,2781.97 3017.45,2789.31 3030.5,2799C 3052.22,2806.01 3071.22,2817.35 3087.5,2833C 3095.82,2836.82 3103.82,2841.16 3111.5,2846C 3124.01,2855.09 3136.35,2864.42 3148.5,2874C 3157.61,2882.57 3165.28,2892.24 3171.5,2903C 3181.05,2908.56 3190.05,2914.89 3198.5,2922C 3215.91,2939.02 3232.74,2956.52 3249,2974.5C 3258.72,2987.22 3268.05,3000.22 3277,3013.5C 3294.62,3026.72 3307.95,3043.39 3317,3063.5C 3325.31,3072.14 3333.98,3080.48 3343,3088.5C 3348.38,3094.88 3353.38,3101.55 3358,3108.5C 3370.38,3117.62 3380.72,3128.62 3389,3141.5C 3397,3155.5 3405,3169.5 3413,3183.5C 3430.7,3196.87 3444.37,3213.54 3454,3233.5C 3460.96,3238.79 3467.63,3244.46 3474,3250.5C 3483.91,3263.32 3493.58,3276.32 3503,3289.5C 3510.31,3303.76 3516.64,3318.42 3522,3333.5C 3531.87,3354.91 3542.54,3375.91 3554,3396.5C 3565.41,3426.14 3572.41,3456.81 3575,3488.5C 3576.52,3541.97 3555.02,3583.13 3510.5,3612C 3486.6,3625.39 3460.94,3631.72 3433.5,3631C 3424.14,3634.76 3414.48,3637.42 3404.5,3639C 3389.02,3640.15 3373.52,3640.99 3358,3641.5C 3259.03,3640.68 3160.03,3640.68 3061,3641.5C 3047.49,3640.97 3033.99,3640.3 3020.5,3639.5C 2982.64,3642.67 2944.97,3641.17 2907.5,3635C 2899.86,3633.72 2892.36,3631.88 2885,3629.5C 2872.34,3629.94 2859.68,3630.27 2847,3630.5C 2840.48,3630.3 2833.98,3629.8 2827.5,3629C 2811.82,3626.14 2796.32,3622.64 2781,3618.5C 2771.21,3619.67 2761.38,3619.5 2751.5,3618C 2737.06,3614.74 2722.73,3611.08 2708.5,3607C 2697.14,3606.72 2685.81,3606.05 2674.5,3605C 2653.05,3601.98 2631.72,3598.31 2610.5,3594C 2597.85,3591.01 2585.85,3586.34 2574.5,3580C 2561.48,3576.15 2548.15,3574.31 2534.5,3574.5C 1872.99,3575.03 1211.49,3575.36 550,3575.5C 486.471,3571.93 444.138,3540.26 423,3480.5C 409.352,3424.79 423.852,3377.95 466.5,3340C 472.407,3335.46 478.574,3331.3 485,3327.5C 489.973,3314.22 496.973,3302.22 506,3291.5C 512.667,3278.83 519.333,3266.17 526,3253.5C 531.953,3245.21 538.286,3237.21 545,3229.5C 554.129,3212.24 565.463,3196.58 579,3182.5C 583.213,3174.29 588.213,3166.63 594,3159.5C 602.662,3139.85 614.995,3122.85 631,3108.5C 639.841,3093.99 649.841,3080.32 661,3067.5C 670.667,3051.17 680.333,3034.83 690,3018.5C 693.285,3013.55 696.952,3008.88 701,3004.5C 711.928,2981.62 725.595,2960.62 742,2941.5C 753.643,2910.2 773.643,2885.87 802,2868.5C 816.634,2846.54 836.134,2830.37 860.5,2820C 875.079,2809.42 889.079,2798.09 902.5,2786C 912.872,2781.15 922.205,2774.82 930.5,2767C 950.315,2753.86 968.981,2739.19 986.5,2723C 992.826,2718.17 999.492,2713.84 1006.5,2710C 1017.85,2698.66 1030.85,2689.66 1045.5,2683C 1056.95,2672.1 1069.95,2663.43 1084.5,2657C 1103.92,2639.92 1125.26,2625.59 1148.5,2614C 1153.89,2609.61 1159.56,2605.61 1165.5,2602C 1187.93,2592.89 1209.93,2582.89 1231.5,2572C 1240.13,2565.71 1247.8,2558.37 1254.5,2550C 1271.2,2535.48 1290.2,2524.81 1311.5,2518C 1321.36,2509.82 1332.02,2502.82 1343.5,2497C 1348.54,2492.29 1353.88,2487.95 1359.5,2484C 1371.5,2477.33 1383.5,2470.67 1395.5,2464C 1407.19,2453.31 1418.52,2442.31 1429.5,2431C 1446.52,2417.99 1465.52,2408.99 1486.5,2404C 1504.46,2393.57 1523.79,2387.57 1544.5,2386C 1561.18,2385.8 1577.85,2386.3 1594.5,2387.5C 1647.54,2387.26 1700.54,2387.26 1753.5,2387.5C 1751.85,2359.93 1757.68,2333.93 1771,2309.5C 1772.88,2298.96 1775.55,2288.63 1779,2278.5C 1797.94,2235.95 1817.94,2193.95 1839,2152.5C 1842.23,2139.14 1847.23,2126.48 1854,2114.5C 1856.55,2098.19 1861.88,2082.86 1870,2068.5C 1872.84,2047.63 1879.84,2028.3 1891,2010.5C 1896.08,1996.92 1901.75,1983.59 1908,1970.5C 1910.54,1952.05 1916.37,1934.71 1925.5,1918.5C 1923.17,1892.31 1928.34,1867.64 1941,1844.5C 1942.28,1835.09 1944.45,1825.92 1947.5,1817C 1947.09,1804.72 1946.76,1792.39 1946.5,1780C 1946.8,1762.17 1950.3,1745.01 1957,1728.5C 1963.61,1715.62 1969.94,1702.62 1976,1689.5C 1982.67,1680.83 1988.34,1671.5 1993,1661.5C 1996.62,1656.21 2000.62,1651.21 2005,1646.5C 2015.92,1627.66 2027.58,1609.33 2040,1591.5C 2050.99,1578.18 2062.32,1565.18 2074,1552.5C 2081.09,1541.33 2088.42,1530.33 2096,1519.5C 2124,1483.5 2152,1447.5 2180,1411.5C 2187.5,1399.83 2194.5,1387.83 2201,1375.5C 2209.96,1364.21 2219.29,1353.21 2229,1342.5C 2253.48,1305.88 2280.15,1270.88 2309,1237.5C 2321,1220.84 2332,1203.51 2342,1185.5C 2345.79,1180.04 2349.95,1174.88 2354.5,1170C 2352.19,1119.12 2371.69,1078.95 2413,1049.5C 2418.12,1035.94 2423.78,1022.6 2430,1009.5C 2433.82,1001.18 2438.16,993.181 2443,985.5C 2454.49,972.344 2464.82,958.344 2474,943.5C 2482.11,934.062 2489.44,924.062 2496,913.5C 2506.29,903.589 2514.62,892.255 2521,879.5C 2529.11,870.062 2536.44,860.062 2543,849.5C 2548.83,842.333 2555.33,835.833 2562.5,830C 2572.37,823.9 2581.7,817.066 2590.5,809.5C 2607.67,783.833 2624.83,758.167 2642,732.5C 2657.26,696.657 2673.59,661.323 2691,626.5C 2704.58,607.675 2717.91,588.675 2731,569.5C 2740.08,552.34 2749.41,535.34 2759,518.5C 2764.98,502.2 2772.32,486.534 2781,471.5C 2782.47,466.757 2784.14,462.091 2786,457.5C 2798.08,434.008 2809.08,410.008 2819,385.5C 2827.96,370.247 2835.29,354.247 2841,337.5C 2843.67,332.167 2846.33,326.833 2849,321.5C 2851.35,312.082 2854.02,302.749 2857,293.5C 2865.44,276.163 2873.11,258.497 2880,240.5C 2887.81,224.217 2896.14,208.217 2905,192.5C 2916.02,176.585 2929.85,163.751 2946.5,154C 2960.01,147.077 2973.68,140.41 2987.5,134C 2999.67,129.804 3012,126.971 3024.5,125.5 Z M 3103.5,389.5 C 3111.82,390.832 3120.15,390.832 3128.5,389.5C 3153.37,396.774 3178.37,403.608 3203.5,410C 3212.62,414.897 3221.96,419.23 3231.5,423C 3226.05,430.786 3220.22,438.286 3214,445.5C 3211.33,450.167 3208.67,454.833 3206,459.5C 3190.61,472.556 3178.61,488.222 3170,506.5C 3156.62,523.55 3143.62,540.884 3131,558.5C 3126.12,567.593 3121.79,576.927 3118,586.5C 3113.28,592.221 3108.95,598.221 3105,604.5C 3090.67,633.833 3076.33,663.167 3062,692.5C 3051.15,717.198 3039.48,741.532 3027,765.5C 3020.77,780.625 3015.1,795.959 3010,811.5C 3004.41,822.347 2999.08,833.347 2994,844.5C 2990.93,856.03 2987.27,867.363 2983,878.5C 2976.88,891.526 2971.55,904.859 2967,918.5C 2961.95,937.4 2957.29,956.4 2953,975.5C 2948.36,983.759 2944.69,992.425 2942,1001.5C 2938.33,1017.83 2934.67,1034.17 2931,1050.5C 2924.94,1064.29 2918.61,1077.95 2912,1091.5C 2908.39,1101.93 2905.73,1112.59 2904,1123.5C 2901.78,1129.61 2899.28,1135.61 2896.5,1141.5C 2894.58,1142.64 2892.58,1142.81 2890.5,1142C 2870.45,1136.87 2850.78,1130.54 2831.5,1123C 2825.86,1121.54 2820.2,1120.21 2814.5,1119C 2791.62,1107.73 2768.62,1096.73 2745.5,1086C 2732.66,1082.03 2719.66,1078.7 2706.5,1076C 2706.17,1075.67 2705.83,1075.33 2705.5,1075C 2712.37,1067.8 2718.87,1060.3 2725,1052.5C 2729.5,1044.16 2734.5,1036.16 2740,1028.5C 2750.27,1019.56 2761.1,1011.4 2772.5,1004C 2787.23,992.036 2798.73,977.536 2807,960.5C 2813.76,950.656 2820.76,940.99 2828,931.5C 2842.54,906.964 2857.88,882.964 2874,859.5C 2888.57,825.794 2903.9,792.46 2920,759.5C 2923.33,755.5 2926.67,751.5 2930,747.5C 2934.88,738.619 2940.55,730.286 2947,722.5C 2951.66,712.501 2957.33,703.167 2964,694.5C 2975.08,673.341 2986.41,652.341 2998,631.5C 3003.98,615.2 3011.32,599.534 3020,584.5C 3029.89,560.053 3040.89,536.053 3053,512.5C 3058.98,496.2 3066.32,480.534 3075,465.5C 3081.69,447.091 3089.36,429.091 3098,411.5C 3100.78,404.386 3102.61,397.053 3103.5,389.5 Z M 2573.5,1318.5 C 2600.08,1324.31 2626.75,1329.81 2653.5,1335C 2676.17,1345.67 2698.83,1356.33 2721.5,1367C 2734.5,1370.67 2747.5,1374.33 2760.5,1378C 2776.67,1384.13 2793.01,1389.79 2809.5,1395C 2800.98,1406.87 2794.15,1419.7 2789,1433.5C 2780.25,1443.31 2773.25,1454.31 2768,1466.5C 2757.42,1481.08 2746.09,1495.08 2734,1508.5C 2726.39,1520.38 2720.39,1533.05 2716,1546.5C 2713,1560.5 2710,1574.5 2707,1588.5C 2696.76,1606.87 2690.76,1626.54 2689,1647.5C 2688.19,1654.08 2688.36,1660.58 2689.5,1667C 2685.88,1674.52 2683.05,1682.36 2681,1690.5C 2678.28,1693.56 2675.94,1696.89 2674,1700.5C 2656.39,1736.04 2639.06,1771.71 2622,1807.5C 2619.27,1814.36 2616.93,1821.36 2615,1828.5C 2606.77,1840.28 2600.11,1852.95 2595,1866.5C 2586.5,1876.83 2579.5,1888.16 2574,1900.5C 2569.85,1912.79 2565.85,1925.12 2562,1937.5C 2552,1960.17 2542,1982.83 2532,2005.5C 2525.8,2028.11 2518.8,2050.44 2511,2072.5C 2501.85,2081.98 2493.85,2092.31 2487,2103.5C 2481,2116.17 2475,2128.83 2469,2141.5C 2459.92,2154.67 2453.25,2169 2449,2184.5C 2440.31,2205.56 2429.31,2225.22 2416,2243.5C 2407.35,2258.44 2401.69,2274.44 2399,2291.5C 2389.71,2301.14 2382.37,2312.14 2377,2324.5C 2371.18,2331.29 2365.01,2337.79 2358.5,2344C 2344.28,2353.56 2331.28,2364.56 2319.5,2377C 2296.63,2392.94 2274.3,2409.6 2252.5,2427C 2243.51,2435.49 2235.85,2444.99 2229.5,2455.5C 2220.3,2453.28 2210.97,2451.78 2201.5,2451C 2184.4,2444.58 2166.73,2440.58 2148.5,2439C 2127.24,2427.91 2104.91,2419.58 2081.5,2414C 2062.88,2411.37 2044.21,2409.03 2025.5,2407C 2022.89,2406.36 2020.55,2405.19 2018.5,2403.5C 2023.4,2391.58 2026.9,2379.24 2029,2366.5C 2046.06,2330.71 2063.39,2295.04 2081,2259.5C 2083.93,2252.36 2086.27,2245.03 2088,2237.5C 2093.59,2226.65 2098.92,2215.65 2104,2204.5C 2107.61,2194.07 2110.27,2183.41 2112,2172.5C 2119.59,2158.73 2124.59,2144.06 2127,2128.5C 2137.12,2104.26 2147.78,2080.26 2159,2056.5C 2162.61,2046.07 2165.27,2035.41 2167,2024.5C 2171.64,2016.24 2175.31,2007.57 2178,1998.5C 2183.75,1977.83 2187.75,1956.83 2190,1935.5C 2192.93,1928.36 2195.27,1921.03 2197,1913.5C 2200.44,1893.3 2204.77,1873.3 2210,1853.5C 2211.62,1842.51 2211.79,1831.51 2210.5,1820.5C 2210.89,1817.15 2211.39,1813.82 2212,1810.5C 2217.95,1801.55 2224.28,1792.89 2231,1784.5C 2236.83,1773.5 2243.16,1762.84 2250,1752.5C 2273.65,1727.19 2294.65,1699.85 2313,1670.5C 2320.33,1661.83 2327.67,1653.17 2335,1644.5C 2339.5,1638.84 2343.5,1632.84 2347,1626.5C 2368.15,1601.02 2388.15,1574.69 2407,1547.5C 2410.59,1541.32 2413.92,1534.99 2417,1528.5C 2421.7,1524.13 2426.03,1519.47 2430,1514.5C 2434.95,1507.22 2440.28,1500.22 2446,1493.5C 2459.84,1473.15 2474.18,1453.15 2489,1433.5C 2516.09,1403.31 2539.76,1370.64 2560,1335.5C 2564.51,1329.8 2569.01,1324.14 2573.5,1318.5 Z M 1591.5,2650.5 C 1691.17,2651.69 1790.84,2651.69 1890.5,2650.5C 1910.35,2658.57 1931.02,2662.74 1952.5,2663C 1961.3,2666.12 1970.3,2668.45 1979.5,2670C 1994.84,2670.98 2010.17,2671.98 2025.5,2673C 2034.06,2678.45 2043.06,2683.11 2052.5,2687C 2071.08,2691.98 2089.75,2696.65 2108.5,2701C 2125,2710.17 2142.67,2715.5 2161.5,2717C 2172.37,2721.88 2183.7,2725.22 2195.5,2727C 2210.18,2728.15 2224.85,2728.82 2239.5,2729C 2257.83,2736 2276.17,2743 2294.5,2750C 2313.95,2755.11 2333.61,2759.11 2353.5,2762C 2362.1,2766.94 2370.43,2772.27 2378.5,2778C 2383.83,2780.67 2389.17,2783.33 2394.5,2786C 2421.73,2795.41 2448.73,2805.41 2475.5,2816C 2492.28,2830.72 2511.61,2840.72 2533.5,2846C 2560.33,2859.58 2588,2871.25 2616.5,2881C 2629.14,2891.99 2643.14,2900.99 2658.5,2908C 2675.38,2913.07 2692.05,2918.74 2708.5,2925C 2725.34,2933.92 2742.34,2942.59 2759.5,2951C 2774.77,2962.91 2791.1,2973.25 2808.5,2982C 2815.36,2984.73 2822.36,2987.07 2829.5,2989C 2839.84,2995.17 2849.84,3001.84 2859.5,3009C 2870.42,3014.97 2881.75,3019.97 2893.5,3024C 2900.17,3029.34 2907.51,3033.67 2915.5,3037C 2928.63,3050.78 2943.96,3061.45 2961.5,3069C 2966.79,3075.96 2972.46,3082.63 2978.5,3089C 2988.83,3097.33 2999.17,3105.67 3009.5,3114C 3014.58,3117.4 3019.91,3120.4 3025.5,3123C 3030.33,3129.17 3035.83,3134.67 3042,3139.5C 3053.16,3153.81 3063.82,3168.48 3074,3183.5C 3077.97,3188.47 3082.3,3193.13 3087,3197.5C 3091.66,3207.5 3097.33,3216.83 3104,3225.5C 3115.33,3236.83 3126.67,3248.17 3138,3259.5C 3148.34,3280.5 3163,3297.84 3182,3311.5C 3186.66,3321.5 3192.33,3330.83 3199,3339.5C 3205.57,3346.98 3211.91,3354.65 3218,3362.5C 3222.45,3366.96 3226.95,3371.29 3231.5,3375.5C 3147.65,3376.15 3063.82,3376.48 2980,3376.5C 2974.17,3376.33 2968.33,3376.17 2962.5,3376C 2945.28,3372.03 2927.95,3368.7 2910.5,3366C 2894.32,3366.29 2878.16,3366.46 2862,3366.5C 2847.12,3363.2 2832.28,3359.7 2817.5,3356C 2807.19,3354.99 2796.86,3354.32 2786.5,3354C 2770.92,3350.26 2755.26,3346.93 2739.5,3344C 2725.16,3343.08 2710.82,3342.08 2696.5,3341C 2674.59,3328.27 2650.92,3321.27 2625.5,3320C 2609.17,3314.13 2592.34,3310.97 2575,3310.5C 2561.51,3310.64 2548.01,3310.97 2534.5,3311.5C 2507.5,3308.83 2480.5,3308.83 2453.5,3311.5C 2345.5,3311.5 2237.5,3311.5 2129.5,3311.5C 2102.5,3308.83 2075.5,3308.83 2048.5,3311.5C 1877.5,3310.17 1706.5,3310.17 1535.5,3311.5C 1522.01,3310.7 1508.51,3310.03 1495,3309.5C 1477,3310.83 1459,3310.83 1441,3309.5C 1427.49,3310.03 1413.99,3310.7 1400.5,3311.5C 1211.5,3310.17 1022.5,3310.17 833.5,3311.5C 828.841,3310.93 824.174,3310.43 819.5,3310C 827.122,3298.26 833.289,3285.76 838,3272.5C 845.443,3263.72 852.109,3254.39 858,3244.5C 874.217,3229.74 886.217,3212.08 894,3191.5C 899.787,3184.37 904.787,3176.71 909,3168.5C 923.307,3153.16 933.973,3135.49 941,3115.5C 951.798,3103.9 961.131,3091.23 969,3077.5C 977.462,3071.37 984.962,3064.21 991.5,3056C 1011.31,3046.69 1027.64,3033.19 1040.5,3015.5C 1044.54,3012.81 1048.21,3009.64 1051.5,3006C 1062.1,2999.73 1072.44,2993.06 1082.5,2986C 1090.36,2977.47 1099.36,2970.47 1109.5,2965C 1122.54,2954.81 1135.2,2944.14 1147.5,2933C 1159.23,2926.8 1169.89,2919.14 1179.5,2910C 1190.59,2904.9 1200.59,2898.24 1209.5,2890C 1229.02,2881.47 1246.02,2869.47 1260.5,2854C 1274.64,2845.1 1289.64,2838.1 1305.5,2833C 1310.83,2830.33 1316.17,2827.67 1321.5,2825C 1355.52,2818.18 1382.85,2801.01 1403.5,2773.5C 1407.02,2770.9 1410.35,2768.07 1413.5,2765C 1421.29,2761.61 1428.95,2757.94 1436.5,2754C 1446.86,2747.16 1456.86,2739.82 1466.5,2732C 1484.88,2724.82 1500.88,2714.15 1514.5,2700C 1526.78,2694.19 1538.78,2687.86 1550.5,2681C 1560.01,2673.91 1568.68,2665.91 1576.5,2657C 1581.81,2655.3 1586.81,2653.13 1591.5,2650.5 Z"/></g>
</svg>
