<?xml version="1.0" encoding="UTF-8"?>
<!DOCTYPE svg PUBLIC "-//W3C//DTD SVG 1.1//EN" "http://www.w3.org/Graphics/SVG/1.1/DTD/svg11.dtd">
<svg xmlns="http://www.w3.org/2000/svg" version="1.1" width="4096px" height="4096px" style="shape-rendering:geometricPrecision; text-rendering:geometricPrecision; image-rendering:optimizeQuality; fill-rule:evenodd; clip-rule:evenodd" xmlns:xlink="http://www.w3.org/1999/xlink">
<g><path style="opacity:1" fill="#1da0f2" d="M 942.5,125.5 C 982.007,125.868 1021.51,125.868 1061,125.5C 1078.83,125.799 1095.99,129.299 1112.5,136C 1124.29,142.377 1136.29,148.377 1148.5,154C 1168,165.5 1183.5,181 1195,200.5C 1201.14,214.112 1207.81,227.445 1215,240.5C 1221.89,258.497 1229.56,276.163 1238,293.5C 1240.98,302.749 1243.65,312.082 1246,321.5C 1252.03,331.928 1256.7,342.928 1260,354.5C 1268.35,368.868 1275.35,383.868 1281,399.5C 1290.35,418.864 1299.68,438.198 1309,457.5C 1314.98,473.8 1322.32,489.466 1331,504.5C 1332.86,509.091 1334.53,513.757 1336,518.5C 1345.59,535.34 1354.92,552.34 1364,569.5C 1377.09,588.675 1390.42,607.675 1404,626.5C 1421.41,661.323 1437.74,696.657 1453,732.5C 1470.17,758.167 1487.33,783.833 1504.5,809.5C 1513.3,817.066 1522.63,823.9 1532.5,830C 1539.67,835.833 1546.17,842.333 1552,849.5C 1558.56,860.062 1565.89,870.062 1574,879.5C 1580.38,892.255 1588.71,903.589 1599,913.5C 1605.56,924.062 1612.89,934.062 1621,943.5C 1630.18,958.344 1640.51,972.344 1652,985.5C 1656.84,993.181 1661.18,1001.18 1665,1009.5C 1671.22,1022.6 1676.88,1035.94 1682,1049.5C 1723.31,1078.95 1742.81,1119.12 1740.5,1170C 1745.05,1174.88 1749.21,1180.04 1753,1185.5C 1768.05,1212.94 1786.05,1238.28 1807,1261.5C 1827.44,1287.94 1847.11,1314.94 1866,1342.5C 1875.71,1353.21 1885.04,1364.21 1894,1375.5C 1900.5,1387.83 1907.5,1399.83 1915,1411.5C 1943,1447.5 1971,1483.5 1999,1519.5C 2006.58,1530.33 2013.91,1541.33 2021,1552.5C 2032.68,1565.18 2044.01,1578.18 2055,1591.5C 2067.42,1609.33 2079.08,1627.66 2090,1646.5C 2094.38,1651.21 2098.38,1656.21 2102,1661.5C 2106.66,1671.5 2112.33,1680.83 2119,1689.5C 2127.82,1706.81 2135.82,1724.48 2143,1742.5C 2145.57,1751.68 2147.24,1761.01 2148,1770.5C 2147.56,1786.07 2147.39,1801.57 2147.5,1817C 2150.55,1825.92 2152.72,1835.09 2154,1844.5C 2166.66,1867.64 2171.83,1892.31 2169.5,1918.5C 2178.63,1934.71 2184.46,1952.05 2187,1970.5C 2193.25,1983.59 2198.92,1996.92 2204,2010.5C 2215.16,2028.3 2222.16,2047.63 2225,2068.5C 2233.12,2082.86 2238.45,2098.19 2241,2114.5C 2247.77,2126.48 2252.77,2139.14 2256,2152.5C 2277.06,2193.95 2297.06,2235.95 2316,2278.5C 2319.45,2288.63 2322.12,2298.96 2324,2309.5C 2337.32,2333.93 2343.15,2359.93 2341.5,2387.5C 2394.46,2387.26 2447.46,2387.26 2500.5,2387.5C 2517.15,2386.3 2533.82,2385.8 2550.5,2386C 2571.21,2387.57 2590.54,2393.57 2608.5,2404C 2629.48,2408.99 2648.48,2417.99 2665.5,2431C 2676.48,2442.31 2687.81,2453.31 2699.5,2464C 2711.5,2470.67 2723.5,2477.33 2735.5,2484C 2741.12,2487.95 2746.46,2492.29 2751.5,2497C 2762.98,2502.82 2773.64,2509.82 2783.5,2518C 2812.77,2527.13 2837.11,2543.46 2856.5,2567C 2859.01,2568.42 2861.34,2570.09 2863.5,2572C 2885.07,2582.89 2907.07,2592.89 2929.5,2602C 2941.17,2611.17 2953.84,2618.84 2967.5,2625C 2983.08,2633.96 2997.42,2644.63 3010.5,2657C 3025.05,2663.43 3038.05,2672.1 3049.5,2683C 3064.15,2689.66 3077.15,2698.66 3088.5,2710C 3095.51,2713.84 3102.17,2718.17 3108.5,2723C 3123.35,2737.19 3139.35,2749.86 3156.5,2761C 3162.79,2765.62 3168.79,2770.62 3174.5,2776C 3180.82,2778.83 3186.82,2782.16 3192.5,2786C 3205.92,2798.09 3219.92,2809.42 3234.5,2820C 3258.87,2830.37 3278.37,2846.54 3293,2868.5C 3321.36,2885.87 3341.36,2910.2 3353,2941.5C 3369.4,2960.62 3383.07,2981.62 3394,3004.5C 3398.05,3008.88 3401.71,3013.55 3405,3018.5C 3414.67,3034.83 3424.33,3051.17 3434,3067.5C 3445.16,3080.32 3455.16,3093.99 3464,3108.5C 3480,3122.85 3492.34,3139.85 3501,3159.5C 3506.79,3166.63 3511.79,3174.29 3516,3182.5C 3529.54,3196.58 3540.87,3212.24 3550,3229.5C 3556.71,3237.21 3563.05,3245.21 3569,3253.5C 3578.4,3272.65 3589.07,3290.99 3601,3308.5C 3604.27,3314.71 3607.27,3321.05 3610,3327.5C 3653.16,3353.62 3675.66,3392.12 3677.5,3443C 3674.65,3502.47 3645.99,3543.81 3591.5,3567C 3576.47,3572.41 3560.97,3575.24 3545,3575.5C 2883.51,3575.36 2222.01,3575.03 1560.5,3574.5C 1546.85,3574.31 1533.52,3576.15 1520.5,3580C 1509.15,3586.34 1497.15,3591.01 1484.5,3594C 1463.28,3598.31 1441.95,3601.98 1420.5,3605C 1409.19,3606.05 1397.86,3606.72 1386.5,3607C 1372.27,3611.08 1357.94,3614.74 1343.5,3618C 1333.62,3619.5 1323.79,3619.67 1314,3618.5C 1298.68,3622.64 1283.18,3626.14 1267.5,3629C 1261.02,3629.8 1254.52,3630.3 1248,3630.5C 1235.32,3630.27 1222.66,3629.94 1210,3629.5C 1178.9,3637.79 1147.23,3641.79 1115,3641.5C 1101.49,3640.97 1087.99,3640.3 1074.5,3639.5C 1061.01,3640.3 1047.51,3640.97 1034,3641.5C 934.974,3640.68 835.974,3640.68 737,3641.5C 721.479,3640.99 705.979,3640.15 690.5,3639C 680.523,3637.42 670.856,3634.76 661.5,3631C 608.093,3631.55 566.927,3609.72 538,3565.5C 522.581,3538.41 516.914,3509.41 521,3478.5C 523.262,3466.54 525.262,3454.54 527,3442.5C 531.377,3428.95 535.377,3415.29 539,3401.5C 550.861,3379.11 562.194,3356.45 573,3333.5C 578.36,3318.42 584.693,3303.76 592,3289.5C 601.423,3276.32 611.09,3263.32 621,3250.5C 627.373,3244.46 634.04,3238.79 641,3233.5C 650.628,3213.54 664.295,3196.87 682,3183.5C 690,3169.5 698,3155.5 706,3141.5C 714.285,3128.62 724.618,3117.62 737,3108.5C 745.435,3095.73 755.601,3084.57 767.5,3075C 770.631,3070.87 774.131,3067.03 778,3063.5C 787.052,3043.39 800.385,3026.72 818,3013.5C 826.946,3000.22 836.279,2987.22 846,2974.5C 854.422,2965.48 862.755,2956.48 871,2947.5C 882.191,2937.31 893.024,2926.81 903.5,2916C 909.826,2911.17 916.492,2906.84 923.5,2903C 931.687,2889.81 941.687,2878.14 953.5,2868C 965.031,2860.73 976.031,2852.73 986.5,2844C 993.342,2840.08 1000.34,2836.41 1007.5,2833C 1023.78,2817.35 1042.78,2806.01 1064.5,2799C 1077.55,2789.31 1091.88,2781.97 1107.5,2777C 1119.17,2768.67 1130.83,2760.33 1142.5,2752C 1155.18,2744.99 1168.51,2739.66 1182.5,2736C 1187.89,2731.61 1193.56,2727.61 1199.5,2724C 1228.73,2710.39 1257.4,2695.72 1285.5,2680C 1295.89,2676.49 1306.23,2672.82 1316.5,2669C 1321.89,2664.61 1327.56,2660.61 1333.5,2657C 1364.53,2641.32 1396.53,2627.99 1429.5,2617C 1439.73,2609.72 1450.73,2603.72 1462.5,2599C 1477.19,2585.48 1494.19,2575.82 1513.5,2570C 1534.09,2566.47 1553.75,2560.14 1572.5,2551C 1567.32,2547.24 1562.32,2543.24 1557.5,2539C 1540.32,2522.12 1523.49,2504.96 1507,2487.5C 1497.88,2475.6 1490.55,2462.6 1485,2448.5C 1478.94,2442.04 1473.61,2435.04 1469,2427.5C 1462.59,2414.34 1455.92,2401.34 1449,2388.5C 1445.53,2380.09 1442.86,2371.42 1441,2362.5C 1422.87,2333.9 1408.2,2303.57 1397,2271.5C 1390.63,2262.1 1385.3,2252.1 1381,2241.5C 1375.76,2235.35 1370.76,2229.02 1366,2222.5C 1357.6,2208.42 1349.6,2194.09 1342,2179.5C 1335.73,2160.69 1329.06,2142.03 1322,2123.5C 1318.84,2113.21 1315.84,2102.87 1313,2092.5C 1303.94,2071.38 1294.61,2050.38 1285,2029.5C 1282.6,2023.64 1280.6,2017.64 1279,2011.5C 1270.11,1998.38 1262.77,1984.38 1257,1969.5C 1241.64,1950.78 1231.64,1929.45 1227,1905.5C 1214.33,1879.5 1201.67,1853.5 1189,1827.5C 1178.39,1813.62 1170.39,1798.28 1165,1781.5C 1162.67,1778.5 1160.33,1775.5 1158,1772.5C 1147.92,1755.33 1137.58,1738.33 1127,1721.5C 1122.12,1712.41 1117.79,1703.07 1114,1693.5C 1109.28,1687.78 1104.95,1681.78 1101,1675.5C 1094.86,1661.89 1088.19,1648.55 1081,1635.5C 1078.07,1628.36 1075.73,1621.03 1074,1613.5C 1071.75,1610.67 1069.75,1607.67 1068,1604.5C 1041.55,1551.26 1015.88,1497.59 991,1443.5C 976.812,1427.47 966.479,1409.14 960,1388.5C 932.615,1343.68 930.448,1297.68 953.5,1250.5C 951.808,1243.54 950.308,1236.54 949,1229.5C 941.262,1213.62 935.928,1196.95 933,1179.5C 924.511,1162.86 916.844,1145.86 910,1128.5C 906.992,1112.44 903.658,1096.44 900,1080.5C 894.898,1071.63 890.898,1062.3 888,1052.5C 884.315,1034.43 880.315,1016.43 876,998.5C 871.586,986.257 866.586,974.257 861,962.5C 858.512,954.88 856.178,947.213 854,939.5C 850.078,932.658 846.412,925.658 843,918.5C 836.926,900.611 830.259,882.945 823,865.5C 807.481,834.622 792.148,803.622 777,772.5C 773.551,762.935 769.551,753.601 765,744.5C 759.392,735.228 753.392,726.228 747,717.5C 742.786,709.739 739.119,701.739 736,693.5C 727,682.167 718,670.833 709,659.5C 706.667,655.5 704.333,651.5 702,647.5C 691.958,639.391 683.291,630.058 676,619.5C 670.252,609.003 664.252,598.67 658,588.5C 648.624,578.126 639.624,567.46 631,556.5C 627.599,551.423 624.599,546.089 622,540.5C 608.943,525.378 596.61,509.712 585,493.5C 580.451,484.956 575.118,476.956 569,469.5C 558.131,446.095 546.464,423.095 534,400.5C 513.694,344.356 524.194,294.856 565.5,252C 571.5,247.333 577.5,242.667 583.5,238C 606.882,224.142 631.882,214.475 658.5,209C 675.144,200.511 692.144,192.844 709.5,186C 733.917,181.05 758.25,175.717 782.5,170C 791.369,164.898 800.702,160.898 810.5,158C 836.858,151.911 862.858,144.577 888.5,136C 906.636,132.458 924.636,128.958 942.5,125.5 Z M 963.5,389.5 C 972.848,390.73 982.181,390.73 991.5,389.5C 992.388,397.053 994.221,404.386 997,411.5C 1005.64,429.091 1013.31,447.091 1020,465.5C 1028.68,480.534 1036.02,496.2 1042,512.5C 1054.11,536.053 1065.11,560.053 1075,584.5C 1083.68,599.534 1091.02,615.2 1097,631.5C 1108.59,652.341 1119.92,673.341 1131,694.5C 1137.67,703.167 1143.34,712.501 1148,722.5C 1154.45,730.286 1160.12,738.619 1165,747.5C 1168.33,751.5 1171.67,755.5 1175,759.5C 1191.1,792.46 1206.43,825.794 1221,859.5C 1248.08,901.338 1275.42,943.004 1303,984.5C 1308.83,991.667 1315.33,998.167 1322.5,1004C 1333.9,1011.4 1344.73,1019.56 1355,1028.5C 1360.5,1036.16 1365.5,1044.16 1370,1052.5C 1376.13,1060.3 1382.63,1067.8 1389.5,1075C 1374.34,1078.57 1359.34,1082.9 1344.5,1088C 1323.17,1098.33 1301.83,1108.67 1280.5,1119C 1261.45,1123.8 1242.78,1129.8 1224.5,1137C 1216.86,1138.99 1209.2,1140.83 1201.5,1142.5C 1200.5,1142.17 1199.5,1141.83 1198.5,1141.5C 1196.94,1137.38 1195.11,1133.38 1193,1129.5C 1190.17,1116.7 1186.84,1104.04 1183,1091.5C 1176.39,1077.95 1170.06,1064.29 1164,1050.5C 1160.33,1034.17 1156.67,1017.83 1153,1001.5C 1150.31,992.425 1146.64,983.759 1142,975.5C 1137.71,956.4 1133.05,937.4 1128,918.5C 1123.45,904.859 1118.12,891.526 1112,878.5C 1107.73,867.363 1104.07,856.03 1101,844.5C 1095.92,833.347 1090.59,822.347 1085,811.5C 1075.63,781.036 1062.96,752.036 1047,724.5C 1042.33,713.833 1037.67,703.167 1033,692.5C 1018.67,663.167 1004.33,633.833 990,604.5C 986.054,598.221 981.721,592.221 977,586.5C 973.214,576.927 968.88,567.593 964,558.5C 951.385,540.884 938.385,523.55 925,506.5C 916.387,488.222 904.387,472.556 889,459.5C 886.333,454.833 883.667,450.167 881,445.5C 874.785,438.286 868.951,430.786 863.5,423C 873.043,419.23 882.376,414.897 891.5,410C 915.862,403.971 939.862,397.138 963.5,389.5 Z M 1518.5,1318.5 C 1519.55,1318.35 1520.55,1318.52 1521.5,1319C 1531.86,1330.2 1540.36,1342.7 1547,1356.5C 1556.94,1371.44 1567.28,1386.11 1578,1400.5C 1598.47,1423.97 1617.81,1448.3 1636,1473.5C 1639.84,1480.51 1644.17,1487.17 1649,1493.5C 1654.72,1500.22 1660.05,1507.22 1665,1514.5C 1668.97,1519.47 1673.3,1524.13 1678,1528.5C 1681.08,1534.99 1684.41,1541.32 1688,1547.5C 1706.85,1574.69 1726.85,1601.02 1748,1626.5C 1751.5,1632.84 1755.5,1638.84 1760,1644.5C 1777.93,1664.76 1793.93,1686.43 1808,1709.5C 1819.61,1724.45 1831.95,1738.78 1845,1752.5C 1851.84,1762.84 1858.17,1773.5 1864,1784.5C 1870.72,1792.89 1877.05,1801.55 1883,1810.5C 1884.55,1818.29 1884.72,1826.12 1883.5,1834C 1883.7,1840.52 1884.2,1847.02 1885,1853.5C 1890.23,1873.3 1894.56,1893.3 1898,1913.5C 1899.73,1921.03 1902.07,1928.36 1905,1935.5C 1907.25,1956.83 1911.25,1977.83 1917,1998.5C 1919.69,2007.57 1923.36,2016.24 1928,2024.5C 1929.73,2035.41 1932.39,2046.07 1936,2056.5C 1947.22,2080.26 1957.88,2104.26 1968,2128.5C 1970.41,2144.06 1975.41,2158.73 1983,2172.5C 1984.73,2183.41 1987.39,2194.07 1991,2204.5C 1996.08,2215.65 2001.41,2226.65 2007,2237.5C 2008.73,2245.03 2011.07,2252.36 2014,2259.5C 2031.61,2295.04 2048.94,2330.71 2066,2366.5C 2068.1,2379.24 2071.6,2391.58 2076.5,2403.5C 2074.45,2405.19 2072.11,2406.36 2069.5,2407C 2050.79,2409.03 2032.12,2411.37 2013.5,2414C 1990.09,2419.58 1967.76,2427.91 1946.5,2439C 1928.27,2440.58 1910.6,2444.58 1893.5,2451C 1884.03,2451.78 1874.7,2453.28 1865.5,2455.5C 1859.15,2444.99 1851.49,2435.49 1842.5,2427C 1820.7,2409.6 1798.37,2392.94 1775.5,2377C 1763.72,2364.56 1750.72,2353.56 1736.5,2344C 1729.99,2337.79 1723.82,2331.29 1718,2324.5C 1712.63,2312.14 1705.29,2301.14 1696,2291.5C 1693.31,2274.44 1687.65,2258.44 1679,2243.5C 1661.53,2220.22 1648.53,2194.55 1640,2166.5C 1636.09,2157.68 1631.43,2149.35 1626,2141.5C 1620,2128.83 1614,2116.17 1608,2103.5C 1601.15,2092.31 1593.15,2081.98 1584,2072.5C 1576.2,2050.44 1569.2,2028.11 1563,2005.5C 1553,1982.83 1543,1960.17 1533,1937.5C 1528.27,1916.98 1520.6,1897.64 1510,1879.5C 1506.91,1874.99 1503.58,1870.65 1500,1866.5C 1494.89,1852.95 1488.23,1840.28 1480,1828.5C 1478.07,1821.36 1475.73,1814.36 1473,1807.5C 1455.94,1771.71 1438.61,1736.04 1421,1700.5C 1419.06,1696.89 1416.72,1693.56 1414,1690.5C 1411.95,1682.36 1409.12,1674.52 1405.5,1667C 1407.08,1650.95 1405.58,1635.12 1401,1619.5C 1397.49,1608.82 1393.16,1598.49 1388,1588.5C 1384.85,1569.43 1380.19,1550.77 1374,1532.5C 1370.18,1524.18 1365.84,1516.18 1361,1508.5C 1348.91,1495.08 1337.58,1481.08 1327,1466.5C 1321.75,1454.31 1314.75,1443.31 1306,1433.5C 1300.85,1419.7 1294.02,1406.87 1285.5,1395C 1301.99,1389.79 1318.33,1384.13 1334.5,1378C 1347.5,1374.33 1360.5,1370.67 1373.5,1367C 1396.17,1356.33 1418.83,1345.67 1441.5,1335C 1467.47,1330.25 1493.13,1324.75 1518.5,1318.5 Z M 2201.5,2650.5 C 2301,2651.75 2400.5,2651.75 2500,2650.5C 2506.3,2652.23 2512.46,2654.4 2518.5,2657C 2527.22,2666.72 2536.89,2675.39 2547.5,2683C 2558.37,2688.94 2569.37,2694.6 2580.5,2700C 2594.12,2714.15 2610.12,2724.82 2628.5,2732C 2638.14,2739.82 2648.14,2747.16 2658.5,2754C 2666.05,2757.94 2673.71,2761.61 2681.5,2765C 2690.6,2773.49 2699.27,2782.49 2707.5,2792C 2726.48,2808.82 2748.48,2819.82 2773.5,2825C 2784.2,2831.23 2795.53,2835.9 2807.5,2839C 2816.66,2843.75 2825.66,2848.75 2834.5,2854C 2848.98,2869.47 2865.98,2881.47 2885.5,2890C 2894.41,2898.24 2904.41,2904.9 2915.5,2910C 2925.11,2919.14 2935.77,2926.8 2947.5,2933C 2959.8,2944.14 2972.46,2954.81 2985.5,2965C 2995.64,2970.47 3004.64,2977.47 3012.5,2986C 3022.56,2993.06 3032.9,2999.73 3043.5,3006C 3046.39,3009.4 3049.73,3012.23 3053.5,3014.5C 3066.69,3032.52 3083.35,3046.35 3103.5,3056C 3110.04,3064.21 3117.54,3071.37 3126,3077.5C 3133.87,3091.23 3143.2,3103.9 3154,3115.5C 3161.03,3135.49 3171.69,3153.16 3186,3168.5C 3190.21,3176.71 3195.21,3184.37 3201,3191.5C 3208.78,3212.08 3220.78,3229.74 3237,3244.5C 3242.89,3254.39 3249.56,3263.72 3257,3272.5C 3261.71,3285.76 3267.88,3298.26 3275.5,3310C 3270.83,3310.43 3266.16,3310.93 3261.5,3311.5C 3072.5,3310.17 2883.5,3310.17 2694.5,3311.5C 2681.01,3310.7 2667.51,3310.03 2654,3309.5C 2636,3310.83 2618,3310.83 2600,3309.5C 2586.49,3310.03 2572.99,3310.7 2559.5,3311.5C 2388.5,3310.17 2217.5,3310.17 2046.5,3311.5C 2019.5,3308.83 1992.5,3308.83 1965.5,3311.5C 1857.5,3311.5 1749.5,3311.5 1641.5,3311.5C 1614.5,3308.83 1587.5,3308.83 1560.5,3311.5C 1546.99,3310.97 1533.49,3310.64 1520,3310.5C 1502.66,3310.97 1485.83,3314.13 1469.5,3320C 1444.08,3321.27 1420.41,3328.27 1398.5,3341C 1384.18,3342.08 1369.84,3343.08 1355.5,3344C 1339.74,3346.93 1324.08,3350.26 1308.5,3354C 1298.14,3354.32 1287.81,3354.99 1277.5,3356C 1262.72,3359.7 1247.88,3363.2 1233,3366.5C 1216.84,3366.46 1200.68,3366.29 1184.5,3366C 1167.05,3368.7 1149.72,3372.03 1132.5,3376C 1126.67,3376.17 1120.83,3376.33 1115,3376.5C 1031.18,3376.48 947.346,3376.15 863.5,3375.5C 878.25,3360.92 891.75,3345.25 904,3328.5C 907.255,3322.99 910.255,3317.32 913,3311.5C 931.995,3297.84 946.662,3280.5 957,3259.5C 968.333,3248.17 979.667,3236.83 991,3225.5C 997.671,3216.83 1003.34,3207.5 1008,3197.5C 1022.53,3181.64 1035.53,3164.64 1047,3146.5C 1054.79,3139 1062.29,3131.17 1069.5,3123C 1075.09,3120.4 1080.42,3117.4 1085.5,3114C 1098.28,3103.86 1110.78,3093.36 1123,3082.5C 1126.88,3078.29 1130.38,3073.79 1133.5,3069C 1151.04,3061.45 1166.37,3050.78 1179.5,3037C 1187.49,3033.67 1194.83,3029.34 1201.5,3024C 1213.25,3019.97 1224.58,3014.97 1235.5,3009C 1245.16,3001.84 1255.16,2995.17 1265.5,2989C 1278.46,2985.57 1290.8,2980.57 1302.5,2974C 1313.5,2966.33 1324.5,2958.67 1335.5,2951C 1354.13,2942.23 1372.47,2932.9 1390.5,2923C 1405.77,2917.8 1421.1,2912.8 1436.5,2908C 1451.86,2900.99 1465.86,2891.99 1478.5,2881C 1507,2871.25 1534.67,2859.58 1561.5,2846C 1583.39,2840.72 1602.72,2830.72 1619.5,2816C 1646.27,2805.41 1673.27,2795.41 1700.5,2786C 1705.83,2783.33 1711.17,2780.67 1716.5,2778C 1724.57,2772.27 1732.9,2766.94 1741.5,2762C 1761.39,2759.11 1781.05,2755.11 1800.5,2750C 1818.83,2743 1837.17,2736 1855.5,2729C 1870.15,2728.82 1884.82,2728.15 1899.5,2727C 1911.3,2725.22 1922.63,2721.88 1933.5,2717C 1952.33,2715.5 1970,2710.17 1986.5,2701C 2005.25,2696.65 2023.92,2691.98 2042.5,2687C 2051.94,2683.11 2060.94,2678.45 2069.5,2673C 2084.83,2671.98 2100.16,2670.98 2115.5,2670C 2124.7,2668.45 2133.7,2666.12 2142.5,2663C 2154.29,2662.65 2165.95,2661.32 2177.5,2659C 2185.99,2657.23 2193.99,2654.39 2201.5,2650.5 Z"/></g>
</svg>
