<?xml version="1.0" encoding="UTF-8"?>
<!DOCTYPE svg PUBLIC "-//W3C//DTD SVG 1.1//EN" "http://www.w3.org/Graphics/SVG/1.1/DTD/svg11.dtd">
<svg xmlns="http://www.w3.org/2000/svg" version="1.1" width="4096px" height="4096px" style="shape-rendering:geometricPrecision; text-rendering:geometricPrecision; image-rendering:optimizeQuality; fill-rule:evenodd; clip-rule:evenodd" xmlns:xlink="http://www.w3.org/1999/xlink">
<g><path style="opacity:1" fill="#6a7a86" d="M 970.5,505.5 C 978.238,505.567 985.905,506.234 993.5,507.5C 1123.29,506.841 1253.13,506.507 1383,506.5C 1400.91,507.016 1418.08,510.849 1434.5,518C 1449.94,519.194 1464.61,523.194 1478.5,530C 1489.57,531.578 1500.23,534.578 1510.5,539C 1538.63,540.74 1563.3,550.74 1584.5,569C 1599.96,576.81 1614.63,585.81 1628.5,596C 1647.86,598.563 1665.86,604.896 1682.5,615C 1688.5,619 1694.5,623 1700.5,627C 1728.42,629.185 1752.75,639.518 1773.5,658C 1804.09,666.283 1828.26,683.449 1846,709.5C 1858.15,719.142 1868.31,730.476 1876.5,743.5C 1889.86,752.021 1901.53,762.521 1911.5,775C 1921.22,781.719 1930.06,789.552 1938,798.5C 1944.56,809.062 1951.89,819.062 1960,828.5C 1966.67,840.5 1973.33,852.5 1980,864.5C 1993.43,877.016 2003.1,892.016 2009,909.5C 2021.24,925.533 2029.24,943.533 2033,963.5C 2033.62,961.884 2034.62,960.551 2036,959.5C 2037.5,940.675 2042.83,923.008 2052,906.5C 2059.57,894.932 2067.9,883.932 2077,873.5C 2079.75,868.334 2082.75,863.334 2086,858.5C 2092.23,840.705 2099.56,823.372 2108,806.5C 2113.53,797.301 2120.19,788.968 2128,781.5C 2132.66,771.501 2138.33,762.167 2145,753.5C 2153.33,745.167 2161.67,736.833 2170,728.5C 2176.67,718.5 2183.33,708.5 2190,698.5C 2196.03,692.134 2202.36,686.134 2209,680.5C 2222.08,650.418 2243.58,628.584 2273.5,615C 2280.34,608.498 2288.01,603.164 2296.5,599C 2306.07,588.896 2316.73,580.229 2328.5,573C 2334.85,568.826 2341.51,565.159 2348.5,562C 2367.87,556.742 2386.87,550.409 2405.5,543C 2416.76,540.445 2428.1,539.611 2439.5,540.5C 2462.05,529.353 2485.71,525.686 2510.5,529.5C 2656.29,528.841 2802.13,528.507 2948,528.5C 2965.63,528.893 2982.47,532.726 2998.5,540C 3029.06,537.181 3057.22,544.014 3083,560.5C 3113.09,562.465 3139.26,573.465 3161.5,593.5C 3180.93,602.882 3200.6,611.715 3220.5,620C 3227.99,623.241 3234.99,627.241 3241.5,632C 3259.52,637.673 3276.85,645.007 3293.5,654C 3302.36,659.191 3310.36,665.524 3317.5,673C 3326.98,677.487 3335.64,683.153 3343.5,690C 3358.04,695.552 3370.71,703.885 3381.5,715C 3396.42,721.287 3409.42,730.287 3420.5,742C 3435.79,748.957 3449.13,758.624 3460.5,771C 3473.91,777.707 3485.91,786.374 3496.5,797C 3507.21,806.036 3516.05,816.536 3523,828.5C 3539.82,840.311 3555.15,853.978 3569,869.5C 3572,873.833 3575,878.167 3578,882.5C 3587.54,890.37 3596.04,899.203 3603.5,909C 3623.94,924.045 3638.44,943.545 3647,967.5C 3658.43,982.359 3666.09,999.025 3670,1017.5C 3681.23,1030.43 3689.57,1045.09 3695,1061.5C 3698,1066.17 3701,1070.83 3704,1075.5C 3711.8,1093.11 3720.14,1110.44 3729,1127.5C 3731.53,1134.09 3733.86,1140.76 3736,1147.5C 3744,1161.5 3752,1175.5 3760,1189.5C 3765.05,1201.36 3768.38,1213.7 3770,1226.5C 3775.55,1238.94 3780.55,1251.61 3785,1264.5C 3796.14,1282.6 3802.48,1302.26 3804,1323.5C 3814.71,1350.64 3822.38,1378.64 3827,1407.5C 3831.47,1420.58 3836.14,1433.58 3841,1446.5C 3842.87,1454.07 3844.21,1461.74 3845,1469.5C 3853.06,1491.68 3858.23,1514.52 3860.5,1538C 3859.89,1548.52 3859.56,1559.02 3859.5,1569.5C 3867,1586.18 3871,1603.68 3871.5,1622C 3871.44,1685.67 3871.44,1749.34 3871.5,1813C 3871.07,1829.84 3867.57,1846.01 3861,1861.5C 3854.52,1875.12 3847.52,1888.45 3840,1901.5C 3835.41,1908.09 3830.08,1914.09 3824,1919.5C 3816.24,1934.02 3807.24,1947.69 3797,1960.5C 3777.71,1981.13 3757.21,2000.3 3735.5,2018C 3726.06,2030.94 3715.06,2042.44 3702.5,2052.5C 3699.76,2055.65 3697.26,2058.99 3695,2062.5C 3683.33,2073.83 3671.67,2085.17 3660,2096.5C 3650.67,2108.5 3641.33,2120.5 3632,2132.5C 3625.82,2149.53 3616.16,2164.2 3603,2176.5C 3595.29,2193.88 3584.13,2208.72 3569.5,2221C 3559.5,2230.33 3549.5,2239.67 3539.5,2249C 3531.5,2255.34 3522.84,2260.67 3513.5,2265C 3504.5,2274 3495.5,2283 3486.5,2292C 3476.51,2299.96 3465.51,2306.3 3453.5,2311C 3450.04,2316.76 3446.2,2322.26 3442,2327.5C 3425.87,2341.97 3410.03,2356.8 3394.5,2372C 3383.89,2378.94 3373.56,2386.28 3363.5,2394C 3354.01,2399.74 3344.01,2404.41 3333.5,2408C 3324.83,2414 3316.17,2420 3307.5,2426C 3292.26,2444.57 3275.09,2461.07 3256,2475.5C 3246.54,2489.96 3234.71,2502.12 3220.5,2512C 3209.07,2526.76 3196.24,2540.26 3182,2552.5C 3174.08,2563.76 3164.75,2573.76 3154,2582.5C 3137.64,2613.77 3112.47,2634.27 3078.5,2644C 3070.57,2661.51 3059.24,2676.51 3044.5,2689C 3037.5,2694.67 3030.5,2700.33 3023.5,2706C 3018.42,2709.4 3013.09,2712.4 3007.5,2715C 2996.49,2730.01 2982.99,2742.18 2967,2751.5C 2964.06,2756.77 2960.73,2761.77 2957,2766.5C 2949,2774.5 2941,2782.5 2933,2790.5C 2928.01,2801.16 2922.01,2811.16 2915,2820.5C 2903.33,2831.83 2891.67,2843.17 2880,2854.5C 2873.39,2865.44 2866.39,2876.1 2859,2886.5C 2852,2893.5 2845,2900.5 2838,2907.5C 2826.01,2931.51 2812.01,2954.17 2796,2975.5C 2789.66,2989.18 2780.99,3001.18 2770,3011.5C 2763.27,3024.63 2756.27,3037.63 2749,3050.5C 2742.4,3059.1 2735.07,3067.1 2727,3074.5C 2720.21,3086.3 2711.55,3096.63 2701,3105.5C 2698.06,3110.77 2694.73,3115.77 2691,3120.5C 2677.31,3135.19 2663.31,3149.52 2649,3163.5C 2643.9,3174.59 2637.24,3184.59 2629,3193.5C 2624,3204.17 2619,3214.83 2614,3225.5C 2610.72,3231.11 2607.06,3236.44 2603,3241.5C 2572.56,3271.03 2542.56,3301.03 2513,3331.5C 2505.7,3341.06 2497.7,3350.06 2489,3358.5C 2481.93,3371.58 2472.6,3382.91 2461,3392.5C 2450.25,3407.92 2436.91,3420.59 2421,3430.5C 2416.09,3438.08 2410.42,3445.08 2404,3451.5C 2397.24,3473.03 2385.91,3491.7 2370,3507.5C 2363.3,3514.53 2356.3,3521.2 2349,3527.5C 2344.1,3535.73 2338.44,3543.4 2332,3550.5C 2312.22,3589.28 2282.38,3617.45 2242.5,3635C 2225.37,3639.73 2209.7,3647.4 2195.5,3658C 2188.18,3662.16 2180.52,3665.49 2172.5,3668C 2161.63,3674.94 2151.3,3682.6 2141.5,3691C 2134.45,3695.19 2127.11,3698.86 2119.5,3702C 2098.3,3709.74 2076.46,3714.57 2054,3716.5C 2011.05,3714.86 1977.38,3696.53 1953,3661.5C 1899.48,3662.07 1860.81,3638.41 1837,3590.5C 1830.99,3576.79 1827.66,3562.46 1827,3547.5C 1821.83,3542.33 1816.67,3537.17 1811.5,3532C 1801.5,3527.34 1792.17,3521.67 1783.5,3515C 1761.84,3494.11 1742.67,3471.28 1726,3446.5C 1721,3441.5 1716,3436.5 1711,3431.5C 1707.55,3426.38 1703.71,3421.55 1699.5,3417C 1693.46,3411.29 1687.13,3405.96 1680.5,3401C 1653.17,3373.67 1625.83,3346.33 1598.5,3319C 1593.83,3316.33 1589.17,3313.67 1584.5,3311C 1569.15,3300.33 1554.99,3288.16 1542,3274.5C 1539.67,3271.17 1537.33,3267.83 1535,3264.5C 1516.43,3248.93 1498.76,3232.26 1482,3214.5C 1476.78,3207.61 1471.94,3200.44 1467.5,3193C 1455.89,3186.35 1445.55,3178.01 1436.5,3168C 1413.67,3155.83 1396.17,3138.33 1384,3115.5C 1367.97,3099.14 1351.64,3083.14 1335,3067.5C 1333.69,3065.36 1332.19,3063.36 1330.5,3061.5C 1313.59,3053.76 1299.09,3042.76 1287,3028.5C 1280.39,3018.22 1273.39,3008.22 1266,2998.5C 1258.17,2990 1250.33,2981.5 1242.5,2973C 1223.45,2957.62 1204.12,2942.62 1184.5,2928C 1176.93,2921.1 1170.1,2913.6 1164,2905.5C 1146.88,2892.05 1132.21,2876.38 1120,2858.5C 1115.81,2851.45 1112.14,2844.11 1109,2836.5C 1100.5,2829.33 1092.67,2821.5 1085.5,2813C 1066.64,2800.48 1052.48,2783.98 1043,2763.5C 1035.55,2757.05 1029.21,2749.72 1024,2741.5C 1016.7,2735.2 1009.7,2728.53 1003,2721.5C 993.93,2710.36 985.597,2698.69 978,2686.5C 964.896,2674.4 952.896,2661.4 942,2647.5C 938.745,2641.99 935.745,2636.32 933,2630.5C 913.947,2614.79 898.614,2596.12 887,2574.5C 875.512,2564.35 865.512,2553.02 857,2540.5C 847.521,2530.69 839.188,2520.03 832,2508.5C 827.167,2503.67 822.333,2498.83 817.5,2494C 788.104,2479.27 766.937,2456.77 754,2426.5C 748.604,2415.37 742.937,2404.37 737,2393.5C 735.136,2388.91 733.47,2384.24 732,2379.5C 720.401,2374.23 709.567,2367.73 699.5,2360C 688.363,2349.86 677.529,2339.36 667,2328.5C 665,2325.83 663,2323.17 661,2320.5C 651.909,2306.66 643.576,2292.32 636,2277.5C 626.116,2268.07 618.449,2257.07 613,2244.5C 610,2241.5 607,2238.5 604,2235.5C 591.642,2216.79 578.309,2198.79 564,2181.5C 559.22,2174.27 555.22,2166.61 552,2158.5C 545.168,2151.33 539.501,2143.33 535,2134.5C 526.55,2127.06 519.217,2118.72 513,2109.5C 506.429,2097.46 500.429,2085.13 495,2072.5C 485.442,2058.84 478.776,2043.84 475,2027.5C 471.493,2022.49 468.493,2017.16 466,2011.5C 462.501,2007.17 459.501,2002.51 457,1997.5C 450.26,1991.43 444.26,1984.76 439,1977.5C 430.577,1964.99 422.911,1951.99 416,1938.5C 406.421,1925.68 397.088,1912.68 388,1899.5C 384.119,1892.4 380.785,1885.07 378,1877.5C 367.753,1864.01 360.42,1849.01 356,1832.5C 341.66,1812.15 333.66,1789.49 332,1764.5C 327.581,1757.33 322.915,1750.33 318,1743.5C 310.725,1727.28 303.725,1710.95 297,1694.5C 293.159,1688.82 289.826,1682.82 287,1676.5C 264.4,1651.7 253.9,1622.53 255.5,1589C 252.747,1576.98 249.247,1565.15 245,1553.5C 243.348,1546.26 242.348,1538.92 242,1531.5C 228.703,1512.28 221.369,1490.94 220,1467.5C 212.288,1449.89 209.121,1431.56 210.5,1412.5C 199.353,1389.95 195.686,1366.29 199.5,1341.5C 198.191,1289.3 198.191,1237.14 199.5,1185C 196.12,1163.53 198.62,1142.7 207,1122.5C 208.991,1098.86 215.991,1076.86 228,1056.5C 232.289,1050.54 236.956,1044.88 242,1039.5C 245.241,1032.01 249.241,1025.01 254,1018.5C 259.12,985.244 274.787,958.244 301,937.5C 309.193,918.11 319.193,899.776 331,882.5C 339.066,873.764 347.733,865.764 357,858.5C 360.877,850.631 365.544,843.298 371,836.5C 381.761,825.139 393.094,814.472 405,804.5C 413.588,788.685 424.588,774.685 438,762.5C 452.861,740.639 472.694,725.139 497.5,716C 503.468,709.031 509.801,702.364 516.5,696C 524.119,690.716 531.452,685.049 538.5,679C 545.726,674.22 553.392,670.22 561.5,667C 569.356,660.153 578.023,654.487 587.5,650C 596.243,639.255 606.243,629.922 617.5,622C 634.674,614.051 651.674,605.718 668.5,597C 684.124,583.179 701.458,571.846 720.5,563C 732.605,559.392 744.272,554.726 755.5,549C 777.017,540.225 799.35,536.892 822.5,539C 843.395,524.702 866.561,517.202 892,516.5C 902.516,517.111 913.016,517.445 923.5,517.5C 938.618,510.804 954.285,506.804 970.5,505.5 Z M 1013.5,746.5 C 1124.65,746.626 1235.82,746.626 1347,746.5C 1353.17,746.972 1359.34,747.472 1365.5,748C 1372.01,750.294 1378.67,751.96 1385.5,753C 1399.38,759.96 1414.05,764.293 1429.5,766C 1440.37,771.068 1451.7,774.735 1463.5,777C 1469.78,779.473 1475.78,782.473 1481.5,786C 1506.26,804.551 1533.26,819.218 1562.5,830C 1567.45,831.256 1572.45,832.256 1577.5,833C 1591.07,841.954 1605.4,849.62 1620.5,856C 1630.19,860.009 1640.19,863.009 1650.5,865C 1661.42,869.038 1670.92,875.204 1679,883.5C 1682.5,889.844 1686.5,895.844 1691,901.5C 1701.76,912.861 1713.09,923.528 1725,933.5C 1735.75,948.922 1749.09,961.589 1765,971.5C 1771.16,985.164 1778.83,997.831 1788,1009.5C 1791.95,1020.06 1796.95,1030.06 1803,1039.5C 1806.51,1050.18 1810.84,1060.51 1816,1070.5C 1817.82,1093.96 1824.49,1115.96 1836,1136.5C 1837.48,1155.95 1842.82,1174.28 1852,1191.5C 1853.53,1199.41 1855.86,1207.08 1859,1214.5C 1859.49,1228.16 1860.16,1241.82 1861,1255.5C 1864.19,1269.58 1867.69,1283.58 1871.5,1297.5C 1871.08,1315.99 1870.74,1334.49 1870.5,1353C 1871.06,1371.46 1875.06,1389.13 1882.5,1406C 1881.99,1424.65 1881.65,1443.32 1881.5,1462C 1883.88,1513.01 1907.88,1549.68 1953.5,1572C 1965.36,1576.4 1977.36,1580.4 1989.5,1584C 2043.2,1593.56 2086.03,1576.39 2118,1532.5C 2125.86,1518.78 2133.19,1504.78 2140,1490.5C 2144.8,1472.09 2150.8,1454.09 2158,1436.5C 2159.13,1431.86 2160.13,1427.19 2161,1422.5C 2170.17,1405.99 2175.5,1388.33 2177,1369.5C 2182.75,1351.41 2188.75,1333.41 2195,1315.5C 2198.38,1301.65 2199.71,1287.65 2199,1273.5C 2202.75,1260.27 2206.08,1246.93 2209,1233.5C 2219.04,1211.9 2223.04,1189.24 2221,1165.5C 2226.09,1151.88 2229.76,1137.88 2232,1123.5C 2237.31,1107.59 2242.31,1091.59 2247,1075.5C 2252.81,1063.08 2258.81,1050.75 2265,1038.5C 2268.81,1029.08 2271.81,1019.42 2274,1009.5C 2283,995.833 2292,982.167 2301,968.5C 2307.04,957.38 2311.71,945.713 2315,933.5C 2325.22,923.397 2333.22,911.73 2339,898.5C 2347.23,889.688 2355.23,880.688 2363,871.5C 2371.17,860.322 2380.5,849.989 2391,840.5C 2397.72,829.453 2405.55,819.287 2414.5,810C 2428.21,803.612 2440.88,795.612 2452.5,786C 2456.83,784.333 2461.17,782.667 2465.5,781C 2489.05,781.908 2511.72,777.741 2533.5,768.5C 2661.15,768.844 2788.82,769.01 2916.5,769C 2938.54,778.618 2961.54,782.285 2985.5,780C 3001.81,789.154 3019.14,795.487 3037.5,799C 3061.62,811.726 3086.29,823.393 3111.5,834C 3127.92,848.375 3146.92,857.709 3168.5,862C 3176.66,868.917 3185.66,874.584 3195.5,879C 3204.78,888.309 3215.44,895.642 3227.5,901C 3238.22,912.718 3250.89,921.718 3265.5,928C 3276.58,939.713 3289.58,948.713 3304.5,955C 3310.98,961.814 3318.31,967.481 3326.5,972C 3343.24,996.694 3364.57,1016.36 3390.5,1031C 3399.92,1043.76 3410.76,1055.26 3423,1065.5C 3429.15,1077.13 3435.82,1088.46 3443,1099.5C 3448.91,1116 3456.91,1131.33 3467,1145.5C 3473.2,1166.58 3483.54,1185.25 3498,1201.5C 3500,1206.17 3502,1210.83 3504,1215.5C 3507.64,1239.11 3516.98,1260.11 3532,1278.5C 3535.19,1299.07 3542.85,1317.74 3555,1334.5C 3557.06,1346.68 3560.73,1358.35 3566,1369.5C 3568.83,1387.34 3574.83,1404 3584,1419.5C 3585.02,1424.91 3586.35,1430.25 3588,1435.5C 3587.98,1461.1 3594.65,1484.76 3608,1506.5C 3608.8,1523.54 3612.97,1539.71 3620.5,1555C 3620.39,1565.25 3619.72,1575.58 3618.5,1586C 3619.87,1605.66 3623.71,1624.83 3630,1643.5C 3630.71,1648.31 3631.21,1653.15 3631.5,1658C 3630.44,1696.52 3630.44,1735.02 3631.5,1773.5C 3624.37,1783.5 3618.21,1794.16 3613,1805.5C 3599.58,1820.27 3584.41,1832.77 3567.5,1843C 3560.14,1850.03 3553.14,1857.36 3546.5,1865C 3526.36,1877.81 3511.19,1894.97 3501,1916.5C 3491.7,1924.8 3482.7,1933.47 3474,1942.5C 3467.75,1951.33 3461.75,1960.33 3456,1969.5C 3449.71,1977.46 3443.04,1985.13 3436,1992.5C 3429.66,2000.5 3424.33,2009.16 3420,2018.5C 3408.18,2029.64 3398.68,2042.47 3391.5,2057C 3382.83,2061 3374.83,2066 3367.5,2072C 3358.83,2080.67 3350.17,2089.33 3341.5,2098C 3327.76,2103.87 3315.76,2112.2 3305.5,2123C 3282.72,2135.45 3264.88,2152.95 3252,2175.5C 3248.17,2179.33 3244.33,2183.17 3240.5,2187C 3230.66,2190.26 3221.32,2194.59 3212.5,2200C 3192.5,2214 3172.5,2228 3152.5,2242C 3141.06,2254.19 3129.4,2266.19 3117.5,2278C 3102.63,2287.2 3089.96,2298.87 3079.5,2313C 3053.78,2326.72 3034.94,2346.89 3023,2373.5C 3012.67,2381.17 3003.67,2390.17 2996,2400.5C 2989.2,2406.3 2982.7,2412.47 2976.5,2419C 2958.61,2427.21 2943.28,2438.88 2930.5,2454C 2918.54,2460.95 2908.04,2469.79 2899,2480.5C 2893.38,2488.25 2887.88,2496.08 2882.5,2504C 2861.85,2513.65 2845.18,2527.98 2832.5,2547C 2818.41,2554.31 2806.24,2564.15 2796,2576.5C 2788.29,2584.54 2780.96,2592.87 2774,2601.5C 2769.83,2607.85 2766.16,2614.51 2763,2621.5C 2750.56,2632.93 2739.23,2645.27 2729,2658.5C 2725.75,2664.01 2722.75,2669.68 2720,2675.5C 2711.03,2683.47 2702.36,2691.8 2694,2700.5C 2686.17,2711.49 2678.84,2722.83 2672,2734.5C 2660.53,2746.12 2649.53,2758.12 2639,2770.5C 2629.19,2789.46 2618.86,2808.12 2608,2826.5C 2601.19,2832.98 2595.52,2840.31 2591,2848.5C 2576.48,2861.35 2565.48,2876.68 2558,2894.5C 2541.5,2907.51 2528.84,2923.51 2520,2942.5C 2510.69,2951.78 2503.36,2962.44 2498,2974.5C 2481.56,2990.6 2466.22,3007.6 2452,3025.5C 2448.16,3031.18 2444.83,3037.18 2442,3043.5C 2436.96,3048.88 2432.29,3054.54 2428,3060.5C 2421.67,3072.5 2415.33,3084.5 2409,3096.5C 2379.86,3125.31 2351.03,3154.47 2322.5,3184C 2306.71,3195.12 2294.54,3209.29 2286,3226.5C 2261.53,3243.3 2241.53,3264.3 2226,3289.5C 2210.72,3304.1 2197.72,3320.44 2187,3338.5C 2183.45,3344.93 2180.45,3351.6 2178,3358.5C 2161.62,3371.71 2148.79,3387.71 2139.5,3406.5C 2113.6,3413.78 2091.94,3427.61 2074.5,3448C 2068.81,3450.12 2063.31,3452.62 2058,3455.5C 2050.94,3440.38 2043.61,3425.38 2036,3410.5C 2023.15,3391.31 2006.32,3376.81 1985.5,3367C 1976.17,3357.67 1966.83,3348.33 1957.5,3339C 1950.17,3333 1942.17,3328 1933.5,3324C 1926.05,3314.94 1919.22,3305.44 1913,3295.5C 1904.79,3288.76 1898.79,3280.42 1895,3270.5C 1881.88,3251.38 1865.05,3236.54 1844.5,3226C 1812.5,3194 1780.5,3162 1748.5,3130C 1742.84,3125.5 1736.84,3121.5 1730.5,3118C 1717.24,3096.41 1699.24,3080.08 1676.5,3069C 1667.99,3051.33 1656.32,3036 1641.5,3023C 1631.93,3016.76 1622.93,3009.76 1614.5,3002C 1603.99,2995.5 1594.66,2987.5 1586.5,2978C 1580.64,2974.51 1575.81,2970.01 1572,2964.5C 1539.42,2932.25 1507.25,2899.75 1475.5,2867C 1462.43,2859.93 1451.93,2850.1 1444,2837.5C 1429.5,2822.33 1415,2807.17 1400.5,2792C 1386.05,2781.21 1371.88,2770.05 1358,2758.5C 1347.18,2739.68 1332.85,2724.01 1315,2711.5C 1312.06,2706.23 1308.73,2701.23 1305,2696.5C 1297.04,2686.87 1288.7,2677.54 1280,2668.5C 1270.3,2648.79 1256.3,2632.79 1238,2620.5C 1230.37,2610.54 1221.7,2601.54 1212,2593.5C 1204.12,2581.29 1194.46,2570.62 1183,2561.5C 1177.25,2552.33 1171.25,2543.33 1165,2534.5C 1156.67,2526.17 1148.33,2517.83 1140,2509.5C 1136,2500.83 1131,2492.83 1125,2485.5C 1115.72,2474.05 1105.55,2463.38 1094.5,2453.5C 1081.3,2432.15 1065.46,2412.81 1047,2395.5C 1040.09,2385.26 1032.43,2375.59 1024,2366.5C 1021.06,2361.23 1017.73,2356.23 1014,2351.5C 998,2335.5 982,2319.5 966,2303.5C 962.485,2281.48 953.818,2261.81 940,2244.5C 917.472,2222.31 895.305,2199.81 873.5,2177C 864.585,2170.29 855.085,2164.46 845,2159.5C 841.332,2151.49 836.665,2144.16 831,2137.5C 822.62,2111.29 807.453,2089.96 785.5,2073.5C 779.188,2059.36 770.354,2047.02 759,2036.5C 753.315,2026.46 746.648,2017.13 739,2008.5C 732.934,1996.1 724.934,1985.1 715,1975.5C 712.667,1970.83 710.333,1966.17 708,1961.5C 704.949,1944.68 698.949,1929.01 690,1914.5C 684.333,1906.83 678.667,1899.17 673,1891.5C 665.699,1861.88 649.699,1838.21 625,1820.5C 617.636,1805.77 608.303,1792.43 597,1780.5C 593.33,1769.49 588.33,1759.16 582,1749.5C 579.163,1740.16 575.496,1731.16 571,1722.5C 571.416,1682.38 556.749,1649.04 527,1622.5C 522.941,1612.99 519.274,1603.32 516,1593.5C 509.494,1582.17 504.494,1570.17 501,1557.5C 497.759,1550.01 493.759,1543.01 489,1536.5C 487.555,1526.94 485.222,1517.61 482,1508.5C 481.879,1489.44 478.212,1471.1 471,1453.5C 467.378,1446.59 464.044,1439.59 461,1432.5C 460.316,1416.76 456.649,1401.76 450,1387.5C 452.005,1363.53 448.172,1340.53 438.5,1318.5C 438.525,1273.66 438.525,1228.83 438.5,1184C 447.374,1161.41 459.208,1140.58 474,1121.5C 477.255,1115.99 480.255,1110.32 483,1104.5C 489.635,1097.89 495.301,1090.56 500,1082.5C 507.49,1067.85 514.157,1052.85 520,1037.5C 529,1027.83 538,1018.17 547,1008.5C 552.456,1001.7 557.123,994.369 561,986.5C 570.892,979.614 579.892,971.614 588,962.5C 594.254,952.992 600.754,943.659 607.5,934.5C 617.167,930.004 626.167,924.504 634.5,918C 646.926,904.973 659.926,892.64 673.5,881C 687.132,875.353 699.132,867.353 709.5,857C 726.484,848.356 741.484,837.023 754.5,823C 774.983,812.93 794.65,801.597 813.5,789C 823.905,786.865 833.905,783.532 843.5,779C 856.663,778.531 869.663,776.864 882.5,774C 896.51,769.162 910.177,763.495 923.5,757C 936.756,756.636 949.923,757.136 963,758.5C 980.853,758.234 997.686,754.234 1013.5,746.5 Z"/></g>
</svg>
