<?xml version="1.0" encoding="UTF-8"?>
<!DOCTYPE svg PUBLIC "-//W3C//DTD SVG 1.1//EN" "http://www.w3.org/Graphics/SVG/1.1/DTD/svg11.dtd">
<svg xmlns="http://www.w3.org/2000/svg" version="1.1" width="4096px" height="4096px" style="shape-rendering:geometricPrecision; text-rendering:geometricPrecision; image-rendering:optimizeQuality; fill-rule:evenodd; clip-rule:evenodd" xmlns:xlink="http://www.w3.org/1999/xlink">
<g><path style="opacity:1" fill="#fefffe" d="M 834.5,514.5 C 861.179,514.321 887.846,514.821 914.5,516C 923.385,517.055 932.052,519.055 940.5,522C 948.5,522.333 956.5,522.667 964.5,523C 975.063,525.307 985.729,526.974 996.5,528C 1012.66,532.432 1028.99,536.098 1045.5,539C 1060.16,538.679 1074.83,538.679 1089.5,539C 1100.06,541.307 1110.73,542.974 1121.5,544C 1134.42,546.472 1146.75,550.638 1158.5,556.5C 1188.96,555.715 1219.46,555.048 1250,554.5C 1284.16,555.479 1318.33,555.479 1352.5,554.5C 1410.23,553.208 1466.56,561.375 1521.5,579C 1706.5,579.595 1891.5,579.595 2076.5,579C 2084.8,580.072 2093.13,580.739 2101.5,581C 2120.82,584.093 2140.15,587.093 2159.5,590C 2201.54,593.581 2243.54,597.581 2285.5,602C 2308.93,605.941 2331.93,611.608 2354.5,619C 2379.49,618.576 2404.49,618.576 2429.5,619C 2451.44,623.188 2473.1,628.521 2494.5,635C 2531.5,633.559 2568.17,636.226 2604.5,643C 2845.67,643.705 3086.84,643.538 3328,642.5C 3426.16,643.299 3524.33,643.799 3622.5,644C 3647.65,647.417 3669.99,657.084 3689.5,673C 3699.24,682.615 3709.07,692.115 3719,701.5C 3734.92,721.012 3744.58,743.345 3748,768.5C 3748.16,905.492 3748.16,1042.49 3748,1179.5C 3746.33,1191.83 3744.67,1204.17 3743,1216.5C 3735.23,1240.81 3728.9,1265.48 3724,1290.5C 3724.54,1311.82 3724.54,1333.15 3724,1354.5C 3722.33,1366.83 3720.67,1379.17 3719,1391.5C 3715.86,1402.57 3712.53,1413.57 3709,1424.5C 3708.7,1446.51 3708.2,1468.51 3707.5,1490.5C 3708.24,1631.15 3708.41,1771.82 3708,1912.5C 3705.42,1929.58 3700.42,1945.91 3693,1961.5C 3692.68,1981.17 3692.18,2000.84 3691.5,2020.5C 3692.04,2356.15 3692.21,2691.81 3692,3027.5C 3690.77,3037.43 3688.43,3047.1 3685,3056.5C 3684.51,3071.58 3683.18,3086.58 3681,3101.5C 3680.18,3108.27 3678.85,3114.94 3677,3121.5C 3676.67,3131.83 3676.33,3142.17 3676,3152.5C 3673.01,3166.8 3670.17,3181.13 3667.5,3195.5C 3668.6,3206.15 3668.76,3216.81 3668,3227.5C 3667.17,3253.14 3661.17,3277.47 3650,3300.5C 3649.1,3308.33 3647.43,3316 3645,3323.5C 3645.01,3349.22 3644.01,3374.88 3642,3400.5C 3640.95,3409.39 3638.95,3418.05 3636,3426.5C 3636.56,3442.93 3634.22,3458.93 3629,3474.5C 3628,3494.56 3626.33,3514.56 3624,3534.5C 3621.19,3546.26 3617.19,3557.6 3612,3568.5C 3611.18,3575.27 3609.85,3581.94 3608,3588.5C 3603.4,3599.95 3599.4,3611.62 3596,3623.5C 3596.09,3643.05 3592.09,3661.72 3584,3679.5C 3570.18,3706.49 3555.84,3733.15 3541,3759.5C 3529.96,3776.71 3517.13,3792.54 3502.5,3807C 3482.99,3822.92 3460.65,3832.58 3435.5,3836C 3408.83,3836.71 3382.17,3837.05 3355.5,3837C 3330.5,3832.67 3306.17,3826 3282.5,3817C 3261.34,3816.6 3240.34,3814.6 3219.5,3811C 3204.83,3806.67 3190.17,3802.33 3175.5,3798C 3164.75,3792.75 3153.75,3788.08 3142.5,3784C 3080.87,3776.94 3019.21,3770.27 2957.5,3764C 2927.36,3758.29 2897.36,3751.95 2867.5,3745C 2838.85,3742.07 2810.19,3739.4 2781.5,3737C 2752.41,3733.66 2723.41,3729.66 2694.5,3725C 2686.34,3724.33 2678.18,3723.83 2670,3723.5C 2648.17,3724.54 2626.34,3724.71 2604.5,3724C 2589.46,3720.87 2574.46,3717.54 2559.5,3714C 2546.36,3708.76 2533.02,3704.09 2519.5,3700C 2023.2,3700.24 1526.87,3700.24 1030.5,3700C 1011.62,3700.97 993.287,3698.3 975.5,3692C 972.667,3691.83 969.833,3691.67 967,3691.5C 861.171,3692.39 755.337,3692.55 649.5,3692C 634.743,3689.08 620.077,3685.75 605.5,3682C 566.958,3670.12 539.791,3645.62 524,3608.5C 519.47,3597.24 515.137,3585.91 511,3574.5C 509.154,3567.94 507.82,3561.27 507,3554.5C 507.443,3435 507.61,3315.5 507.5,3196C 506.39,3144.5 505.89,3093 506,3041.5C 507.667,3029.17 509.333,3016.83 511,3004.5C 514.408,2993.61 517.408,2982.61 520,2971.5C 525.994,2957.18 530.994,2942.52 535,2927.5C 537.035,2907.53 538.702,2887.53 540,2867.5C 542.364,2855.23 544.364,2842.9 546,2830.5C 546.428,2809.16 547.094,2787.83 548,2766.5C 548.82,2759.73 550.154,2753.06 552,2746.5C 555.906,2736.69 559.239,2726.69 562,2716.5C 561.219,2698.3 563.886,2680.63 570,2663.5C 570.235,2654.46 570.902,2645.46 572,2636.5C 574.542,2626.54 576.876,2616.54 579,2606.5C 579.719,2225.33 579.552,1844.16 578.5,1463C 579.317,1263.17 579.817,1063.34 580,863.5C 581.842,853.134 583.842,842.8 586,832.5C 587.333,815.833 588.667,799.167 590,782.5C 592.932,768.704 597.265,755.371 603,742.5C 603.046,706.137 603.713,669.804 605,633.5C 615.54,583.627 645.04,550.793 693.5,535C 714.545,529.631 735.711,529.131 757,533.5C 781.21,520.155 807.043,513.822 834.5,514.5 Z M 851.5,763.5 C 861.172,763.334 870.839,763.5 880.5,764C 901.279,770.769 922.613,773.436 944.5,772C 965.917,777.817 987.584,782.483 1009.5,786C 1023.01,786.74 1036.51,787.574 1050,788.5C 1055.22,788.476 1060.38,788.143 1065.5,787.5C 1073.16,791.498 1081.16,794.664 1089.5,797C 1104.44,800.03 1119.44,802.697 1134.5,805C 1173.17,804.991 1211.84,804.491 1250.5,803.5C 1294.16,803.99 1337.83,804.157 1381.5,804C 1410.99,806.54 1439.66,812.873 1467.5,823C 1474.06,824.846 1480.73,826.18 1487.5,827C 1581.49,828.133 1675.49,828.633 1769.5,828.5C 1868.17,828.281 1966.84,828.115 2065.5,828C 2122.56,836.621 2179.9,842.954 2237.5,847C 2266.39,854.138 2295.39,860.805 2324.5,867C 2350.49,868.644 2376.49,868.977 2402.5,868C 2446.65,882.735 2491.99,888.402 2538.5,885C 2550.9,886.636 2563.23,888.636 2575.5,891C 2610.16,892.056 2644.82,892.556 2679.5,892.5C 2952.84,892.272 3226.18,892.272 3499.5,892.5C 3499.49,982.825 3499.32,1073.16 3499,1163.5C 3491.72,1189.67 3485.05,1216.01 3479,1242.5C 3478.07,1253.22 3476.74,1263.89 3475,1274.5C 3475.11,1295.83 3475.11,1317.16 3475,1338.5C 3472.8,1344.09 3470.8,1349.76 3469,1355.5C 3465.25,1370.08 3461.92,1384.74 3459,1399.5C 3458.61,1557.82 3458.61,1716.15 3459,1874.5C 3454.67,1886.17 3450.33,1897.83 3446,1909.5C 3442.72,1920.77 3441.22,1932.27 3441.5,1944C 3442.73,1957.97 3443.4,1971.97 3443.5,1986C 3442.32,2318.98 3442.32,2651.98 3443.5,2985C 3443.33,2987.83 3443.17,2990.67 3443,2993.5C 3439.57,3002.9 3437.23,3012.57 3436,3022.5C 3435.67,3035.17 3435.33,3047.83 3435,3060.5C 3431.86,3072.72 3429.19,3085.06 3427,3097.5C 3426.18,3107.41 3426.35,3117.24 3427.5,3127C 3424.02,3142 3421.18,3157.17 3419,3172.5C 3418.21,3182.86 3418.38,3193.19 3419.5,3203.5C 3416.18,3210.97 3413.34,3218.64 3411,3226.5C 3406.25,3249.57 3401.25,3272.57 3396,3295.5C 3395.67,3317.5 3395.33,3339.5 3395,3361.5C 3388.28,3379.21 3385.28,3397.55 3386,3416.5C 3380.68,3432.39 3378.35,3448.73 3379,3465.5C 3366.59,3487.49 3360.92,3511.16 3362,3536.5C 3356.7,3549.07 3352.2,3561.9 3348.5,3575C 3336.08,3573.82 3323.75,3571.82 3311.5,3569C 3298.48,3568.67 3285.48,3568 3272.5,3567C 3251.33,3558.61 3230,3550.61 3208.5,3543C 3195.92,3540.2 3183.25,3537.87 3170.5,3536C 3113.2,3529.69 3055.87,3523.69 2998.5,3518C 2972.08,3512.75 2945.75,3507.08 2919.5,3501C 2878.95,3495.7 2838.28,3491.37 2797.5,3488C 2768.12,3484.29 2738.78,3480.29 2709.5,3476C 2683.51,3474.36 2657.51,3474.02 2631.5,3475C 2600.74,3462.08 2568.74,3454.08 2535.5,3451C 2036.53,3451.21 1537.53,3451.21 1038.5,3451C 1029.1,3447.57 1019.43,3445.23 1009.5,3444C 996.001,3443.46 982.501,3442.96 969,3442.5C 898.164,3442.92 827.331,3443.25 756.5,3443.5C 756.367,3314.82 755.867,3186.15 755,3057.5C 758.813,3043.54 763.48,3029.87 769,3016.5C 772.538,3004.22 775.872,2991.89 779,2979.5C 783.434,2954.36 786.101,2929.03 787,2903.5C 790.32,2884.59 792.987,2865.59 795,2846.5C 795.333,2832.17 795.667,2817.83 796,2803.5C 801.802,2787.43 806.802,2771.09 811,2754.5C 812.138,2744.2 812.804,2733.87 813,2723.5C 818.676,2706.3 821.009,2688.63 820,2670.5C 821.647,2665.25 822.98,2659.91 824,2654.5C 824.927,2643.78 826.26,2633.11 828,2622.5C 828.724,2236.16 828.558,1849.82 827.5,1463.5C 828.32,1271.84 828.82,1080.17 829,888.5C 830.846,881.935 832.18,875.269 833,868.5C 833.529,855.794 834.529,843.128 836,830.5C 839.464,822.773 842.131,814.773 844,806.5C 845.582,797.084 847.582,787.75 850,778.5C 850.912,773.536 851.412,768.536 851.5,763.5 Z"/></g>
<g><path style="opacity:1" fill="#fefffe" d="M 1226.5,1098.5 C 1253.22,1097.99 1279.89,1098.82 1306.5,1101C 1316.43,1102.23 1326.1,1104.57 1335.5,1108C 1350.17,1107.67 1364.5,1109.67 1378.5,1114C 1403.23,1114.25 1427.56,1117.41 1451.5,1123.5C 1469.8,1122.55 1488.13,1122.72 1506.5,1124C 1513.27,1124.82 1519.94,1126.15 1526.5,1128C 1541.65,1132.2 1556.65,1136.87 1571.5,1142C 1603.81,1146.49 1636.15,1150.83 1668.5,1155C 1715.17,1154.83 1761.83,1154.83 1808.5,1155C 1827.59,1157.01 1846.59,1159.68 1865.5,1163C 1939.5,1163.45 2013.5,1163.45 2087.5,1163C 2094.27,1163.82 2100.94,1165.15 2107.5,1167C 2120.65,1170.54 2133.65,1174.54 2146.5,1179C 2366.01,1179.58 2585.51,1179.41 2805,1178.5C 2818.23,1179.01 2831.39,1180.18 2844.5,1182C 2851.27,1182.82 2857.94,1184.15 2864.5,1186C 2883.17,1186.58 2901.84,1187.24 2920.5,1188C 2953.93,1192.35 2987.26,1197.35 3020.5,1203C 3041,1203.03 3061.5,1202.53 3082,1201.5C 3097.84,1202.49 3113.68,1203.66 3129.5,1205C 3145.09,1208.86 3160.42,1213.53 3175.5,1219C 3193.43,1218.56 3210.77,1221.56 3227.5,1228C 3242.58,1227.82 3257.24,1230.15 3271.5,1235C 3286.42,1234.57 3301.09,1236.23 3315.5,1240C 3329.5,1245.33 3343.5,1250.67 3357.5,1256C 3386.59,1270.42 3407.42,1292.59 3420,1322.5C 3423.61,1333.98 3427.61,1345.32 3432,1356.5C 3433.85,1363.06 3435.18,1369.73 3436,1376.5C 3438.77,1409.97 3436.1,1442.97 3428,1475.5C 3415.64,1515.19 3390.14,1542.69 3351.5,1558C 3340.64,1567.93 3328.31,1575.6 3314.5,1581C 3299.66,1585.63 3284.66,1589.63 3269.5,1593C 3251.86,1601.32 3233.53,1607.65 3214.5,1612C 3209.45,1615.19 3204.11,1617.86 3198.5,1620C 3190.75,1622.47 3183.08,1625.14 3175.5,1628C 3165.15,1631.92 3154.48,1634.59 3143.5,1636C 2735.12,1636.01 2326.79,1636.01 1918.5,1636C 1899.11,1635.42 1879.78,1634.09 1860.5,1632C 1847.69,1629.62 1835.53,1625.45 1824,1619.5C 1805.57,1620.66 1787.07,1620.83 1768.5,1620C 1755.17,1617.33 1741.83,1614.67 1728.5,1612C 1706.94,1613.42 1685.94,1610.75 1665.5,1604C 1655,1603.73 1644.5,1603.9 1634,1604.5C 1626.79,1604.5 1619.63,1604 1612.5,1603C 1592.76,1598.23 1573.43,1592.23 1554.5,1585C 1541.22,1582.35 1527.89,1580.01 1514.5,1578C 1504.48,1575.66 1494.81,1572.33 1485.5,1568C 1469.15,1565.08 1452.82,1562.08 1436.5,1559C 1427.83,1556.5 1419.5,1553.16 1411.5,1549C 1396.25,1549.46 1381.25,1547.79 1366.5,1544C 1354.34,1539.73 1342.34,1535.06 1330.5,1530C 1324.71,1528.74 1319.05,1527.07 1313.5,1525C 1298.17,1524.67 1282.83,1524.33 1267.5,1524C 1248.36,1521.62 1230.69,1515.29 1214.5,1505C 1200.57,1500.75 1186.57,1496.75 1172.5,1493C 1122.31,1492.17 1084.48,1470.34 1059,1427.5C 1035.27,1377.31 1040.27,1330.31 1074,1286.5C 1081.28,1278.22 1089.44,1271.05 1098.5,1265C 1082.53,1212.2 1094.53,1166.86 1134.5,1129C 1161.42,1107.53 1192.09,1097.36 1226.5,1098.5 Z"/></g>
<g><path style="opacity:1" fill="#fefffe" d="M 1137.5,1803.5 C 1178.59,1800.25 1213.59,1813.08 1242.5,1842C 1267.48,1843.1 1292.48,1843.6 1317.5,1843.5C 1428.01,1843.83 1538.51,1843.5 1649,1842.5C 1670.5,1843.28 1692,1844.11 1713.5,1845C 1730.07,1847.19 1745.74,1852.19 1760.5,1860C 1774.4,1863.08 1788.4,1865.58 1802.5,1867.5C 1808.99,1866.95 1815.49,1866.62 1822,1866.5C 1835.16,1867.33 1848.33,1868.17 1861.5,1869C 1870.39,1870.05 1879.05,1872.05 1887.5,1875C 1907.73,1875.38 1927.73,1877.71 1947.5,1882C 1969.08,1886.73 1990.41,1892.4 2011.5,1899C 2029.36,1898.31 2046.7,1900.98 2063.5,1907C 2104.17,1907.46 2144.84,1907.46 2185.5,1907C 2200.56,1909.3 2215.56,1911.97 2230.5,1915C 2235,1915.17 2239.5,1915.33 2244,1915.5C 2448.66,1915.68 2653.33,1915.34 2858,1914.5C 2871.16,1915.33 2884.33,1916.17 2897.5,1917C 2906.39,1918.05 2915.05,1920.05 2923.5,1923C 2948.29,1922.03 2971.63,1927.37 2993.5,1939C 3021.34,1939.69 3049.17,1939.53 3077,1938.5C 3084.21,1938.5 3091.37,1939 3098.5,1940C 3107.89,1942.13 3117.22,1944.46 3126.5,1947C 3142.63,1948.43 3158.63,1950.76 3174.5,1954C 3188.75,1957.12 3202.08,1962.46 3214.5,1970C 3222.82,1976.16 3231.49,1981.83 3240.5,1987C 3274.51,2012.35 3291.84,2046.35 3292.5,2089C 3291.54,2104.51 3290.37,2120.01 3289,2135.5C 3283.33,2164.68 3269.5,2189.18 3247.5,2209C 3237.83,2216 3228.17,2223 3218.5,2230C 3205.93,2237.75 3192.93,2244.75 3179.5,2251C 3165.74,2257.02 3151.41,2261.02 3136.5,2263C 3117.61,2272.39 3097.61,2277.05 3076.5,2277C 3071.23,2278.87 3065.89,2280.54 3060.5,2282C 3047.27,2290.41 3033.61,2298.08 3019.5,2305C 2997.16,2311.67 2975.16,2319.34 2953.5,2328C 2946.94,2329.85 2940.27,2331.18 2933.5,2332C 2917.83,2332.33 2902.17,2332.67 2886.5,2333C 2871.6,2341.52 2855.6,2346.86 2838.5,2349C 2723.5,2348.87 2608.5,2348.37 2493.5,2347.5C 2276.52,2348.41 2059.52,2348.57 1842.5,2348C 1829.97,2346.53 1817.97,2343.2 1806.5,2338C 1795.98,2337.45 1785.65,2335.78 1775.5,2333C 1731.83,2332.67 1688.17,2332.33 1644.5,2332C 1631.97,2330.53 1619.97,2327.2 1608.5,2322C 1590.65,2320.95 1573.65,2316.62 1557.5,2309C 1546.23,2307.43 1535.23,2304.77 1524.5,2301C 1509.17,2300.67 1493.83,2300.33 1478.5,2300C 1468.57,2298.77 1458.9,2296.43 1449.5,2293C 1434.83,2292.67 1420.17,2292.33 1405.5,2292C 1395.57,2290.77 1385.9,2288.43 1376.5,2285C 1359.13,2284.9 1341.8,2284.23 1324.5,2283C 1312.58,2279.96 1300.58,2277.3 1288.5,2275C 1283.01,2273.39 1277.68,2271.39 1272.5,2269C 1258.55,2266.94 1244.55,2265.28 1230.5,2264C 1180.63,2253.46 1147.79,2223.96 1132,2175.5C 1123.41,2143.41 1126.58,2112.58 1141.5,2083C 1096.73,2071.22 1066.23,2043.72 1050,2000.5C 1025.4,1963.26 1020.73,1923.59 1036,1881.5C 1055.71,1837.07 1089.55,1811.07 1137.5,1803.5 Z"/></g>
<g><path style="opacity:1" fill="#fefffe" d="M 1243.5,2522.5 C 1468.66,2523.76 1693.83,2523.76 1919,2522.5C 1941.37,2522.3 1962.2,2527.8 1981.5,2539C 1996.42,2538.57 2011.09,2540.23 2025.5,2544C 2039.17,2549 2052.83,2554 2066.5,2559C 2079.83,2567 2093.17,2575 2106.5,2583C 2115.54,2591.04 2124.88,2598.71 2134.5,2606C 2153.04,2623.54 2170.54,2642.04 2187,2661.5C 2215.72,2702.14 2220.38,2745.47 2201,2791.5C 2198.67,2795.83 2196.33,2800.17 2194,2804.5C 2185.42,2815.99 2177.09,2827.66 2169,2839.5C 2149.18,2861.5 2124.68,2875.33 2095.5,2881C 2080.49,2882.15 2065.49,2883.48 2050.5,2885C 2036.58,2893.79 2021.58,2900.12 2005.5,2904C 1987.22,2906.15 1968.89,2907.81 1950.5,2909C 1939.98,2911.96 1929.31,2914.3 1918.5,2916C 1722.16,2916.47 1525.82,2916.47 1329.5,2916C 1312.05,2916.84 1295.05,2914.51 1278.5,2909C 1262.5,2908.67 1246.5,2908.33 1230.5,2908C 1218.75,2906.56 1207.42,2903.56 1196.5,2899C 1173.26,2896.7 1150.59,2891.7 1128.5,2884C 1083.99,2864.51 1058.16,2830.68 1051,2782.5C 1049.33,2765.52 1050.83,2748.85 1055.5,2732.5C 1032.06,2693.34 1029.23,2652.67 1047,2610.5C 1061.42,2581.41 1083.59,2560.58 1113.5,2548C 1127.74,2543.05 1142.07,2538.38 1156.5,2534C 1160.47,2533.15 1164.47,2532.48 1168.5,2532C 1183.84,2531.49 1199.17,2530.82 1214.5,2530C 1224.1,2526.69 1233.76,2524.19 1243.5,2522.5 Z"/></g>
</svg>
