<?xml version="1.0" encoding="UTF-8"?>
<!DOCTYPE svg PUBLIC "-//W3C//DTD SVG 1.1//EN" "http://www.w3.org/Graphics/SVG/1.1/DTD/svg11.dtd">
<svg xmlns="http://www.w3.org/2000/svg" version="1.1" width="224px" height="224px" style="shape-rendering:geometricPrecision; text-rendering:geometricPrecision; image-rendering:optimizeQuality; fill-rule:evenodd; clip-rule:evenodd" xmlns:xlink="http://www.w3.org/1999/xlink">
<g><path style="opacity:1" fill="#fefefe" d="M -0.5,-0.5 C 74.1667,-0.5 148.833,-0.5 223.5,-0.5C 223.5,74.1667 223.5,148.833 223.5,223.5C 148.833,223.5 74.1667,223.5 -0.5,223.5C -0.5,148.833 -0.5,74.1667 -0.5,-0.5 Z"/></g>
<g><path style="opacity:1" fill="#98d3f8" d="M 101.5,22.5 C 104.962,21.5184 108.629,21.185 112.5,21.5C 112.825,29.3516 112.492,37.0182 111.5,44.5C 111.5,37.1667 111.5,29.8333 111.5,22.5C 108.167,22.5 104.833,22.5 101.5,22.5 Z"/></g>
<g><path style="opacity:1" fill="#23a2f2" d="M 101.5,22.5 C 104.833,22.5 108.167,22.5 111.5,22.5C 111.5,29.8333 111.5,37.1667 111.5,44.5C 76.2906,46.8783 54.1239,65.2117 45,99.5C 41.6213,131.576 53.7879,155.743 81.5,172C 114.902,185.108 143.069,177.941 166,150.5C 174.329,138.857 178.495,125.857 178.5,111.5C 185.833,111.5 193.167,111.5 200.5,111.5C 197.781,159.729 172.781,189.229 125.5,200C 76.9274,204.043 43.7607,183.543 26,138.5C 15.1524,95.0291 27.9858,60.5291 64.5,35C 75.9415,28.1307 88.2748,23.964 101.5,22.5 Z"/></g>
</svg>
