<?xml version="1.0" encoding="UTF-8"?>
<!DOCTYPE svg PUBLIC "-//W3C//DTD SVG 1.1//EN" "http://www.w3.org/Graphics/SVG/1.1/DTD/svg11.dtd">
<svg xmlns="http://www.w3.org/2000/svg" version="1.1" width="4096px" height="4096px" style="shape-rendering:geometricPrecision; text-rendering:geometricPrecision; image-rendering:optimizeQuality; fill-rule:evenodd; clip-rule:evenodd" xmlns:xlink="http://www.w3.org/1999/xlink">
<g><path style="opacity:1" fill="#fefffe" d="M 774.5,361.5 C 795.671,361.833 816.838,361.833 838,361.5C 855.826,361.799 872.993,365.299 889.5,372C 904.488,372.214 919.488,372.881 934.5,374C 947.836,376.224 960.67,380.057 973,385.5C 1467.82,384.253 1962.66,384.253 2457.5,385.5C 2466.15,384.789 2474.82,384.289 2483.5,384C 2502.39,379.764 2521.39,376.097 2540.5,373C 2557.18,372.797 2573.85,373.297 2590.5,374.5C 2608.16,373.055 2625.83,372.722 2643.5,373.5C 2674.85,361.442 2707.19,358.109 2740.5,363.5C 2839.5,362.167 2938.5,362.167 3037.5,363.5C 3064.5,360.833 3091.5,360.833 3118.5,363.5C 3186.34,363.009 3254.17,362.676 3322,362.5C 3381.47,365.345 3422.81,394.012 3446,448.5C 3464.38,507.138 3450.88,556.972 3405.5,598C 3398.94,602.893 3392.1,607.393 3385,611.5C 3386.85,622.536 3388.02,633.702 3388.5,645C 3388.5,663 3388.5,681 3388.5,699C 3388.24,717.615 3384.41,735.449 3377,752.5C 3374.68,775.795 3367.01,797.128 3354,816.5C 3352.95,827.772 3350.61,838.772 3347,849.5C 3343.28,869.179 3342.44,889.012 3344.5,909C 3344.32,929.2 3339.82,948.367 3331,966.5C 3329.2,989.248 3322.2,1010.25 3310,1029.5C 3308.08,1047.58 3302.75,1064.58 3294,1080.5C 3292.6,1088.78 3290.26,1096.78 3287,1104.5C 3285.41,1124.88 3280.07,1144.21 3271,1162.5C 3268.02,1180.07 3264.02,1197.41 3259,1214.5C 3245.35,1245.44 3233.69,1277.11 3224,1309.5C 3216.92,1323.33 3209.59,1336.99 3202,1350.5C 3200.1,1372.21 3193.76,1392.54 3183,1411.5C 3180.03,1422.7 3177.7,1434.04 3176,1445.5C 3174.27,1453.03 3171.93,1460.36 3169,1467.5C 3167.93,1485.21 3163.93,1502.21 3157,1518.5C 3155.52,1533.09 3151.85,1547.09 3146,1560.5C 3143.35,1574.45 3141.01,1588.45 3139,1602.5C 3134.93,1616.37 3130.27,1630.03 3125,1643.5C 3122.42,1664.48 3118.26,1685.15 3112.5,1705.5C 3114.71,1727.29 3111.54,1748.29 3103,1768.5C 3101.98,1783.83 3100.98,1799.16 3100,1814.5C 3097.54,1827.04 3094.37,1839.38 3090.5,1851.5C 3090.66,2104.79 3090.82,2358.12 3091,2611.5C 3099.99,2637.2 3103.82,2663.7 3102.5,2691C 3102.05,2714.85 3101.88,2738.68 3102,2762.5C 3104.45,2772.19 3107.12,2781.86 3110,2791.5C 3111.92,2801.08 3113.26,2810.75 3114,2820.5C 3122.85,2842.36 3126.19,2865.03 3124,2888.5C 3131.41,2905.55 3135.24,2923.38 3135.5,2942C 3134.63,2967.83 3134.46,2993.66 3135,3019.5C 3138.61,3031.34 3141.61,3043.34 3144,3055.5C 3144.8,3061.98 3145.3,3068.48 3145.5,3075C 3145.26,3087.52 3144.92,3100.02 3144.5,3112.5C 3155.75,3136.99 3159.92,3162.66 3157,3189.5C 3159.34,3202.9 3162.01,3216.23 3165,3229.5C 3166.21,3245 3167.37,3260.5 3168.5,3276C 3168.31,3307 3167.97,3338 3167.5,3369C 3175.08,3386.89 3179.08,3405.55 3179.5,3425C 3178.5,3525.32 3178.5,3625.66 3179.5,3726C 3178.39,3784.93 3151.39,3826.93 3098.5,3852C 3062.54,3866.51 3026.87,3865.84 2991.5,3850C 2965.8,3846.55 2942.8,3836.88 2922.5,3821C 2910.87,3811.04 2899.53,3800.7 2888.5,3790C 2884.55,3787.72 2880.89,3785.05 2877.5,3782C 2850.68,3774.52 2827.52,3761.02 2808,3741.5C 2801.21,3733.04 2794.04,3724.87 2786.5,3717C 2775.99,3709.91 2764.99,3703.58 2753.5,3698C 2732.89,3683.72 2716.89,3665.38 2705.5,3643C 2697.22,3639.53 2689.22,3635.53 2681.5,3631C 2670.17,3622.33 2658.83,3613.67 2647.5,3605C 2642.17,3599 2636.83,3593 2631.5,3587C 2624.71,3581.88 2618.21,3576.38 2612,3570.5C 2603.29,3560.79 2594.96,3550.79 2587,3540.5C 2583.16,3534.82 2579.83,3528.82 2577,3522.5C 2569.69,3514.86 2562.02,3507.52 2554,3500.5C 2545.17,3489 2536.33,3477.5 2527.5,3466C 2517.04,3460.94 2506.71,3455.6 2496.5,3450C 2487.45,3442.62 2478.12,3435.62 2468.5,3429C 2462.5,3424.33 2457.17,3419 2452.5,3413C 2422.64,3402.41 2399.31,3383.75 2382.5,3357C 2364.45,3345.95 2350.12,3331.29 2339.5,3313C 2322.2,3302.93 2307.7,3289.76 2296,3273.5C 2291.25,3265 2286.25,3256.67 2281,3248.5C 2264.08,3231.58 2249.41,3212.91 2237,3192.5C 2230.04,3187.21 2223.37,3181.54 2217,3175.5C 2208.67,3165.17 2200.33,3154.83 2192,3144.5C 2189.5,3140.17 2187,3135.83 2184.5,3131.5C 2173.85,3119.35 2162.69,3107.69 2151,3096.5C 2138.91,3080.67 2128.58,3063.67 2120,3045.5C 2114.92,3039.58 2110.42,3033.25 2106.5,3026.5C 2099.69,3021.52 2093.02,3016.36 2086.5,3011C 2072.56,2994.61 2058.06,2978.78 2043,2963.5C 2035.83,2957.67 2028.67,2951.83 2021.5,2946C 2005.47,2930.3 1989.8,2914.3 1974.5,2898C 1960.32,2891.15 1947.82,2881.98 1937,2870.5C 1928.95,2860.78 1921.28,2850.78 1914,2840.5C 1909.83,2834.15 1906.16,2827.49 1903,2820.5C 1897.08,2816.12 1891.24,2811.62 1885.5,2807C 1870.87,2791.37 1857.37,2774.87 1845,2757.5C 1833.22,2736.73 1826.89,2714.4 1826,2690.5C 1822.17,2685.5 1818.83,2680.17 1816,2674.5C 1803.5,2663.83 1793,2651.5 1784.5,2637.5C 1777.2,2645.43 1770.37,2653.76 1764,2662.5C 1756.64,2668.88 1750.97,2676.55 1747,2685.5C 1740.35,2694.15 1733.01,2702.15 1725,2709.5C 1721.16,2716.51 1716.83,2723.17 1712,2729.5C 1702.4,2739.05 1692.9,2748.72 1683.5,2758.5C 1674.97,2772.86 1665.47,2786.52 1655,2799.5C 1645.39,2826.42 1629.22,2848.42 1606.5,2865.5C 1599.56,2874.61 1592.06,2883.28 1584,2891.5C 1581.67,2895.5 1579.33,2899.5 1577,2903.5C 1566.95,2915.21 1557.29,2927.21 1548,2939.5C 1540.75,2946.75 1532.92,2953.25 1524.5,2959C 1511.58,2975.59 1495.91,2988.92 1477.5,2999C 1461.76,3013.28 1445.93,3027.45 1430,3041.5C 1423.08,3055.01 1416.41,3068.68 1410,3082.5C 1405.49,3089.52 1400.49,3096.19 1395,3102.5C 1390.72,3113.72 1385.39,3124.39 1379,3134.5C 1366.24,3150.35 1353.24,3166.02 1340,3181.5C 1327.41,3202.34 1315.08,3223.34 1303,3244.5C 1294.37,3256.79 1284.04,3267.46 1272,3276.5C 1265.75,3288.01 1258.75,3299.01 1251,3309.5C 1240.86,3321.31 1229.19,3331.31 1216,3339.5C 1203.09,3357.08 1189.43,3374.08 1175,3390.5C 1167.75,3397.75 1159.92,3404.25 1151.5,3410C 1148.38,3414.79 1144.88,3419.29 1141,3423.5C 1128.67,3435.5 1116.33,3447.5 1104,3459.5C 1102.04,3462.46 1099.71,3465.13 1097,3467.5C 1085.11,3493.13 1066.95,3512.96 1042.5,3527C 1035.38,3537.12 1027.88,3546.95 1020,3556.5C 1007.11,3567.97 994.444,3579.64 982,3591.5C 980,3594.17 978,3596.83 976,3599.5C 969.525,3613.12 962.525,3626.45 955,3639.5C 948.013,3648.49 940.347,3656.82 932,3664.5C 928.001,3673.17 923.001,3681.17 917,3688.5C 906.667,3700.17 896.333,3711.83 886,3723.5C 882.001,3732.17 877.001,3740.17 871,3747.5C 866.272,3761.62 859.938,3774.96 852,3787.5C 840.177,3801.66 828.01,3815.49 815.5,3829C 774.462,3863.54 728.129,3872.87 676.5,3857C 616.423,3835.41 584.589,3792.58 581,3728.5C 578.864,3722.29 577.198,3715.96 576,3709.5C 560.627,3689.07 551.627,3666.07 549,3640.5C 543.033,3624 539.366,3607 538,3589.5C 533.422,3577.86 530.089,3565.86 528,3553.5C 519.471,3532.91 511.138,3512.25 503,3491.5C 495.004,3457.88 492.504,3423.88 495.5,3389.5C 494.824,3382.51 494.324,3375.51 494,3368.5C 491.373,3360.66 489.373,3352.66 488,3344.5C 486.237,3329.69 484.737,3314.86 483.5,3300C 483.641,3160.51 483.975,3021.01 484.5,2881.5C 481.833,2854.5 481.833,2827.5 484.5,2800.5C 484.5,2782.5 484.5,2764.5 484.5,2746.5C 483.698,2733.01 483.031,2719.51 482.5,2706C 483.699,2683.48 484.365,2660.98 484.5,2638.5C 483.698,2625.01 483.031,2611.51 482.5,2598C 483.699,2575.48 484.365,2552.98 484.5,2530.5C 481.833,2503.5 481.833,2476.5 484.5,2449.5C 483.698,2436.01 483.031,2422.51 482.5,2409C 482.756,2390.38 486.59,2372.55 494,2355.5C 494.694,2352.53 495.194,2349.53 495.5,2346.5C 494.975,2306.01 494.641,2265.51 494.5,2225C 494.702,2218.48 495.202,2211.98 496,2205.5C 498.892,2189.2 502.392,2173.03 506.5,2157C 505.899,2138.81 506.733,2120.65 509,2102.5C 510.551,2093.3 512.885,2084.3 516,2075.5C 516.584,2026.47 517.084,1977.47 517.5,1928.5C 515.715,1908.5 515.549,1888.5 517,1868.5C 518.756,1857.48 521.756,1846.81 526,1836.5C 526.733,1830.17 527.399,1823.84 528,1817.5C 533.815,1796.76 538.481,1775.76 542,1754.5C 543.398,1747.97 545.398,1741.64 548,1735.5C 549.607,1719.86 550.94,1704.19 552,1688.5C 553.783,1676.7 557.116,1665.37 562,1654.5C 563.457,1637.88 566.457,1621.55 571,1605.5C 567.826,1576.57 571.492,1548.57 582,1521.5C 582.547,1517.84 583.047,1514.17 583.5,1510.5C 582.974,1488.01 582.641,1465.51 582.5,1443C 582.799,1425.17 586.299,1408.01 593,1391.5C 593.547,1387.84 594.047,1384.17 594.5,1380.5C 593.975,1106.01 593.641,831.509 593.5,557C 595.316,535.898 598.816,515.065 604,494.5C 610.828,472.703 622.161,453.703 638,437.5C 658.868,396.622 692.035,372.122 737.5,364C 749.983,363.079 762.316,362.246 774.5,361.5 Z M 2736.5,626.5 C 2863.8,626.842 2991.13,626.842 3118.5,626.5C 3122.53,625.836 3124.53,627.503 3124.5,631.5C 3123.34,640.522 3123.17,649.522 3124,658.5C 3117.35,672.779 3113.35,687.779 3112,703.5C 3107.94,713.285 3103.61,722.952 3099,732.5C 3092.52,750.936 3089.52,769.936 3090,789.5C 3086.08,804.651 3083.08,819.984 3081,835.5C 3079.93,852.16 3078.93,868.827 3078,885.5C 3074.88,894.295 3072.55,903.295 3071,912.5C 3055.2,934.566 3046.53,959.233 3045,986.5C 3041.55,996.629 3038.88,1006.96 3037,1017.5C 3029.55,1032.64 3025.21,1048.64 3024,1065.5C 3022.14,1070.09 3020.47,1074.76 3019,1079.5C 3015.13,1096.12 3011.46,1112.79 3008,1129.5C 2997.02,1153.78 2988.02,1178.78 2981,1204.5C 2969.76,1225.31 2958.76,1246.31 2948,1267.5C 2942.47,1280.97 2939.13,1294.97 2938,1309.5C 2934.78,1315.94 2932.11,1322.61 2930,1329.5C 2927.11,1343.19 2924.11,1356.86 2921,1370.5C 2910.99,1387.87 2904.99,1406.54 2903,1426.5C 2897.15,1439.91 2893.48,1453.91 2892,1468.5C 2882.16,1491.55 2878.49,1515.55 2881,1540.5C 2863.88,1566.48 2856.71,1594.98 2859.5,1626C 2853.34,1648.79 2849.51,1671.96 2848,1695.5C 2844.88,1704.3 2842.55,1713.3 2841,1722.5C 2839.83,1738.51 2838.5,1754.51 2837,1770.5C 2834.37,1778.34 2832.37,1786.34 2831,1794.5C 2829.96,1805.87 2828.63,1817.21 2827,1828.5C 2826.31,2070.18 2826.47,2311.84 2827.5,2553.5C 2826.7,2566.99 2826.03,2580.49 2825.5,2594C 2826.49,2615.17 2826.65,2636.33 2826,2657.5C 2827.43,2674.39 2831.6,2690.56 2838.5,2706C 2837.42,2731.15 2837.26,2756.31 2838,2781.5C 2839.66,2793.12 2841,2804.79 2842,2816.5C 2843.2,2823.61 2844.86,2830.61 2847,2837.5C 2846.38,2859.73 2850.38,2881.06 2859,2901.5C 2855.91,2930.14 2860.08,2957.64 2871.5,2984C 2867.29,3019.73 2870.12,3054.9 2880,3089.5C 2880.29,3098.18 2880.79,3106.85 2881.5,3115.5C 2880.97,3129.01 2880.64,3142.51 2880.5,3156C 2880.76,3174.62 2884.59,3192.45 2892,3209.5C 2895.81,3229.14 2899.48,3248.81 2903,3268.5C 2903.32,3275.51 2903.82,3282.51 2904.5,3289.5C 2903.97,3321.01 2903.64,3352.51 2903.5,3384C 2904.08,3395.5 2904.58,3407 2905,3418.5C 2905.35,3425.26 2906.35,3431.93 2908,3438.5C 2910.04,3445.93 2912.04,3453.26 2914,3460.5C 2902.76,3450.79 2890.26,3442.96 2876.5,3437C 2861.89,3421.36 2844.56,3409.69 2824.5,3402C 2818.13,3395.96 2811.46,3390.29 2804.5,3385C 2798.79,3376.41 2792.96,3367.91 2787,3359.5C 2775,3347.5 2763,3335.5 2751,3323.5C 2724.34,3282.18 2688.84,3250.68 2644.5,3229C 2636.31,3219.15 2627.81,3209.65 2619,3200.5C 2604.39,3185.4 2587.22,3174.07 2567.5,3166.5C 2563.81,3161.98 2559.65,3157.98 2555,3154.5C 2542.68,3136.17 2528.18,3119.67 2511.5,3105C 2504.73,3100.53 2498.23,3095.7 2492,3090.5C 2484.43,3079.26 2475.77,3068.93 2466,3059.5C 2462.67,3054.17 2459.33,3048.83 2456,3043.5C 2447.94,3034.37 2440.6,3024.71 2434,3014.5C 2428.67,3007.83 2422.67,3001.83 2416,2996.5C 2403.77,2967.11 2383.94,2944.44 2356.5,2928.5C 2348.57,2910.1 2338.07,2893.43 2325,2878.5C 2317.16,2863.47 2307.82,2849.47 2297,2836.5C 2286.58,2825.74 2274.75,2816.91 2261.5,2810C 2257.67,2804.83 2253.17,2800.33 2248,2796.5C 2235.4,2773.89 2217.56,2756.73 2194.5,2745C 2182.67,2733.17 2170.83,2721.33 2159,2709.5C 2150.44,2698.14 2140.27,2688.47 2128.5,2680.5C 2119.72,2665.87 2109.22,2652.54 2097,2640.5C 2092.55,2625.93 2086.22,2612.27 2078,2599.5C 2071.45,2576.38 2059.78,2556.38 2043,2539.5C 2034.07,2520.25 2021.74,2503.58 2006,2489.5C 2002.12,2481.63 1997.46,2474.3 1992,2467.5C 1984.86,2459.87 1978.19,2451.87 1972,2443.5C 1967.52,2438.93 1962.86,2434.6 1958,2430.5C 1944.45,2410.08 1929.45,2390.75 1913,2372.5C 1886.46,2345.4 1854.12,2331.4 1816,2330.5C 1800.48,2331.01 1784.98,2331.85 1769.5,2333C 1732.21,2339.63 1702.21,2357.97 1679.5,2388C 1660.06,2397.22 1641.06,2407.22 1622.5,2418C 1600.93,2432.57 1584.77,2451.74 1574,2475.5C 1554.28,2489.55 1539.28,2507.55 1529,2529.5C 1519.86,2539.11 1512.2,2549.77 1506,2561.5C 1495.64,2570.86 1485.64,2580.52 1476,2590.5C 1467.41,2602.01 1460.07,2614.34 1454,2627.5C 1440.06,2639.77 1428.73,2654.11 1420,2670.5C 1406.19,2682.44 1395.52,2696.77 1388,2713.5C 1377.78,2724.95 1368.78,2737.28 1361,2750.5C 1347.93,2759.57 1336.09,2770.07 1325.5,2782C 1322.17,2784.33 1318.83,2786.67 1315.5,2789C 1290.78,2811.72 1265.45,2833.72 1239.5,2855C 1230.29,2865.17 1220.79,2875.01 1211,2884.5C 1198.6,2900.63 1189.94,2918.63 1185,2938.5C 1168.1,2955.44 1156.1,2975.44 1149,2998.5C 1141.67,3007.17 1134.33,3015.83 1127,3024.5C 1116.5,3040.16 1106.5,3056.16 1097,3072.5C 1078.21,3086.46 1064.04,3104.13 1054.5,3125.5C 1046.23,3131.6 1038.39,3138.27 1031,3145.5C 1019.44,3162.11 1007.27,3178.28 994.5,3194C 968.556,3207.28 949.389,3227.11 937,3253.5C 921.029,3268.47 905.362,3283.8 890,3299.5C 885.713,3304.58 881.547,3309.74 877.5,3315C 870.707,3320.12 864.207,3325.62 858,3331.5C 846.422,3346.99 835.088,3362.66 824,3378.5C 811.667,3389.83 799.333,3401.17 787,3412.5C 781.167,3419.67 775.333,3426.83 769.5,3434C 763.239,3429.97 759.572,3423.97 758.5,3416C 759.043,3393.68 759.376,3371.35 759.5,3349C 759.201,3331.17 755.701,3314.01 749,3297.5C 748.453,3293.84 747.953,3290.17 747.5,3286.5C 748.814,3007.68 748.814,2728.68 747.5,2449.5C 747.922,2440.4 750.089,2431.73 754,2423.5C 757.574,2411.26 759.408,2398.76 759.5,2386C 759.359,2337.17 759.025,2288.34 758.5,2239.5C 761.682,2223.76 765.182,2208.09 769,2192.5C 770.527,2180.84 770.86,2169.17 770,2157.5C 776.174,2143.47 779.841,2128.8 781,2113.5C 781.687,2051.78 781.521,1990.11 780.5,1928.5C 781.155,1922.18 781.655,1915.85 782,1909.5C 788.411,1891.39 791.411,1872.73 791,1853.5C 794.483,1843.09 796.816,1832.42 798,1821.5C 804.339,1808.48 808.673,1794.81 811,1780.5C 812,1765.17 813,1749.83 814,1734.5C 820.867,1717.17 824.533,1699.17 825,1680.5C 832.021,1651.26 836.021,1621.59 837,1591.5C 839.138,1584.61 840.805,1577.61 842,1570.5C 843.408,1558.13 845.075,1545.79 847,1533.5C 846.833,1516.83 846.667,1500.17 846.5,1483.5C 847.11,1478.18 847.61,1472.84 848,1467.5C 854.614,1446.71 857.948,1425.37 858,1403.5C 858.29,1147.17 858.456,890.833 858.5,634.5C 864.166,635.266 869.832,636.099 875.5,637C 893.093,645.119 911.593,649.286 931,649.5C 1444.33,648.249 1957.66,648.249 2471,649.5C 2486.52,648.987 2502.02,648.154 2517.5,647C 2532.35,643.129 2547.35,639.963 2562.5,637.5C 2576.34,638.06 2590.17,638.393 2604,638.5C 2633.81,637.349 2663.65,636.515 2693.5,636C 2708.34,634.536 2722.67,631.37 2736.5,626.5 Z"/></g>
</svg>
