<?xml version="1.0" encoding="UTF-8"?>
<!DOCTYPE svg PUBLIC "-//W3C//DTD SVG 1.1//EN" "http://www.w3.org/Graphics/SVG/1.1/DTD/svg11.dtd">
<svg xmlns="http://www.w3.org/2000/svg" version="1.1" width="4096px" height="4096px" style="shape-rendering:geometricPrecision; text-rendering:geometricPrecision; image-rendering:optimizeQuality; fill-rule:evenodd; clip-rule:evenodd" xmlns:xlink="http://www.w3.org/1999/xlink">
<g><path style="opacity:1" fill="#fefffe" d="M 606.5,699.5 C 616.172,699.334 625.839,699.5 635.5,700C 643.813,701.495 652.147,702.829 660.5,704C 855.5,704.333 1050.5,704.667 1245.5,705C 1257.83,706.667 1270.17,708.333 1282.5,710C 1922.85,710.481 2563.19,710.314 3203.5,709.5C 3263.5,710.216 3323.5,710.716 3383.5,711C 3431.68,718.16 3465.51,743.994 3485,788.5C 3491.43,806.11 3496.43,824.11 3500,842.5C 3500.55,855.665 3501.05,868.831 3501.5,882C 3500.58,900.162 3500.41,918.328 3501,936.5C 3510.15,963.095 3515.48,990.428 3517,1018.5C 3517.33,1218.17 3517.67,1417.83 3518,1617.5C 3519.67,1629.83 3521.33,1642.17 3523,1654.5C 3523.05,1673.17 3523.05,1691.83 3523,1710.5C 3524.85,1717.06 3526.18,1723.73 3527,1730.5C 3528.21,1783.49 3528.88,1836.49 3529,1889.5C 3534.07,1900.37 3537.73,1911.7 3540,1923.5C 3541.03,1934.27 3542.69,1944.94 3545,1955.5C 3545.33,1965.5 3545.67,1975.5 3546,1985.5C 3549.83,2000.92 3551.5,2016.58 3551,2032.5C 3554.58,2043.89 3556.58,2055.56 3557,2067.5C 3560.48,2076.6 3563.15,2085.94 3565,2095.5C 3567.24,2127.36 3572.57,2158.69 3581,2189.5C 3582.28,2196.12 3583.28,2202.79 3584,2209.5C 3593.72,2232.83 3598.05,2257.17 3597,2282.5C 3599.72,2302.1 3603.72,2321.43 3609,2340.5C 3609.81,2345.81 3610.48,2351.15 3611,2356.5C 3615.54,2366.78 3618.87,2377.45 3621,2388.5C 3625.8,2435.49 3630.46,2482.49 3635,2529.5C 3637.17,2538.37 3638.51,2547.37 3639,2556.5C 3642.46,2564.23 3645.13,2572.23 3647,2580.5C 3648.45,2590.54 3650.12,2600.54 3652,2610.5C 3653.05,2624.16 3654.05,2637.83 3655,2651.5C 3657.27,2673.58 3660.27,2695.58 3664,2717.5C 3664.24,2728.86 3664.91,2740.2 3666,2751.5C 3670.54,2761.78 3673.87,2772.45 3676,2783.5C 3678.32,2800.1 3679.99,2816.76 3681,2833.5C 3683,2844.17 3685,2854.83 3687,2865.5C 3687.78,2883.83 3688.44,2902.16 3689,2920.5C 3694,2943.51 3699,2966.51 3704,2989.5C 3704.67,3024.5 3704.67,3059.5 3704,3094.5C 3701.95,3110.32 3697.28,3125.32 3690,3139.5C 3684.11,3148.82 3678.78,3158.49 3674,3168.5C 3663.5,3184.33 3650.33,3197.5 3634.5,3208C 3622.96,3213.94 3611.29,3219.61 3599.5,3225C 3583.91,3231.98 3567.57,3235.98 3550.5,3237C 3536.22,3242.15 3521.88,3247.15 3507.5,3252C 3492.38,3255.53 3477.04,3257.53 3461.5,3258C 3451.59,3258.82 3441.76,3258.65 3432,3257.5C 3417.18,3261.78 3402.02,3263.61 3386.5,3263C 3240.83,3263.67 3095.17,3263.67 2949.5,3263C 2937.5,3261.33 2925.5,3259.67 2913.5,3258C 2905.23,3256.13 2897.23,3253.46 2889.5,3250C 2851.61,3245.45 2813.61,3242.45 2775.5,3241C 2764.89,3239.26 2754.22,3237.93 2743.5,3237C 2725.47,3232.13 2707.47,3227.13 2689.5,3222C 2671.1,3219.82 2652.76,3217.15 2634.5,3214C 2572.17,3214.53 2509.84,3214.53 2447.5,3214C 2439.2,3212.93 2430.87,3212.26 2422.5,3212C 2417.09,3211.39 2411.76,3210.39 2406.5,3209C 2369.49,3208.57 2332.49,3208.57 2295.5,3209C 2279.46,3205.54 2263.46,3201.87 2247.5,3198C 2157.17,3197.33 2066.83,3197.33 1976.5,3198C 1970.2,3198.94 1963.86,3199.61 1957.5,3200C 1943.78,3206.01 1929.45,3209.68 1914.5,3211C 1897.31,3217.4 1879.97,3223.4 1862.5,3229C 1836.17,3234 1809.84,3239 1783.5,3244C 1763.09,3249.47 1743.09,3256.14 1723.5,3264C 1713.67,3265.17 1704.67,3268.5 1696.5,3274C 1679.77,3280.85 1662.44,3285.52 1644.5,3288C 1613.17,3301.33 1581.83,3314.67 1550.5,3328C 1534.5,3336.67 1518.5,3345.33 1502.5,3354C 1495.95,3356.4 1489.29,3358.4 1482.5,3360C 1457.1,3363.47 1432.1,3368.8 1407.5,3376C 1375.78,3386.51 1344.12,3397.18 1312.5,3408C 1296.01,3416.08 1279.68,3424.41 1263.5,3433C 1253.15,3436.92 1242.48,3439.59 1231.5,3441C 1206.68,3454.7 1180.18,3459.53 1152,3455.5C 1137.85,3457.45 1123.68,3459.28 1109.5,3461C 998.167,3461.67 886.833,3461.67 775.5,3461C 756.194,3457.96 737.194,3453.62 718.5,3448C 699.5,3439 680.5,3430 661.5,3421C 635.248,3406.42 616.414,3385.25 605,3357.5C 600.16,3341.3 595.827,3324.97 592,3308.5C 590.823,3296.2 590.157,3283.87 590,3271.5C 588.154,3264.94 586.82,3258.27 586,3251.5C 584.68,2821.17 584.014,2390.84 584,1960.5C 582.283,1936.76 578.283,1913.43 572,1890.5C 570.551,1880.46 568.885,1870.46 567,1860.5C 566.016,1846.47 564.682,1832.47 563,1818.5C 555.539,1782.19 548.205,1745.86 541,1709.5C 537.814,1677.49 534.481,1645.49 531,1613.5C 529.364,1601.1 527.364,1588.77 525,1576.5C 524.667,1563.5 524.333,1550.5 524,1537.5C 518.344,1512.25 514.51,1486.75 512.5,1461C 513.06,1405.5 513.227,1350 513,1294.5C 516.251,1277.65 518.251,1260.65 519,1243.5C 521.504,1219.98 525.171,1196.65 530,1173.5C 534.614,1161.72 538.614,1149.72 542,1137.5C 544.473,1131.22 547.473,1125.22 551,1119.5C 550.59,1104.91 552.257,1090.58 556,1076.5C 554.646,1054.48 557.813,1033.14 565.5,1012.5C 561.675,985.601 558.841,958.601 557,931.5C 510.779,900.906 491.113,857.906 498,802.5C 511.674,744.323 547.841,709.989 606.5,699.5 Z M 827.5,953.5 C 961.5,953.333 1095.5,953.5 1229.5,954C 1242.17,955.667 1254.83,957.333 1267.5,959C 1884.52,959.2 2501.52,959.366 3118.5,959.5C 3118.24,962.016 3117.41,964.35 3116,966.5C 3107.25,977.997 3100.58,990.664 3096,1004.5C 3083.06,1020.04 3074.06,1037.71 3069,1057.5C 3066.86,1063.11 3064.19,1068.45 3061,1073.5C 3039.89,1088.06 3024.23,1107.06 3014,1130.5C 3009.63,1134.53 3005.63,1138.87 3002,1143.5C 2994,1154.83 2986,1166.17 2978,1177.5C 2954.65,1195.53 2939.32,1218.86 2932,1247.5C 2926.16,1257.18 2919.83,1266.51 2913,1275.5C 2905.5,1290.33 2897.16,1304.66 2888,1318.5C 2881.67,1331.17 2875.33,1343.83 2869,1356.5C 2856.67,1375.5 2844.33,1394.5 2832,1413.5C 2829.81,1417.75 2827.81,1422.08 2826,1426.5C 2821.39,1444.65 2815.39,1462.32 2808,1479.5C 2802.85,1485.14 2798.18,1491.14 2794,1497.5C 2787.45,1509.92 2781.45,1522.59 2776,1535.5C 2768.33,1547.17 2760.67,1558.83 2753,1570.5C 2746,1585.5 2739,1600.5 2732,1615.5C 2717.38,1635.46 2704.38,1656.46 2693,1678.5C 2681.56,1692.61 2670.89,1707.27 2661,1722.5C 2655.01,1735.47 2650.01,1748.8 2646,1762.5C 2636.25,1779.66 2626.25,1796.66 2616,1813.5C 2609.74,1825.01 2603.74,1836.68 2598,1848.5C 2595.67,1850.83 2593.33,1853.17 2591,1855.5C 2577.95,1871.55 2565.28,1887.88 2553,1904.5C 2532.67,1934.17 2512.33,1963.83 2492,1993.5C 2474.4,2012.22 2456.24,2030.39 2437.5,2048C 2420.62,2060.62 2404.28,2073.95 2388.5,2088C 2377.1,2095.73 2365.43,2103.06 2353.5,2110C 2349.83,2113 2346.17,2116 2342.5,2119C 2328.53,2126.1 2314.2,2132.44 2299.5,2138C 2292.65,2141.59 2286.31,2145.93 2280.5,2151C 2266.64,2152.8 2253.31,2156.46 2240.5,2162C 2204.17,2162.67 2167.83,2162.67 2131.5,2162C 2117.5,2156.67 2103.5,2151.33 2089.5,2146C 2082.95,2143.6 2076.29,2141.6 2069.5,2140C 2062.83,2136.33 2056.17,2132.67 2049.5,2129C 2036.85,2124.78 2024.51,2119.78 2012.5,2114C 1996.19,2099.84 1977.52,2089.84 1956.5,2084C 1950.76,2077.59 1944.43,2071.93 1937.5,2067C 1927,2060.92 1916.67,2054.58 1906.5,2048C 1899.67,2038.5 1892.83,2029 1886,2019.5C 1879.95,2013.72 1874.62,2007.39 1870,2000.5C 1864.64,1994.8 1858.97,1989.47 1853,1984.5C 1844.19,1969.69 1833.19,1956.69 1820,1945.5C 1814.67,1938.17 1809.33,1930.83 1804,1923.5C 1786.64,1905.8 1768.97,1888.47 1751,1871.5C 1740.75,1857.34 1730.75,1843.01 1721,1828.5C 1704.31,1810.8 1686.15,1794.97 1666.5,1781C 1659.95,1773.45 1653.79,1765.62 1648,1757.5C 1625.94,1734.43 1600.78,1715.6 1572.5,1701C 1559.17,1692 1545.83,1683 1532.5,1674C 1521.62,1666.39 1511.28,1658.05 1501.5,1649C 1491.5,1643 1481.5,1637 1471.5,1631C 1454.33,1617.17 1437.17,1603.33 1420,1589.5C 1416.39,1583.56 1412.39,1577.89 1408,1572.5C 1396.54,1560.55 1384.88,1548.89 1373,1537.5C 1358.1,1515.94 1342.44,1494.94 1326,1474.5C 1309.28,1456.45 1291.95,1439.11 1274,1422.5C 1252.09,1398.26 1232.09,1372.6 1214,1345.5C 1176.17,1298.33 1133.67,1255.83 1086.5,1218C 1069.86,1199.69 1052.19,1182.36 1033.5,1166C 1012.5,1148.33 991.5,1130.67 970.5,1113C 958.111,1103.61 945.445,1094.61 932.5,1086C 907.01,1059.54 881.176,1033.38 855,1007.5C 847.921,998.346 841.587,988.68 836,978.5C 832.667,974.5 829.333,970.5 826,966.5C 826.42,962.212 826.92,957.879 827.5,953.5 Z M 3267.5,1227.5 C 3268.33,1362.33 3268.83,1497.33 3269,1632.5C 3270.72,1646.68 3272.55,1660.85 3274.5,1675C 3273.39,1694.82 3273.22,1714.65 3274,1734.5C 3275.19,1742.93 3276.86,1751.26 3279,1759.5C 3279.33,1810.17 3279.67,1860.83 3280,1911.5C 3279.73,1936.14 3285.06,1959.48 3296,1981.5C 3295.47,1998.08 3297.13,2014.41 3301,2030.5C 3301.16,2042.87 3301.82,2055.2 3303,2067.5C 3305.34,2077.17 3307.67,2086.84 3310,2096.5C 3310.57,2111.66 3313.57,2126.33 3319,2140.5C 3321.49,2170.25 3326.49,2199.59 3334,2228.5C 3332.56,2252.3 3336.89,2274.97 3347,2296.5C 3350.43,2317.49 3353.76,2338.49 3357,2359.5C 3358.02,2364.91 3359.35,2370.25 3361,2375.5C 3359.32,2401.44 3364.65,2425.78 3377,2448.5C 3380.61,2482.1 3383.61,2515.77 3386,2549.5C 3389.37,2569.78 3392.37,2590.11 3395,2610.5C 3397.2,2619.77 3400.2,2628.77 3404,2637.5C 3405.09,2648.8 3405.76,2660.14 3406,2671.5C 3409.73,2693.42 3412.73,2715.42 3415,2737.5C 3415.76,2757.25 3417.43,2776.92 3420,2796.5C 3421.64,2810.08 3425.31,2823.08 3431,2835.5C 3432.74,2846.77 3433.74,2858.1 3434,2869.5C 3435.19,2877.93 3436.86,2886.26 3439,2894.5C 3438.84,2911.5 3438.84,2928.5 3439,2945.5C 3443.69,2965.79 3448.19,2986.12 3452.5,3006.5C 3449.63,3008.91 3446.3,3009.91 3442.5,3009.5C 3422.19,3007.11 3402.19,3008.61 3382.5,3014C 3243.83,3014.67 3105.17,3014.67 2966.5,3014C 2955.03,3008.8 2943.03,3005.47 2930.5,3004C 2897.24,2999.68 2863.91,2996.01 2830.5,2993C 2817.5,2992.67 2804.5,2992.33 2791.5,2992C 2773.5,2987 2755.5,2982 2737.5,2977C 2709.63,2974.38 2681.96,2970.38 2654.5,2965C 2589.17,2965.41 2523.84,2965.41 2458.5,2965C 2447.73,2963.97 2437.06,2962.31 2426.5,2960C 2390.83,2959.67 2355.17,2959.33 2319.5,2959C 2307.22,2955.46 2294.89,2952.13 2282.5,2949C 2275.37,2948 2268.21,2947.5 2261,2947.5C 2162.84,2948.3 2064.67,2948.8 1966.5,2949C 1947.41,2950.16 1928.41,2952.16 1909.5,2955C 1899.45,2956.79 1889.79,2959.79 1880.5,2964C 1864.99,2964.44 1849.99,2967.44 1835.5,2973C 1825.95,2978.3 1815.95,2982.63 1805.5,2986C 1782.3,2990.95 1758.97,2995.28 1735.5,2999C 1716.46,3004.18 1697.46,3009.51 1678.5,3015C 1671.27,3017.08 1664.27,3019.74 1657.5,3023C 1635.63,3025.07 1615.29,3031.74 1596.5,3043C 1579.91,3047.2 1563.57,3052.2 1547.5,3058C 1513.95,3072.61 1480.28,3086.94 1446.5,3101C 1436.3,3106.94 1425.96,3112.6 1415.5,3118C 1392.42,3122.95 1369.42,3128.28 1346.5,3134C 1303,3149.13 1259.33,3163.79 1215.5,3178C 1202.83,3184.33 1190.17,3190.67 1177.5,3197C 1166.11,3198.6 1155.11,3201.6 1144.5,3206C 1127.83,3208 1111.17,3210 1094.5,3212C 1007.5,3212.5 920.501,3212.67 833.5,3212.5C 833.667,2791.5 833.5,2370.5 833,1949.5C 830.877,1910.22 824.877,1871.55 815,1833.5C 813.232,1821.9 812.232,1810.23 812,1798.5C 803.813,1752.75 795.147,1707.09 786,1661.5C 784.529,1648.87 783.529,1636.21 783,1623.5C 780.517,1601.09 777.517,1578.75 774,1556.5C 773.587,1521.55 769.42,1487.05 761.5,1453C 762.213,1406.52 762.38,1360.02 762,1313.5C 763.385,1308.24 764.385,1302.91 765,1297.5C 765.261,1289.13 765.928,1280.8 767,1272.5C 791.437,1290.64 815.603,1309.14 839.5,1328C 846.28,1335.79 853.947,1342.45 862.5,1348C 884.108,1367.61 905.108,1387.94 925.5,1409C 956.194,1433.02 984.361,1459.86 1010,1489.5C 1032.4,1522.28 1056.73,1553.61 1083,1583.5C 1100.33,1600.83 1117.67,1618.17 1135,1635.5C 1150.67,1656.5 1166.33,1677.5 1182,1698.5C 1193.88,1709.89 1205.54,1721.55 1217,1733.5C 1225.33,1746.5 1235.16,1758.33 1246.5,1769C 1253.43,1773.93 1259.76,1779.59 1265.5,1786C 1288.79,1803.62 1311.79,1821.62 1334.5,1840C 1342.5,1844.67 1350.5,1849.33 1358.5,1854C 1370.96,1864.73 1383.96,1874.73 1397.5,1884C 1413.5,1894.67 1429.5,1905.33 1445.5,1916C 1450.34,1918.92 1455.34,1921.59 1460.5,1924C 1467.99,1934.93 1476.65,1944.93 1486.5,1954C 1493.14,1959.63 1499.47,1965.63 1505.5,1972C 1512.83,1977.33 1520.17,1982.67 1527.5,1988C 1538.94,2002.39 1549.78,2017.22 1560,2032.5C 1577.36,2050.2 1595.03,2067.53 1613,2084.5C 1622.13,2098.74 1633.13,2111.41 1646,2122.5C 1650.94,2130.44 1656.28,2138.11 1662,2145.5C 1670.72,2154.22 1679.39,2162.89 1688,2171.5C 1704.56,2196.74 1724.06,2219.57 1746.5,2240C 1757.11,2246.94 1767.44,2254.28 1777.5,2262C 1781.83,2264.33 1786.17,2266.67 1790.5,2269C 1798.57,2277.85 1807.57,2285.52 1817.5,2292C 1829.61,2297.56 1841.28,2303.89 1852.5,2311C 1858.42,2313.53 1864.42,2315.86 1870.5,2318C 1876.61,2323.45 1883.28,2328.11 1890.5,2332C 1908.22,2341.36 1926.55,2349.36 1945.5,2356C 1960.06,2365.19 1975.72,2371.86 1992.5,2376C 2021.44,2387.47 2050.77,2397.8 2080.5,2407C 2087.06,2408.85 2093.73,2410.18 2100.5,2411C 2152.5,2411.67 2204.5,2411.67 2256.5,2411C 2276.88,2411.04 2296.55,2407.38 2315.5,2400C 2331.71,2399.82 2347.38,2396.82 2362.5,2391C 2376.79,2383.86 2390.79,2376.19 2404.5,2368C 2409.5,2364.33 2414.5,2360.67 2419.5,2357C 2424.99,2355.39 2430.32,2353.39 2435.5,2351C 2447.5,2345 2459.5,2339 2471.5,2333C 2493.98,2316.59 2516.98,2300.92 2540.5,2286C 2562.58,2266.58 2585.25,2247.91 2608.5,2230C 2630.33,2206.83 2652.83,2184.33 2676,2162.5C 2689.43,2146.4 2702.1,2129.73 2714,2112.5C 2721.67,2100.5 2729.33,2088.5 2737,2076.5C 2745.33,2064.83 2753.67,2053.17 2762,2041.5C 2777.57,2022.68 2792.91,2003.68 2808,1984.5C 2824.45,1951.59 2842.45,1919.59 2862,1888.5C 2866.1,1878.54 2870.76,1868.87 2876,1859.5C 2878.73,1853.32 2881.06,1846.99 2883,1840.5C 2890.61,1829.22 2898.61,1818.22 2907,1807.5C 2918.32,1784.53 2931.65,1762.86 2947,1742.5C 2955.33,1725.17 2963.67,1707.83 2972,1690.5C 2980.75,1678.68 2988.75,1666.34 2996,1653.5C 3001.08,1645.34 3005.08,1636.68 3008,1627.5C 3014.65,1620.2 3020.32,1612.2 3025,1603.5C 3030.14,1591.23 3035.8,1579.23 3042,1567.5C 3046.67,1554.16 3051.34,1540.82 3056,1527.5C 3068.59,1508.67 3080.42,1489.33 3091.5,1469.5C 3113.6,1461.7 3132.43,1449.03 3148,1431.5C 3154.91,1421.26 3162.57,1411.59 3171,1402.5C 3177.91,1392.67 3183.25,1382 3187,1370.5C 3200.82,1354.86 3210.49,1336.86 3216,1316.5C 3228.47,1298.57 3239.14,1279.57 3248,1259.5C 3256.38,1249.96 3262.88,1239.29 3267.5,1227.5 Z"/></g>
</svg>
