<?xml version="1.0" encoding="UTF-8"?>
<!DOCTYPE svg PUBLIC "-//W3C//DTD SVG 1.1//EN" "http://www.w3.org/Graphics/SVG/1.1/DTD/svg11.dtd">
<svg xmlns="http://www.w3.org/2000/svg" version="1.1" width="4096px" height="4096px" style="shape-rendering:geometricPrecision; text-rendering:geometricPrecision; image-rendering:optimizeQuality; fill-rule:evenodd; clip-rule:evenodd" xmlns:xlink="http://www.w3.org/1999/xlink">
<g><path style="opacity:1" fill="#fefffe" d="M 1555.5,401.5 C 1636.67,402.785 1717.83,402.785 1799,401.5C 1812.5,401.962 1826,402.462 1839.5,403C 1851.8,405.492 1864.13,407.825 1876.5,410C 1914.83,410.056 1953.17,410.056 1991.5,410C 2006.26,412.918 2020.92,416.252 2035.5,420C 2040.24,421.47 2044.91,423.136 2049.5,425C 2071.55,425.074 2093.55,426.074 2115.5,428C 2160.99,434.44 2206.66,439.273 2252.5,442.5C 2265.83,441.586 2279.16,441.42 2292.5,442C 2322.04,444.964 2351.37,449.298 2380.5,455C 2396.79,459.823 2413.13,464.49 2429.5,469C 2478.53,473.539 2527.19,480.539 2575.5,490C 2606.84,489.96 2638.17,489.626 2669.5,489C 2693.62,489.624 2716.62,494.957 2738.5,505C 2757.21,505.246 2775.88,506.246 2794.5,508C 2802.33,508.9 2810,510.567 2817.5,513C 2849.91,512.302 2881.91,515.468 2913.5,522.5C 2924.15,521.403 2934.81,521.236 2945.5,522C 2974.18,526.949 3002.85,531.949 3031.5,537C 3038.29,538.595 3044.95,540.595 3051.5,543C 3059.27,546.885 3067.27,550.219 3075.5,553C 3096.17,557.333 3116.83,561.667 3137.5,566C 3149.28,570.614 3161.28,574.614 3173.5,578C 3191.75,586.86 3210.08,595.526 3228.5,604C 3249.89,610.129 3271.22,616.463 3292.5,623C 3297.45,624.806 3302.11,627.139 3306.5,630C 3319.93,634.359 3333.27,639.025 3346.5,644C 3354.67,647.913 3362.33,652.58 3369.5,658C 3378.2,666.371 3387.2,674.371 3396.5,682C 3409.88,688.575 3423.55,694.575 3437.5,700C 3445.18,704.506 3452.51,709.506 3459.5,715C 3469.67,725.833 3479.83,736.667 3490,747.5C 3494.39,752.889 3498.39,758.556 3502,764.5C 3515.67,776.833 3528.67,789.833 3541,803.5C 3558.39,827.222 3575.39,851.222 3592,875.5C 3599.67,889.167 3607.33,902.833 3615,916.5C 3621.25,934.984 3628.58,952.984 3637,970.5C 3638.82,976.286 3640.82,981.953 3643,987.5C 3697.17,980.213 3739.84,998.879 3771,1043.5C 3777.33,1056.17 3783.67,1068.83 3790,1081.5C 3798.33,1095.17 3806.67,1108.83 3815,1122.5C 3821.98,1138.09 3825.98,1154.43 3827,1171.5C 3829.73,1177.68 3832.06,1184.01 3834,1190.5C 3837.74,1202.39 3841.07,1214.39 3844,1226.5C 3849.14,1236.46 3853.48,1246.79 3857,1257.5C 3859.59,1269.94 3862.59,1282.27 3866,1294.5C 3867,1305.17 3868,1315.83 3869,1326.5C 3869.19,1539.82 3869.19,1753.15 3869,1966.5C 3867.58,1981.64 3865.25,1996.64 3862,2011.5C 3861.44,2029.84 3860.78,2048.17 3860,2066.5C 3858.3,2077.31 3855.96,2087.98 3853,2098.5C 3852.09,2113.17 3851.09,2127.84 3850,2142.5C 3849.18,2149.27 3847.85,2155.94 3846,2162.5C 3845.67,2223.17 3845.33,2283.83 3845,2344.5C 3844.47,2373.31 3836.8,2399.98 3822,2424.5C 3820.28,2453.51 3814.95,2481.85 3806,2509.5C 3801.39,2521.28 3797.39,2533.28 3794,2545.5C 3790.78,2553.61 3786.78,2561.27 3782,2568.5C 3781.67,2573.83 3781.33,2579.17 3781,2584.5C 3776.7,2603.3 3773.7,2622.3 3772,2641.5C 3770.45,2650.05 3768.11,2658.38 3765,2666.5C 3756.53,2686.77 3747.53,2706.77 3738,2726.5C 3733.52,2742.6 3727.85,2758.27 3721,2773.5C 3713.57,2786.61 3704.23,2798.28 3693,2808.5C 3687.99,2827.18 3679.33,2843.85 3667,2858.5C 3665.39,2863.99 3663.39,2869.32 3661,2874.5C 3650.03,2896.45 3638.03,2917.78 3625,2938.5C 3618.4,2947.1 3611.07,2955.1 3603,2962.5C 3597.81,2972.89 3591.14,2982.22 3583,2990.5C 3580.86,2995.92 3578.53,3001.25 3576,3006.5C 3568.75,3018 3561.75,3029.67 3555,3041.5C 3548.74,3049.77 3541.74,3057.43 3534,3064.5C 3529.33,3073.85 3523.66,3082.52 3517,3090.5C 3476.5,3131 3436,3171.5 3395.5,3212C 3388.04,3218.12 3380.04,3223.45 3371.5,3228C 3354.5,3245 3337.5,3262 3320.5,3279C 3308.41,3288.72 3295.07,3296.38 3280.5,3302C 3268.3,3318.76 3252.96,3331.76 3234.5,3341C 3222.13,3353.03 3209.47,3364.7 3196.5,3376C 3179.12,3387.36 3162.45,3399.69 3146.5,3413C 3140.11,3416.86 3133.45,3420.19 3126.5,3423C 3115.33,3426.21 3104.33,3429.87 3093.5,3434C 3080.51,3448.99 3065.18,3460.99 3047.5,3470C 3035.61,3473.06 3024.94,3478.4 3015.5,3486C 3003.39,3491.56 2991.72,3497.89 2980.5,3505C 2963.7,3511.6 2946.7,3517.6 2929.5,3523C 2925.33,3525.92 2921,3528.58 2916.5,3531C 2906.54,3535.1 2896.87,3539.76 2887.5,3545C 2871.29,3552.3 2854.29,3556.3 2836.5,3557C 2827.21,3561.21 2817.55,3564.21 2807.5,3566C 2777.6,3570.98 2747.6,3575.31 2717.5,3579C 2696.31,3586.44 2674.64,3592.11 2652.5,3596C 2515.51,3595.72 2378.51,3595.38 2241.5,3595C 2224.09,3594.85 2207.09,3592.18 2190.5,3587C 2139.84,3587.38 2089.17,3587.38 2038.5,3587C 2030.2,3585.93 2021.87,3585.26 2013.5,3585C 2002.94,3582.69 1992.27,3581.03 1981.5,3580C 1958.97,3575.12 1936.64,3569.45 1914.5,3563C 1897.5,3562.67 1880.5,3562.33 1863.5,3562C 1834.56,3556.97 1805.56,3552.3 1776.5,3548C 1755.16,3547.57 1733.83,3546.91 1712.5,3546C 1703.61,3544.95 1694.95,3542.95 1686.5,3540C 1661.59,3541.27 1638.26,3535.94 1616.5,3524C 1597.28,3525.06 1578.61,3522.4 1560.5,3516C 1542.81,3514.95 1525.14,3513.62 1507.5,3512C 1487.04,3505.38 1466.37,3499.38 1445.5,3494C 1427.91,3487.14 1410.24,3480.47 1392.5,3474C 1361.11,3468.29 1329.78,3462.29 1298.5,3456C 1292.01,3454.06 1285.68,3451.73 1279.5,3449C 1270.88,3443.9 1261.88,3439.57 1252.5,3436C 1235.59,3436.55 1218.92,3434.88 1202.5,3431C 1179.47,3422.88 1157.14,3413.22 1135.5,3402C 1120.69,3397.88 1105.69,3394.55 1090.5,3392C 1059.64,3383.4 1030.64,3370.73 1003.5,3354C 984.606,3351.02 966.272,3346.02 948.5,3339C 933.236,3331.2 919.569,3321.2 907.5,3309C 894.998,3304.75 882.998,3299.41 871.5,3293C 862.167,3287.33 852.833,3281.67 843.5,3276C 838.833,3272 834.167,3268 829.5,3264C 797.549,3252.69 766.883,3238.69 737.5,3222C 720.167,3209.67 702.833,3197.33 685.5,3185C 677.796,3177.63 669.796,3170.63 661.5,3164C 627.667,3128.83 593.167,3094.33 558,3060.5C 551.051,3050.55 543.717,3040.88 536,3031.5C 518.748,3003.33 501.748,2975 485,2946.5C 469.785,2921.96 453.785,2897.96 437,2874.5C 430.141,2860.92 423.474,2847.25 417,2833.5C 411,2825.5 405,2817.5 399,2809.5C 393.444,2797.39 387.11,2785.72 380,2774.5C 376.447,2763.84 372.114,2753.51 367,2743.5C 362.267,2730.9 359.267,2717.9 358,2704.5C 354.103,2693.47 349.436,2682.8 344,2672.5C 340.177,2660.21 336.51,2647.87 333,2635.5C 327.173,2603.86 321.506,2572.19 316,2540.5C 315.667,2534.5 315.333,2528.5 315,2522.5C 311.879,2512.35 309.545,2502.01 308,2491.5C 307.908,2218.83 307.908,1946.17 308,1673.5C 312.292,1642.16 318.292,1611.16 326,1580.5C 327.47,1575.76 329.136,1571.09 331,1566.5C 332.739,1549.14 334.739,1531.8 337,1514.5C 339.34,1504.48 342.673,1494.81 347,1485.5C 349.718,1467.96 353.385,1450.63 358,1433.5C 361.606,1421 366.939,1409.34 374,1398.5C 374.277,1390.46 374.943,1382.46 376,1374.5C 379.587,1361.23 382.92,1347.9 386,1334.5C 384.167,1295.99 395.833,1262.33 421,1233.5C 428.62,1209.02 435.62,1184.36 442,1159.5C 447.197,1149.77 451.864,1139.77 456,1129.5C 464,1116.17 472,1102.83 480,1089.5C 491,1077.17 502,1064.83 513,1052.5C 520.49,1036.85 528.49,1021.52 537,1006.5C 543.629,997.537 551.295,989.537 560,982.5C 568.417,967.079 579.417,953.745 593,942.5C 609.568,919.265 628.901,898.598 651,880.5C 654.333,875.833 657.667,871.167 661,866.5C 689.193,837.307 717.693,808.474 746.5,780C 760.348,769.575 774.014,758.908 787.5,748C 804.471,730.028 821.804,712.362 839.5,695C 846.956,688.882 854.956,683.549 863.5,679C 874.772,666.384 887.772,656.05 902.5,648C 913.78,640.387 924.78,632.387 935.5,624C 965.458,608.458 996.124,594.458 1027.5,582C 1054.92,566.293 1083.58,553.293 1113.5,543C 1121.68,537.496 1130.35,532.829 1139.5,529C 1151.58,524.864 1163.58,520.53 1175.5,516C 1196.43,512.934 1217.1,508.601 1237.5,503C 1245.17,497.333 1252.83,491.667 1260.5,486C 1266.89,482.139 1273.55,478.806 1280.5,476C 1292.72,472.614 1304.72,468.614 1316.5,464C 1337.83,461.253 1358.16,455.253 1377.5,446C 1389.72,442.614 1401.72,438.614 1413.5,434C 1430.08,430.827 1446.75,428.16 1463.5,426C 1478.89,419.569 1494.56,413.902 1510.5,409C 1525.55,405.919 1540.55,403.419 1555.5,401.5 Z M 1571.5,650.5 C 1651.16,651.628 1730.83,651.795 1810.5,651C 1826.96,654.971 1843.63,657.637 1860.5,659C 1894.84,659.475 1929.17,659.475 1963.5,659C 1978.5,665.89 1994.17,670.557 2010.5,673C 2033.49,673.954 2056.49,674.621 2079.5,675C 2123.81,680.236 2168.15,685.236 2212.5,690C 2234.17,691.299 2255.84,691.633 2277.5,691C 2291.56,692.594 2305.56,694.594 2319.5,697C 2340.09,702.98 2360.76,708.647 2381.5,714C 2434.54,719.148 2487.21,726.815 2539.5,737C 2575.15,740.13 2610.82,740.297 2646.5,737.5C 2668.37,746.309 2691.04,752.142 2714.5,755C 2729.17,755.321 2743.84,755.321 2758.5,755C 2768.65,758.121 2778.99,760.455 2789.5,762C 2806.5,762.333 2823.5,762.667 2840.5,763C 2857.49,765.732 2874.49,768.399 2891.5,771C 2901.41,771.818 2911.24,771.651 2921,770.5C 2925.37,772.051 2929.87,773.218 2934.5,774C 2945.22,774.927 2955.89,776.26 2966.5,778C 2983.27,785.589 3000.6,791.589 3018.5,796C 3037.83,800 3057.17,804 3076.5,808C 3093.17,816 3109.83,824 3126.5,832C 3138.58,836.136 3150.58,840.47 3162.5,845C 3177.89,849.129 3193.22,853.462 3208.5,858C 3214.88,861.574 3221.55,864.574 3228.5,867C 3241.01,876.09 3253.35,885.424 3265.5,895C 3277.83,901.167 3290.17,907.333 3302.5,913.5C 3306.47,919.307 3310.64,924.974 3315,930.5C 3326.97,941.47 3338.64,952.804 3350,964.5C 3362.17,983.513 3374.84,1002.18 3388,1020.5C 3390.8,1028.58 3393.8,1036.58 3397,1044.5C 3398.08,1070.07 3405.75,1093.4 3420,1114.5C 3420.33,1152.83 3420.67,1191.17 3421,1229.5C 3429.42,1282.86 3459.26,1318.03 3510.5,1335C 3537.92,1342.04 3564.92,1340.71 3591.5,1331C 3597.23,1328.46 3602.9,1325.96 3608.5,1323.5C 3611.52,1331.21 3615.36,1338.54 3620,1345.5C 3620.17,1547.16 3620.17,1748.82 3620,1950.5C 3616.86,1962.72 3614.19,1975.06 3612,1987.5C 3611.79,2003.84 3611.79,2020.17 3612,2036.5C 3609.05,2044.95 3607.05,2053.61 3606,2062.5C 3605.09,2077.17 3604.09,2091.84 3603,2106.5C 3599.88,2116.65 3597.55,2126.99 3596,2137.5C 3596.54,2196.16 3596.54,2254.83 3596,2313.5C 3592.81,2318.55 3590.14,2323.89 3588,2329.5C 3581.97,2347.91 3576.97,2366.57 3573,2385.5C 3576.5,2413.17 3570.17,2438.17 3554,2460.5C 3547.01,2476.47 3541.01,2492.8 3536,2509.5C 3531.61,2525.96 3530.44,2542.63 3532.5,2559.5C 3529.71,2568.63 3527.87,2577.97 3527,2587.5C 3518.06,2607.72 3509.39,2628.05 3501,2648.5C 3498,2652.17 3495,2655.83 3492,2659.5C 3484.67,2670.83 3477.33,2682.17 3470,2693.5C 3465.35,2702.44 3461.69,2711.77 3459,2721.5C 3449.97,2733.22 3443.31,2746.22 3439,2760.5C 3434.19,2770.79 3428.86,2780.79 3423,2790.5C 3410.73,2802.39 3400.4,2815.72 3392,2830.5C 3373.51,2847.13 3360.84,2867.47 3354,2891.5C 3340.99,2902.83 3330.66,2916.17 3323,2931.5C 3293.83,2960.67 3264.67,2989.83 3235.5,3019C 3226.96,3023.55 3218.96,3028.88 3211.5,3035C 3196.83,3049.67 3182.17,3064.33 3167.5,3079C 3159.21,3082.81 3151.21,3087.14 3143.5,3092C 3134.41,3100.43 3124.74,3108.09 3114.5,3115C 3109.13,3120.03 3104.13,3125.37 3099.5,3131C 3084.08,3139.42 3070.75,3150.42 3059.5,3164C 3053.17,3169.67 3046.83,3175.33 3040.5,3181C 3033.28,3184.89 3026.61,3189.55 3020.5,3195C 3006.69,3200.41 2993.02,3206.08 2979.5,3212C 2965.83,3220.33 2952.17,3228.67 2938.5,3237C 2933.31,3241.1 2928.31,3245.43 2923.5,3250C 2916.55,3252.81 2909.89,3256.14 2903.5,3260C 2895.02,3266.74 2886.02,3272.74 2876.5,3278C 2861.7,3283.29 2846.7,3287.96 2831.5,3292C 2821.55,3296.31 2812.21,3301.64 2803.5,3308C 2785.23,3309.23 2767.9,3313.9 2751.5,3322C 2722.94,3327.09 2694.28,3331.43 2665.5,3335C 2652.91,3337.86 2640.58,3341.53 2628.5,3346C 2503.17,3346.67 2377.83,3346.67 2252.5,3346C 2241.98,3343.04 2231.31,3340.7 2220.5,3339C 2212.17,3338.67 2203.83,3338.33 2195.5,3338C 2146.84,3338.26 2098.17,3338.26 2049.5,3338C 2028.56,3336.01 2008.22,3331.34 1988.5,3324C 1954.07,3315.3 1919.07,3311.63 1883.5,3313C 1852.94,3307.6 1822.27,3302.94 1791.5,3299C 1775.17,3298.67 1758.83,3298.33 1742.5,3298C 1730.19,3293.74 1717.53,3291.41 1704.5,3291C 1699.32,3288.61 1693.99,3286.61 1688.5,3285C 1675.83,3281.67 1663.17,3278.33 1650.5,3275C 1640.54,3273.87 1630.54,3273.2 1620.5,3273C 1612.05,3270.05 1603.39,3268.05 1594.5,3267C 1580.83,3266.67 1567.17,3266.33 1553.5,3266C 1540.65,3261.54 1527.65,3257.54 1514.5,3254C 1487.33,3241.39 1458.99,3232.39 1429.5,3227C 1410.61,3223.02 1391.61,3219.68 1372.5,3217C 1362.07,3211.45 1351.41,3206.45 1340.5,3202C 1334.32,3199.27 1327.99,3196.94 1321.5,3195C 1301.13,3189.74 1280.46,3186.41 1259.5,3185C 1225.56,3167.13 1189.56,3155.47 1151.5,3150C 1138.71,3144.77 1127.04,3137.77 1116.5,3129C 1097.85,3118.34 1077.85,3111.67 1056.5,3109C 1045.11,3100.61 1033.44,3092.61 1021.5,3085C 1011.29,3079.82 1000.62,3075.82 989.5,3073C 979.01,3063.51 967.677,3055.18 955.5,3048C 945.539,3043.9 935.873,3039.24 926.5,3034C 908.733,3027.97 891.399,3020.97 874.5,3013C 862.111,3003.61 849.445,2994.61 836.5,2986C 805.946,2955.45 775.446,2924.95 745,2894.5C 738.084,2884.34 731.417,2874 725,2863.5C 702.667,2823.48 678.334,2784.82 652,2747.5C 644.115,2730.06 635.448,2713.06 626,2696.5C 619.28,2688.11 612.947,2679.45 607,2670.5C 605.584,2655.09 602.251,2640.09 597,2625.5C 589.419,2610.42 582.419,2595.09 576,2579.5C 573.233,2560 569.566,2540.66 565,2521.5C 563.3,2509.89 562.3,2498.23 562,2486.5C 561.18,2479.73 559.846,2473.06 558,2466.5C 557.6,2453 557.1,2439.5 556.5,2426C 557.737,2182.64 557.737,1939.31 556.5,1696C 558.959,1682.49 561.459,1668.99 564,1655.5C 577.864,1628.85 583.53,1600.51 581,1570.5C 588.458,1552.55 593.125,1533.88 595,1514.5C 598.923,1506.99 602.59,1499.32 606,1491.5C 612.026,1473.09 617.026,1454.43 621,1435.5C 621.945,1416.98 625.612,1398.98 632,1381.5C 633.846,1374.94 635.18,1368.27 636,1361.5C 643.096,1350.31 649.429,1338.65 655,1326.5C 660.909,1299.86 667.909,1273.53 676,1247.5C 680.823,1238.67 687.157,1231 695,1224.5C 701.905,1214.26 709.572,1204.59 718,1195.5C 725.811,1181.08 733.811,1166.74 742,1152.5C 752.606,1142.61 761.273,1131.27 768,1118.5C 773.635,1113.87 778.968,1108.87 784,1103.5C 789.833,1095.67 795.667,1087.83 801.5,1080C 823.432,1066.73 840.599,1048.9 853,1026.5C 871.529,1008.3 889.695,989.805 907.5,971C 921.348,960.575 935.014,949.908 948.5,939C 965.5,922 982.5,905 999.5,888C 1014.58,879.919 1027.58,869.253 1038.5,856C 1047.86,850.987 1056.53,844.987 1064.5,838C 1083.97,828.174 1103.97,819.507 1124.5,812C 1142.6,803.782 1160.27,794.782 1177.5,785C 1190.76,779.803 1204.09,774.803 1217.5,770C 1225.53,765.652 1233.53,761.319 1241.5,757C 1248.21,756.28 1254.88,755.28 1261.5,754C 1280.99,749.627 1300.33,744.627 1319.5,739C 1328.17,736.497 1336.5,733.164 1344.5,729C 1353.82,723.109 1363.49,717.776 1373.5,713C 1377.78,710.385 1381.78,707.385 1385.5,704C 1416.4,698.526 1446.07,689.193 1474.5,676C 1481.2,675.639 1487.87,674.972 1494.5,674C 1507.25,672.131 1519.92,669.798 1532.5,667C 1546.08,662.533 1559.08,657.033 1571.5,650.5 Z M 2782.5,1923.5 C 2784.92,1923.19 2787.26,1923.53 2789.5,1924.5C 2812.58,1976.23 2852.58,2002.73 2909.5,2004C 2922.1,2008.59 2935.1,2011.25 2948.5,2012C 2958.32,2016.41 2967.99,2021.08 2977.5,2026C 2986.3,2028.7 2994.97,2031.7 3003.5,2035C 3004.66,2049.76 3004.82,2064.59 3004,2079.5C 3001.17,2084.5 2998.33,2089.5 2995.5,2094.5C 2982.45,2099.19 2970.45,2105.69 2959.5,2114C 2918.5,2113.56 2877.5,2113.56 2836.5,2114C 2825.16,2109.93 2813.49,2107.26 2801.5,2106C 2794.63,2096.42 2788.13,2086.59 2782,2076.5C 2780.46,2025.48 2780.62,1974.48 2782.5,1923.5 Z M 1301.5,1928.5 C 1310.39,1928.84 1319.06,1930.34 1327.5,1933C 1336.32,1942.79 1345.49,1952.29 1355,1961.5C 1357.75,1966.67 1360.75,1971.67 1364,1976.5C 1363.38,2028.17 1363.38,2079.83 1364,2131.5C 1361.46,2138.78 1359.13,2146.12 1357,2153.5C 1349.01,2163.16 1339.51,2170.99 1328.5,2177C 1299.84,2178.33 1271.18,2178.66 1242.5,2178C 1233.79,2171.64 1224.45,2166.31 1214.5,2162C 1203.67,2149.17 1192.83,2136.33 1182,2123.5C 1181.33,2095.83 1181.33,2068.17 1182,2040.5C 1189.03,2032.28 1195.2,2023.44 1200.5,2014C 1226.38,1990.73 1253.72,1969.4 1282.5,1950C 1289.79,1943.56 1296.12,1936.39 1301.5,1928.5 Z M 1983.5,1930.5 C 1992.28,1930.06 2000.94,1930.56 2009.5,1932C 2030.2,1972.68 2063.2,1996.35 2108.5,2003C 2124.5,2003.33 2140.5,2003.67 2156.5,2004C 2164.01,2009 2171.68,2013.83 2179.5,2018.5C 2180.91,2038.19 2180.74,2057.86 2179,2077.5C 2177.83,2078.67 2176.67,2079.83 2175.5,2081C 2161.17,2088 2146.83,2095 2132.5,2102C 2126.65,2106.09 2120.99,2110.42 2115.5,2115C 2097.12,2121.73 2081.12,2132.06 2067.5,2146C 2064.83,2146.67 2062.17,2146.67 2059.5,2146C 2052.91,2144.02 2046.25,2142.35 2039.5,2141C 2030.24,2136.06 2021.24,2130.73 2012.5,2125C 2004.73,2121.11 1996.73,2117.78 1988.5,2115C 1987.33,2113.83 1986.17,2112.67 1985,2111.5C 1979.94,2098.79 1973.61,2086.79 1966,2075.5C 1964.45,2057.85 1964.45,2040.19 1966,2022.5C 1981.15,1996.09 1985.98,1967.92 1980.5,1938C 1982.2,1935.76 1983.2,1933.26 1983.5,1930.5 Z"/></g>
<g><path style="opacity:1" fill="#fefffe" d="M 2719.5,1673.5 C 2788.5,1673.6 2857.5,1674.1 2926.5,1675C 2933.27,1675.82 2939.94,1677.15 2946.5,1679C 2979.26,1690.54 3010.92,1704.54 3041.5,1721C 3086.5,1737.67 3114,1769.5 3124,1816.5C 3136.09,1822.79 3148.26,1828.96 3160.5,1835C 3186.96,1855.13 3210.46,1878.3 3231,1904.5C 3243.05,1921.98 3250.38,1941.31 3253,1962.5C 3253.67,2014.5 3253.67,2066.5 3253,2118.5C 3251.59,2129.48 3248.92,2140.15 3245,2150.5C 3240.61,2160.34 3236.61,2170.34 3233,2180.5C 3225.89,2191.72 3219.56,2203.39 3214,2215.5C 3203.32,2233.52 3191.66,2250.86 3179,2267.5C 3171.13,2277.04 3162.3,2285.54 3152.5,2293C 3141.33,2299.75 3130.33,2306.75 3119.5,2314C 3113.5,2316.67 3107.5,2319.33 3101.5,2322C 3094.2,2328.65 3086.2,2334.32 3077.5,2339C 3057.8,2348.12 3037.47,2355.45 3016.5,2361C 2992.21,2362.89 2967.88,2363.72 2943.5,2363.5C 2909.67,2362.18 2875.83,2362.18 2842,2363.5C 2817.51,2365.73 2793.68,2362.89 2770.5,2355C 2757.94,2355.01 2745.6,2353.35 2733.5,2350C 2721.5,2346.33 2709.5,2342.67 2697.5,2339C 2690.55,2336.19 2683.89,2332.86 2677.5,2329C 2660.65,2317.14 2644.82,2303.98 2630,2289.5C 2612.99,2271.79 2598.15,2252.45 2585.5,2231.5C 2569.28,2217.78 2557.11,2201.11 2549,2181.5C 2545.61,2169.28 2541.61,2157.28 2537,2145.5C 2535.15,2138.94 2533.82,2132.27 2533,2125.5C 2532.6,2091.17 2532.1,2056.83 2531.5,2022.5C 2532.65,1979.5 2532.81,1936.5 2532,1893.5C 2533.97,1878.92 2537.97,1864.92 2544,1851.5C 2546.92,1835.15 2549.92,1818.82 2553,1802.5C 2557.36,1787.11 2564.36,1773.11 2574,1760.5C 2593.5,1741 2613,1721.5 2632.5,1702C 2645.11,1692.36 2659.11,1685.36 2674.5,1681C 2689.55,1677.92 2704.55,1675.42 2719.5,1673.5 Z M 2782.5,1923.5 C 2780.62,1974.48 2780.46,2025.48 2782,2076.5C 2788.13,2086.59 2794.63,2096.42 2801.5,2106C 2813.49,2107.26 2825.16,2109.93 2836.5,2114C 2877.5,2113.56 2918.5,2113.56 2959.5,2114C 2970.45,2105.69 2982.45,2099.19 2995.5,2094.5C 2998.33,2089.5 3001.17,2084.5 3004,2079.5C 3004.82,2064.59 3004.66,2049.76 3003.5,2035C 2994.97,2031.7 2986.3,2028.7 2977.5,2026C 2967.99,2021.08 2958.32,2016.41 2948.5,2012C 2935.1,2011.25 2922.1,2008.59 2909.5,2004C 2852.58,2002.73 2812.58,1976.23 2789.5,1924.5C 2787.26,1923.53 2784.92,1923.19 2782.5,1923.5 Z"/></g>
<g><path style="opacity:1" fill="#fefffe" d="M 1265.5,1674.5 C 1275.17,1674.33 1284.84,1674.5 1294.5,1675C 1305.17,1677 1315.83,1679 1326.5,1681C 1340.82,1681.85 1355.16,1682.52 1369.5,1683C 1383.08,1684.64 1396.08,1688.31 1408.5,1694C 1429.83,1705.33 1451.17,1716.67 1472.5,1728C 1482.13,1735.96 1491.46,1744.3 1500.5,1753C 1516.33,1770.17 1532.83,1786.67 1550,1802.5C 1558.44,1812.37 1565.11,1823.37 1570,1835.5C 1578.79,1847.63 1586.79,1860.3 1594,1873.5C 1605.24,1902.12 1611.57,1931.78 1613,1962.5C 1613.02,2031.49 1613.02,2100.49 1613,2169.5C 1611.53,2182.03 1608.2,2194.03 1603,2205.5C 1602.02,2229.77 1595.02,2252.11 1582,2272.5C 1574.33,2283.17 1566.67,2293.83 1559,2304.5C 1542.5,2321 1526,2337.5 1509.5,2354C 1499.26,2360.91 1489.59,2368.57 1480.5,2377C 1461.83,2388.33 1443.17,2399.67 1424.5,2411C 1412.46,2417.13 1399.79,2421.46 1386.5,2424C 1370.68,2425.34 1354.84,2426.51 1339,2427.5C 1289.48,2427.82 1239.98,2427.32 1190.5,2426C 1179.45,2423.87 1168.78,2420.54 1158.5,2416C 1149.13,2410.76 1139.46,2406.1 1129.5,2402C 1123.66,2398.58 1118,2394.92 1112.5,2391C 1087.25,2384.3 1066.08,2371.13 1049,2351.5C 1034.14,2336.09 1020.48,2319.76 1008,2302.5C 985.368,2282.52 966.035,2259.85 950,2234.5C 940.595,2214.88 934.929,2194.22 933,2172.5C 931.995,2165.37 931.495,2158.21 931.5,2151C 932.258,2103.5 932.758,2056 933,2008.5C 935.153,1989.43 939.153,1970.76 945,1952.5C 952.552,1935.73 960.885,1919.4 970,1903.5C 975.594,1895.9 981.927,1888.9 989,1882.5C 994.838,1872.82 1001.17,1863.49 1008,1854.5C 1046.67,1814.95 1088.84,1779.78 1134.5,1749C 1146.68,1741.74 1159.68,1736.41 1173.5,1733C 1195.48,1699.85 1226.15,1680.35 1265.5,1674.5 Z M 1301.5,1928.5 C 1296.12,1936.39 1289.79,1943.56 1282.5,1950C 1253.72,1969.4 1226.38,1990.73 1200.5,2014C 1195.2,2023.44 1189.03,2032.28 1182,2040.5C 1181.33,2068.17 1181.33,2095.83 1182,2123.5C 1192.83,2136.33 1203.67,2149.17 1214.5,2162C 1224.45,2166.31 1233.79,2171.64 1242.5,2178C 1271.18,2178.66 1299.84,2178.33 1328.5,2177C 1339.51,2170.99 1349.01,2163.16 1357,2153.5C 1359.13,2146.12 1361.46,2138.78 1364,2131.5C 1363.38,2079.83 1363.38,2028.17 1364,1976.5C 1360.75,1971.67 1357.75,1966.67 1355,1961.5C 1345.49,1952.29 1336.32,1942.79 1327.5,1933C 1319.06,1930.34 1310.39,1928.84 1301.5,1928.5 Z"/></g>
<g><path style="opacity:1" fill="#fefffe" d="M 1956.5,1681.5 C 2000.17,1681.87 2043.83,1682.37 2087.5,1683C 2133.54,1690.05 2166.87,1714.38 2187.5,1756C 2221.91,1761.47 2254.58,1772.14 2285.5,1788C 2298.08,1798.57 2311.75,1807.57 2326.5,1815C 2331.5,1818.67 2336.5,1822.33 2341.5,1826C 2351.67,1836.83 2361.83,1847.67 2372,1858.5C 2380.33,1870.5 2388.67,1882.5 2397,1894.5C 2402.94,1906.04 2408.61,1917.71 2414,1929.5C 2416.73,1935.68 2419.06,1942.01 2421,1948.5C 2424.03,1963.44 2426.7,1978.44 2429,1993.5C 2432.14,2049.61 2428.8,2105.27 2419,2160.5C 2415.88,2174.75 2410.54,2188.08 2403,2200.5C 2394.67,2212.5 2386.33,2224.5 2378,2236.5C 2367.33,2247.84 2355.5,2257.67 2342.5,2266C 2331.3,2278.25 2318.64,2288.58 2304.5,2297C 2292.3,2301.95 2280.3,2307.29 2268.5,2313C 2256.53,2325.32 2242.53,2334.66 2226.5,2341C 2216.8,2352.37 2206.13,2362.7 2194.5,2372C 2169.47,2388.84 2141.8,2396.51 2111.5,2395C 2082.47,2395.94 2053.47,2395.61 2024.5,2394C 2006.79,2388.92 1988.79,2385.26 1970.5,2383C 1958.99,2380.38 1947.99,2376.38 1937.5,2371C 1928.76,2365.27 1919.76,2359.94 1910.5,2355C 1886.9,2350.7 1865.9,2341.04 1847.5,2326C 1831.03,2309.19 1814.19,2292.69 1797,2276.5C 1786.51,2262.85 1776.51,2248.85 1767,2234.5C 1763.72,2227.62 1760.72,2220.62 1758,2213.5C 1743.47,2191.11 1732.14,2167.11 1724,2141.5C 1718.07,2113.67 1715.24,2085.5 1715.5,2057C 1716.83,2040 1716.83,2023 1715.5,2006C 1715.5,1998.79 1716,1991.63 1717,1984.5C 1720.78,1967.25 1725.45,1950.25 1731,1933.5C 1731.99,1920.85 1732.65,1908.18 1733,1895.5C 1735.01,1879.15 1740.01,1863.82 1748,1849.5C 1751.97,1838.27 1755.64,1826.94 1759,1815.5C 1764.92,1803.99 1770.59,1792.32 1776,1780.5C 1782.92,1769.67 1789.58,1758.67 1796,1747.5C 1805.92,1734.25 1817.75,1723.08 1831.5,1714C 1845.21,1705.81 1859.21,1698.14 1873.5,1691C 1881.62,1687.89 1889.95,1685.55 1898.5,1684C 1917.97,1682.93 1937.31,1682.09 1956.5,1681.5 Z M 1983.5,1930.5 C 1983.2,1933.26 1982.2,1935.76 1980.5,1938C 1985.98,1967.92 1981.15,1996.09 1966,2022.5C 1964.45,2040.19 1964.45,2057.85 1966,2075.5C 1973.61,2086.79 1979.94,2098.79 1985,2111.5C 1986.17,2112.67 1987.33,2113.83 1988.5,2115C 1996.73,2117.78 2004.73,2121.11 2012.5,2125C 2021.24,2130.73 2030.24,2136.06 2039.5,2141C 2046.25,2142.35 2052.91,2144.02 2059.5,2146C 2062.17,2146.67 2064.83,2146.67 2067.5,2146C 2081.12,2132.06 2097.12,2121.73 2115.5,2115C 2120.99,2110.42 2126.65,2106.09 2132.5,2102C 2146.83,2095 2161.17,2088 2175.5,2081C 2176.67,2079.83 2177.83,2078.67 2179,2077.5C 2180.74,2057.86 2180.91,2038.19 2179.5,2018.5C 2171.68,2013.83 2164.01,2009 2156.5,2004C 2140.5,2003.67 2124.5,2003.33 2108.5,2003C 2063.2,1996.35 2030.2,1972.68 2009.5,1932C 2000.94,1930.56 1992.28,1930.06 1983.5,1930.5 Z"/></g>
</svg>
