<?xml version="1.0" encoding="UTF-8"?>
<!DOCTYPE svg PUBLIC "-//W3C//DTD SVG 1.1//EN" "http://www.w3.org/Graphics/SVG/1.1/DTD/svg11.dtd">
<svg xmlns="http://www.w3.org/2000/svg" version="1.1" width="4096px" height="4096px" style="shape-rendering:geometricPrecision; text-rendering:geometricPrecision; image-rendering:optimizeQuality; fill-rule:evenodd; clip-rule:evenodd" xmlns:xlink="http://www.w3.org/1999/xlink">
<g><path style="opacity:1" fill="#1da0f2" d="M 3711.5,138.5 C 3760.8,136.867 3801.96,154.2 3835,190.5C 3841.58,199.753 3848.92,208.42 3857,216.5C 3865.5,230.179 3874.5,243.512 3884,256.5C 3893.92,273.59 3900.25,291.923 3903,311.5C 3906.62,344.212 3910.62,376.879 3915,409.5C 3916.17,433.014 3916.67,456.514 3916.5,480C 3916.33,495.877 3913.83,511.377 3909,526.5C 3908.93,544.241 3906.27,561.575 3901,578.5C 3902.06,605.858 3896.73,631.858 3885,656.5C 3884.71,666.013 3884.21,675.513 3883.5,685C 3884.83,836.413 3884.83,987.746 3883.5,1139C 3884.19,1147.49 3884.69,1155.99 3885,1164.5C 3889.54,1182.45 3893.87,1200.45 3898,1218.5C 3899.2,1238.15 3900.2,1257.82 3901,1277.5C 3906.62,1296.07 3909.29,1315.07 3909,1334.5C 3919.2,1355.64 3924.53,1377.97 3925,1401.5C 3934.29,1417.02 3940.62,1433.69 3944,1451.5C 3945.26,1463.23 3946.92,1474.89 3949,1486.5C 3953.34,1502.5 3957.67,1518.5 3962,1534.5C 3963.82,1546.76 3964.82,1559.1 3965,1571.5C 3971.42,1591.56 3973.59,1612.06 3971.5,1633C 3973,1644.5 3974.5,1656 3976,1667.5C 3980.08,1683.07 3983.74,1698.73 3987,1714.5C 3987.76,1734.17 3988.43,1753.83 3989,1773.5C 3992.75,1785.23 3995.08,1797.23 3996,1809.5C 3996.78,1837.69 3996.62,1865.85 3995.5,1894C 4000.01,1913.23 4002.51,1932.73 4003,1952.5C 4002.71,1976.32 4003.21,2000.16 4004.5,2024C 4004.47,2027.89 4004.13,2031.72 4003.5,2035.5C 4006.45,2044.3 4008.62,2053.3 4010,2062.5C 4011.22,2082.48 4012.22,2102.48 4013,2122.5C 4016.23,2135.67 4018.57,2149.01 4020,2162.5C 4019.58,2191.01 4019.41,2219.51 4019.5,2248C 4020.17,2255.82 4020.67,2263.65 4021,2271.5C 4025.83,2286.62 4028.33,2302.12 4028.5,2318C 4028.32,2373.33 4027.99,2428.66 4027.5,2484C 4028.17,2491.82 4028.67,2499.65 4029,2507.5C 4033.83,2522.62 4036.33,2538.12 4036.5,2554C 4036.07,2668.44 4035.91,2782.94 4036,2897.5C 4035.08,2909.77 4032.75,2921.77 4029,2933.5C 4028.74,2944.9 4027.74,2956.24 4026,2967.5C 4022.94,2981.01 4019.27,2994.35 4015,3007.5C 4013.64,3029.81 4010.3,3051.81 4005,3073.5C 4004.2,3093.18 4003.2,3112.85 4002,3132.5C 4000.81,3140.27 3999.14,3147.94 3997,3155.5C 3997.49,3175.94 3994.82,3195.94 3989,3215.5C 3989.03,3233.58 3986.36,3251.25 3981,3268.5C 3979.98,3286.94 3977.98,3305.28 3975,3323.5C 3973.25,3335.17 3970.25,3346.51 3966,3357.5C 3964.51,3373.79 3961.51,3389.79 3957,3405.5C 3956.69,3414.01 3956.19,3422.51 3955.5,3431C 3956.05,3536.99 3956.39,3642.99 3956.5,3749C 3955.73,3785.35 3943.89,3817.52 3921,3845.5C 3908.54,3856.99 3896.38,3868.82 3884.5,3881C 3856.52,3903.89 3824.35,3915.73 3788,3916.5C 3677.33,3915.17 3566.67,3915.17 3456,3916.5C 3440.66,3915.96 3425.32,3915.3 3410,3914.5C 3385.02,3914.63 3360.02,3915.3 3335,3916.5C 3173.67,3916.5 3012.33,3916.5 2851,3916.5C 2827.29,3915.09 2803.79,3912.09 2780.5,3907.5C 2772.18,3908.54 2763.85,3908.71 2755.5,3908C 2742.54,3906.31 2729.54,3904.98 2716.5,3904C 2708.73,3902.81 2701.06,3901.14 2693.5,3899C 2674.08,3897.09 2654.75,3894.59 2635.5,3891.5C 2120.62,3892.76 1605.79,3892.76 1091,3891.5C 1065.13,3893.34 1039.63,3897.51 1014.5,3904C 1000.43,3905.51 986.43,3907.51 972.5,3910C 959.833,3913.67 947.167,3917.33 934.5,3921C 927.578,3922.54 920.578,3923.54 913.5,3924C 896.154,3923 878.821,3923.33 861.5,3925C 846.377,3929.83 830.877,3932.33 815,3932.5C 770.482,3932.4 725.982,3932.07 681.5,3931.5C 674.596,3933.45 667.596,3934.95 660.5,3936C 640.25,3938.66 619.916,3940.33 599.5,3941C 591.936,3943.14 584.269,3944.81 576.5,3946C 546.51,3948.05 516.51,3949.05 486.5,3949C 471.377,3953.83 455.877,3956.33 440,3956.5C 419.664,3956.47 399.331,3956.47 379,3956.5C 342.646,3955.73 310.479,3943.89 282.5,3921C 271,3908.83 259.167,3897 247,3885.5C 235.192,3871.56 226.192,3855.9 220,3838.5C 217.464,3828.23 214.131,3818.23 210,3808.5C 205.828,3794.3 203.661,3779.8 203.5,3765C 203.5,3684.33 203.5,3603.67 203.5,3523C 204.65,3506.17 205.817,3489.33 207,3472.5C 210.676,3448.49 219.343,3426.49 233,3406.5C 233.972,3395.64 235.972,3384.98 239,3374.5C 243.951,3362.27 248.617,3349.93 253,3337.5C 254.194,3324 256.361,3310.67 259.5,3297.5C 257.321,3275.63 259.821,3254.29 267,3233.5C 267.372,3224.14 268.038,3214.81 269,3205.5C 271.8,3193.97 273.8,3182.3 275,3170.5C 275.382,3152.84 276.049,3135.17 277,3117.5C 278.37,3108.69 280.37,3100.02 283,3091.5C 283.325,3083.65 283.825,3075.82 284.5,3068C 283.508,3039.17 283.342,3010.34 284,2981.5C 285.552,2960.81 288.385,2940.31 292.5,2920C 292.463,2859.5 292.463,2799 292.5,2738.5C 289.849,2708.33 289.849,2678.17 292.5,2648C 292.39,2622.68 291.723,2597.35 290.5,2572C 292.101,2548.49 292.268,2524.99 291,2501.5C 285.933,2484.63 280.266,2467.97 274,2451.5C 268.368,2432.35 266.535,2412.85 268.5,2393C 266.098,2377.48 263.598,2361.98 261,2346.5C 260.019,2336.86 259.352,2327.19 259,2317.5C 253.735,2300.57 251.068,2283.24 251,2265.5C 244.585,2246.03 241.585,2226.03 242,2205.5C 237.746,2187.56 233.746,2169.56 230,2151.5C 228.817,2134.67 227.65,2117.83 226.5,2101C 228.516,2068.16 228.682,2035.33 227,2002.5C 221.52,1986.46 218.687,1969.96 218.5,1953C 219.045,1937.83 219.711,1922.66 220.5,1907.5C 219.182,1837 219.182,1766.5 220.5,1696C 219.81,1687.51 219.31,1679.01 219,1670.5C 214.174,1655.38 211.674,1639.88 211.5,1624C 212.833,1472.67 212.833,1321.33 211.5,1170C 211.674,1154.12 214.174,1138.62 219,1123.5C 219.325,1115.65 219.825,1107.82 220.5,1100C 220.354,939.322 220.354,778.655 220.5,618C 217.636,607.147 215.636,596.147 214.5,585C 199.729,561.685 191.563,536.185 190,508.5C 183.027,498.221 177.36,487.221 173,475.5C 168.131,460.561 163.465,445.561 159,430.5C 116.815,375.975 111.481,317.975 143,256.5C 168.079,217.849 203.246,193.349 248.5,183C 258.891,180.878 269.391,179.711 280,179.5C 290,180.833 300,180.833 310,179.5C 323.15,180.565 336.317,181.398 349.5,182C 378.32,187.859 407.32,192.526 436.5,196C 458.941,194.111 480.941,196.444 502.5,203C 511.845,203.312 521.178,203.812 530.5,204.5C 822.833,203.167 1115.17,203.167 1407.5,204.5C 1415.82,203.834 1424.16,203.334 1432.5,203C 1445.16,198.668 1458.16,196.002 1471.5,195C 1488.83,195.215 1506.16,195.215 1523.5,195C 1535.23,191.255 1547.23,188.921 1559.5,188C 1588.35,187.279 1617.18,187.445 1646,188.5C 1660.99,187.7 1675.99,187.034 1691,186.5C 1706.99,186.612 1722.99,186.946 1739,187.5C 1762.87,183.747 1786.87,181.08 1811,179.5C 1846.32,179.612 1881.66,179.945 1917,180.5C 1931.99,179.7 1946.99,179.034 1962,178.5C 1987.35,179.723 2012.68,180.39 2038,180.5C 2056.49,177.251 2074.99,174.085 2093.5,171C 2112.35,170.812 2131.18,171.312 2150,172.5C 2158.49,171.81 2166.99,171.31 2175.5,171C 2195.56,164.578 2216.06,162.411 2237,164.5C 2267.33,161.865 2297.67,161.865 2328,164.5C 2559.67,163.198 2791.34,163.198 3023,164.5C 3029.82,163.855 3036.66,163.355 3043.5,163C 3056.16,158.668 3069.16,156.002 3082.5,155C 3121.35,156.089 3160.18,156.589 3199,156.5C 3206.82,155.825 3214.65,155.325 3222.5,155C 3238.54,149.52 3255.04,146.687 3272,146.5C 3287.17,147.045 3302.34,147.711 3317.5,148.5C 3368,147.182 3418.5,147.182 3469,148.5C 3477.49,147.81 3485.99,147.31 3494.5,147C 3509.62,142.174 3525.12,139.674 3541,139.5C 3586.34,139.675 3631.67,140.008 3677,140.5C 3688.66,139.932 3700.16,139.265 3711.5,138.5 Z M 3581.5,435.5 C 3594.17,436.802 3606.83,436.802 3619.5,435.5C 3619.67,441.176 3619.5,446.843 3619,452.5C 3611.92,472.802 3609.42,493.635 3611.5,515C 3607.21,530.21 3604.71,545.71 3604,561.5C 3599.49,577.212 3594.82,592.879 3590,608.5C 3587.88,618.891 3586.71,629.391 3586.5,640C 3587.03,655.009 3587.7,670.009 3588.5,685C 3587.2,715.336 3587.2,745.669 3588.5,776C 3587.7,790.991 3587.03,805.991 3586.5,821C 3587.83,841.333 3587.83,861.667 3586.5,882C 3587.03,897.009 3587.7,912.009 3588.5,927C 3587.48,1016.16 3587.31,1105.33 3588,1194.5C 3588.46,1201.58 3589.46,1208.58 3591,1215.5C 3595.4,1229.37 3599.4,1243.37 3603,1257.5C 3603.23,1275.17 3603.23,1292.84 3603,1310.5C 3604,1323.84 3606.67,1336.84 3611,1349.5C 3611.41,1359.89 3612.41,1370.23 3614,1380.5C 3618.69,1397.92 3623.69,1415.25 3629,1432.5C 3632.26,1463.93 3640.59,1493.93 3654,1522.5C 3657.84,1540.87 3661.84,1559.2 3666,1577.5C 3665.39,1599.03 3668.39,1620.03 3675,1640.5C 3677.49,1673.42 3681.82,1706.08 3688,1738.5C 3689.19,1743.93 3690.69,1749.26 3692.5,1754.5C 3692.58,1771.8 3692.42,1789.13 3692,1806.5C 3692.92,1818.77 3695.25,1830.77 3699,1842.5C 3699.33,1850.35 3699.83,1858.18 3700.5,1866C 3700.33,1884.5 3700.17,1903 3700,1921.5C 3701.1,1933.32 3703.1,1944.99 3706,1956.5C 3706.36,1963.84 3706.86,1971.18 3707.5,1978.5C 3707.58,2007.16 3707.41,2035.83 3707,2064.5C 3707.9,2077.16 3710.4,2089.5 3714.5,2101.5C 3714.17,2101.83 3713.83,2102.17 3713.5,2102.5C 3704.48,2095.99 3694.82,2090.49 3684.5,2086C 3673.53,2076.19 3662.2,2066.86 3650.5,2058C 3637.57,2050.69 3625.9,2041.69 3615.5,2031C 3610.83,2027.67 3606.17,2024.33 3601.5,2021C 3593.61,2010.1 3584.61,2000.1 3574.5,1991C 3556.3,1978.48 3538.97,1964.81 3522.5,1950C 3517.17,1946.33 3511.83,1942.67 3506.5,1939C 3495.5,1932.67 3484.5,1926.33 3473.5,1920C 3465.01,1910.17 3455.35,1901.84 3444.5,1895C 3434.44,1884.77 3423.11,1876.27 3410.5,1869.5C 3397.95,1855.27 3383.61,1843.27 3367.5,1833.5C 3361.68,1827.18 3355.68,1821.01 3349.5,1815C 3338.62,1807.73 3328.29,1799.73 3318.5,1791C 3313.17,1787.67 3307.83,1784.33 3302.5,1781C 3290.14,1768.3 3277.47,1755.97 3264.5,1744C 3253.62,1736.73 3243.29,1728.73 3233.5,1720C 3216.99,1709.25 3200.66,1698.25 3184.5,1687C 3173.2,1676.7 3162.2,1666.03 3151.5,1655C 3143.69,1648.59 3135.35,1642.92 3126.5,1638C 3120.14,1631.3 3113.47,1624.97 3106.5,1619C 3083.85,1602.67 3060.52,1587.34 3036.5,1573C 3016.29,1558.73 2996.63,1543.73 2977.5,1528C 2967.3,1522.23 2956.63,1517.57 2945.5,1514C 2929.11,1508.65 2912.44,1504.31 2895.5,1501C 2888.69,1500.15 2881.86,1499.65 2875,1499.5C 2861.52,1499.95 2848.02,1500.12 2834.5,1500C 2811.28,1501.63 2789.61,1508.3 2769.5,1520C 2747.34,1535.91 2725.01,1551.58 2702.5,1567C 2686.72,1581.08 2674.22,1597.58 2665,1616.5C 2659.46,1621.71 2653.62,1626.54 2647.5,1631C 2641.5,1637 2635.5,1643 2629.5,1649C 2619.98,1654.26 2610.98,1660.26 2602.5,1667C 2589.11,1680.84 2574.77,1693.51 2559.5,1705C 2551.47,1712.7 2543.8,1720.7 2536.5,1729C 2513.96,1743.1 2492.29,1758.44 2471.5,1775C 2461.39,1784.1 2452.39,1794.1 2444.5,1805C 2439.83,1808.33 2435.17,1811.67 2430.5,1815C 2418.17,1828.67 2405.17,1841.67 2391.5,1854C 2382.65,1858.92 2374.31,1864.59 2366.5,1871C 2355.8,1881.36 2345.47,1892.03 2335.5,1903C 2316.48,1916.51 2297.81,1930.51 2279.5,1945C 2252,1971.07 2222.66,1994.73 2191.5,2016C 2180.14,2027.7 2168.47,2039.03 2156.5,2050C 2140.21,2061.95 2124.21,2074.28 2108.5,2087C 2098.76,2097.03 2087.76,2105.37 2075.5,2112C 2067.17,2119 2058.83,2126 2050.5,2133C 2039.15,2139.01 2028.48,2146.01 2018.5,2154C 2002.81,2170.69 1986.81,2187.03 1970.5,2203C 1965.83,2205.33 1961.17,2207.67 1956.5,2210C 1945.99,2217.09 1935.66,2224.42 1925.5,2232C 1912.17,2244 1898.83,2256 1885.5,2268C 1873.03,2276.3 1860.7,2284.8 1848.5,2293.5C 1838.05,2277.2 1825.21,2262.87 1810,2250.5C 1801.77,2238.26 1792.77,2226.6 1783,2215.5C 1778.5,2207.16 1773.5,2199.16 1768,2191.5C 1762.33,2172.83 1754,2155.5 1743,2139.5C 1738.15,2124.45 1733.15,2109.45 1728,2094.5C 1723,2043.3 1698.83,2004.14 1655.5,1977C 1599.51,1947.46 1545.18,1950.13 1492.5,1985C 1472.97,1999.59 1457.8,2017.75 1447,2039.5C 1435.8,2050.24 1426.8,2062.57 1420,2076.5C 1404.57,2090.7 1392.57,2107.36 1384,2126.5C 1376.19,2133.97 1369.53,2142.3 1364,2151.5C 1355.7,2158.8 1347.7,2166.47 1340,2174.5C 1333.26,2182.98 1327.26,2191.98 1322,2201.5C 1311.16,2211.67 1301.82,2223 1294,2235.5C 1279.22,2249.94 1265.55,2265.27 1253,2281.5C 1238.25,2294.91 1226.58,2310.58 1218,2328.5C 1212.63,2333.53 1207.63,2338.87 1203,2344.5C 1190.24,2362.34 1177.24,2380.01 1164,2397.5C 1153.1,2405.39 1143.1,2414.39 1134,2424.5C 1125,2437.17 1116,2449.83 1107,2462.5C 1090.49,2475 1076.83,2490 1066,2507.5C 1046.41,2523.67 1031.41,2543.34 1021,2566.5C 1018.58,2570.34 1015.91,2574.01 1013,2577.5C 986.302,2593.86 966.302,2616.2 953,2644.5C 939.971,2656.89 929.638,2671.22 922,2687.5C 913.811,2694.91 906.811,2703.24 901,2712.5C 884.129,2726.36 869.796,2742.36 858,2760.5C 853.786,2768.26 850.119,2776.26 847,2784.5C 838.233,2791.26 830.067,2798.76 822.5,2807C 813.647,2811.92 805.314,2817.59 797.5,2824C 781.467,2840.36 765.8,2857.03 750.5,2874C 733.798,2884.35 717.798,2895.68 702.5,2908C 688.799,2922.03 675.466,2936.37 662.5,2951C 651.912,2957.81 642.245,2965.81 633.5,2975C 613.147,2984.67 595.647,2998.17 581,3015.5C 579.583,3007.21 579.583,2998.88 581,2990.5C 582.2,2978.7 584.2,2967.03 587,2955.5C 587.848,2948.69 588.348,2941.86 588.5,2935C 587.67,2780.23 587.503,2625.39 588,2470.5C 587.158,2459.29 585.158,2448.29 582,2437.5C 576.531,2419.43 570.865,2401.43 565,2383.5C 562.938,2359.02 559.771,2334.69 555.5,2310.5C 557.622,2289.39 555.455,2268.72 549,2248.5C 549.138,2228.99 546.138,2209.99 540,2191.5C 539.656,2179.05 538.322,2166.72 536,2154.5C 531.19,2140.07 527.19,2125.4 524,2110.5C 524.169,2066.98 524.335,2023.48 524.5,1980C 524.326,1964.12 521.826,1948.62 517,1933.5C 516.674,1924.82 516.174,1916.16 515.5,1907.5C 516.007,1821.67 516.341,1735.84 516.5,1650C 516.326,1634.12 513.826,1618.62 509,1603.5C 508.69,1594.99 508.19,1586.49 507.5,1578C 507.573,1457 507.573,1336 507.5,1215C 508.175,1207.18 508.675,1199.35 509,1191.5C 513.826,1176.38 516.326,1160.88 516.5,1145C 516.5,963.667 516.5,782.333 516.5,601C 516.348,594.141 515.848,587.308 515,580.5C 510.817,563.402 508.15,546.068 507,528.5C 505.302,518.711 503.136,509.044 500.5,499.5C 817.996,500.008 1135.5,500.342 1453,500.5C 1468.88,500.326 1484.38,497.826 1499.5,493C 1517.16,491.481 1534.83,491.147 1552.5,492C 1564.77,491.079 1576.77,488.745 1588.5,485C 1597.68,484.702 1606.85,484.202 1616,483.5C 1631.01,484.023 1646.01,484.356 1661,484.5C 1676.17,483.955 1691.34,483.289 1706.5,482.5C 1721.66,483.289 1736.83,483.955 1752,484.5C 1776.59,481.021 1801.26,478.021 1826,475.5C 1901.63,476.027 1977.3,476.36 2053,476.5C 2059.86,476.348 2066.69,475.848 2073.5,475C 2088.66,472.467 2103.83,469.967 2119,467.5C 2147.83,468.492 2176.66,468.658 2205.5,468C 2217.77,467.079 2229.77,464.745 2241.5,461C 2248.5,460.667 2255.5,460.333 2262.5,460C 2531.36,459.852 2800.19,460.018 3069,460.5C 3084.88,460.326 3100.38,457.826 3115.5,453C 3123.01,452.666 3130.51,452.166 3138,451.5C 3173.34,452.055 3208.68,452.388 3244,452.5C 3259.88,452.326 3275.38,449.826 3290.5,445C 3299.51,444.681 3308.51,444.181 3317.5,443.5C 3386.49,444.539 3455.49,444.706 3524.5,444C 3536.77,443.079 3548.77,440.745 3560.5,437C 3567.68,436.829 3574.68,436.329 3581.5,435.5 Z M 2877.5,1822.5 C 2887.97,1829.57 2898.64,1836.41 2909.5,1843C 2926.35,1865.19 2947.35,1882.19 2972.5,1894C 2984.73,1903.63 2996.4,1913.96 3007.5,1925C 3026.89,1938.72 3046.56,1952.06 3066.5,1965C 3081.5,1979.33 3096.5,1993.67 3111.5,2008C 3124.83,2017.33 3138.17,2026.67 3151.5,2036C 3159.47,2043.97 3167.47,2051.97 3175.5,2060C 3183.82,2066.49 3192.48,2072.49 3201.5,2078C 3208.5,2086.33 3216.17,2094 3224.5,2101C 3235.33,2108.58 3246.33,2115.91 3257.5,2123C 3269.47,2133.3 3281.13,2143.96 3292.5,2155C 3310.9,2167.06 3329.57,2178.73 3348.5,2190C 3356.3,2198.14 3364.97,2205.14 3374.5,2211C 3385.92,2227.09 3399.92,2240.42 3416.5,2251C 3426.13,2258.96 3435.46,2267.3 3444.5,2276C 3469.97,2292.8 3494.3,2311.13 3517.5,2331C 3524.72,2341.23 3533.05,2350.56 3542.5,2359C 3562.48,2374.32 3582.81,2389.16 3603.5,2403.5C 3616.34,2421.01 3632.01,2435.34 3650.5,2446.5C 3660.35,2458.67 3671.02,2470.17 3682.5,2481C 3697.35,2493.18 3713.85,2502.68 3732,2509.5C 3730.04,2532.28 3732.38,2554.61 3739,2576.5C 3739.33,2584.01 3739.83,2591.51 3740.5,2599C 3740.43,2639.34 3740.43,2679.67 3740.5,2720C 3739.7,2735.32 3739.04,2750.66 3738.5,2766C 3740.59,2797.84 3740.76,2829.68 3739,2861.5C 3732.39,2881.97 3729.39,2902.97 3730,2924.5C 3724.4,2948.91 3720.4,2973.57 3718,2998.5C 3715.67,3009.83 3713.33,3021.17 3711,3032.5C 3709.53,3052.49 3708.2,3072.49 3707,3092.5C 3702.06,3108.46 3699.4,3124.79 3699,3141.5C 3693.08,3159.35 3690.08,3177.68 3690,3196.5C 3682.93,3221.04 3680.59,3246.04 3683,3271.5C 3676.63,3289.3 3672.63,3307.63 3671,3326.5C 3662.87,3345.49 3658.7,3365.32 3658.5,3386C 3659.03,3401.01 3659.7,3416.01 3660.5,3431C 3660.33,3493.17 3660.17,3555.33 3660,3617.5C 3657.92,3619.86 3655.26,3620.86 3652,3620.5C 3591.67,3620.5 3531.33,3620.5 3471,3620.5C 3455.68,3619.7 3440.34,3619.04 3425,3618.5C 3405,3618.5 3385,3618.5 3365,3618.5C 3349.99,3619.03 3334.99,3619.7 3320,3620.5C 3306.48,3619.84 3292.98,3619.5 3279.5,3619.5C 3275.68,3590.86 3264.51,3565.53 3246,3543.5C 3225.07,3522.23 3203.23,3502.06 3180.5,3483C 3172.36,3476.87 3163.7,3471.54 3154.5,3467C 3149.14,3461.3 3143.47,3455.97 3137.5,3451C 3123.17,3440.67 3108.83,3430.33 3094.5,3420C 3087.53,3414.03 3080.86,3407.7 3074.5,3401C 3069.11,3396.61 3063.44,3392.61 3057.5,3389C 3041.37,3373.87 3024.37,3359.87 3006.5,3347C 3000.53,3340.03 2994.2,3333.36 2987.5,3327C 2980.57,3322.07 2974.24,3316.41 2968.5,3310C 2948.64,3294.82 2929.98,3278.15 2912.5,3260C 2906.33,3255.53 2901.16,3250.03 2897,3243.5C 2884.9,3230.06 2871.07,3218.89 2855.5,3210C 2835.53,3189.69 2815.19,3169.69 2794.5,3150C 2789.83,3146.67 2785.17,3143.33 2780.5,3140C 2766.34,3121.83 2749.67,3106.5 2730.5,3094C 2723.13,3084.96 2714.8,3076.96 2705.5,3070C 2693.1,3057.59 2680.1,3045.93 2666.5,3035C 2659.83,3030.33 2653.17,3025.67 2646.5,3021C 2627.44,3001.93 2607.77,2983.6 2587.5,2966C 2575.2,2952.03 2562.53,2938.37 2549.5,2925C 2540.12,2919.74 2532.62,2912.57 2527,2903.5C 2513.1,2889.59 2498.6,2876.43 2483.5,2864C 2479.5,2861.33 2475.5,2858.67 2471.5,2856C 2464.24,2846.73 2456.24,2838.07 2447.5,2830C 2435.51,2821.01 2423.18,2812.51 2410.5,2804.5C 2398.79,2787.79 2384.46,2773.79 2367.5,2762.5C 2360.09,2752.59 2351.76,2743.42 2342.5,2735C 2325.55,2722.38 2308.88,2709.38 2292.5,2696C 2275.64,2684.3 2258.64,2672.8 2241.5,2661.5C 2233.8,2650.29 2224.8,2640.13 2214.5,2631C 2203.87,2622.71 2193.54,2614.04 2183.5,2605C 2176.5,2600.16 2169.16,2595.83 2161.5,2592C 2147.7,2571.86 2130.36,2555.53 2109.5,2543C 2096.05,2528.59 2082.72,2514.09 2069.5,2499.5C 2082.55,2489.63 2094.88,2478.79 2106.5,2467C 2122.71,2460.76 2137.38,2452.09 2150.5,2441C 2170.89,2421.95 2190.55,2402.28 2209.5,2382C 2222.91,2374.92 2234.91,2365.92 2245.5,2355C 2255.5,2348.33 2265.5,2341.67 2275.5,2335C 2296.92,2315.8 2319.25,2297.8 2342.5,2281C 2356.22,2268.8 2369.55,2256.13 2382.5,2243C 2397.83,2231.67 2413.17,2220.33 2428.5,2209C 2456.52,2182.84 2486.19,2158.84 2517.5,2137C 2523.95,2129.55 2531.28,2123.21 2539.5,2118C 2546.2,2111.64 2552.53,2104.97 2558.5,2098C 2567.35,2093.08 2575.69,2087.41 2583.5,2081C 2596.07,2068.55 2608.4,2055.88 2620.5,2043C 2643.93,2029.9 2663.27,2012.24 2678.5,1990C 2696.72,1978.45 2714.39,1966.11 2731.5,1953C 2741.53,1943.3 2751.2,1933.3 2760.5,1923C 2772.35,1915.16 2783.02,1905.82 2792.5,1895C 2802.02,1889.74 2811.02,1883.74 2819.5,1877C 2829.86,1866.3 2840.53,1855.97 2851.5,1846C 2861.26,1839.41 2869.92,1831.58 2877.5,1822.5 Z M 1546.5,2394.5 C 1550.39,2399.9 1554.89,2404.9 1560,2409.5C 1571.7,2436.87 1589.7,2459.21 1614,2476.5C 1617.33,2481.17 1620.67,2485.83 1624,2490.5C 1644.5,2509.67 1664.33,2529.5 1683.5,2550C 1691.65,2556.58 1700.32,2562.41 1709.5,2567.5C 1725.18,2594.35 1746.85,2614.85 1774.5,2629C 1784.73,2639.9 1795.56,2650.07 1807,2659.5C 1814.05,2669.56 1822.22,2678.73 1831.5,2687C 1857.29,2705.13 1879.46,2726.96 1898,2752.5C 1908.26,2764.52 1920.09,2774.52 1933.5,2782.5C 1940.28,2790.79 1947.62,2798.62 1955.5,2806C 1962.76,2811.26 1969.43,2817.26 1975.5,2824C 1986.32,2832.58 1997.99,2839.92 2010.5,2846C 2022.17,2863 2036.5,2877.33 2053.5,2889C 2058.6,2894.71 2064.27,2899.71 2070.5,2904C 2092.66,2917.83 2114,2932.83 2134.5,2949C 2146.83,2966.67 2161.83,2981.67 2179.5,2994C 2187.39,3004.9 2196.39,3014.9 2206.5,3024C 2218.82,3033.16 2231.49,3041.83 2244.5,3050C 2259.94,3072.45 2279.94,3089.45 2304.5,3101C 2317.02,3120.36 2333.02,3136.19 2352.5,3148.5C 2359.28,3156.79 2366.62,3164.62 2374.5,3172C 2401.8,3196.97 2428.8,3222.3 2455.5,3248C 2486.2,3269.05 2514.2,3293.38 2539.5,3321C 2544.17,3324.33 2548.83,3327.67 2553.5,3331C 2567.01,3349.85 2583.68,3365.18 2603.5,3377C 2616.04,3389.84 2628.88,3402.34 2642,3414.5C 2651.21,3426.71 2662.04,3437.21 2674.5,3446C 2688.1,3464.27 2704.77,3478.94 2724.5,3490C 2733.43,3500.94 2743.1,3511.27 2753.5,3521C 2762.89,3528.06 2772.56,3534.72 2782.5,3541C 2793.48,3551.91 2804.48,3562.91 2815.5,3574C 2820.89,3578.39 2826.56,3582.39 2832.5,3586C 2841.46,3593.29 2850.13,3600.96 2858.5,3609C 2863.17,3612.33 2867.83,3615.67 2872.5,3619C 2870.47,3620.01 2868.3,3620.51 2866,3620.5C 2860.84,3619.94 2855.67,3619.44 2850.5,3619C 2836.25,3616.19 2821.91,3613.85 2807.5,3612C 2798.82,3611.33 2790.15,3611.49 2781.5,3612.5C 2763.23,3611.39 2745.23,3608.56 2727.5,3604C 2700.88,3601.61 2674.38,3598.44 2648,3594.5C 2628,3595.83 2608,3595.83 2588,3594.5C 2572.83,3595.04 2557.66,3595.71 2542.5,3596.5C 2492,3595.18 2441.5,3595.18 2391,3596.5C 2360.83,3593.85 2330.67,3593.85 2300.5,3596.5C 2280.33,3596.46 2260.16,3596.46 2240,3596.5C 2209.67,3593.87 2179.33,3593.87 2149,3596.5C 1987.83,3596.46 1826.66,3596.46 1665.5,3596.5C 1635.33,3593.85 1605.17,3593.85 1575,3596.5C 1514.33,3596.5 1453.67,3596.5 1393,3596.5C 1362.83,3593.85 1332.67,3593.85 1302.5,3596.5C 1226.99,3595.99 1151.49,3595.66 1076,3595.5C 1059.18,3597.05 1042.34,3598.55 1025.5,3600C 1002.37,3603.58 979.368,3607.91 956.5,3613C 948.482,3613.87 940.482,3614.87 932.5,3616C 915.738,3619.24 899.071,3622.9 882.5,3627C 865.496,3627.2 848.496,3627.2 831.5,3627C 818.159,3628 805.159,3630.67 792.5,3635C 784.988,3635.33 777.488,3635.83 770,3636.5C 731.168,3636.37 692.335,3636.2 653.5,3636C 640.011,3637.43 626.677,3639.76 613.5,3643C 596.172,3643.35 578.839,3644.02 561.5,3645C 552.687,3646.37 544.021,3648.37 535.5,3651C 523.817,3652.06 512.15,3652.23 500.5,3651.5C 500.001,3612.82 499.834,3574.16 500,3535.5C 512.051,3510.74 520.051,3484.74 524,3457.5C 529.139,3445.08 534.472,3432.75 540,3420.5C 541.972,3414.94 543.472,3409.28 544.5,3403.5C 583.245,3400.63 615.912,3385.13 642.5,3357C 650.172,3352.83 657.505,3348.17 664.5,3343C 675.857,3332.64 686.857,3321.98 697.5,3311C 709.5,3301.67 721.5,3292.33 733.5,3283C 751.808,3265.03 769.808,3246.69 787.5,3228C 796.696,3223.46 805.362,3218.13 813.5,3212C 823.5,3202.67 833.5,3193.33 843.5,3184C 849.444,3180.39 855.111,3176.39 860.5,3172C 874.167,3157.67 887.833,3143.33 901.5,3129C 927.645,3112.87 951.479,3093.7 973,3071.5C 977.688,3064.8 982.855,3058.47 988.5,3052.5C 1005.4,3043.1 1020.07,3030.94 1032.5,3016C 1047.12,3007.06 1060.29,2996.22 1072,2983.5C 1082.33,2968.83 1092.67,2954.17 1103,2939.5C 1106.27,2933.29 1109.27,2926.95 1112,2920.5C 1118.62,2914.58 1124.28,2907.91 1129,2900.5C 1152.87,2883.3 1170.87,2861.3 1183,2834.5C 1192.71,2824.74 1200.71,2813.74 1207,2801.5C 1217.91,2790.52 1228.91,2779.52 1240,2768.5C 1249.28,2754.89 1258.95,2741.55 1269,2728.5C 1288.82,2713.84 1304.15,2695.51 1315,2673.5C 1329.1,2659.27 1341.77,2643.94 1353,2627.5C 1364.52,2619.99 1374.85,2610.99 1384,2600.5C 1399.18,2578.15 1414.84,2556.15 1431,2534.5C 1451.73,2518.03 1467.39,2497.7 1478,2473.5C 1491.6,2457.23 1505.93,2441.57 1521,2426.5C 1528.31,2414.89 1536.81,2404.22 1546.5,2394.5 Z"/></g>
<g><path style="opacity:1" fill="#1da0f2" d="M 1157.5,746.5 C 1176.01,746.8 1194.51,747.467 1213,748.5C 1248.34,747.945 1283.68,747.612 1319,747.5C 1325.86,747.652 1332.69,748.152 1339.5,749C 1357.72,752.853 1375.72,757.52 1393.5,763C 1406.39,767.775 1418.39,774.108 1429.5,782C 1445.24,789.199 1459.24,798.866 1471.5,811C 1491.89,821.043 1509.72,834.543 1525,851.5C 1533,860.833 1541,870.167 1549,879.5C 1551.67,883.5 1554.33,887.5 1557,891.5C 1566.12,908.069 1574.45,925.069 1582,942.5C 1585.89,954.953 1588.89,967.62 1591,980.5C 1599.69,1000.42 1604.19,1021.25 1604.5,1043C 1604.05,1056.48 1603.88,1069.98 1604,1083.5C 1603.08,1095.77 1600.75,1107.77 1597,1119.5C 1595.7,1138.17 1595.37,1156.84 1596,1175.5C 1595.08,1187.77 1592.75,1199.77 1589,1211.5C 1589.41,1234.01 1585.41,1255.68 1577,1276.5C 1574.82,1291.75 1571.48,1306.75 1567,1321.5C 1559.86,1337.77 1552.2,1353.77 1544,1369.5C 1530.06,1390.45 1514.23,1409.95 1496.5,1428C 1491.83,1431.33 1487.17,1434.67 1482.5,1438C 1466.49,1454.01 1447.82,1466.01 1426.5,1474C 1412.34,1477.5 1398.34,1481.5 1384.5,1486C 1368.38,1499.9 1350.71,1511.57 1331.5,1521C 1318.37,1525.95 1305.04,1530.28 1291.5,1534C 1277.3,1538.17 1262.8,1540.34 1248,1540.5C 1213.34,1539.08 1179.17,1534.25 1145.5,1526C 1132.17,1521.33 1118.83,1516.67 1105.5,1512C 1091.78,1504.47 1077.78,1497.47 1063.5,1491C 1048.68,1480.09 1033.68,1469.42 1018.5,1459C 1006.24,1447.62 994.071,1436.12 982,1424.5C 972.749,1413.23 965.083,1400.9 959,1387.5C 953.667,1374.17 948.333,1360.83 943,1347.5C 938.043,1326.34 934.043,1305.01 931,1283.5C 921.081,1266.41 914.748,1248.08 912,1228.5C 910.335,1212.34 908.835,1196.18 907.5,1180C 907.643,1154.99 907.977,1129.99 908.5,1105C 907.312,1086.18 906.812,1067.35 907,1048.5C 910.086,1011.34 924.753,979.669 951,953.5C 957.837,942.654 966.171,932.987 976,924.5C 980.692,902.091 988.358,880.757 999,860.5C 1009.67,845.167 1020.33,829.833 1031,814.5C 1037.86,807.302 1045.03,800.468 1052.5,794C 1066.18,785.495 1079.51,776.495 1092.5,767C 1112.8,755.397 1134.47,748.564 1157.5,746.5 Z"/></g>
</svg>
