<?xml version="1.0" encoding="UTF-8"?>
<!DOCTYPE svg PUBLIC "-//W3C//DTD SVG 1.1//EN" "http://www.w3.org/Graphics/SVG/1.1/DTD/svg11.dtd">
<svg xmlns="http://www.w3.org/2000/svg" version="1.1" width="4096px" height="4096px" style="shape-rendering:geometricPrecision; text-rendering:geometricPrecision; image-rendering:optimizeQuality; fill-rule:evenodd; clip-rule:evenodd" xmlns:xlink="http://www.w3.org/1999/xlink">
<g><path style="opacity:1" fill="#1da0f2" d="M 483.5,218.5 C 526.17,216.226 563.17,229.059 594.5,257C 595.5,257.333 596.5,257.667 597.5,258C 604.915,266.089 612.415,274.255 620,282.5C 625.355,290.515 630.688,298.515 636,306.5C 647.668,329.858 655.335,354.525 659,380.5C 659.832,389.148 660.332,397.814 660.5,406.5C 660.487,431.668 660.487,456.835 660.5,482C 659.98,519.756 657.98,557.423 654.5,595C 650.708,608.833 647.708,622.833 645.5,637C 642.903,646.886 640.07,656.72 637,666.5C 635.147,684.126 633.98,701.793 633.5,719.5C 781.016,719.296 928.516,719.629 1076,720.5C 1109.83,717.848 1143.67,717.848 1177.5,720.5C 1368.83,719.167 1560.17,719.167 1751.5,720.5C 1785.5,717.862 1819.5,717.862 1853.5,720.5C 1909.83,719.167 1966.17,719.167 2022.5,720.5C 2027.57,720.099 2032.57,719.266 2037.5,718C 2042.27,715.386 2047.27,713.219 2052.5,711.5C 2060.71,709.994 2068.87,708.327 2077,706.5C 2099.5,706.401 2122,706.401 2144.5,706.5C 2151.49,705.876 2158.49,705.376 2165.5,705C 2174.6,701.376 2183.94,698.376 2193.5,696C 2214.51,694.196 2235.51,692.363 2256.5,690.5C 2273.23,690.693 2289.9,691.693 2306.5,693.5C 2318,690.861 2329.5,690.861 2341,693.5C 2352.5,690.861 2364,690.861 2375.5,693.5C 2386.5,690.833 2397.5,690.833 2408.5,693.5C 2419.83,690.833 2431.17,690.833 2442.5,693.5C 2476.17,689.528 2509.83,689.528 2543.5,693.5C 2554.83,690.833 2566.17,690.833 2577.5,693.5C 2588.66,690.862 2599.83,690.862 2611,693.5C 2622.5,690.861 2634,690.861 2645.5,693.5C 2656.5,690.833 2667.5,690.833 2678.5,693.5C 2689.83,690.833 2701.17,690.833 2712.5,693.5C 2730.65,691.062 2748.65,692.062 2766.5,696.5C 2795.77,704.942 2820.77,720.108 2841.5,742C 2850.55,746.431 2858.88,751.764 2866.5,758C 2876.28,767.452 2885.78,777.285 2895,787.5C 2904.61,802.121 2912.95,817.454 2920,833.5C 2924.02,838.867 2927.02,844.867 2929,851.5C 2934.06,858.266 2937.89,865.766 2940.5,874C 2954.46,896.986 2963.63,921.819 2968,948.5C 2969.55,968.167 2972.88,987.501 2978,1006.5C 2981.43,1013.87 2984.1,1021.54 2986,1029.5C 2989.88,1046.77 2993.55,1064.1 2997,1081.5C 2999.11,1084.51 3000.45,1087.84 3001,1091.5C 3005.23,1109.76 3007.39,1128.26 3007.5,1147C 3006.3,1209.17 3006.3,1271.34 3007.5,1333.5C 3260.65,1332.95 3513.81,1332.62 3767,1332.5C 3802.11,1333 3833.28,1344 3860.5,1365.5C 3865.68,1367.85 3870.68,1370.51 3875.5,1373.5C 3883.57,1379.2 3891.24,1385.36 3898.5,1392C 3911.38,1404.51 3923.88,1417.34 3936,1430.5C 3943.06,1439.69 3949.4,1449.35 3955,1459.5C 3956.13,1463.76 3957.8,1467.76 3960,1471.5C 3964.79,1478.24 3968.96,1485.4 3972.5,1493C 3984.6,1521.49 3991.1,1551.33 3992,1582.5C 4000.94,1609.42 4004.94,1637.09 4004,1665.5C 4006.46,1676.14 4008.8,1686.81 4011,1697.5C 4012.45,1718.51 4013.95,1739.51 4015.5,1760.5C 4014.2,1977.34 4014.2,2194.17 4015.5,2411C 4014.82,2479.02 3987.82,2533.02 3934.5,2573C 3918.83,2582 3903.17,2591 3887.5,2600C 3878.11,2603.93 3868.44,2607.1 3858.5,2609.5C 3847.91,2611.34 3837.25,2612.34 3826.5,2612.5C 3781.33,2612.49 3736.17,2612.49 3691,2612.5C 3670.96,2612.11 3650.96,2611.11 3631,2609.5C 3622.59,2607.42 3614.26,2605.09 3606,2602.5C 3595.5,2600.8 3585,2599.14 3574.5,2597.5C 3563.34,2600.14 3552.17,2600.14 3541,2597.5C 3529.5,2600.14 3518,2600.14 3506.5,2597.5C 3495.5,2600.17 3484.5,2600.17 3473.5,2597.5C 3462.17,2600.17 3450.83,2600.17 3439.5,2597.5C 3412.79,2600.61 3387.12,2596.78 3362.5,2586C 3355.43,2585.74 3348.43,2584.91 3341.5,2583.5C 3330.17,2586.17 3318.83,2586.17 3307.5,2583.5C 3296.34,2586.14 3285.17,2586.14 3274,2583.5C 3262.5,2586.14 3251,2586.14 3239.5,2583.5C 3228.5,2586.17 3217.5,2586.17 3206.5,2583.5C 3200.88,2584.55 3195.22,2585.22 3189.5,2585.5C 3179.47,2584.6 3169.47,2583.43 3159.5,2582C 3145.18,2578.75 3130.84,2575.41 3116.5,2572C 3105.27,2571.9 3094.11,2571.07 3083,2569.5C 3071.5,2572.14 3060,2572.14 3048.5,2569.5C 3037.5,2572.17 3026.5,2572.17 3015.5,2569.5C 3004.17,2572.17 2992.83,2572.17 2981.5,2569.5C 2970.34,2572.14 2959.17,2572.14 2948,2569.5C 2936.5,2572.14 2925,2572.14 2913.5,2569.5C 2902.5,2572.17 2891.5,2572.17 2880.5,2569.5C 2869.17,2572.17 2857.83,2572.17 2846.5,2569.5C 2835.17,2572.11 2823.84,2572.11 2812.5,2569.5C 2801.16,2572.11 2789.83,2572.11 2778.5,2569.5C 2767.17,2572.17 2755.83,2572.17 2744.5,2569.5C 2733.5,2572.17 2722.5,2572.17 2711.5,2569.5C 2700,2572.14 2688.5,2572.14 2677,2569.5C 2665.83,2572.14 2654.66,2572.14 2643.5,2569.5C 2632.17,2572.17 2620.83,2572.17 2609.5,2569.5C 2598.5,2572.17 2587.5,2572.17 2576.5,2569.5C 2565,2572.14 2553.5,2572.14 2542,2569.5C 2530.67,2572.17 2519.33,2572.17 2508,2569.5C 2496.83,2572.14 2485.66,2572.14 2474.5,2569.5C 2463.34,2572.14 2452.17,2572.14 2441,2569.5C 2429.67,2572.17 2418.33,2572.17 2407,2569.5C 2395.5,2572.14 2384,2572.14 2372.5,2569.5C 2361.5,2572.17 2350.5,2572.17 2339.5,2569.5C 2328.17,2572.17 2316.83,2572.17 2305.5,2569.5C 2294.5,2572.17 2283.5,2572.17 2272.5,2569.5C 2261,2572.14 2249.5,2572.14 2238,2569.5C 2226.83,2572.14 2215.66,2572.14 2204.5,2569.5C 2193.17,2572.17 2181.83,2572.17 2170.5,2569.5C 2159.5,2572.17 2148.5,2572.17 2137.5,2569.5C 2126,2572.14 2114.5,2572.14 2103,2569.5C 2093.21,2570.86 2083.38,2571.86 2073.5,2572.5C 2073.22,2772.63 2073.22,2972.8 2073.5,3173C 2073.58,3200.91 2068.42,3227.74 2058,3253.5C 2054.33,3261.19 2050.66,3268.86 2047,3276.5C 2045.67,3277.17 2044.67,3278.17 2044,3279.5C 2042.05,3285.36 2039.72,3291.03 2037,3296.5C 2033.6,3300.29 2030.93,3304.62 2029,3309.5C 2016.35,3325.82 2003.35,3341.82 1990,3357.5C 1970.18,3377.16 1946.85,3391.49 1920,3400.5C 1907.57,3403.2 1895.07,3405.53 1882.5,3407.5C 1873,3412.08 1863,3415.24 1852.5,3417C 1845.17,3419.88 1837.67,3422.38 1830,3424.5C 1815.39,3427.62 1800.72,3430.62 1786,3433.5C 1780.18,3434.01 1774.34,3434.35 1768.5,3434.5C 1357.49,3434.42 946.487,3434.08 535.5,3433.5C 528.177,3434.14 520.843,3434.64 513.5,3435C 512.793,3494.42 512.793,3553.92 513.5,3613.5C 512.599,3678.62 487.266,3731.28 437.5,3771.5C 375.07,3812.5 313.404,3811.33 252.5,3768C 227.418,3746.53 208.418,3720.53 195.5,3690C 191.702,3678.81 188.369,3667.48 185.5,3656C 183.021,3641.94 181.688,3627.78 181.5,3613.5C 181.616,3556.99 181.949,3500.49 182.5,3444C 177.078,3417.36 172.912,3390.52 170,3363.5C 169.278,3326.99 169.445,3290.49 170.5,3254C 169.912,3247.17 169.412,3240.34 169,3233.5C 164.452,3223.31 161.452,3212.65 160,3201.5C 156.963,3188.34 155.463,3175.01 155.5,3161.5C 155.712,3142.45 156.712,3123.45 158.5,3104.5C 155.833,3091.83 155.833,3079.17 158.5,3066.5C 155.859,3053.67 155.859,3040.84 158.5,3028C 155.859,3015.16 155.859,3002.33 158.5,2989.5C 155.833,2976.83 155.833,2964.17 158.5,2951.5C 155.833,2938.83 155.833,2926.17 158.5,2913.5C 155.859,2900.67 155.859,2887.84 158.5,2875C 155.859,2862.16 155.859,2849.33 158.5,2836.5C 153.037,2798.85 154.537,2761.52 163,2724.5C 164.264,2718.64 166.097,2712.98 168.5,2707.5C 169.304,2700.68 169.971,2693.85 170.5,2687C 170.44,2636 170.44,2585 170.5,2534C 169.29,2510.51 168.79,2487.01 169,2463.5C 169.786,2443.43 173.786,2424.1 181,2405.5C 181.56,2399.67 182.06,2393.84 182.5,2388C 181.862,2360.47 182.696,2332.97 185,2305.5C 187.537,2293.15 190.203,2280.82 193,2268.5C 193.314,2258.32 193.814,2248.16 194.5,2238C 194.472,2135.83 194.472,2033.67 194.5,1931.5C 191.87,1893 191.87,1854.5 194.5,1816C 193.167,1701.33 193.167,1586.67 194.5,1472C 193.299,1448.18 192.799,1424.34 193,1400.5C 195.72,1381.56 198.053,1362.56 200,1343.5C 201.218,1334.24 203.385,1325.24 206.5,1316.5C 205.272,1311.45 204.605,1306.28 204.5,1301C 205.858,1283.86 206.692,1266.69 207,1249.5C 207.776,1231.62 211.11,1214.29 217,1197.5C 217.305,1183.12 218.305,1168.78 220,1154.5C 225.147,1135.1 229.147,1115.43 232,1095.5C 235.146,1087.27 238.146,1078.94 241,1070.5C 244.981,1047.6 248.314,1024.6 251,1001.5C 252.444,995.31 253.944,989.143 255.5,983C 254.235,968.493 254.401,953.993 256,939.5C 259.304,918.762 262.97,898.095 267,877.5C 265.891,858.119 266.557,838.785 269,819.5C 274.46,797.451 280.127,775.451 286,753.5C 287.941,747.009 290.274,740.675 293,734.5C 294.197,714.98 297.863,695.98 304,677.5C 304.157,657.497 304.157,637.497 304,617.5C 305.005,594.472 309.839,572.305 318.5,551C 321.904,545.131 324.738,538.965 327,532.5C 327.475,509.283 328.641,486.117 330.5,463C 327.859,450.503 327.859,438.003 330.5,425.5C 326.362,380.846 335.362,339.18 357.5,300.5C 362.716,292.76 368.216,285.093 374,277.5C 402.668,243.578 439.168,223.912 483.5,218.5 Z M 2258.5,1066.5 C 2387.23,1067.07 2515.9,1067.4 2644.5,1067.5C 2648.26,1080.95 2653.09,1093.95 2659,1106.5C 2660.91,1114.48 2663.57,1122.14 2667,1129.5C 2669.54,1143.63 2672.54,1157.63 2676,1171.5C 2676.32,1182.18 2676.82,1192.84 2677.5,1203.5C 2676.89,1246.51 2676.55,1289.51 2676.5,1332.5C 2510.54,1333.17 2344.54,1333.17 2178.5,1332.5C 2159.81,1332.98 2141.15,1333.81 2122.5,1335C 2111.28,1337.22 2100.28,1340.22 2089.5,1344C 2080.43,1344.14 2071.43,1344.98 2062.5,1346.5C 2038.44,1343.98 2014.94,1346.64 1992,1354.5C 1984.34,1357.44 1977.17,1361.28 1970.5,1366C 1964.14,1366.6 1957.8,1367.43 1951.5,1368.5C 1946.34,1370.57 1941,1372.07 1935.5,1373C 1923.77,1373.06 1912.1,1373.89 1900.5,1375.5C 1894.88,1374.45 1889.22,1373.78 1883.5,1373.5C 1861.45,1374.68 1839.45,1376.35 1817.5,1378.5C 1806.54,1381.8 1795.71,1385.47 1785,1389.5C 1776.36,1390.68 1767.69,1391.68 1759,1392.5C 1747.15,1394.79 1735.82,1398.46 1725,1403.5C 1712.54,1407.06 1699.87,1409.73 1687,1411.5C 1662.22,1419.13 1637.05,1425.46 1611.5,1430.5C 1596.46,1436.81 1581.12,1442.31 1565.5,1447C 1552.19,1449.13 1538.85,1451.13 1525.5,1453C 1504.09,1455.82 1482.59,1457.99 1461,1459.5C 1444.72,1464.56 1428.22,1468.72 1411.5,1472C 1393,1471.82 1374.5,1471.65 1356,1471.5C 1344.26,1471.38 1332.76,1472.88 1321.5,1476C 1305.31,1476.7 1289.65,1479.86 1274.5,1485.5C 1258.51,1485.11 1242.51,1484.77 1226.5,1484.5C 1189.18,1485.61 1151.85,1486.45 1114.5,1487C 1106.46,1488.06 1098.46,1489.39 1090.5,1491C 1074.95,1496.34 1058.95,1499.51 1042.5,1500.5C 870.146,1499.75 697.812,1499.42 525.5,1499.5C 525.419,1471.84 525.252,1444.18 525,1416.5C 529.218,1399.74 532.552,1382.74 535,1365.5C 535.765,1340.16 536.432,1314.83 537,1289.5C 544.342,1265.08 547.676,1240.08 547,1214.5C 550.526,1199.45 555.193,1184.79 561,1170.5C 564.096,1153.15 567.096,1135.82 570,1118.5C 571.444,1110.56 572.278,1102.56 572.5,1094.5C 582.909,1094.9 593.242,1094.24 603.5,1092.5C 620.104,1094.31 636.771,1095.31 653.5,1095.5C 1126.84,1095.47 1600.17,1095.47 2073.5,1095.5C 2087.06,1095.35 2100.4,1093.52 2113.5,1090C 2122.29,1087.18 2130.96,1084.18 2139.5,1081C 2158,1081.18 2176.5,1081.35 2195,1081.5C 2214.18,1081.55 2232.68,1078.05 2250.5,1071C 2253.11,1069.21 2255.77,1067.71 2258.5,1066.5 Z M 2190.5,1706.5 C 2197.64,1707.25 2204.81,1707.92 2212,1708.5C 2217.71,1708.18 2223.38,1707.51 2229,1706.5C 2240.5,1709.14 2252,1709.14 2263.5,1706.5C 2274.5,1709.17 2285.5,1709.17 2296.5,1706.5C 2307.83,1709.17 2319.17,1709.17 2330.5,1706.5C 2341.83,1709.11 2353.16,1709.11 2364.5,1706.5C 2375.84,1709.11 2387.17,1709.11 2398.5,1706.5C 2409.83,1709.17 2421.17,1709.17 2432.5,1706.5C 2443.5,1709.17 2454.5,1709.17 2465.5,1706.5C 2477,1709.14 2488.5,1709.14 2500,1706.5C 2511.17,1709.14 2522.34,1709.14 2533.5,1706.5C 2544.83,1709.17 2556.17,1709.17 2567.5,1706.5C 2578.5,1709.17 2589.5,1709.17 2600.5,1706.5C 2612,1709.14 2623.5,1709.14 2635,1706.5C 2646.17,1709.14 2657.34,1709.14 2668.5,1706.5C 2679.83,1709.17 2691.17,1709.17 2702.5,1706.5C 2713.5,1709.17 2724.5,1709.17 2735.5,1706.5C 2746.83,1709.17 2758.17,1709.17 2769.5,1706.5C 2780.83,1709.11 2792.16,1709.11 2803.5,1706.5C 2814.84,1709.11 2826.17,1709.11 2837.5,1706.5C 2848.83,1709.17 2860.17,1709.17 2871.5,1706.5C 2882.5,1709.17 2893.5,1709.17 2904.5,1706.5C 2916,1709.14 2927.5,1709.14 2939,1706.5C 2950.17,1709.14 2961.34,1709.14 2972.5,1706.5C 2983.83,1709.17 2995.17,1709.17 3006.5,1706.5C 3017.5,1709.17 3028.5,1709.17 3039.5,1706.5C 3051,1709.14 3062.5,1709.14 3074,1706.5C 3085.17,1709.14 3096.34,1709.14 3107.5,1706.5C 3118.83,1709.17 3130.17,1709.17 3141.5,1706.5C 3152.66,1709.14 3163.83,1709.14 3175,1706.5C 3186.33,1709.17 3197.67,1709.17 3209,1706.5C 3220.5,1709.14 3232,1709.14 3243.5,1706.5C 3254.5,1709.17 3265.5,1709.17 3276.5,1706.5C 3287.83,1709.17 3299.17,1709.17 3310.5,1706.5C 3321.66,1709.14 3332.83,1709.14 3344,1706.5C 3355.5,1709.14 3367,1709.14 3378.5,1706.5C 3389.5,1709.17 3400.5,1709.17 3411.5,1706.5C 3422.83,1709.17 3434.17,1709.17 3445.5,1706.5C 3456.66,1709.14 3467.83,1709.14 3479,1706.5C 3490.5,1709.14 3502,1709.14 3513.5,1706.5C 3524.66,1709.14 3535.83,1709.14 3547,1706.5C 3558.17,1709.14 3569.34,1709.14 3580.5,1706.5C 3592,1709.14 3603.5,1709.14 3615,1706.5C 3626.17,1709.14 3637.34,1709.14 3648.5,1706.5C 3656.42,1708.14 3664.42,1708.81 3672.5,1708.5C 3672.75,1714.87 3673.42,1721.2 3674.5,1727.5C 3679.75,1744.49 3683.08,1761.82 3684.5,1779.5C 3684.32,1932.19 3684.32,2084.85 3684.5,2237.5C 3672.37,2235.84 3660.37,2233.34 3648.5,2230C 3633.44,2228.37 3618.44,2226.37 3603.5,2224C 3556.16,2224 3508.83,2223.83 3461.5,2223.5C 3454.74,2222.08 3448.24,2219.75 3442,2216.5C 3425.58,2211.32 3408.75,2208.32 3391.5,2207.5C 3374.85,2208.88 3358.19,2209.88 3341.5,2210.5C 3296.99,2210.41 3252.49,2210.41 3208,2210.5C 3191.84,2206.73 3175.84,2202.39 3160,2197.5C 3151.21,2196.32 3142.37,2195.66 3133.5,2195.5C 2263.84,2196.35 1394.18,2196.35 524.5,2195.5C 525.369,2088.87 525.369,1982.2 524.5,1875.5C 528.543,1875.2 532.543,1874.54 536.5,1873.5C 547.5,1876.17 558.5,1876.17 569.5,1873.5C 580.833,1876.17 592.167,1876.17 603.5,1873.5C 614.5,1876.17 625.5,1876.17 636.5,1873.5C 647.996,1876.14 659.496,1876.14 671,1873.5C 682.17,1876.14 693.337,1876.14 704.5,1873.5C 715.833,1876.17 727.167,1876.17 738.5,1873.5C 749.5,1876.17 760.5,1876.17 771.5,1873.5C 782.996,1876.14 794.496,1876.14 806,1873.5C 817.504,1876.14 829.004,1876.14 840.5,1873.5C 851.5,1876.17 862.5,1876.17 873.5,1873.5C 884.833,1876.17 896.167,1876.17 907.5,1873.5C 918.663,1876.14 929.83,1876.14 941,1873.5C 952.504,1876.14 964.004,1876.14 975.5,1873.5C 986.5,1876.17 997.5,1876.17 1008.5,1873.5C 1019.83,1876.17 1031.17,1876.17 1042.5,1873.5C 1047.95,1874.54 1053.45,1875.21 1059,1875.5C 1075.94,1873.27 1092.94,1871.6 1110,1870.5C 1121.77,1868.68 1133.27,1865.85 1144.5,1862C 1155.23,1861.91 1165.9,1861.08 1176.5,1859.5C 1181.95,1860.54 1187.45,1861.21 1193,1861.5C 1209.98,1860.07 1226.98,1859.07 1244,1858.5C 1261.02,1859.07 1278.02,1860.07 1295,1861.5C 1314.92,1860.87 1334.09,1856.87 1352.5,1849.5C 1359.22,1848.44 1365.89,1847.11 1372.5,1845.5C 1383.83,1848.17 1395.17,1848.17 1406.5,1845.5C 1415.78,1847.54 1425.11,1847.87 1434.5,1846.5C 1452.65,1843.34 1470.81,1840.34 1489,1837.5C 1496.97,1835.04 1504.97,1832.71 1513,1830.5C 1523.5,1829.71 1534,1828.87 1544.5,1828C 1568.09,1825.39 1591.59,1822.23 1615,1818.5C 1632.25,1812.92 1649.75,1808.25 1667.5,1804.5C 1672.83,1802.54 1678,1800.21 1683,1797.5C 1688.69,1796.4 1694.19,1794.73 1699.5,1792.5C 1712.66,1791.2 1725.33,1788.03 1737.5,1783C 1756.08,1778.52 1774.74,1774.36 1793.5,1770.5C 1799.04,1768.82 1804.38,1766.65 1809.5,1764C 1824.61,1761.18 1839.78,1758.68 1855,1756.5C 1875.03,1749.41 1895.69,1747.07 1917,1749.5C 1936.19,1749.01 1955.35,1748.18 1974.5,1747C 1990.61,1742.11 2006.95,1738.11 2023.5,1735C 2030.31,1733.99 2037.14,1733.15 2044,1732.5C 2056.09,1730.29 2067.59,1726.45 2078.5,1721C 2095.66,1719.96 2112.82,1719.13 2130,1718.5C 2142.84,1716.6 2155.34,1713.43 2167.5,1709C 2175.57,1709.14 2183.23,1708.31 2190.5,1706.5 Z M 499.5,2567.5 C 510.11,2569.19 520.777,2570.52 531.5,2571.5C 537.216,2571.22 542.883,2570.55 548.5,2569.5C 559.827,2572.11 571.16,2572.11 582.5,2569.5C 593.84,2572.11 605.173,2572.11 616.5,2569.5C 627.833,2572.17 639.167,2572.17 650.5,2569.5C 661.5,2572.17 672.5,2572.17 683.5,2569.5C 694.996,2572.14 706.496,2572.14 718,2569.5C 729.17,2572.14 740.337,2572.14 751.5,2569.5C 762.833,2572.17 774.167,2572.17 785.5,2569.5C 796.5,2572.17 807.5,2572.17 818.5,2569.5C 829.996,2572.14 841.496,2572.14 853,2569.5C 864.333,2572.17 875.667,2572.17 887,2569.5C 898.17,2572.14 909.337,2572.14 920.5,2569.5C 931.663,2572.14 942.83,2572.14 954,2569.5C 965.333,2572.17 976.667,2572.17 988,2569.5C 999.504,2572.14 1011,2572.14 1022.5,2569.5C 1033.5,2572.17 1044.5,2572.17 1055.5,2569.5C 1066.83,2572.17 1078.17,2572.17 1089.5,2569.5C 1100.5,2572.17 1111.5,2572.17 1122.5,2569.5C 1134,2572.14 1145.5,2572.14 1157,2569.5C 1168.17,2572.14 1179.34,2572.14 1190.5,2569.5C 1201.83,2572.17 1213.17,2572.17 1224.5,2569.5C 1235.5,2572.17 1246.5,2572.17 1257.5,2569.5C 1269,2572.14 1280.5,2572.14 1292,2569.5C 1303.5,2572.14 1315,2572.14 1326.5,2569.5C 1337.5,2572.17 1348.5,2572.17 1359.5,2569.5C 1370.83,2572.17 1382.17,2572.17 1393.5,2569.5C 1404.66,2572.14 1415.83,2572.14 1427,2569.5C 1438.5,2572.14 1450,2572.14 1461.5,2569.5C 1472.5,2572.17 1483.5,2572.17 1494.5,2569.5C 1505.83,2572.17 1517.17,2572.17 1528.5,2569.5C 1539.66,2572.14 1550.83,2572.14 1562,2569.5C 1573.5,2572.14 1585,2572.14 1596.5,2569.5C 1607.5,2572.17 1618.5,2572.17 1629.5,2569.5C 1640.83,2572.17 1652.17,2572.17 1663.5,2569.5C 1674.83,2572.11 1686.16,2572.11 1697.5,2569.5C 1708.84,2572.11 1720.17,2572.11 1731.5,2569.5C 1735.28,2570.09 1738.94,2571.09 1742.5,2572.5C 1743.12,2734.45 1743.12,2896.45 1742.5,3058.5C 1324.47,3059.11 906.473,3059.11 488.5,3058.5C 488.753,2973.46 488.42,2888.46 487.5,2803.5C 489.607,2794.82 491.773,2786.15 494,2777.5C 495.67,2758.13 497.67,2738.8 500,2719.5C 500.165,2668.84 499.999,2618.17 499.5,2567.5 Z"/></g>
</svg>
