<?xml version="1.0" encoding="UTF-8"?>
<!DOCTYPE svg PUBLIC "-//W3C//DTD SVG 1.1//EN" "http://www.w3.org/Graphics/SVG/1.1/DTD/svg11.dtd">
<svg xmlns="http://www.w3.org/2000/svg" version="1.1" width="4096px" height="4096px" style="shape-rendering:geometricPrecision; text-rendering:geometricPrecision; image-rendering:optimizeQuality; fill-rule:evenodd; clip-rule:evenodd" xmlns:xlink="http://www.w3.org/1999/xlink">
<g><path style="opacity:1" fill="#6a7a86" d="M 1242.5,619.5 C 1259.36,619.311 1275.7,622.144 1291.5,628C 1304.45,634.142 1317.12,640.809 1329.5,648C 1341.8,655.289 1352.63,664.456 1362,675.5C 1367.9,684.737 1374.57,693.404 1382,701.5C 1388.94,715.059 1397.61,727.393 1408,738.5C 1412.92,748.006 1418.58,757.006 1425,765.5C 1447.49,813.478 1469.16,861.812 1490,910.5C 1491.87,915.772 1493.54,921.106 1495,926.5C 1506.32,944.773 1514.32,964.44 1519,985.5C 1527.39,1002.62 1534.39,1020.28 1540,1038.5C 1553.94,1060.72 1564.94,1084.39 1573,1109.5C 1581.71,1127.96 1589.04,1146.96 1595,1166.5C 1601.75,1179.34 1607.42,1192.67 1612,1206.5C 1613.87,1214.07 1615.21,1221.74 1616,1229.5C 1622.96,1243.38 1627.29,1258.05 1629,1273.5C 1640.21,1289.59 1647.88,1307.26 1652,1326.5C 1666.03,1350.59 1677.37,1375.93 1686,1402.5C 1687.55,1409.12 1688.88,1415.79 1690,1422.5C 1696.26,1435.35 1702.26,1448.35 1708,1461.5C 1715.25,1470.33 1721.25,1479.99 1726,1490.5C 1731.08,1507.25 1736.42,1523.92 1742,1540.5C 1749.43,1551.68 1756.09,1563.34 1762,1575.5C 1780.46,1594.09 1791.8,1616.42 1796,1642.5C 1806.51,1660.85 1814.84,1680.19 1821,1700.5C 1847.91,1744.26 1848.25,1788.26 1822,1832.5C 1788.88,1877.88 1744.71,1894.71 1689.5,1883C 1658.08,1873.91 1633.92,1855.41 1617,1827.5C 1611.33,1816.83 1605.67,1806.17 1600,1795.5C 1593.49,1773.48 1584.49,1752.48 1573,1732.5C 1571.2,1727.42 1569.2,1722.42 1567,1717.5C 1558.61,1707.4 1552.28,1696.06 1548,1683.5C 1537.24,1666.32 1527.24,1648.65 1518,1630.5C 1513.99,1620.81 1510.99,1610.81 1509,1600.5C 1494.31,1583.11 1484.97,1563.11 1481,1540.5C 1478.41,1536.33 1476.08,1531.99 1474,1527.5C 1471.12,1518.18 1467.45,1509.18 1463,1500.5C 1459.08,1490.15 1456.41,1479.48 1455,1468.5C 1446.92,1452.01 1438.59,1435.68 1430,1419.5C 1426.73,1411.36 1424.07,1403.03 1422,1394.5C 1414.14,1380.11 1406.81,1365.45 1400,1350.5C 1395.42,1338.58 1392.75,1326.25 1392,1313.5C 1385.98,1300.78 1381.98,1287.45 1380,1273.5C 1372.88,1256.8 1366.54,1239.8 1361,1222.5C 1357.88,1214.26 1354.21,1206.26 1350,1198.5C 1347,1190.17 1344,1181.83 1341,1173.5C 1333.41,1160.66 1326.08,1147.66 1319,1134.5C 1314.73,1123.35 1311.06,1112.01 1308,1100.5C 1302.47,1088.25 1297.14,1075.92 1292,1063.5C 1290.13,1058.23 1288.46,1052.89 1287,1047.5C 1282.49,1040.49 1278.49,1033.15 1275,1025.5C 1270.69,1013.58 1266.69,1001.58 1263,989.5C 1262.67,989.167 1262.33,988.833 1262,988.5C 1259.17,994.822 1255.84,1000.82 1252,1006.5C 1244.24,1014.93 1237.24,1023.93 1231,1033.5C 1220.12,1044.68 1208.96,1055.51 1197.5,1066C 1182.53,1075.4 1168.36,1085.9 1155,1097.5C 1154.27,1108.25 1152.93,1118.91 1151,1129.5C 1144.57,1153.39 1138.57,1177.39 1133,1201.5C 1131.06,1207.99 1128.73,1214.32 1126,1220.5C 1125.19,1231.19 1123.36,1241.69 1120.5,1252C 1120.89,1334.66 1121.23,1417.33 1121.5,1500C 1121,1513.66 1118.67,1527 1114.5,1540C 1115.07,1558.32 1115.41,1576.65 1115.5,1595C 1113.57,1616.07 1109.57,1636.74 1103.5,1657C 1103.53,1667.31 1103.86,1677.64 1104.5,1688C 1104,1693.5 1103.5,1699 1103,1704.5C 1097.87,1725.8 1092.87,1747.13 1088,1768.5C 1088.69,1781.59 1087.69,1794.59 1085,1807.5C 1080.67,1820.5 1076.33,1833.5 1072,1846.5C 1068.27,1874.23 1062.6,1901.56 1055,1928.5C 1056.06,1945.18 1054.06,1961.51 1049,1977.5C 1047.91,2000.26 1044.25,2022.6 1038,2044.5C 1038.93,2061.61 1037.1,2078.44 1032.5,2095C 1032.95,2129.99 1033.29,2164.99 1033.5,2200C 1033.05,2213.51 1030.72,2226.68 1026.5,2239.5C 1026.98,2273.65 1027.32,2307.82 1027.5,2342C 1026.91,2354.9 1024.91,2367.56 1021.5,2380C 1022.55,2388.5 1022.38,2397 1021,2405.5C 1017.6,2419.85 1014.1,2434.19 1010.5,2448.5C 1011.98,2464.6 1009.98,2480.26 1004.5,2495.5C 1005.6,2510.43 1003.93,2525.09 999.5,2539.5C 1000.95,2555.75 998.947,2571.58 993.5,2587C 994.393,2596.86 993.893,2606.7 992,2616.5C 979,2671.5 966,2726.5 953,2781.5C 950.929,2789.38 948.262,2797.05 945,2804.5C 944.424,2812.96 943.091,2821.29 941,2829.5C 937.904,2843.89 933.57,2857.89 928,2871.5C 927.3,2882.53 925.467,2893.37 922.5,2904C 923.546,2912.5 923.38,2921 922,2929.5C 919.079,2942.93 915.745,2956.27 912,2969.5C 913.1,2986.89 910.934,3003.89 905.5,3020.5C 905.569,3033.05 905.569,3045.55 905.5,3058C 908.575,3059.01 911.742,3059.51 915,3059.5C 969.071,3058.52 1023.07,3058.52 1077,3059.5C 1110.57,3051.42 1144.07,3042.92 1177.5,3034C 1186.58,3032.17 1195.75,3031.01 1205,3030.5C 1264.01,3031.04 1323.01,3031.37 1382,3031.5C 1394.44,3028.09 1407.1,3026.09 1420,3025.5C 1619.33,3026.83 1818.67,3026.83 2018,3025.5C 2030.9,3026.09 2043.56,3028.09 2056,3031.5C 2066.55,3030.49 2077.05,3030.99 2087.5,3033C 2106.02,3037.97 2124.68,3042.3 2143.5,3046C 2157.51,3049.25 2171.18,3053.59 2184.5,3059C 2195.22,3059.59 2205.72,3061.43 2216,3064.5C 2298.65,3063.99 2381.32,3063.65 2464,3063.5C 2517.34,3066.15 2554.67,3091.82 2576,3140.5C 2593.49,3193.7 2581.66,3239.2 2540.5,3277C 2518.09,3294.47 2492.59,3303.64 2464,3304.5C 2376,3303.17 2288,3303.17 2200,3304.5C 2187.41,3304.01 2175.08,3302.01 2163,3298.5C 2136.49,3300.41 2111.99,3294.25 2089.5,3280C 2075.73,3277.26 2062.07,3274.09 2048.5,3270.5C 2033.06,3271.63 2017.89,3269.96 2003,3265.5C 1813.67,3265.5 1624.33,3265.5 1435,3265.5C 1422.56,3268.91 1409.9,3270.91 1397,3271.5C 1338.79,3270.84 1280.63,3270.51 1222.5,3270.5C 1196.8,3276.84 1171.13,3283.34 1145.5,3290C 1128.57,3294.25 1111.4,3297.09 1094,3298.5C 1091.91,3298.46 1089.91,3298.13 1088,3297.5C 1082.42,3298.46 1076.75,3299.13 1071,3299.5C 983,3298.17 895,3298.17 807,3299.5C 796.342,3299.08 785.842,3297.58 775.5,3295C 756.483,3288.89 738.15,3281.22 720.5,3272C 685.471,3247.62 667.138,3213.95 665.5,3171C 666.782,3115.33 666.782,3059.66 665.5,3004C 665.946,2990.49 668.279,2977.32 672.5,2964.5C 671.578,2954.46 672.078,2944.46 674,2934.5C 676.9,2921.6 680.067,2908.76 683.5,2896C 682.404,2880.73 684.07,2865.73 688.5,2851C 686.308,2825.43 691.975,2801.77 705.5,2780C 703.837,2755.82 709.337,2733.32 722,2712.5C 733.078,2669.27 743.745,2625.93 754,2582.5C 752.81,2564.93 754.977,2547.76 760.5,2531C 759.374,2515.9 761.041,2501.06 765.5,2486.5C 764.024,2470.4 766.024,2454.74 771.5,2439.5C 770.6,2431.86 770.767,2424.19 772,2416.5C 775.233,2401.6 778.733,2386.76 782.5,2372C 781.404,2356.73 783.07,2341.73 787.5,2327C 786.986,2292.34 786.653,2257.68 786.5,2223C 786.946,2209.49 789.279,2196.32 793.5,2183.5C 792.958,2149.02 792.624,2114.52 792.5,2080C 793.094,2067.1 795.094,2054.44 798.5,2042C 797.454,2033.5 797.62,2025 799,2016.5C 802.394,2000.46 805.894,1984.46 809.5,1968.5C 808.174,1952.95 810.174,1937.78 815.5,1923C 814.607,1913.14 815.107,1903.3 817,1893.5C 820.883,1874.3 825.549,1855.3 831,1836.5C 829.171,1810.31 834.505,1785.65 847,1762.5C 847.64,1752.79 848.64,1743.13 850,1733.5C 854.528,1712.75 859.361,1692.09 864.5,1671.5C 864.445,1661.02 864.111,1650.52 863.5,1640C 864,1634.5 864.5,1629 865,1623.5C 868.499,1609 871.999,1594.5 875.5,1580C 874.986,1561.34 874.653,1542.68 874.5,1524C 874.999,1510.34 877.333,1497 881.5,1484C 881.373,1422.51 881.373,1361.01 881.5,1299.5C 881.333,1298.17 881.167,1296.83 881,1295.5C 871.7,1300.13 863.533,1306.3 856.5,1314C 840.346,1325.41 823.013,1334.75 804.5,1342C 789.395,1352.22 773.395,1360.89 756.5,1368C 733.201,1410.08 697.368,1432.25 649,1434.5C 597.99,1432.12 561.324,1408.12 539,1362.5C 525,1330.17 525,1297.83 539,1265.5C 545.141,1252.75 551.475,1240.08 558,1227.5C 560.911,1224.01 563.578,1220.34 566,1216.5C 576.878,1205.32 588.045,1194.49 599.5,1184C 611.5,1176 623.5,1168 635.5,1160C 646.167,1155 656.833,1150 667.5,1145C 670.557,1142.28 673.89,1139.94 677.5,1138C 690.167,1131.67 702.833,1125.33 715.5,1119C 719.94,1113.96 724.94,1109.62 730.5,1106C 752.041,1094.07 772.374,1080.4 791.5,1065C 800.101,1060.06 808.435,1054.73 816.5,1049C 823.198,1045.65 829.864,1042.32 836.5,1039C 854.815,1022.02 874.815,1007.35 896.5,995C 909.341,980.251 924.674,968.918 942.5,961C 952.496,950.339 964.163,942.005 977.5,936C 986.833,926.667 996.167,917.333 1005.5,908C 1018.99,898.088 1032.66,888.421 1046.5,879C 1050.02,875.443 1053.19,871.61 1056,867.5C 1065.67,850.833 1075.33,834.167 1085,817.5C 1092.11,785.608 1100.11,753.942 1109,722.5C 1111.39,716.713 1114.06,711.046 1117,705.5C 1123.58,693.328 1130.92,681.661 1139,670.5C 1151.28,655.873 1166.12,644.706 1183.5,637C 1202.19,627.375 1221.86,621.542 1242.5,619.5 Z"/></g>
<g><path style="opacity:1" fill="#6a7a86" d="M 1825.5,682.5 C 1907.01,682.892 1988.51,682.892 2070,682.5C 2083.06,683.148 2095.89,685.148 2108.5,688.5C 2127.32,688.016 2146.16,687.683 2165,687.5C 2177.74,688.04 2190.24,690.04 2202.5,693.5C 2220.38,691.98 2237.72,694.48 2254.5,701C 2268.47,702.639 2282.47,703.972 2296.5,705C 2304.83,706.292 2313,708.125 2321,710.5C 2328.44,709.626 2335.94,709.792 2343.5,711C 2373.75,713.84 2403.91,717.34 2434,721.5C 2677.34,721.218 2920.67,720.884 3164,720.5C 3201.46,721.733 3232.46,736.399 3257,764.5C 3261.63,770.135 3266.63,775.468 3272,780.5C 3282.55,793.937 3290.22,808.937 3295,825.5C 3299.16,844.967 3303.83,864.3 3309,883.5C 3309.5,889 3310,894.5 3310.5,900C 3309.17,956 3309.17,1012 3310.5,1068C 3307.26,1099.3 3303.09,1130.47 3298,1161.5C 3295.86,1171.91 3292.53,1181.91 3288,1191.5C 3289.34,1210.89 3287.18,1229.89 3281.5,1248.5C 3282.1,1250.61 3282.44,1252.77 3282.5,1255C 3279.67,1276.43 3277.51,1297.93 3276,1319.5C 3275.03,1327.21 3273.2,1334.71 3270.5,1342C 3271.63,1357.1 3269.96,1371.94 3265.5,1386.5C 3265.98,1437.32 3266.32,1488.16 3266.5,1539C 3266.16,1552.21 3263.83,1565.05 3259.5,1577.5C 3259.51,1810.96 3259.84,2044.46 3260.5,2278C 3259.91,2290.9 3257.91,2303.56 3254.5,2316C 3254.95,2334.99 3255.29,2353.99 3255.5,2373C 3255.05,2386.51 3252.72,2399.68 3248.5,2412.5C 3248.73,2602.31 3248.73,2792.15 3248.5,2982C 3248.64,2986.21 3249.14,2990.38 3250,2994.5C 3255.98,2987.35 3262.48,2980.68 3269.5,2974.5C 3292.75,2939.07 3319.58,2906.41 3350,2876.5C 3358.98,2859.18 3370.65,2843.84 3385,2830.5C 3393.42,2816.66 3402.08,2803 3411,2789.5C 3419.07,2782.1 3426.4,2774.1 3433,2765.5C 3442.33,2753.5 3451.67,2741.5 3461,2729.5C 3469,2718.17 3477,2706.83 3485,2695.5C 3494.76,2682.98 3504.76,2670.65 3515,2658.5C 3525.36,2647.8 3536.03,2637.47 3547,2627.5C 3554.23,2614.25 3563.73,2602.75 3575.5,2593C 3591.16,2582.17 3607.16,2571.83 3623.5,2562C 3638.61,2543.95 3655.61,2527.95 3674.5,2514C 3723.6,2486.16 3770.94,2488.83 3816.5,2522C 3857.66,2559.8 3869.49,2605.3 3852,2658.5C 3843.27,2680.4 3829.44,2698.4 3810.5,2712.5C 3803.47,2723.04 3795.14,2732.54 3785.5,2741C 3775.97,2746.94 3766.97,2753.6 3758.5,2761C 3752.82,2764.84 3746.82,2768.17 3740.5,2771C 3737.3,2774.57 3734.47,2778.4 3732,2782.5C 3719,2794.83 3706,2807.17 3693,2819.5C 3684.09,2830.32 3675.43,2841.32 3667,2852.5C 3659,2863.83 3651,2875.17 3643,2886.5C 3633,2899.17 3623,2911.83 3613,2924.5C 3609,2928.5 3605,2932.5 3601,2936.5C 3593.33,2948.83 3585.67,2961.17 3578,2973.5C 3572.07,2981.43 3565.41,2988.77 3558,2995.5C 3552.27,3007.56 3544.6,3018.23 3535,3027.5C 3525.44,3040.07 3514.77,3051.73 3503,3062.5C 3494.09,3073.32 3485.43,3084.32 3477,3095.5C 3469.58,3107.34 3461.92,3119 3454,3130.5C 3449.33,3135.17 3444.67,3139.83 3440,3144.5C 3428.86,3165.95 3416.53,3186.62 3403,3206.5C 3396,3213.5 3389,3220.5 3382,3227.5C 3374.05,3239.11 3365.72,3250.45 3357,3261.5C 3343.47,3274.7 3329.63,3287.53 3315.5,3300C 3302.17,3307.33 3288.83,3314.67 3275.5,3322C 3260.01,3328.57 3243.84,3332.07 3227,3332.5C 3211,3332.5 3195,3332.5 3179,3332.5C 3151.17,3331.78 3126.33,3322.95 3104.5,3306C 3095.25,3302.58 3086.25,3298.58 3077.5,3294C 3058.11,3281.97 3038.11,3270.97 3017.5,3261C 3004.55,3251.72 2991.88,3242.05 2979.5,3232C 2948.82,3215.67 2919.49,3197.34 2891.5,3177C 2878.44,3169.97 2864.77,3164.3 2850.5,3160C 2841.16,3155.67 2832.5,3150.34 2824.5,3144C 2803.63,3137.57 2785.63,3126.57 2770.5,3111C 2756.48,3104.32 2744.15,3095.32 2733.5,3084C 2718.21,3077.04 2704.87,3067.38 2693.5,3055C 2684.16,3050.67 2675.5,3045.34 2667.5,3039C 2651.56,3025.06 2636.23,3010.4 2621.5,2995C 2601.26,2980.09 2581.59,2964.43 2562.5,2948C 2508.06,2928.48 2479.06,2889.81 2475.5,2832C 2477.88,2780.99 2501.88,2744.32 2547.5,2722C 2577.91,2708.99 2608.57,2708.33 2639.5,2720C 2654.22,2725.86 2668.56,2732.53 2682.5,2740C 2689.65,2745.75 2697.32,2750.75 2705.5,2755C 2725.64,2772.81 2746.64,2789.47 2768.5,2805C 2784.11,2818.6 2799.11,2832.94 2813.5,2848C 2828.79,2854.96 2842.13,2864.62 2853.5,2877C 2867.95,2883.89 2880.61,2893.23 2891.5,2905C 2901.34,2909.42 2910.34,2915.08 2918.5,2922C 2933.34,2926.75 2946.68,2934.09 2958.5,2944C 2962.24,2945.14 2965.91,2946.47 2969.5,2948C 2982.53,2954.12 2995.36,2960.62 3008,2967.5C 3008.33,2966.5 3008.67,2965.5 3009,2964.5C 3008.83,2775 3008.67,2585.5 3008.5,2396C 3008.95,2382.49 3011.28,2369.32 3015.5,2356.5C 3014.96,2338.02 3014.62,2319.52 3014.5,2301C 3015.09,2288.1 3017.09,2275.44 3020.5,2263C 3020.37,2028.68 3020.04,1794.34 3019.5,1560C 3019.84,1546.79 3022.17,1533.95 3026.5,1521.5C 3025.9,1471.37 3025.57,1421.21 3025.5,1371C 3026.04,1358.26 3028.04,1345.76 3031.5,1333.5C 3029.98,1316.7 3032.15,1300.37 3038,1284.5C 3039.18,1268.73 3041.02,1253.07 3043.5,1237.5C 3042.43,1222.41 3044.1,1207.58 3048.5,1193C 3047.45,1184.5 3047.62,1176 3049,1167.5C 3051.36,1155.9 3053.36,1144.23 3055,1132.5C 3057.21,1123.87 3060.21,1115.54 3064,1107.5C 3066.18,1092.52 3068.18,1077.52 3070,1062.5C 3070.09,1028.82 3070.26,995.155 3070.5,961.5C 2854.33,960.295 2638.17,960.295 2422,961.5C 2384.67,956.744 2347.33,952.41 2310,948.5C 2302.56,949.374 2295.06,949.208 2287.5,948C 2264.1,943.173 2240.43,940.173 2216.5,939C 2209.32,938.097 2202.32,936.43 2195.5,934C 2179.89,933.718 2164.55,931.551 2149.5,927.5C 2131.01,928.043 2112.51,928.377 2094,928.5C 2080.94,927.852 2068.11,925.852 2055.5,922.5C 1980.68,922.604 1905.84,922.938 1831,923.5C 1779.99,921.117 1743.32,897.117 1721,851.5C 1700.64,796.796 1711.8,749.629 1754.5,710C 1775.43,693.636 1799.1,684.469 1825.5,682.5 Z"/></g>
</svg>
