<?xml version="1.0" encoding="UTF-8"?>
<!DOCTYPE svg PUBLIC "-//W3C//DTD SVG 1.1//EN" "http://www.w3.org/Graphics/SVG/1.1/DTD/svg11.dtd">
<svg xmlns="http://www.w3.org/2000/svg" version="1.1" width="35px" height="35px" style="shape-rendering:geometricPrecision; text-rendering:geometricPrecision; image-rendering:optimizeQuality; fill-rule:evenodd; clip-rule:evenodd" xmlns:xlink="http://www.w3.org/1999/xlink">
<g><path style="opacity:0.751" fill="#78818c" d="M 10.5,4.5 C 16.7827,4.26753 22.2827,6.26753 27,10.5C 27.9559,14.572 27.4559,18.4054 25.5,22C 29.4177,24.4765 30.7511,27.8099 29.5,32C 28.5,32.6667 27.5,32.6667 26.5,32C 24.5,29.6667 22.5,27.3333 20.5,25C 15.2849,25.1695 10.4515,24.0028 6,21.5C 5.62709,19.3018 5.12709,17.1351 4.5,15C 5.7173,12.632 6.55064,10.132 7,7.5C 8.14508,6.36362 9.31174,5.36362 10.5,4.5 Z M 12.5,11.5 C 15.0795,12.2276 17.7462,12.7276 20.5,13C 21.4061,14.6995 21.7394,16.5328 21.5,18.5C 18.1501,18.665 14.8168,18.4983 11.5,18C 10.8182,15.812 11.1516,13.6454 12.5,11.5 Z"/></g>
</svg>
