<?xml version="1.0" encoding="UTF-8"?>
<!DOCTYPE svg PUBLIC "-//W3C//DTD SVG 1.1//EN" "http://www.w3.org/Graphics/SVG/1.1/DTD/svg11.dtd">
<svg xmlns="http://www.w3.org/2000/svg" version="1.1" width="35px" height="35px" style="shape-rendering:geometricPrecision; text-rendering:geometricPrecision; image-rendering:optimizeQuality; fill-rule:evenodd; clip-rule:evenodd" xmlns:xlink="http://www.w3.org/1999/xlink">
<g><path style="opacity:0.746" fill="#1da0f2" d="M 20.5,5.5 C 29.3286,7.71616 31.9953,13.2162 28.5,22C 29.608,24.1124 31.108,25.9458 33,27.5C 33.7429,29.4406 33.5762,31.2739 32.5,33C 28.8091,32.6757 26.1424,30.6757 24.5,27C 19.1471,26.957 14.3138,25.457 10,22.5C 9.34183,18.4285 9.67516,14.4285 11,10.5C 14.3545,9.05208 17.5212,7.38541 20.5,5.5 Z M 22.5,13.5 C 24.3407,19.7849 22.0074,21.7849 15.5,19.5C 15.2865,17.8561 15.6198,16.3561 16.5,15C 18.7078,14.8091 20.7078,14.3091 22.5,13.5 Z"/></g>
</svg>
