<?xml version="1.0" encoding="UTF-8"?>
<!DOCTYPE svg PUBLIC "-//W3C//DTD SVG 1.1//EN" "http://www.w3.org/Graphics/SVG/1.1/DTD/svg11.dtd">
<svg xmlns="http://www.w3.org/2000/svg" version="1.1" width="256px" height="256px" style="shape-rendering:geometricPrecision; text-rendering:geometricPrecision; image-rendering:optimizeQuality; fill-rule:evenodd; clip-rule:evenodd" xmlns:xlink="http://www.w3.org/1999/xlink">
<g><path style="opacity:1" fill="#6a7b87" d="M 121.5,18.5 C 136.005,19.6892 150.505,19.6892 165,18.5C 171,18.8333 175,21.8333 177,27.5C 177.667,31.5 177.667,35.5 177,39.5C 174.09,46.3187 170.923,52.9854 167.5,59.5C 169.942,60.9944 172.609,61.9944 175.5,62.5C 186.453,54.2732 198.786,50.7732 212.5,52C 221.313,57.1476 228.48,63.9809 234,72.5C 243.484,78.1232 250.15,86.1232 254,96.5C 254.762,105.882 252.095,114.216 246,121.5C 239.875,125.956 234.042,130.789 228.5,136C 229.46,137.419 230.293,138.919 231,140.5C 231.173,144.541 231.673,148.541 232.5,152.5C 245.62,158.741 250.787,169.074 248,183.5C 245.974,187.903 245.14,192.57 245.5,197.5C 247.206,208.086 247.706,218.753 247,229.5C 243.098,238.119 236.431,241.786 227,240.5C 218.878,239.465 210.711,238.631 202.5,238C 197.175,235.673 192.175,232.84 187.5,229.5C 182.316,234.518 176.983,239.351 171.5,244C 167.916,246.211 164.083,247.711 160,248.5C 154.595,247.383 149.428,245.549 144.5,243C 128.167,242.667 111.833,242.333 95.5,242C 90.5995,240.098 87.4329,236.598 86,231.5C 85.2664,224.973 85.4331,218.473 86.5,212C 81.7941,205.304 77.1275,205.304 72.5,212C 67.2899,214.043 61.9566,215.709 56.5,217C 47.9298,224.398 39.4298,224.231 31,216.5C 25.1467,202.46 18.48,188.793 11,175.5C 9.93276,170.632 8.26609,165.966 6,161.5C 3.44954,152.114 6.28287,144.947 14.5,140C 20.1805,136.658 26.1805,134.158 32.5,132.5C 33.6632,126.863 33.8299,121.196 33,115.5C 29.7067,112.213 25.8734,109.713 21.5,108C 16.1951,103.701 12.0284,98.5342 9,92.5C 8.33333,83.5 8.33333,74.5 9,65.5C 14.8465,51.6317 22.3465,38.7984 31.5,27C 37.5,23.6667 43.5,23.6667 49.5,27C 56,32.1667 62.5,37.3333 69,42.5C 71.9942,34.6346 77.1609,28.8013 84.5,25C 96.9186,22.6995 109.252,20.5328 121.5,18.5 Z M 221.5,214.5 C 216.882,213.781 212.215,213.281 207.5,213C 191.125,198.922 176.459,200.588 163.5,218C 161.336,218.914 159.336,220.081 157.5,221.5C 154.875,220.236 152.208,219.069 149.5,218C 136.838,217.5 124.171,217.333 111.5,217.5C 114.269,210.43 115.102,203.097 114,195.5C 112.098,190.6 108.598,187.433 103.5,186C 99.5,185.667 95.5,185.333 91.5,185C 84.406,177.143 76.0727,175.476 66.5,180C 64.0736,183.516 61.407,186.849 58.5,190C 55.2905,191.092 52.1239,192.259 49,193.5C 42.4229,182.346 36.9229,170.679 32.5,158.5C 39.6789,156.249 46.6789,153.415 53.5,150C 56.4335,147.736 58.6001,144.902 60,141.5C 59.0757,129.262 58.4091,116.928 58,104.5C 56.6001,101.098 54.4335,98.2643 51.5,96C 44.6877,93.5201 38.8544,89.6868 34,84.5C 33.3333,79.8333 33.3333,75.1667 34,70.5C 36.5667,64.9307 39.5667,59.5974 43,54.5C 47.4507,57.2829 51.6174,60.4496 55.5,64C 60.2937,65.5821 64.2937,68.2488 67.5,72C 74,75.8333 79.8333,75 85,69.5C 88.5317,63.1009 91.5317,56.4342 94,49.5C 94.7504,48.8742 95.5838,48.3742 96.5,48C 113.045,44.6948 129.712,43.8615 146.5,45.5C 140.791,53.1961 138.291,61.8627 139,71.5C 140.211,74.7591 142.044,77.5925 144.5,80C 155.496,83.4664 166.663,86.2998 178,88.5C 184.762,87.0359 190.595,83.8692 195.5,79C 198.801,78.0033 202.134,77.6699 205.5,78C 212.36,86.1938 219.86,93.6938 228,100.5C 228.667,101.5 228.667,102.5 228,103.5C 223.123,108.046 217.956,112.213 212.5,116C 204.926,123.301 201.426,132.134 202,142.5C 203.08,144.996 204.414,147.33 206,149.5C 206.534,153.465 206.034,157.298 204.5,161C 206.129,171.125 212.129,176.625 222.5,177.5C 220.946,184.043 220.28,190.709 220.5,197.5C 220.545,203.214 220.879,208.881 221.5,214.5 Z M 119.5,116.5 C 124.325,118.079 129.325,118.912 134.5,119C 139.463,120.232 143.963,122.398 148,125.5C 149.536,131.749 149.87,138.083 149,144.5C 146.6,147.616 143.433,148.949 139.5,148.5C 126.271,148.891 113.604,146.558 101.5,141.5C 100.494,133.335 103.494,126.835 110.5,122C 113.298,119.696 116.298,117.862 119.5,116.5 Z"/></g>
<g><path style="opacity:1" fill="#6a7b87" d="M 114.5,91.5 C 135.515,89.2024 153.349,95.5357 168,110.5C 170.274,114.714 172.274,119.047 174,123.5C 174.667,132.5 174.667,141.5 174,150.5C 169.695,162.136 161.528,169.636 149.5,173C 131.081,174.305 113.081,172.305 95.5,167C 77.4509,159.734 70.9509,146.568 76,127.5C 84.2216,110.441 97.055,98.4412 114.5,91.5 Z M 119.5,116.5 C 116.298,117.862 113.298,119.696 110.5,122C 103.494,126.835 100.494,133.335 101.5,141.5C 113.604,146.558 126.271,148.891 139.5,148.5C 143.433,148.949 146.6,147.616 149,144.5C 149.87,138.083 149.536,131.749 148,125.5C 143.963,122.398 139.463,120.232 134.5,119C 129.325,118.912 124.325,118.079 119.5,116.5 Z"/></g>
</svg>
