<?xml version="1.0" encoding="UTF-8"?>
<!DOCTYPE svg PUBLIC "-//W3C//DTD SVG 1.1//EN" "http://www.w3.org/Graphics/SVG/1.1/DTD/svg11.dtd">
<svg xmlns="http://www.w3.org/2000/svg" version="1.1" width="4096px" height="4096px" style="shape-rendering:geometricPrecision; text-rendering:geometricPrecision; image-rendering:optimizeQuality; fill-rule:evenodd; clip-rule:evenodd" xmlns:xlink="http://www.w3.org/1999/xlink">
<g><path style="opacity:1" fill="#6a7a86" d="M 2442.5,254.5 C 2450.24,254.567 2457.9,255.234 2465.5,256.5C 2490.12,254.905 2513.12,260.405 2534.5,273C 2543.03,275.065 2551.36,277.732 2559.5,281C 2591.5,299.667 2623.5,318.333 2655.5,337C 2677.45,351.944 2697.95,368.777 2717,387.5C 2718.33,389.5 2719.67,391.5 2721,393.5C 2730.93,401.432 2740.27,410.099 2749,419.5C 2755,426.827 2760,434.827 2764,443.5C 2768.33,447.833 2772.67,452.167 2777,456.5C 2782.94,466.035 2789.6,475.035 2797,483.5C 2800.84,489.178 2804.17,495.178 2807,501.5C 2817.72,514.548 2828.05,527.881 2838,541.5C 2840.67,546.167 2843.33,550.833 2846,555.5C 2858.47,569.128 2870.47,583.128 2882,597.5C 2886.92,605.672 2891.59,614.005 2896,622.5C 2905.7,632.535 2915.04,642.868 2924,653.5C 2930.08,664.663 2936.41,675.663 2943,686.5C 2951.4,694.233 2959.07,702.566 2966,711.5C 2978.7,732.224 2990.36,753.558 3001,775.5C 3004.9,779.648 3008.57,783.981 3012,788.5C 3019,799.833 3026,811.167 3033,822.5C 3051.85,846.522 3066.85,872.855 3078,901.5C 3085.05,912.942 3091.05,924.942 3096,937.5C 3106.69,952.553 3115.03,968.886 3121,986.5C 3124.82,990.814 3128.16,995.481 3131,1000.5C 3141.27,1021.38 3151.27,1042.38 3161,1063.5C 3173.3,1077.42 3181.96,1093.42 3187,1111.5C 3195.92,1125.67 3204.58,1140 3213,1154.5C 3217.47,1158.79 3221.47,1163.46 3225,1168.5C 3235.7,1187.9 3248.37,1205.9 3263,1222.5C 3267.59,1230 3271.92,1237.67 3276,1245.5C 3278.67,1248.17 3281.33,1250.83 3284,1253.5C 3289.94,1263.03 3296.6,1272.03 3304,1280.5C 3307.4,1285.58 3310.4,1290.91 3313,1296.5C 3328.34,1311.17 3339.67,1328.5 3347,1348.5C 3370.33,1376.5 3391.33,1406.17 3410,1437.5C 3417.62,1447.46 3425.62,1457.12 3434,1466.5C 3450.5,1492.66 3460,1521.16 3462.5,1552C 3460.12,1603.01 3436.12,1639.68 3390.5,1662C 3335.8,1682.36 3288.63,1671.2 3249,1628.5C 3241.72,1618.95 3235.72,1608.62 3231,1597.5C 3216.11,1579.27 3202.77,1559.93 3191,1539.5C 3176.63,1519.44 3161.3,1500.11 3145,1481.5C 3138.33,1472.83 3132.66,1463.5 3128,1453.5C 3115.39,1440.62 3106.05,1425.62 3100,1408.5C 3092.71,1398.88 3085.04,1389.54 3077,1380.5C 3072,1371.83 3067,1363.17 3062,1354.5C 3057.53,1350.21 3053.53,1345.54 3050,1340.5C 3041.51,1325.2 3030.84,1311.54 3018,1299.5C 3007.72,1286.28 3000.06,1271.62 2995,1255.5C 2989.72,1247.22 2984.06,1239.22 2978,1231.5C 2972.87,1222.9 2968.53,1213.9 2965,1204.5C 2951.73,1188.29 2942.39,1169.96 2937,1149.5C 2931.87,1140.9 2927.53,1131.9 2924,1122.5C 2911.95,1108.07 2903.28,1091.74 2898,1073.5C 2890.44,1063.05 2884.44,1051.72 2880,1039.5C 2876.25,1032.34 2872.25,1025.34 2868,1018.5C 2862.28,1006.67 2856.94,994.667 2852,982.5C 2840.25,966.011 2829.25,949.011 2819,931.5C 2810.88,924.388 2803.88,916.388 2798,907.5C 2789.53,889.221 2780.53,871.221 2771,853.5C 2766.33,848.833 2761.67,844.167 2757,839.5C 2750,829.167 2743,818.833 2736,808.5C 2733.08,803.659 2730.41,798.659 2728,793.5C 2716.25,781.087 2705.25,768.087 2695,754.5C 2690.49,747.487 2686.49,740.153 2683,732.5C 2673,721.167 2663,709.833 2653,698.5C 2640.55,678.048 2626.55,658.715 2611,640.5C 2605.92,631.335 2600.59,622.335 2595,613.5C 2579.01,595.177 2562.34,577.51 2545,560.5C 2536.87,546.384 2525.04,536.55 2509.5,531C 2493.5,521 2477.5,511 2461.5,501C 2454.73,499.134 2448.07,496.967 2441.5,494.5C 2435.72,495.435 2429.89,496.102 2424,496.5C 2412,496.116 2400,495.782 2388,495.5C 2382.52,495.395 2377.36,496.561 2372.5,499C 2359.6,512.888 2344.27,523.221 2326.5,530C 2317.96,540.203 2308.46,549.37 2298,557.5C 2289.83,568.333 2280.33,577.833 2269.5,586C 2255,595.084 2240.66,604.418 2226.5,614C 2207.66,624.92 2188.66,635.587 2169.5,646C 2160.52,653.487 2151.19,660.487 2141.5,667C 2130.37,672.396 2119.37,678.063 2108.5,684C 2085.72,691.926 2063.72,701.592 2042.5,713C 2031.52,717.548 2020.19,720.881 2008.5,723C 2001.41,726.586 1994.07,729.586 1986.5,732C 1981.44,736.057 1976.11,739.724 1970.5,743C 1952.71,750.726 1935.05,758.726 1917.5,767C 1904.55,771.488 1891.55,775.821 1878.5,780C 1857.39,789.22 1836.06,797.886 1814.5,806C 1809.44,810.057 1804.11,813.724 1798.5,817C 1780.5,826.333 1762.5,835.667 1744.5,845C 1729.59,850.749 1714.92,857.083 1700.5,864C 1691.08,867.806 1681.42,870.806 1671.5,873C 1622.51,898.993 1572.85,923.66 1522.5,947C 1518.5,950.333 1514.5,953.667 1510.5,957C 1483.66,973.167 1456.32,988.501 1428.5,1003C 1415.5,1017.32 1399.84,1027.66 1381.5,1034C 1373.83,1038.17 1366.49,1042.83 1359.5,1048C 1351.24,1052.64 1342.57,1056.31 1333.5,1059C 1322.99,1066.09 1312.66,1073.42 1302.5,1081C 1293.09,1092.41 1282.43,1102.41 1270.5,1111C 1249.17,1129.66 1226.17,1146 1201.5,1160C 1190.5,1172.68 1177.5,1182.68 1162.5,1190C 1154.02,1199.47 1144.52,1207.63 1134,1214.5C 1131.37,1218.13 1128.37,1221.47 1125,1224.5C 1121.17,1232.16 1116.84,1239.5 1112,1246.5C 1108.33,1289.03 1088.5,1321.53 1052.5,1344C 1004.5,1368.48 958.836,1364.82 915.5,1333C 887.399,1308.46 872.733,1277.46 871.5,1240C 870.078,1207.44 875.245,1175.94 887,1145.5C 894.405,1129.36 904.738,1115.36 918,1103.5C 920.667,1098.83 923.333,1094.17 926,1089.5C 938.38,1074.79 950.38,1059.79 962,1044.5C 972.245,1032.15 984.412,1022.31 998.5,1015C 1009.11,1003.04 1021.45,993.377 1035.5,986C 1042.23,978.595 1049.57,971.928 1057.5,966C 1079.53,954.661 1100.19,941.327 1119.5,926C 1127.14,917.363 1135.14,909.03 1143.5,901C 1158.63,888.602 1174.3,876.936 1190.5,866C 1200.37,860.789 1209.7,854.789 1218.5,848C 1227.51,843.221 1236.84,839.221 1246.5,836C 1254.72,829.472 1263.72,824.139 1273.5,820C 1280.97,812.193 1289.3,805.527 1298.5,800C 1323.3,787.872 1347.63,774.872 1371.5,761C 1382.55,748.953 1395.55,739.62 1410.5,733C 1426.41,726.918 1442.08,720.251 1457.5,713C 1488.27,698.114 1518.61,682.448 1548.5,666C 1559.83,660.667 1571.17,655.333 1582.5,650C 1591.92,646.194 1601.58,643.194 1611.5,641C 1624.17,634.555 1637.17,628.889 1650.5,624C 1670.62,613.439 1690.29,602.105 1709.5,590C 1740.83,577.333 1772.17,564.667 1803.5,552C 1811.8,549.177 1820.13,546.51 1828.5,544C 1837.15,539.176 1846.15,535.176 1855.5,532C 1863.5,525.664 1872.16,520.33 1881.5,516C 1897.91,509.529 1914.25,502.862 1930.5,496C 1938.33,493.057 1946.33,490.724 1954.5,489C 1958.67,486.412 1963.01,484.079 1967.5,482C 1983.17,475.667 1998.83,469.333 2014.5,463C 2020.65,457.759 2026.98,452.759 2033.5,448C 2062.5,431.504 2091.16,414.504 2119.5,397C 2128.24,386.255 2138.24,376.922 2149.5,369C 2161.5,355.667 2174.17,343 2187.5,331C 2193.83,326.169 2200.49,321.835 2207.5,318C 2225.08,298.702 2246.75,286.369 2272.5,281C 2290.49,270.841 2309.49,263.174 2329.5,258C 2336.96,256.867 2344.46,256.034 2352,255.5C 2378.2,256.16 2404.37,256.493 2430.5,256.5C 2434.63,255.891 2438.63,255.224 2442.5,254.5 Z"/></g>
<g><path style="opacity:1" fill="#6a7a86" d="M 2418.5,699.5 C 2474.28,700.158 2513.45,725.825 2536,776.5C 2541.25,790.52 2544.09,805.02 2544.5,820C 2543.17,876 2543.17,932 2544.5,988C 2541.83,1012 2541.83,1036 2544.5,1060C 2543.17,1068 2543.17,1076 2544.5,1084C 2541.83,1107.67 2541.83,1131.33 2544.5,1155C 2543.17,1163 2543.17,1171 2544.5,1179C 2541.83,1203 2541.83,1227 2544.5,1251C 2543.17,1259 2543.17,1267 2544.5,1275C 2543.53,1288.42 2542.69,1301.92 2542,1315.5C 2540.81,1323.27 2539.14,1330.94 2537,1338.5C 2536.5,1345 2536,1351.5 2535.5,1358C 2535.78,1370 2536.12,1382 2536.5,1394C 2535.31,1407.16 2534.14,1420.33 2533,1433.5C 2532.11,1441.08 2530.27,1448.41 2527.5,1455.5C 2527.88,1545.38 2527.88,1635.21 2527.5,1725C 2525.02,1758.39 2520.85,1791.56 2515,1824.5C 2514.04,1828.39 2512.87,1832.23 2511.5,1836C 2512.87,1852.28 2510.71,1868.11 2505,1883.5C 2503.38,1906.58 2501.05,1929.58 2498,1952.5C 2491.68,1988.4 2486.02,2024.4 2481,2060.5C 2481.09,2074.15 2480.09,2087.82 2478,2101.5C 2476.47,2109.41 2474.14,2117.08 2471,2124.5C 2470.15,2138.45 2467.32,2151.95 2462.5,2165C 2463.37,2172.44 2463.21,2179.94 2462,2187.5C 2457.9,2206.75 2454.24,2226.08 2451,2245.5C 2447.56,2257.04 2443.56,2268.37 2439,2279.5C 2436.08,2292.11 2433.41,2304.77 2431,2317.5C 2429.06,2323.99 2426.73,2330.32 2424,2336.5C 2423.12,2365.58 2418.12,2393.91 2409,2421.5C 2408.16,2435.53 2405.49,2449.2 2401,2462.5C 2400.36,2472.21 2399.36,2481.87 2398,2491.5C 2392.91,2517.01 2387.74,2542.51 2382.5,2568C 2383.41,2573.96 2384.07,2579.96 2384.5,2586C 2381.49,2614.04 2378.16,2642.04 2374.5,2670C 2375.51,2676.21 2375.51,2682.37 2374.5,2688.5C 2375.44,2694.28 2376.1,2700.11 2376.5,2706C 2366.55,2794.42 2357.39,2882.92 2349,2971.5C 2338.41,3011.76 2313.91,3039.93 2275.5,3056C 2222.3,3073.49 2176.8,3061.66 2139,3020.5C 2121.53,2998.09 2112.36,2972.59 2111.5,2944C 2118.18,2862.3 2126.51,2780.8 2136.5,2699.5C 2135.56,2693.72 2134.9,2687.89 2134.5,2682C 2135.83,2674 2135.83,2666 2134.5,2658C 2137.11,2633.12 2140.11,2608.29 2143.5,2583.5C 2142.74,2576.68 2142.08,2569.84 2141.5,2563C 2142.89,2547.39 2145.06,2531.89 2148,2516.5C 2152.97,2495.29 2157.3,2473.95 2161,2452.5C 2161.37,2437.06 2163.54,2421.9 2167.5,2407C 2165.51,2382.27 2170.68,2359.1 2183,2337.5C 2184.57,2318.4 2186.91,2299.4 2190,2280.5C 2192.74,2270.62 2196.07,2260.95 2200,2251.5C 2202.92,2236.73 2206.26,2222.07 2210,2207.5C 2212.08,2200.27 2214.74,2193.27 2218,2186.5C 2219.15,2175.42 2221.32,2164.59 2224.5,2154C 2223.14,2137.84 2225.47,2122.17 2231.5,2107C 2230.16,2089.23 2232.99,2072.06 2240,2055.5C 2246.68,2006.07 2254.02,1956.73 2262,1907.5C 2263.67,1887.83 2265.33,1868.17 2267,1848.5C 2268.05,1841.4 2269.55,1834.4 2271.5,1827.5C 2270.41,1814 2271.58,1800.66 2275,1787.5C 2277.54,1780.22 2279.87,1772.88 2282,1765.5C 2284.68,1746.2 2286.84,1726.87 2288.5,1707.5C 2288.54,1617.71 2288.21,1527.88 2287.5,1438C 2288.03,1430.46 2288.87,1422.96 2290,1415.5C 2292.63,1406.62 2294.63,1397.62 2296,1388.5C 2295.83,1374.33 2295.67,1360.17 2295.5,1346C 2296.72,1332.5 2297.88,1319 2299,1305.5C 2300.21,1297.34 2302.04,1289.34 2304.5,1281.5C 2304.5,1269.17 2304.5,1256.83 2304.5,1244.5C 2303.56,1238.72 2302.9,1232.89 2302.5,1227C 2303.83,1219 2303.83,1211 2302.5,1203C 2305.17,1179 2305.17,1155 2302.5,1131C 2303.76,1105.06 2304.43,1079.23 2304.5,1053.5C 2303.56,1047.72 2302.9,1041.89 2302.5,1036C 2303.83,1028 2303.83,1020 2302.5,1012C 2302.9,1006.11 2303.56,1000.28 2304.5,994.5C 2304.49,936.373 2304.16,878.206 2303.5,820C 2306.15,766.659 2331.82,729.326 2380.5,708C 2392.92,703.419 2405.59,700.586 2418.5,699.5 Z"/></g>
<g><path style="opacity:1" fill="#6a7a86" d="M 3602.5,2403.5 C 3655.83,2404.07 3694.33,2428.07 3718,2475.5C 3724.57,2490.99 3728.07,2507.16 3728.5,2524C 3727.17,2532 3727.17,2540 3728.5,2548C 3728.1,2561.9 3725.6,2575.4 3721,2588.5C 3720.27,2602.88 3717.6,2616.88 3713,2630.5C 3712.35,2635.65 3711.85,2640.82 3711.5,2646C 3711.78,2706 3712.12,2766 3712.5,2826C 3712,2831.5 3711.5,2837 3711,2842.5C 3706.46,2864.88 3701.79,2887.21 3697,2909.5C 3696.42,2919.55 3695.42,2929.55 3694,2939.5C 3690.97,2949.74 3688.47,2960.07 3686.5,2970.5C 3689.57,2990.26 3687.73,3009.59 3681,3028.5C 3679.26,3043.07 3678.26,3057.73 3678,3072.5C 3677.1,3079.68 3675.43,3086.68 3673,3093.5C 3672.08,3111.36 3669.75,3129.02 3666,3146.5C 3663.17,3160.65 3658.17,3173.98 3651,3186.5C 3648.28,3197.08 3645.95,3207.75 3644,3218.5C 3640.16,3230.5 3635.5,3242.17 3630,3253.5C 3628.47,3261.41 3626.14,3269.08 3623,3276.5C 3622.03,3285.89 3620.69,3295.22 3619,3304.5C 3615.91,3313.3 3613.57,3322.3 3612,3331.5C 3609.92,3338.73 3607.26,3345.73 3604,3352.5C 3603.1,3359.91 3601.76,3367.25 3600,3374.5C 3601.87,3396.64 3598.53,3417.97 3590,3438.5C 3585.67,3446.83 3581.33,3455.17 3577,3463.5C 3574.53,3477.92 3569.86,3491.59 3563,3504.5C 3558.77,3522.67 3555.43,3541.01 3553,3559.5C 3534.36,3615.13 3495.69,3644.79 3437,3648.5C 3389,3648.5 3341,3648.5 3293,3648.5C 3282.74,3647.31 3272.57,3646.64 3262.5,3646.5C 3256.72,3647.44 3250.89,3648.1 3245,3648.5C 3238.85,3647.62 3232.68,3647.45 3226.5,3648C 3218.13,3649.79 3209.79,3651.79 3201.5,3654C 3194.04,3655.13 3186.54,3655.97 3179,3656.5C 3119.33,3656.17 3059.67,3655.83 3000,3655.5C 2995.79,3655.64 2991.62,3656.14 2987.5,3657C 2979.74,3659.94 2971.74,3661.94 2963.5,3663C 2949.82,3663.84 2936.16,3664.51 2922.5,3665C 2908.24,3669.82 2893.57,3672.49 2878.5,3673C 2861.93,3677.71 2845.26,3682.05 2828.5,3686C 2799.38,3689.77 2770.21,3693.27 2741,3696.5C 2729.99,3695.96 2718.99,3695.63 2708,3695.5C 2690.09,3699.68 2671.92,3702.18 2653.5,3703C 2635.63,3707.84 2617.46,3711.01 2599,3712.5C 2575,3711.17 2551,3711.17 2527,3712.5C 2521.11,3712.1 2515.28,3711.44 2509.5,3710.5C 2489.14,3712.58 2468.8,3715.08 2448.5,3718C 2434.92,3718.69 2421.42,3719.53 2408,3720.5C 2382.06,3719.36 2356.22,3718.69 2330.5,3718.5C 2301.13,3722.76 2271.63,3726.09 2242,3728.5C 2154,3727.17 2066,3727.17 1978,3728.5C 1972.11,3728.1 1966.28,3727.44 1960.5,3726.5C 1950.43,3726.64 1940.26,3727.31 1930,3728.5C 1924.11,3728.1 1918.28,3727.44 1912.5,3726.5C 1902.83,3726.69 1892.99,3727.36 1883,3728.5C 1859,3727.17 1835,3727.17 1811,3728.5C 1805.11,3728.1 1799.28,3727.44 1793.5,3726.5C 1783.43,3726.64 1773.26,3727.31 1763,3728.5C 1715,3728.5 1667,3728.5 1619,3728.5C 1613.11,3728.1 1607.28,3727.44 1601.5,3726.5C 1591.43,3726.64 1581.26,3727.31 1571,3728.5C 1531.34,3727.22 1491.67,3727.22 1452,3728.5C 1428,3725.83 1404,3725.83 1380,3728.5C 1374.11,3728.1 1368.28,3727.44 1362.5,3726.5C 1352.43,3726.64 1342.26,3727.31 1332,3728.5C 1326.11,3728.1 1320.28,3727.44 1314.5,3726.5C 1304.43,3726.64 1294.26,3727.31 1284,3728.5C 1260,3725.83 1236,3725.83 1212,3728.5C 1196.33,3728.44 1180.66,3728.44 1165,3728.5C 1159.11,3728.1 1153.28,3727.44 1147.5,3726.5C 1137.43,3726.64 1127.26,3727.31 1117,3728.5C 1101,3728.5 1085,3728.5 1069,3728.5C 1055.5,3727.28 1042,3726.12 1028.5,3725C 1021.32,3724.1 1014.32,3722.43 1007.5,3720C 996.723,3718.52 985.889,3718.69 975,3720.5C 951.993,3719.32 928.993,3719.32 906,3720.5C 844.764,3714.97 783.598,3708.8 722.5,3702C 715.316,3701.1 708.316,3699.43 701.5,3697C 693.155,3696.48 684.822,3695.81 676.5,3695C 657.357,3690.59 638.024,3687.25 618.5,3685C 598.881,3680.19 581.547,3671.19 566.5,3658C 560.713,3655.61 555.046,3652.94 549.5,3650C 534.833,3640.67 520.167,3631.33 505.5,3622C 495.542,3614.38 485.875,3606.38 476.5,3598C 458.04,3579.9 442.874,3559.4 431,3536.5C 419.91,3525.33 411.577,3512.33 406,3497.5C 402.333,3485.17 398.667,3472.83 395,3460.5C 393.174,3451.42 392.008,3442.25 391.5,3433C 392.833,3393 392.833,3353 391.5,3313C 392.384,3296.41 395.384,3280.25 400.5,3264.5C 396.233,3236.33 401.4,3210 416,3185.5C 416.89,3174.71 418.557,3164.04 421,3153.5C 428.077,3132.6 435.743,3111.94 444,3091.5C 450.828,3078.51 458.162,3065.84 466,3053.5C 471.477,3033.88 480.144,3015.88 492,2999.5C 495.256,2989.66 499.589,2980.32 505,2971.5C 507.065,2962.97 509.732,2954.64 513,2946.5C 518.432,2936.88 523.099,2926.88 527,2916.5C 527.303,2901.82 529.636,2887.49 534,2873.5C 534.58,2863.45 535.58,2853.45 537,2843.5C 539.818,2833.55 542.318,2823.55 544.5,2813.5C 542.067,2802.22 541.901,2790.89 544,2779.5C 546.261,2768.06 548.927,2756.72 552,2745.5C 552.602,2723.66 552.435,2701.83 551.5,2680C 554.151,2626.66 579.817,2589.33 628.5,2568C 681.697,2550.51 727.197,2562.34 765,2603.5C 782.472,2625.91 791.639,2651.41 792.5,2680C 792.44,2711.66 792.44,2743.33 792.5,2775C 792.1,2788.9 789.6,2802.4 785,2815.5C 784.282,2830.5 783.616,2845.5 783,2860.5C 781.941,2868.74 779.941,2876.74 777,2884.5C 776.597,2899.92 773.931,2914.92 769,2929.5C 768.411,2941.99 766.744,2954.32 764,2966.5C 756.386,2990.06 747.386,3013.06 737,3035.5C 733.3,3053.61 726.3,3070.28 716,3085.5C 711.274,3096.62 706.274,3107.62 701,3118.5C 698.333,3122.5 695.667,3126.5 693,3130.5C 689.976,3140.57 685.976,3150.24 681,3159.5C 675.106,3171.62 668.439,3183.29 661,3194.5C 658.864,3201.24 656.531,3207.91 654,3214.5C 653.423,3228.39 650.423,3241.72 645,3254.5C 643.122,3261.8 641.456,3269.13 640,3276.5C 641.624,3296.64 639.291,3316.3 633,3335.5C 632.219,3339.97 631.719,3344.47 631.5,3349C 631.667,3367.17 631.833,3385.33 632,3403.5C 636.626,3411.25 641.126,3419.09 645.5,3427C 652.34,3430.25 658.673,3434.25 664.5,3439C 675.68,3442.92 686.346,3447.92 696.5,3454C 702.952,3456.44 709.452,3457.28 716,3456.5C 722.517,3457.02 729.017,3457.68 735.5,3458.5C 746.435,3461.31 757.435,3463.81 768.5,3466C 817.831,3470.86 867.164,3475.7 916.5,3480.5C 938.203,3479.4 959.87,3479.4 981.5,3480.5C 987.28,3479.56 993.113,3478.9 999,3478.5C 1007,3479.83 1015,3479.83 1023,3478.5C 1037.98,3478.91 1052.48,3481.75 1066.5,3487C 1071.31,3487.71 1076.15,3488.21 1081,3488.5C 1095.2,3488.22 1109.37,3488.22 1123.5,3488.5C 1135.17,3485.83 1146.83,3485.83 1158.5,3488.5C 1178.5,3487.23 1198.5,3487.23 1218.5,3488.5C 1224.28,3487.56 1230.11,3486.9 1236,3486.5C 1244,3487.83 1252,3487.83 1260,3486.5C 1265.89,3486.9 1271.72,3487.56 1277.5,3488.5C 1287.57,3488.36 1297.74,3487.69 1308,3486.5C 1313.89,3486.9 1319.72,3487.56 1325.5,3488.5C 1335.57,3488.36 1345.74,3487.69 1356,3486.5C 1361.89,3486.9 1367.72,3487.56 1373.5,3488.5C 1383.57,3488.36 1393.74,3487.69 1404,3486.5C 1412,3487.83 1420,3487.83 1428,3486.5C 1433.89,3486.9 1439.72,3487.56 1445.5,3488.5C 1489.5,3488.45 1533.5,3488.45 1577.5,3488.5C 1589.17,3485.83 1600.83,3485.83 1612.5,3488.5C 1664.83,3487.17 1717.17,3487.17 1769.5,3488.5C 1781.17,3485.83 1792.83,3485.83 1804.5,3488.5C 1832.7,3488.48 1860.86,3488.48 1889,3488.5C 1900.47,3485.86 1911.97,3485.86 1923.5,3488.5C 1933.57,3488.36 1943.74,3487.69 1954,3486.5C 1959.89,3486.9 1965.72,3487.56 1971.5,3488.5C 2057.63,3487.49 2143.79,3487.49 2230,3488.5C 2257.69,3485.72 2285.36,3482.72 2313,3479.5C 2315.23,3479.56 2317.39,3479.9 2319.5,3480.5C 2325.28,3479.56 2331.11,3478.9 2337,3478.5C 2344.67,3479.83 2352.33,3479.83 2360,3478.5C 2365.89,3478.9 2371.72,3479.56 2377.5,3480.5C 2389.83,3480.5 2402.17,3480.5 2414.5,3480.5C 2443.87,3476.24 2473.37,3472.91 2503,3470.5C 2508.89,3470.9 2514.72,3471.56 2520.5,3472.5C 2541.64,3471.31 2562.8,3471.31 2584,3472.5C 2606.9,3467.32 2630.07,3463.82 2653.5,3462C 2678.33,3455.41 2703.5,3453.58 2729,3456.5C 2750.75,3453.02 2772.58,3450.18 2794.5,3448C 2805.23,3444.53 2815.9,3440.87 2826.5,3437C 2834.39,3435.02 2842.39,3433.68 2850.5,3433C 2871.72,3423.78 2893.72,3420.95 2916.5,3424.5C 2931.89,3419.26 2947.72,3416.26 2964,3415.5C 3024,3415.88 3084,3416.22 3144,3416.5C 3148.21,3416.36 3152.38,3415.86 3156.5,3415C 3169.6,3410.4 3183.1,3407.9 3197,3407.5C 3215.21,3407.57 3233.37,3407.9 3251.5,3408.5C 3263.17,3405.83 3274.83,3405.83 3286.5,3408.5C 3300.63,3408.22 3314.8,3408.22 3329,3408.5C 3333.53,3408.28 3338.03,3407.78 3342.5,3407C 3345.39,3398.62 3348.23,3390.12 3351,3381.5C 3354.28,3374.62 3357.28,3367.62 3360,3360.5C 3363.02,3337.74 3366.68,3315.07 3371,3292.5C 3374.16,3281.19 3378.16,3270.19 3383,3259.5C 3383.53,3246.68 3385.2,3234.01 3388,3221.5C 3395.14,3202.76 3401.47,3183.76 3407,3164.5C 3408.73,3160.05 3410.73,3155.71 3413,3151.5C 3416.86,3128.53 3423.36,3106.36 3432.5,3085C 3431.02,3068.37 3433.19,3052.21 3439,3036.5C 3440.6,3027.02 3440.77,3017.52 3439.5,3008C 3439.89,2995.18 3442.05,2982.68 3446,2970.5C 3448.03,2954.83 3449.03,2939.16 3449,2923.5C 3449.9,2916.32 3451.57,2909.32 3454,2902.5C 3453.86,2880.87 3458.19,2860.21 3467,2840.5C 3468.06,2830.51 3469.9,2820.68 3472.5,2811C 3472.38,2749.8 3472.38,2688.64 3472.5,2627.5C 3469.29,2606.64 3471.46,2586.31 3479,2566.5C 3479.84,2552.47 3482.51,2538.8 3487,2525.5C 3489.67,2471.61 3515.5,2433.78 3564.5,2412C 3576.92,2407.42 3589.59,2404.59 3602.5,2403.5 Z"/></g>
</svg>
