<?xml version="1.0" encoding="UTF-8"?>
<!DOCTYPE svg PUBLIC "-//W3C//DTD SVG 1.1//EN" "http://www.w3.org/Graphics/SVG/1.1/DTD/svg11.dtd">
<svg xmlns="http://www.w3.org/2000/svg" version="1.1" width="256px" height="256px" style="shape-rendering:geometricPrecision; text-rendering:geometricPrecision; image-rendering:optimizeQuality; fill-rule:evenodd; clip-rule:evenodd" xmlns:xlink="http://www.w3.org/1999/xlink">
<g><path style="opacity:1" fill="#1da0f2" d="M 55.5,27.5 C 59.7925,28.0643 63.2925,30.0643 66,33.5C 68.5584,41.8471 71.8918,49.8471 76,57.5C 88.8793,74.3756 105.213,86.709 125,94.5C 125.453,91.1596 125.953,87.8262 126.5,84.5C 125.46,78.19 125.293,71.8566 126,65.5C 128.194,62.4456 129.861,59.1122 131,55.5C 137.239,50.63 143.739,46.13 150.5,42C 174.181,32.6152 193.681,37.7819 209,57.5C 209.667,62.1667 210.333,66.8333 211,71.5C 213.545,72.5218 216.045,73.6884 218.5,75C 219.79,77.292 221.457,79.292 223.5,81C 229.66,85.5804 235.993,89.9138 242.5,94C 248.376,100.854 247.709,106.854 240.5,112C 232.167,112.333 223.833,112.667 215.5,113C 214.315,114.353 212.981,115.52 211.5,116.5C 207.219,129.959 203.719,143.626 201,157.5C 197.313,169.211 191.313,179.544 183,188.5C 165.787,207.716 144.621,220.216 119.5,226C 105.5,226.667 91.5,226.667 77.5,226C 66.7619,224.46 57.0952,220.46 48.5,214C 35.7323,204.897 23.899,194.731 13,183.5C 10.9488,177.099 13.1154,172.599 19.5,170C 22.43,169.394 25.2633,168.56 28,167.5C 36.4162,167.431 44.4162,167.765 52,168.5C 54.405,167.726 56.905,167.226 59.5,167C 52.4621,161.39 45.2954,155.89 38,150.5C 33.4292,140.573 36.5959,134.74 47.5,133C 36.3069,124.781 28.9736,113.947 25.5,100.5C 26.7504,92.9575 26.7504,85.4575 25.5,78C 28.5936,60.028 36.2603,44.3613 48.5,31C 50.7133,29.3838 53.0466,28.2172 55.5,27.5 Z"/></g>
</svg>
