<?xml version="1.0" encoding="UTF-8"?>
<!DOCTYPE svg PUBLIC "-//W3C//DTD SVG 1.1//EN" "http://www.w3.org/Graphics/SVG/1.1/DTD/svg11.dtd">
<svg xmlns="http://www.w3.org/2000/svg" version="1.1" width="1080px" height="1080px" style="shape-rendering:geometricPrecision; text-rendering:geometricPrecision; image-rendering:optimizeQuality; fill-rule:evenodd; clip-rule:evenodd" xmlns:xlink="http://www.w3.org/1999/xlink">
<g><path style="opacity:1" fill="#fefffe" d="M 696.5,54.5 C 717.836,54.3334 739.169,54.5 760.5,55C 784.341,59.2164 808.341,62.5497 832.5,65C 848.397,69.3605 862.231,77.1939 874,88.5C 878.414,93.6559 882.081,99.3225 885,105.5C 896.248,110.625 903.248,119.291 906,131.5C 907.93,155.822 906.263,179.822 901,203.5C 895.376,216.081 888.71,228.081 881,239.5C 878.948,247.943 874.614,254.943 868,260.5C 866.667,264.5 865.333,268.5 864,272.5C 859.387,279.325 855.72,286.658 853,294.5C 844.531,303.97 835.697,313.137 826.5,322C 809.343,334.082 791.676,345.415 773.5,356C 756.766,371.727 738.099,384.727 717.5,395C 704.419,398.014 691.419,401.347 678.5,405C 668.506,405.5 658.506,405.666 648.5,405.5C 645.198,432.253 635.365,456.253 619,477.5C 608.104,489.065 596.604,499.899 584.5,510C 572.882,515.476 561.548,521.476 550.5,528C 539.206,539.983 525.873,548.983 510.5,555C 499.833,562 489.167,569 478.5,576C 459.167,586 439.833,596 420.5,606C 391.548,624.98 361.214,641.647 329.5,656C 316.119,665.026 302.119,673.026 287.5,680C 278.544,688.313 268.211,694.313 256.5,698C 250.605,703.195 244.439,708.029 238,712.5C 235.475,719.013 231.475,724.347 226,728.5C 222.941,739.284 218.274,749.284 212,758.5C 207.187,772.113 201.854,785.446 196,798.5C 195,804.5 194,810.5 193,816.5C 184.889,837.153 179.889,858.486 178,880.5C 175.66,889.2 170.494,895.533 162.5,899.5C 160.235,913.76 158.402,928.094 157,942.5C 150.772,959.537 138.605,966.704 120.5,964C 110.497,961.33 103.664,955.163 100,945.5C 98.4279,937.245 98.0946,928.911 99,920.5C 101,904.5 103,888.5 105,872.5C 107.667,860.5 110.333,848.5 113,836.5C 116.435,829.197 118.435,821.53 119,813.5C 120.393,809.714 122.059,806.048 124,802.5C 125.109,792.178 126.109,781.844 127,771.5C 131.832,753.837 134.499,735.837 135,717.5C 139.272,687.531 144.938,657.864 152,628.5C 160.545,602.196 169.879,576.196 180,550.5C 185.869,538.646 192.536,527.313 200,516.5C 215.135,481.565 230.802,446.899 247,412.5C 257.089,397.329 266.422,381.663 275,365.5C 280.58,358.008 285.913,350.341 291,342.5C 294.298,338.2 297.965,334.2 302,330.5C 311.54,314.76 322.54,300.093 335,286.5C 341.119,275.936 348.453,266.269 357,257.5C 366.385,245.783 375.385,233.783 384,221.5C 399.222,205.614 414.389,189.78 429.5,174C 433.5,171 437.5,168 441.5,165C 458.572,148.59 476.239,132.924 494.5,118C 500.5,114.333 506.5,110.667 512.5,107C 520.462,104.28 528.128,100.947 535.5,97C 547.235,93.8026 558.568,89.4693 569.5,84C 575.951,81.4802 582.617,79.8136 589.5,79C 601.448,75.4612 613.115,71.1278 624.5,66C 640.635,63.6191 656.635,60.6191 672.5,57C 680.732,56.9389 688.732,56.1055 696.5,54.5 Z"/></g>
<g><path style="opacity:1" fill="#fefffe" d="M 763.5,550.5 C 781.59,548.285 793.757,555.618 800,572.5C 800.116,582.593 801.116,592.593 803,602.5C 803.818,626.364 803.652,650.197 802.5,674C 804.437,678.307 805.437,682.807 805.5,687.5C 823.676,687.674 841.843,687.341 860,686.5C 869,687.167 878,687.833 887,688.5C 895.499,687.8 903.999,687.633 912.5,688C 929.537,694.228 936.704,706.395 934,724.5C 930.833,735.667 923.667,742.833 912.5,746C 904.044,747.063 895.544,747.563 887,747.5C 877.914,747.704 868.914,747.037 860,745.5C 844.521,746.144 829.021,746.811 813.5,747.5C 817.231,777.556 821.731,807.556 827,837.5C 827.667,844.833 827.667,852.167 827,859.5C 820.772,876.537 808.605,883.704 790.5,881C 774.376,875.279 766.876,863.779 768,846.5C 764.291,829.02 761.625,811.353 760,793.5C 758.384,789.653 757.384,785.653 757,781.5C 756.535,769.797 755.702,758.13 754.5,746.5C 710.832,746.667 667.165,746.5 623.5,746C 606.463,739.772 599.296,727.605 602,709.5C 605.167,698.333 612.333,691.167 623.5,688C 663.832,687.5 704.165,687.333 744.5,687.5C 744.357,662.2 744.191,636.867 744,611.5C 741.633,598.596 740.966,585.596 742,572.5C 745.35,561.318 752.517,553.984 763.5,550.5 Z"/></g>
</svg>
