<?xml version="1.0" encoding="UTF-8"?>
<!DOCTYPE svg PUBLIC "-//W3C//DTD SVG 1.1//EN" "http://www.w3.org/Graphics/SVG/1.1/DTD/svg11.dtd">
<svg xmlns="http://www.w3.org/2000/svg" version="1.1" width="4096px" height="4096px" style="shape-rendering:geometricPrecision; text-rendering:geometricPrecision; image-rendering:optimizeQuality; fill-rule:evenodd; clip-rule:evenodd" xmlns:xlink="http://www.w3.org/1999/xlink">
<g><path style="opacity:1" fill="#fefffe" d="M 1512.5,154.5 C 1538.17,153.973 1563.84,154.64 1589.5,156.5C 1602.99,155.698 1616.49,155.031 1630,154.5C 1648,155.833 1666,155.833 1684,154.5C 1697.51,155.031 1711.01,155.698 1724.5,156.5C 1737.99,155.698 1751.49,155.031 1765,154.5C 1792.03,155.318 1819.03,155.318 1846,154.5C 1855.95,154.712 1865.78,155.878 1875.5,158C 1913.43,168.398 1950.43,181.398 1986.5,197C 2005.96,201.159 2025.3,205.826 2044.5,211C 2054.11,215.139 2063.45,219.806 2072.5,225C 2102.47,228.86 2131.8,235.527 2160.5,245C 2165.62,247.06 2170.62,249.393 2175.5,252C 2218.07,261.312 2260.07,272.645 2301.5,286C 2322.95,292.488 2341.62,303.488 2357.5,319C 2392.39,324.527 2427.05,331.194 2461.5,339C 2474.29,343.061 2486.29,348.728 2497.5,356C 2510.44,359.254 2523.44,362.254 2536.5,365C 2547.87,369.851 2559.54,373.851 2571.5,377C 2591.25,387.737 2611.25,398.07 2631.5,408C 2653.04,414.403 2674.38,421.403 2695.5,429C 2709.83,432.667 2724.17,436.333 2738.5,440C 2756.25,442.541 2773.92,445.541 2791.5,449C 2800.32,451.719 2808.82,455.219 2817,459.5C 2827.16,458.297 2837.33,458.464 2847.5,460C 2865.15,462.796 2882.81,465.463 2900.5,468C 2921.41,472.181 2942.41,475.848 2963.5,479C 2978.73,482.578 2993.73,486.911 3008.5,492C 3037.55,507.194 3066.89,521.861 3096.5,536C 3114.24,546.406 3128.74,560.239 3140,577.5C 3147.52,591.745 3154.86,606.078 3162,620.5C 3182.31,676.644 3171.81,726.144 3130.5,769C 3089.99,803.634 3044.33,812.634 2993.5,796C 2968.48,786.299 2948.15,770.633 2932.5,749C 2924.68,745.59 2917.01,741.923 2909.5,738C 2881.26,732.825 2852.92,728.158 2824.5,724C 2816.66,723.619 2808.83,723.785 2801,724.5C 2794.48,724.298 2787.98,723.798 2781.5,723C 2767.21,719.51 2752.87,716.177 2738.5,713C 2730.93,710.586 2723.59,707.586 2716.5,704C 2701.53,701.173 2686.53,698.506 2671.5,696C 2651.5,690.667 2631.5,685.333 2611.5,680C 2581,669.791 2550.66,659.125 2520.5,648C 2503.06,639.779 2486.06,630.779 2469.5,621C 2449.34,616.627 2429.34,611.627 2409.5,606C 2396.78,601.469 2384.44,596.136 2372.5,590C 2333.19,583.147 2293.86,576.48 2254.5,570C 2242.21,566.02 2230.54,560.686 2219.5,554C 2207.35,544.424 2195.01,535.09 2182.5,526C 2169.91,522.186 2157.24,518.686 2144.5,515.5C 2111.32,518.205 2081.32,509.705 2054.5,490C 2035.53,486.173 2016.53,482.507 1997.5,479C 1980.21,473.902 1963.54,467.236 1947.5,459C 1934.56,455.746 1921.56,452.746 1908.5,450C 1892.83,443.667 1877.17,437.333 1861.5,431C 1850.36,426.732 1839.03,423.066 1827.5,420C 1731.5,419.352 1635.5,419.352 1539.5,420C 1524.86,427.602 1509.52,433.102 1493.5,436.5C 1495.39,444.874 1496.39,453.374 1496.5,462C 1496.05,474.148 1495.88,486.314 1496,498.5C 1493.64,519.508 1489.97,540.175 1485,560.5C 1512.46,569.983 1534.8,586.316 1552,609.5C 1567.27,621.101 1579.27,635.435 1588,652.5C 1602.75,665.603 1614.09,681.269 1622,699.5C 1631.03,710.223 1638.03,722.223 1643,735.5C 1649.67,743.5 1657,750.833 1665,757.5C 1675.91,769.645 1684.58,783.311 1691,798.5C 1704.26,811.996 1714.26,827.663 1721,845.5C 1725.38,850.211 1729.38,855.211 1733,860.5C 1744.05,869.95 1753.72,880.617 1762,892.5C 1776.86,917.878 1789.86,944.211 1801,971.5C 1803.58,974.997 1805.92,978.664 1808,982.5C 1811.5,985.333 1815,988.167 1818.5,991C 1828.19,1001.69 1838.19,1012.02 1848.5,1022C 1853.95,1026.15 1859.11,1030.65 1864,1035.5C 1872.9,1046.3 1881.07,1057.64 1888.5,1069.5C 1911.77,1085.69 1928.6,1107.02 1939,1133.5C 1965.26,1155.14 1981.59,1182.8 1988,1216.5C 2010.28,1235.7 2024.95,1259.7 2032,1288.5C 2034.72,1291.56 2037.06,1294.89 2039,1298.5C 2048.47,1319.44 2058.47,1340.11 2069,1360.5C 2073.89,1372.75 2077.23,1385.41 2079,1398.5C 2087.19,1419.03 2095.85,1439.36 2105,1459.5C 2108,1473.83 2111,1488.17 2114,1502.5C 2115.15,1517.98 2115.99,1533.48 2116.5,1549C 2115.17,1630 2115.17,1711 2116.5,1792C 2116.53,1822.2 2113.36,1852.03 2107,1881.5C 2105.53,1886.24 2103.86,1890.91 2102,1895.5C 2094.33,1909.83 2086.67,1924.17 2079,1938.5C 2068.64,1954.36 2055.48,1967.36 2039.5,1977.5C 2027.72,1992.45 2013.38,2004.29 1996.5,2013C 1988.39,2022.44 1979.06,2030.44 1968.5,2037C 1963.38,2044.45 1957.88,2051.62 1952,2058.5C 1940.51,2067.99 1929.68,2078.16 1919.5,2089C 1914.44,2093.06 1909.11,2096.72 1903.5,2100C 1887.28,2107.23 1871.28,2114.89 1855.5,2123C 1843.72,2133.42 1830.39,2141.42 1815.5,2147C 1807.13,2158.37 1797.13,2168.04 1785.5,2176C 1781.67,2180.5 1777.83,2185 1774,2189.5C 1762.81,2199.69 1751.98,2210.19 1741.5,2221C 1735.84,2225.5 1729.84,2229.5 1723.5,2233C 1715.42,2241.08 1706.75,2248.42 1697.5,2255C 1680.87,2265.28 1663.54,2274.28 1645.5,2282C 1628.65,2300.35 1610.98,2317.85 1592.5,2334.5C 1600.92,2343.19 1608.26,2352.69 1614.5,2363C 1641.97,2372.82 1664.63,2389.15 1682.5,2412C 1695.45,2418.14 1708.12,2424.81 1720.5,2432C 1732.13,2439.96 1742.13,2449.63 1750.5,2461C 1768.78,2469.61 1784.44,2481.61 1797.5,2497C 1820.98,2506.16 1840.81,2520.32 1857,2539.5C 1866.26,2554.36 1876.26,2568.69 1887,2582.5C 1901.03,2604.61 1908.2,2628.77 1908.5,2655C 1908.36,2704.49 1908.03,2753.99 1907.5,2803.5C 1909.28,2823.5 1909.45,2843.5 1908,2863.5C 1904.59,2883.74 1897.26,2902.41 1886,2919.5C 1874.68,2933.15 1863.01,2946.49 1851,2959.5C 1844.54,2970.66 1840.54,2982.66 1839,2995.5C 1834.52,3009.45 1828.19,3022.45 1820,3034.5C 1814.17,3051.84 1805.5,3067.51 1794,3081.5C 1791.34,3093.48 1787.01,3104.81 1781,3115.5C 1781.91,3141.97 1776.07,3166.81 1763.5,3190C 1764.44,3252.78 1764.61,3315.62 1764,3378.5C 1766.72,3384.01 1769.06,3389.67 1771,3395.5C 1784.68,3410.22 1794.68,3427.22 1801,3446.5C 1807.07,3456.92 1812.74,3467.58 1818,3478.5C 1820.4,3484.36 1822.4,3490.36 1824,3496.5C 1831.88,3511.59 1839.21,3526.92 1846,3542.5C 1858.38,3547.93 1869.88,3554.77 1880.5,3563C 1910.68,3568.88 1940.01,3577.54 1968.5,3589C 2006.63,3601.6 2044.96,3613.6 2083.5,3625C 2096.28,3630.26 2109.28,3634.93 2122.5,3639C 2158.21,3649.85 2193.88,3660.85 2229.5,3672C 2278.33,3686.63 2327.99,3697.3 2378.5,3704C 2413.6,3711.31 2448.94,3717.31 2484.5,3722C 2523,3724.85 2561.5,3725.35 2600,3723.5C 2604.52,3723.64 2609.02,3723.97 2613.5,3724.5C 2630.15,3723.3 2646.82,3722.8 2663.5,3723C 2682.7,3724.3 2700.7,3729.63 2717.5,3739C 2739.5,3738.51 2761.5,3738.51 2783.5,3739C 2775.89,3735.86 2768.55,3732.19 2761.5,3728C 2743.28,3720.72 2724.94,3713.72 2706.5,3707C 2681.29,3695.79 2660.96,3678.79 2645.5,3656C 2621.72,3645.53 2600.05,3631.86 2580.5,3615C 2562.22,3597.35 2549.72,3576.19 2543,3551.5C 2535.16,3538.49 2527.83,3525.15 2521,3511.5C 2518.07,3504.36 2515.73,3497.03 2514,3489.5C 2508.81,3480.45 2504.14,3471.11 2500,3461.5C 2495.65,3444.75 2490.98,3428.08 2486,3411.5C 2480.81,3399.96 2475.14,3388.63 2469,3377.5C 2460.53,3353.42 2452.86,3329.09 2446,3304.5C 2444.27,3295.9 2442.94,3287.23 2442,3278.5C 2438.01,3270.19 2435.01,3261.52 2433,3252.5C 2412.01,3219.54 2404.84,3183.7 2411.5,3145C 2410.56,3128.17 2410.4,3111.33 2411,3094.5C 2406.37,3080.35 2402.37,3066.02 2399,3051.5C 2396.88,3041.78 2395.71,3031.95 2395.5,3022C 2395.64,2972.51 2395.97,2923.01 2396.5,2873.5C 2395.3,2856.85 2394.8,2840.18 2395,2823.5C 2397.55,2805.61 2401.22,2787.95 2406,2770.5C 2407.47,2765.76 2409.14,2761.09 2411,2756.5C 2410.58,2721.37 2410.42,2686.2 2410.5,2651C 2410.74,2625.55 2417.57,2602.05 2431,2580.5C 2437.64,2556.54 2448.98,2535.21 2465,2516.5C 2475.55,2504.95 2487.05,2494.45 2499.5,2485C 2526.9,2467.65 2556.9,2459.32 2589.5,2460C 2615.18,2457.97 2640.85,2458.14 2666.5,2460.5C 2687.32,2458.82 2708.15,2458.48 2729,2459.5C 2763.34,2453.48 2795.84,2458.65 2826.5,2475C 2841.49,2476.05 2856.49,2477.05 2871.5,2478C 2886.31,2480.27 2900.31,2484.94 2913.5,2492C 2938.23,2489.68 2961.9,2493.68 2984.5,2504C 2998.43,2508.25 3012.43,2512.25 3026.5,2516C 3033.62,2519.06 3040.62,2522.39 3047.5,2526C 3061.18,2528.34 3074.18,2532.67 3086.5,2539C 3106.71,2540.63 3125.71,2546.29 3143.5,2556C 3160.94,2560.26 3178.28,2564.93 3195.5,2570C 3220.5,2570.17 3244.17,2575.83 3266.5,2587C 3273.51,2587.32 3280.51,2587.82 3287.5,2588.5C 3309.99,2587.97 3332.49,2587.64 3355,2587.5C 3373.29,2589.09 3391.45,2591.59 3409.5,2595C 3419.31,2597.61 3428.98,2600.61 3438.5,2604C 3450.83,2605 3463.17,2606 3475.5,2607C 3505.46,2612.6 3535.46,2617.93 3565.5,2623C 3576.28,2625.26 3586.45,2629.09 3596,2634.5C 3596.37,2603.74 3595.87,2572.91 3594.5,2542C 3594.61,2510.17 3594.94,2478.33 3595.5,2446.5C 3546.55,2443.31 3509.38,2420.97 3484,2379.5C 3479.5,2375.67 3475,2371.83 3470.5,2368C 3449.26,2361.55 3430.26,2351.22 3413.5,2337C 3394.62,2332.22 3377.28,2324.22 3361.5,2313C 3338.99,2303.75 3317.66,2292.41 3297.5,2279C 3289.7,2271.26 3280.7,2265.26 3270.5,2261C 3238.06,2238.99 3218.56,2208.49 3212,2169.5C 3200.62,2149.16 3194.79,2127.33 3194.5,2104C 3195.63,2088.5 3196.79,2073 3198,2057.5C 3200.44,2042.19 3205.27,2027.69 3212.5,2014C 3211.39,2007.2 3211.22,2000.37 3212,1993.5C 3213.67,1981.83 3215.33,1970.17 3217,1958.5C 3221.66,1931.52 3232.99,1907.85 3251,1887.5C 3262.19,1877.31 3273.02,1866.81 3283.5,1856C 3295.4,1846.88 3308.4,1839.55 3322.5,1834C 3330.47,1826.69 3338.47,1819.36 3346.5,1812C 3358.03,1804.73 3369.03,1796.73 3379.5,1788C 3396,1778.92 3412.33,1769.59 3428.5,1760C 3447.03,1741.8 3465.2,1723.3 3483,1704.5C 3483.61,1701.18 3484.11,1697.85 3484.5,1694.5C 3482.97,1672 3482.31,1649.5 3482.5,1627C 3483.03,1613.49 3483.7,1599.99 3484.5,1586.5C 3483.91,1581.51 3483.41,1576.51 3483,1571.5C 3478.79,1566.95 3474.95,1562.12 3471.5,1557C 3459.49,1555.33 3447.49,1555.33 3435.5,1557C 3428.83,1560.78 3421.83,1563.78 3414.5,1566C 3406.89,1574.95 3398.55,1583.28 3389.5,1591C 3382.5,1596.82 3374.83,1601.65 3366.5,1605.5C 3351.91,1637.25 3328.58,1660.09 3296.5,1674C 3286.93,1677.08 3277.6,1680.75 3268.5,1685C 3259.7,1688.12 3250.7,1690.45 3241.5,1692C 3221.82,1699.92 3201.82,1706.92 3181.5,1713C 3171.78,1715.12 3161.95,1716.29 3152,1716.5C 3106.97,1715.68 3061.97,1715.68 3017,1716.5C 3004.84,1715.9 2992.67,1715.4 2980.5,1715C 2946.2,1711.76 2917.03,1697.93 2893,1673.5C 2883.62,1661.78 2874.62,1649.78 2866,1637.5C 2861.16,1629.82 2856.82,1621.82 2853,1613.5C 2841.29,1604.79 2831.29,1594.46 2823,1582.5C 2808.5,1556.15 2792.5,1530.82 2775,1506.5C 2769.45,1496.07 2764.45,1485.41 2760,1474.5C 2745.76,1455.46 2736.76,1434.13 2733,1410.5C 2711.02,1368.24 2692.36,1324.57 2677,1279.5C 2663.67,1260.17 2655.34,1238.84 2652,1215.5C 2641.65,1195.45 2636.32,1174.12 2636,1151.5C 2620.46,1122.8 2615.96,1092.47 2622.5,1060.5C 2481.41,1060.11 2340.41,1059.77 2199.5,1059.5C 2192.18,1063.64 2185.51,1068.8 2179.5,1075C 2129.29,1111.19 2077.29,1113.85 2023.5,1083C 1978.92,1050.98 1959.42,1007.48 1965,952.5C 1967.69,935.441 1973.35,919.441 1982,904.5C 1993.45,861.725 2019.28,831.225 2059.5,813C 2070.83,808.667 2082.17,804.333 2093.5,800C 2105.74,796.426 2118.24,794.592 2131,794.5C 2144.51,795.031 2158.01,795.698 2171.5,796.5C 2270.5,795.167 2369.5,795.167 2468.5,796.5C 2481.99,795.698 2495.49,795.031 2509,794.5C 2527,795.833 2545,795.833 2563,794.5C 2576.51,795.031 2590.01,795.698 2603.5,796.5C 2656.17,796.333 2708.83,796.167 2761.5,796C 2782.88,799.346 2803.88,804.346 2824.5,811C 2844.69,810.726 2864.85,810.559 2885,810.5C 2900.17,811.868 2915.34,813.368 2930.5,815C 2954.2,820.873 2977.86,826.873 3001.5,833C 3009.07,835.414 3016.41,838.414 3023.5,842C 3043.4,843.447 3063.07,846.447 3082.5,851C 3090.77,852.869 3098.77,855.536 3106.5,859C 3136.48,862.195 3166.14,867.195 3195.5,874C 3207.2,877.207 3218.87,880.54 3230.5,884C 3248.63,892.713 3266.96,901.047 3285.5,909C 3308.13,910.654 3329.13,917.321 3348.5,929C 3355.64,930.934 3362.64,933.268 3369.5,936C 3385.5,944.667 3401.5,953.333 3417.5,962C 3426.58,969.206 3435.25,976.873 3443.5,985C 3456.33,993.583 3469.33,1001.92 3482.5,1010C 3487.68,1013.76 3492.68,1017.76 3497.5,1022C 3526.86,1051.03 3555.86,1080.36 3584.5,1110C 3602.47,1123.98 3615.97,1141.48 3625,1162.5C 3629.07,1175.72 3633.74,1188.72 3639,1201.5C 3646,1211.5 3653,1221.5 3660,1231.5C 3666.17,1242.67 3671.17,1254.34 3675,1266.5C 3687.12,1282.62 3698.45,1299.29 3709,1316.5C 3719.75,1333.74 3726.75,1352.4 3730,1372.5C 3735.81,1385.45 3742.14,1398.11 3749,1410.5C 3753.42,1421.85 3756.75,1433.52 3759,1445.5C 3765.34,1456.85 3770.01,1468.85 3773,1481.5C 3776.24,1508.03 3781.91,1534.03 3790,1559.5C 3795.78,1568.73 3800.78,1578.39 3805,1588.5C 3814.68,1614.23 3822.35,1640.56 3828,1667.5C 3833.1,1676.37 3837.1,1685.7 3840,1695.5C 3849.47,1733.88 3856.3,1772.71 3860.5,1812C 3859.68,1929.02 3859.68,2046.02 3860.5,2163C 3859.97,2176.51 3859.3,2190.01 3858.5,2203.5C 3859.3,2216.99 3859.97,2230.49 3860.5,2244C 3860.5,2297.95 3860.5,2351.95 3860.5,2406C 3859.97,2419.51 3859.3,2433.01 3858.5,2446.5C 3859.8,2473.84 3859.8,2501.17 3858.5,2528.5C 3859.3,2541.99 3859.97,2555.49 3860.5,2569C 3860.36,2582.49 3860.03,2595.99 3859.5,2609.5C 3860.77,2624.81 3861.27,2640.15 3861,2655.5C 3853.86,2715.2 3846.53,2774.87 3839,2834.5C 3823.14,2883.09 3807.47,2931.76 3792,2980.5C 3786.7,2994.44 3779.37,3007.11 3770,3018.5C 3764.92,3031.42 3759.25,3044.08 3753,3056.5C 3751.06,3060.11 3748.72,3063.44 3746,3066.5C 3744.3,3088.59 3737.97,3109.26 3727,3128.5C 3724.31,3145.56 3718.65,3161.56 3710,3176.5C 3705.16,3184.18 3700.82,3192.18 3697,3200.5C 3690.33,3209.17 3684.66,3218.5 3680,3228.5C 3677,3232.5 3674,3236.5 3671,3240.5C 3649.25,3279.56 3625.92,3317.56 3601,3354.5C 3590.13,3366.04 3578.63,3376.87 3566.5,3387C 3519.33,3435.5 3471.5,3483.33 3423,3530.5C 3416.42,3537.99 3411.09,3546.32 3407,3555.5C 3398.04,3569.46 3386.71,3581.12 3373,3590.5C 3364.33,3601.83 3355.67,3613.17 3347,3624.5C 3332.36,3636.46 3320.7,3650.8 3312,3667.5C 3303.94,3676.63 3296.6,3686.29 3290,3696.5C 3286.02,3701.65 3281.52,3706.32 3276.5,3710.5C 3266.52,3766.31 3234.85,3803.47 3181.5,3822C 3166.5,3837 3151.5,3852 3136.5,3867C 3125.67,3874.74 3115.67,3883.41 3106.5,3893C 3094.36,3903.91 3080.69,3912.58 3065.5,3919C 3042.17,3949.01 3011.51,3966.68 2973.5,3972C 2960.27,3979.78 2946.6,3986.78 2932.5,3993C 2923.7,3996.12 2914.7,3998.45 2905.5,4000C 2890.69,4001.76 2875.86,4003.26 2861,4004.5C 2798.03,4003.68 2735.03,4003.68 2672,4004.5C 2650.24,4004.27 2629.74,3999.1 2610.5,3989C 2558.81,3990.16 2507.14,3988.83 2455.5,3985C 2419.29,3980.18 2383.29,3974.18 2347.5,3967C 2323.44,3963.72 2299.44,3960.05 2275.5,3956C 2237.55,3947.76 2199.89,3938.43 2162.5,3928C 2119.81,3913.66 2076.81,3900.33 2033.5,3888C 2008.36,3878.07 1982.7,3869.73 1956.5,3863C 1919.5,3850.67 1882.5,3838.33 1845.5,3826C 1833.89,3823.67 1822.22,3821.67 1810.5,3820C 1800.22,3817.46 1790.22,3814.13 1780.5,3810C 1725.87,3814.84 1682.21,3795.51 1649.5,3752C 1606.12,3736.21 1562.45,3721.21 1518.5,3707C 1479.68,3685.76 1441.34,3663.76 1403.5,3641C 1333.01,3605.92 1262.68,3570.59 1192.5,3535C 1176.11,3525.3 1162.45,3512.63 1151.5,3497C 1121.52,3476 1090.85,3456 1059.5,3437C 1044.01,3426.09 1028.34,3415.42 1012.5,3405C 1008.83,3402 1005.17,3399 1001.5,3396C 990.167,3388.67 978.833,3381.33 967.5,3374C 943.448,3355.61 919.115,3337.61 894.5,3320C 853.745,3281.95 811.745,3245.28 768.5,3210C 759.693,3201.86 750.859,3193.69 742,3185.5C 732.667,3173.5 723.333,3161.5 714,3149.5C 710.159,3143.82 706.826,3137.82 704,3131.5C 699.288,3126.46 694.955,3121.12 691,3115.5C 681,3100.83 671,3086.17 661,3071.5C 652.667,3058.17 644.333,3044.83 636,3031.5C 632.333,3027.17 628.667,3022.83 625,3018.5C 613.292,3009.79 603.292,2999.46 595,2987.5C 586.333,2971.5 577.667,2955.5 569,2939.5C 563.946,2926.95 560.612,2913.95 559,2900.5C 554.053,2889 548.72,2877.66 543,2866.5C 531.625,2858.13 521.959,2848.13 514,2836.5C 504.868,2822.68 496.535,2808.35 489,2793.5C 484.928,2780.28 480.261,2767.28 475,2754.5C 469.822,2734.79 464.489,2715.12 459,2695.5C 438.003,2670.81 427.003,2642.14 426,2609.5C 419.066,2587.36 411.732,2565.36 404,2543.5C 400.618,2529.68 398.284,2515.68 397,2501.5C 393.127,2487.13 389.127,2472.8 385,2458.5C 382.234,2440.07 380.067,2421.57 378.5,2403C 378.5,2385 378.5,2367 378.5,2349C 379.031,2335.49 379.698,2321.99 380.5,2308.5C 380.5,2254.5 380.5,2200.5 380.5,2146.5C 378.211,2120.85 378.045,2095.18 380,2069.5C 381.614,2057.1 383.614,2044.76 386,2032.5C 389.883,2016.75 393.383,2000.92 396.5,1985C 393.851,1958.17 393.851,1931.34 396.5,1904.5C 396.5,1868.5 396.5,1832.5 396.5,1796.5C 394.715,1776.5 394.549,1756.5 396,1736.5C 399,1721.83 402,1707.17 405,1692.5C 409.042,1683.55 411.542,1674.21 412.5,1664.5C 409.802,1644.54 409.302,1624.54 411,1604.5C 412.987,1595.89 414.653,1587.22 416,1578.5C 419.461,1563.78 423.128,1549.12 427,1534.5C 430.174,1517.47 433.507,1500.47 437,1483.5C 446.667,1454.83 456.333,1426.17 466,1397.5C 472.148,1381.86 480.815,1367.86 492,1355.5C 495.394,1340.99 499.394,1326.65 504,1312.5C 515.061,1282.65 525.727,1252.65 536,1222.5C 543.475,1207.08 551.141,1191.75 559,1176.5C 565.582,1167.25 572.916,1158.58 581,1150.5C 590.587,1119.08 602.92,1088.74 618,1059.5C 625.086,1049.67 631.419,1039.33 637,1028.5C 655.066,1005.37 672.4,981.699 689,957.5C 693.791,945.338 698.125,933.005 702,920.5C 712.474,898.884 723.474,877.551 735,856.5C 754,828.5 773,800.5 792,772.5C 799.926,757.32 810.26,743.987 823,732.5C 826.51,722.478 830.843,712.812 836,703.5C 852.167,674.488 869.833,646.488 889,619.5C 904.897,603.71 918.897,586.376 931,567.5C 937.426,558.984 944.093,550.651 951,542.5C 960.629,517.897 975.629,497.231 996,480.5C 1004.26,461.627 1015.26,444.627 1029,429.5C 1038.89,407.047 1053.55,388.38 1073,373.5C 1085.06,348.775 1103.23,329.941 1127.5,317C 1138.5,306 1149.5,295 1160.5,284C 1167.63,277.601 1175.3,271.935 1183.5,267C 1198.65,259.923 1213.65,252.59 1228.5,245C 1239.85,240.931 1251.51,238.264 1263.5,237C 1291.82,221.009 1320.82,206.342 1350.5,193C 1373.2,185.323 1396.2,178.656 1419.5,173C 1429.08,171.075 1438.75,169.742 1448.5,169C 1454.64,166.398 1460.97,164.398 1467.5,163C 1482.61,159.964 1497.61,157.131 1512.5,154.5 Z"/></g>
</svg>
